<svg version="1.1" xmlns="http://www.w3.org/2000/svg" xmlns:xlink="http://www.w3.org/1999/xlink" width="12" height="12" viewBox="0 0 12 12"><g id="ic_edit"><path id="edit-icon" d="M6.190,3.562 C6.190,3.562 1.625,8.122 1.625,8.122 C1.382,8.337 1.231,8.637 1.207,8.912 C1.207,8.912 1.207,10.792 1.207,10.792 C1.207,10.792 3.046,10.793 3.046,10.793 C3.367,10.770 3.666,10.621 3.905,10.347 C3.905,10.347 8.444,5.813 8.444,5.813 L6.190,3.562 zM7.039,2.714 L9.292,4.965 C9.292,4.965 10.730,3.530 10.730,3.530 C10.781,3.478 10.811,3.408 10.811,3.334 C10.811,3.261 10.781,3.191 10.730,3.139 C10.730,3.139 8.867,1.278 8.867,1.278 C8.815,1.226 8.745,1.197 8.672,1.197 C8.599,1.197 8.529,1.226 8.478,1.278 C8.478,1.278 7.039,2.714 7.039,2.714 zM8.672,-0.002 C9.066,-0.002 9.442,0.154 9.717,0.431 C9.717,0.431 11.578,2.291 11.578,2.291 C11.856,2.567 12.012,2.943 12.012,3.334 C12.012,3.726 11.856,4.101 11.578,4.378 C11.578,4.378 4.783,11.164 4.783,11.164 C4.363,11.648 3.770,11.944 3.089,11.991 C3.089,11.991 0.007,11.991 0.007,11.991 L0.007,11.391 C0.007,11.391 0.009,8.864 0.009,8.864 C0.060,8.232 0.354,7.644 0.803,7.249 C0.803,7.249 7.627,0.432 7.627,0.432 C7.904,0.154 8.280,-0.002 8.672,-0.002 z" fill="#9297B7" /></g></svg>