<svg width="30" height="30" viewBox="0 0 30 30" fill="none" xmlns="http://www.w3.org/2000/svg">
<path d="M24.5472 14.2561L6.23565 5.08802C6.09213 5.01615 5.93093 4.98735 5.77144 5.0051C5.61195 5.02284 5.46099 5.08637 5.33673 5.18804C5.21805 5.28763 5.12948 5.4184 5.08096 5.56564C5.03243 5.71287 5.02589 5.87075 5.06205 6.0215L7.52578 14.9979L5.02876 23.9493C4.99482 24.0752 4.99086 24.2074 5.01719 24.3351C5.04353 24.4628 5.09942 24.5825 5.18038 24.6847C5.26134 24.7868 5.3651 24.8685 5.48333 24.9232C5.60156 24.9779 5.73095 25.004 5.8611 24.9995C5.9914 24.9987 6.11969 24.9673 6.23565 24.9078L24.5472 15.7397C24.6835 15.6698 24.7979 15.5635 24.8778 15.4326C24.9577 15.3017 25 15.1513 25 14.9979C25 14.8445 24.9577 14.6941 24.8778 14.5632C24.7979 14.4323 24.6835 14.3261 24.5472 14.2561ZM7.15123 22.5908L8.99071 15.8314L14 15L8.99071 14.1645L7.15123 7.40506L22.3082 14.9979L7.15123 22.5908Z" fill="#878CAC" stroke="#878CAC"/>
</svg>
