<svg width="16" height="16" viewBox="0 0 16 16" fill="none" xmlns="http://www.w3.org/2000/svg">
<path fill-rule="evenodd" clip-rule="evenodd" d="M13.317 8.70089H8.70089V13.317L10.308 11.7098L11.2991 12.7009L8 16L4.70089 12.7009L5.69196 11.7098L7.29911 13.317V8.70089H2.68302L4.29017 10.308L3.29911 11.2991L0 8L3.29911 4.70089L4.29017 5.69196L2.68302 7.29911H7.29911V2.68302L5.69196 4.29017L4.70089 3.29911L8 0L11.2991 3.29911L10.308 4.29017L8.70089 2.68302V7.29911H13.317L11.7098 5.69196L12.7009 4.70089L16 8L12.7009 11.2991L11.7098 10.308L13.317 8.70089Z" fill="#878CAC"/>
</svg>
