<svg width="30" height="30" viewBox="0 0 30 30" fill="none" xmlns="http://www.w3.org/2000/svg">
<path d="M15 5.8125C12.2861 5.8125 10.0781 8.02045 10.0781 10.7344C10.0781 12.4192 10.9278 13.9695 12.351 14.8813C13.8042 15.8123 15.5881 15.9113 17.2459 15.1486C17.5987 14.9863 17.7531 14.5687 17.5908 14.216C17.4285 13.8632 17.011 13.7088 16.6582 13.8711C15.446 14.4288 14.1525 14.3654 13.1096 13.6972C12.0919 13.0452 11.4844 11.9376 11.4844 10.7344C11.4844 8.79586 13.0615 7.21875 15 7.21875C16.9385 7.21875 18.5156 8.79586 18.5156 10.7344C18.5156 11.1221 18.2002 11.4375 17.8125 11.4375C17.4582 11.4375 17.1273 11.1688 17.1095 10.7451C17.1094 10.7415 17.1094 10.7379 17.1094 10.7344C17.1094 9.57127 16.1631 8.625 15 8.625C13.8369 8.625 12.8906 9.57127 12.8906 10.7344C12.8906 11.8975 13.8369 12.8437 15 12.8437C15.5398 12.8437 16.0327 12.6397 16.4062 12.305C16.7797 12.6397 17.2726 12.8437 17.8125 12.8437C18.9756 12.8437 19.9219 11.8975 19.9219 10.7344C19.9219 8.02045 17.7139 5.8125 15 5.8125ZM15.6932 10.8472C15.639 11.1813 15.3492 11.4375 15 11.4375C14.6123 11.4375 14.2969 11.1221 14.2969 10.7344C14.2969 10.3467 14.6123 10.0312 15 10.0312C15.3605 10.0312 15.6581 10.3041 15.6982 10.654C15.6877 10.7179 15.686 10.7829 15.6932 10.8472Z" fill="#878CAC" stroke="#878CAC" stroke-width="0.3"/>
<path d="M25.5468 12.2332C25.5466 12.0514 25.4734 11.8697 25.3409 11.7372L22.7344 9.13064V3.70312C22.7344 3.31481 22.4196 3 22.0312 3H7.96875C7.58044 3 7.26562 3.31481 7.26562 3.70312V9.13064L4.65909 11.7372C4.65666 11.7396 4.65459 11.7423 4.6522 11.7448C4.52044 11.8806 4.45345 12.0593 4.45317 12.2332C4.45317 12.2337 4.45312 12.2341 4.45312 12.2346V24.8906C4.45312 26.0552 5.40075 27 6.5625 27H23.4375C24.6018 27 25.5469 26.0528 25.5469 24.8906V12.2346C25.5469 12.2341 25.5468 12.2337 25.5468 12.2332ZM22.7344 11.1194L23.8494 12.2344L22.7344 13.3494V11.1194ZM8.67188 9.42211C8.67188 9.42197 8.67188 9.42178 8.67188 9.42164V4.40625H21.3281V9.42164C21.3281 9.42178 21.3281 9.42197 21.3281 9.42211V14.7556L17.5213 18.5625H12.4787L8.67188 14.7556V9.42211ZM7.26562 11.1194V13.3494L6.15061 12.2344L7.26562 11.1194ZM5.85938 24.5994V13.9319L11.1931 19.2656L5.85938 24.5994ZM6.85378 25.5938L12.4787 19.9688H17.5213L23.1462 25.5938H6.85378ZM24.1406 24.5994L18.8069 19.2656L24.1406 13.9319V24.5994Z" fill="#878CAC" stroke="#878CAC" stroke-width="0.3"/>
</svg>
