<svg id="Layer_1" data-name="Layer 1" xmlns="http://www.w3.org/2000/svg" viewBox="0 0 54 61.72"><defs><style>.cls-1{fill:#95c675;}.cls-2{fill:#79b259;}.cls-3{fill:#55932c;}.cls-4{fill:#4a7a2b;}.cls-5{fill:#4c822a;}</style></defs><title>ic_shopify</title><path class="cls-1" d="M46.76,11.52l-4.94-.37L38.18,7.51a1.5,1.5,0,0,0-1.34-.17L35,7.91c-1.1-3.17-3-6.08-6.43-6.08h-.29A4.12,4.12,0,0,0,25.09,0c-7.91,0-11.7,10-12.88,15-3.08,1-5.27,1.64-5.55,1.73-1.72.54-1.77.59-2,2.22C4.49,20.19,0,55.12,0,55.12l35,6.6,19-4.13S47.34,12.33,47.3,12A.59.59,0,0,0,46.76,11.52ZM28,9.74v.34L21.91,12c1.18-4.57,3.39-6.78,5.32-7.62A14.82,14.82,0,0,1,28,9.74Zm-3.15-7.6a1.75,1.75,0,0,1,1,.34c-2.54,1.2-5.25,4.22-6.4,10.26l-4.84,1.51C16,9.64,19.19,2.14,24.88,2.14Zm1.36,26.91A10.71,10.71,0,0,0,21.68,28c-3.69,0-3.87,2.32-3.87,2.91,0,3.19,8.29,4.42,8.29,11.9,0,5.89-3.72,9.68-8.73,9.68a12.13,12.13,0,0,1-9.09-3.76l1.61-5.35s3.16,2.73,5.83,2.73a2.36,2.36,0,0,0,2.45-2.39c0-4.16-6.8-4.35-6.8-11.2,0-5.76,4.12-11.34,12.43-11.34a10.18,10.18,0,0,1,4.78.92ZM30.11,9.44V8.79A14.63,14.63,0,0,0,29.4,4c1.75.22,2.92,2.23,3.67,4.53Z"/><path class="cls-2" d="M46.76,11.52l-4.94-.37L38.18,7.51a1.5,1.5,0,0,0-1.34-.17L35,7.91c-1.1-3.17-3-6.08-6.43-6.08h-.29A4.12,4.12,0,0,0,25.09,0c-7.91,0-9.87,10-11,15C11,16,8.6,21.23,8.32,21.32c-1.72.54-1.78.59-2,2.22C6.15,24.77,0,55.12,0,55.12l35,6.6,19-4.13S47.34,12.33,47.3,12A.59.59,0,0,0,46.76,11.52ZM28,9.74v.34L21.91,12c1.18-4.57,3.39-6.78,5.32-7.62A14.82,14.82,0,0,1,28,9.74Zm-3.15-7.6a1.75,1.75,0,0,1,1,.34c-2.54,1.2-5.25,4.22-6.4,10.26l-4.84,1.51C16,9.64,19.19,2.14,24.88,2.14Zm1.36,26.91A10.71,10.71,0,0,0,21.68,28c-3.69,0-3.87,2.32-3.87,2.91,0,3.19,8.29,4.42,8.29,11.9,0,5.89-3.72,9.68-8.73,9.68a12.13,12.13,0,0,1-9.09-3.76l1.61-5.35s3.16,2.73,5.83,2.73a2.36,2.36,0,0,0,2.45-2.39c0-4.16-6.8-4.35-6.8-11.2,0-5.76,4.12-11.34,12.43-11.34a10.18,10.18,0,0,1,4.78.92ZM30.11,9.44V8.79A14.63,14.63,0,0,0,29.4,4c1.75.22,2.92,2.23,3.67,4.53Z"/><path class="cls-3" d="M35,61.71l19-4.12S47.34,12.33,47.3,12a.59.59,0,0,0-.54-.5l-4.94-.37L38.18,7.51a1.1,1.1,0,0,0-.75-.25,7.77,7.77,0,0,0-.57,3.54L34.63,61.64Z"/><path class="cls-4" d="M28.58,1.83h-.29A4.12,4.12,0,0,0,25.09,0C17.21,0,13.42,9.87,12.22,15l2.45-.76c1.35-4.61,4.54-12,10.21-12a1.75,1.75,0,0,1,1,.34c-2.53,1.2-5.24,4.21-6.39,10.21l2.43-.75c1.18-4.54,3.38-6.73,5.3-7.56A14.69,14.69,0,0,1,28,9.74c0,.11,0,.21,0,.31l2.08-.64V8.79A14.52,14.52,0,0,0,29.4,4c1.75.21,2.92,2.21,3.67,4.5L35,7.89C33.91,4.73,32,1.83,28.58,1.83Z"/><path class="cls-5" d="M42.61,11.21l-.79-.06L38.18,7.51a1.1,1.1,0,0,0-.75-.25,7.77,7.77,0,0,0-.57,3.54L34.63,61.64l.39.07,10.1-2.19Z"/></svg>