<svg id="Layer_1" data-name="Layer 1" xmlns="http://www.w3.org/2000/svg" viewBox="0 0 53 62"><defs><style>.cls-1{fill:#002f83;}.cls-2{fill:#0b479e;}.cls-3{fill:#1558ba;}.cls-4{fill:#8f9fb5;}</style></defs><title>ic_paypal</title><path class="cls-1" d="M16.59,36.55A3,3,0,0,1,19.33,34H25c11.21,0,20-4.29,22.54-17.35.08-.39.2-1,.2-1,.73-4.83,0-8-2.63-11C42.24,1.34,37,0,30.3,0H10.87A2.77,2.77,0,0,0,8.12,2.32L0,53.16A1.6,1.6,0,0,0,1.67,55h12l3-19Z"/><path class="cls-2" d="M45.14,4.65a11.09,11.09,0,0,0-3.06-2.34L1.69,42.7.19,52.17,46.24,6.12A13.38,13.38,0,0,0,45.14,4.65Z"/><polygon class="cls-2" points="24.59 0 14.69 0 7.31 7.36 5.44 19.14 24.59 0"/><polygon class="cls-2" points="8.64 55 13.67 55 14.62 49.02 8.64 55"/><path class="cls-2" d="M30.12,33.66c9-1.17,15.17-5.41,17.37-16.61,0-.22.15-.69.19-.94Z"/><path class="cls-3" d="M8.12,5.15A2.63,2.63,0,0,1,10.87,3H30.3C37,3,42.24,4.22,45.14,7.5A10.74,10.74,0,0,1,48,14.08c.31-3.9-.44-6.74-2.91-9.52C42.16,1.29,37,0,30.3,0H10.87A2.77,2.77,0,0,0,8.12,2.32L0,53.24a1.52,1.52,0,0,0,.27,1.08Z"/><path class="cls-4" d="M43.06,32.11A20.49,20.49,0,0,1,40.58,34l6.33,6.33A15.35,15.35,0,0,0,49,38Z"/><path class="cls-4" d="M21.67,38H19.92l-.35,2.15,9,9,.25-1.6.12-.67a2.22,2.22,0,0,1,.53-1.11Z"/><path class="cls-4" d="M28.31,37.79c-1.06.09-2.15.21-3.28.21h-.89l6.94,7a2.46,2.46,0,0,1,.26,0h1.51c.83,0,1.63-.11,2.43-.17Z"/><path class="cls-4" d="M48.82,24.31a25.17,25.17,0,0,1-1.5,2.82L52,31.79c.22-.76.42-1.54.59-2.37.07-.4.13-.79.19-1.17Z"/><path class="cls-4" d="M18.31,48.08l-.59,3.73,8.86,8.86a2.6,2.6,0,0,0,.23-.68l.09-.51.39-2.42Z"/><path class="cls-4" d="M49.54,22.57,53,26a13.26,13.26,0,0,0-.65-5l-1.78-1.78A32.19,32.19,0,0,1,49.54,22.57Z"/><path class="cls-4" d="M46.33,28.6a20.32,20.32,0,0,1-2,2.32L50,36.56a19.38,19.38,0,0,0,1.4-2.93Z"/><path class="cls-4" d="M39,34.85a25,25,0,0,1-3,1.3l6.8,6.8a16.93,16.93,0,0,0,2.76-1.56Z"/><polygon class="cls-4" points="16.46 59.77 16.11 62 18.69 62 16.46 59.77"/><path class="cls-4" d="M17.38,53.94l-.58,3.72L21.15,62H24.4a2.44,2.44,0,0,0,.9-.16Z"/><polygon class="cls-4" points="19.23 42.22 18.64 45.95 27.63 54.93 28.22 51.2 19.23 42.22"/><path class="cls-4" d="M34.11,36.74a30.21,30.21,0,0,1-3.58.74l7,7a22.63,22.63,0,0,0,3.5-.82Z"/></svg>