<svg id="Layer_1" data-name="Layer 1" xmlns="http://www.w3.org/2000/svg" viewBox="0 0 62 62"><defs><style>.cls-1{fill:#fb6620;}.cls-2{fill:#ef5830;}.cls-3{fill:#f9a121;}</style></defs><title>ic_blogger</title><path class="cls-1" d="M60.42,24c-1.31-.56-6.92.06-8.48-1.35-1.1-1-1.17-2.85-1.61-5.3-.71-4.11-1-5-1.76-6.65C45.85,4.93,39.32,0,33.39,0H19.65A19.68,19.68,0,0,0,0,19.6V42.44A19.67,19.67,0,0,0,19.65,62H42.23A19.71,19.71,0,0,0,61.88,42.44L62,26.62A3,3,0,0,0,60.42,24ZM19.9,16H30.79a3.51,3.51,0,1,1,0,7H19.9a3.51,3.51,0,1,1,0-7ZM42,46H19.9a4,4,0,0,1,0-8H42a4,4,0,0,1,0,8Z"/><path class="cls-2" d="M60.42,24c-1.31-.56-6.92.06-8.48-1.35a3.2,3.2,0,0,1-.78-1.22,30.08,30.08,0,0,1-7.91,16.81,4.22,4.22,0,0,1,2.53,4A3.81,3.81,0,0,1,42,46h-9.4a27.48,27.48,0,0,1-12.76,2.63A31.5,31.5,0,0,1,0,41.54v.9A19.67,19.67,0,0,0,19.65,62H42.23A19.71,19.71,0,0,0,61.88,42.44L62,26.62A3,3,0,0,0,60.42,24Z"/><path class="cls-3" d="M19.9,26H30.79c2.08,0,3.8-3.52,3.8-5.57,0-.43,0-.23-.25.3A3.74,3.74,0,0,1,30.79,23H19.9a3.77,3.77,0,0,1-3.55-2.29c-.21-.58-.23-.67-.23-.24C16.12,22.52,17.82,26,19.9,26Z"/><path class="cls-3" d="M19.65,2H33.39c5.93,0,12.46,5.14,15.18,10.9.75,1.61,1,2.65,1.76,6.75.44,2.45.51,4.34,1.61,5.36,1.56,1.41,7.17.81,8.48,1.37A2.84,2.84,0,0,1,62,28.79l0-2.18A3,3,0,0,0,60.42,24c-1.31-.56-6.92.07-8.48-1.34-1.1-1-1.17-2.85-1.61-5.3-.71-4.11-1-5-1.76-6.65C45.85,4.93,39.32,0,33.39,0H19.65A19.68,19.68,0,0,0,0,19.6V22C0,11.25,8.84,2,19.65,2Z"/><path class="cls-3" d="M19.9,48H42c2.06,0,3.83-3,3.83-5,0-.42,0-.57-.31.39A4.1,4.1,0,0,1,42,46H19.9a4,4,0,0,1-3.45-2.5c-.31-.88-.36-.91-.36-.48C16.09,45.05,17.82,48,19.9,48Z"/></svg>