<svg id="Layer_1" data-name="Layer 1" xmlns="http://www.w3.org/2000/svg" viewBox="0 0 62.81 62.81"><defs><style>.cls-1{fill:#f26b95;}.cls-2{fill:#e64c87;}.cls-3{fill:#ba3a7b;}</style></defs><title>ic_dribble</title><path id="Dribbble" class="cls-1" d="M60.33,19.18a30.84,30.84,0,0,0-2.89-5.33A31.32,31.32,0,0,0,37.73.64a31.57,31.57,0,0,0-12.65,0A31.19,31.19,0,0,0,13.84,5.37,32.09,32.09,0,0,0,9.19,9.2a32.88,32.88,0,0,0-3.83,4.65A31.12,31.12,0,0,0,0,31.4,30.93,30.93,0,0,0,2.47,43.63,30.84,30.84,0,0,0,5.36,49a32.32,32.32,0,0,0,3.83,4.65,32.76,32.76,0,0,0,4.65,3.83,31.31,31.31,0,0,0,5.34,2.89,30.54,30.54,0,0,0,5.9,1.83,31.1,31.1,0,0,0,12.65,0,30.75,30.75,0,0,0,5.9-1.83A31.22,31.22,0,0,0,49,57.44a32.21,32.21,0,0,0,4.65-3.83A31.56,31.56,0,0,0,57.44,49a31.52,31.52,0,0,0,4.73-11.23,31.57,31.57,0,0,0,0-12.65A30.79,30.79,0,0,0,60.33,19.18ZM31.4,4.59a26.7,26.7,0,0,1,17.71,6.69c-.06.1-3.88,5.91-14,9.71a135.73,135.73,0,0,0-10-15.65A26.87,26.87,0,0,1,31.4,4.59ZM25,5.36h0l-.08,0ZM20,7.15a160,160,0,0,1,10,15.45A99.59,99.59,0,0,1,5.16,25.88,26.84,26.84,0,0,1,20,7.15ZM11.45,49.32A26.71,26.71,0,0,1,4.58,31.4c0-.28,0-.56,0-.84a98.23,98.23,0,0,0,27.54-3.83c.77,1.51,1.5,3,2.17,4.57-.35.09-.7.2-1.05.32C18.79,36.29,11.44,49.31,11.44,49.31Zm20,8.9a26.72,26.72,0,0,1-16.74-5.87l-.35-.27.35.27.26.19s5.14-11.21,21-16.75l.18,0A111.57,111.57,0,0,1,41.87,56.1,26.79,26.79,0,0,1,31.4,58.22Zm15-4.57a115.22,115.22,0,0,0-5.22-19.16,39,39,0,0,1,16.71,1.17A26.84,26.84,0,0,1,46.39,53.65ZM39.54,30.26,39,28.88c-.55-1.32-1.15-2.62-1.78-3.9,10.59-4.32,14.89-10.54,14.94-10.61a26.7,26.7,0,0,1,6.1,16.77A61.72,61.72,0,0,0,39.54,30.26Z"/><path class="cls-2" d="M60.33,19.18a30.84,30.84,0,0,0-2.89-5.33c-.36-.53-.73-1-1.12-1.55q-1.74,1.3-3.81,2.6a26.64,26.64,0,0,1,5.7,16.24,61.72,61.72,0,0,0-18.67-.88L39,28.88c-.55-1.32-1.15-2.62-1.78-3.9a38.1,38.1,0,0,0,13.64-9A116.44,116.44,0,0,1,26,26.48a129,129,0,0,1-17.27,4,98.18,98.18,0,0,0,23.44-3.76c.77,1.51,1.5,3,2.17,4.56-.35.1-.7.2-1.05.32-14.47,4.68-21.82,17.7-21.82,17.7h0A26.71,26.71,0,0,1,4.58,31.4c0-.11,0-.23,0-.34-1.58.18-3.12.32-4.59.42a32.55,32.55,0,0,0,.63,6.25,31.28,31.28,0,0,0,1.84,5.9A30.84,30.84,0,0,0,5.36,49a32.32,32.32,0,0,0,3.83,4.65,32.76,32.76,0,0,0,4.65,3.83,31.31,31.31,0,0,0,5.34,2.89,30.32,30.32,0,0,0,5.9,1.83,31.1,31.1,0,0,0,12.65,0,30.75,30.75,0,0,0,5.9-1.83A31.22,31.22,0,0,0,49,57.44a32.21,32.21,0,0,0,4.65-3.83A31.56,31.56,0,0,0,57.44,49a30.84,30.84,0,0,0,2.89-5.33,31.28,31.28,0,0,0,1.84-5.9,31.57,31.57,0,0,0,0-12.65A30.79,30.79,0,0,0,60.33,19.18Zm-28.93,39a26.71,26.71,0,0,1-16.48-5.68c.05-.11,5.22-11.23,21-16.75l.18,0A111.57,111.57,0,0,1,41.87,56.1,26.79,26.79,0,0,1,31.4,58.22Zm15-4.57a115.22,115.22,0,0,0-5.22-19.16,39,39,0,0,1,16.71,1.17A26.84,26.84,0,0,1,46.39,53.65Z"/><path class="cls-3" d="M57.64,37A26.92,26.92,0,0,1,46.39,53.65c-.1-.61-.37-2.1-.85-4.23A39.34,39.34,0,0,1,41,51.89c.44,2,.71,3.42.84,4.21a26.74,26.74,0,0,1-24.21-1.7,37.12,37.12,0,0,1-12-5,33.17,33.17,0,0,0,3.53,4.22,32.21,32.21,0,0,0,4.65,3.83,31.52,31.52,0,0,0,11.23,4.73,31.57,31.57,0,0,0,12.65,0,31.38,31.38,0,0,0,5.91-1.84A30.9,30.9,0,0,0,49,57.44a32.76,32.76,0,0,0,4.65-3.83A31.42,31.42,0,0,0,57.43,49a30.67,30.67,0,0,0,2.9-5.34,31.52,31.52,0,0,0,1.93-18A39.13,39.13,0,0,1,57.64,37Z"/><circle class="cls-3" cx="27" cy="51.48" r="1.13"/><circle class="cls-3" cx="32.37" cy="53.1" r="0.5"/><circle class="cls-3" cx="35.37" cy="44.85" r="1"/><circle class="cls-3" cx="50.62" cy="46.1" r="0.5"/><circle class="cls-3" cx="53" cy="40.23" r="0.38"/><circle class="cls-3" cx="3.75" cy="59.6" r="0.38"/><circle class="cls-2" cx="4.62" cy="55.6" r="1.5"/><circle class="cls-2" cx="11.75" cy="37.48" r="0.87"/><circle class="cls-2" cx="37.87" cy="53.23" r="0.87"/><circle class="cls-2" cx="11.87" cy="43.35" r="0.75"/><circle class="cls-2" cx="25.62" cy="47.35" r="0.75"/><circle class="cls-2" cx="20.62" cy="51.85" r="0.75"/><circle class="cls-2" cx="16.12" cy="35.6" r="0.5"/><circle class="cls-2" cx="32.62" cy="48.85" r="0.5"/><circle class="cls-2" cx="9.12" cy="57.85" r="0.5"/></svg>