<svg id="Слой_1" data-name="Слой 1" xmlns="http://www.w3.org/2000/svg" viewBox="0 0 510 354.55"><defs><style>.cls-1{fill:red;}.cls-1,.cls-2{fill-rule:evenodd;}.cls-2{fill:#fff;}</style></defs><title>ic_youtube</title><path class="cls-1" d="M2.37,102.69A101.88,101.88,0,0,1,93.2,7.93C144.33,2.78,198.67,0,255,0A1611.36,1611.36,0,0,1,416.8,8a101.83,101.83,0,0,1,90.83,94.73C509.18,127.07,510,152,510,177.28s-.82,50.21-2.37,74.58a101.88,101.88,0,0,1-90.83,94.76c-51.13,5.15-105.47,7.93-161.8,7.93A1614.41,1614.41,0,0,1,93.2,346.6,101.85,101.85,0,0,1,2.37,251.86C.82,227.49,0,202.57,0,177.28s.82-50.21,2.37-74.59Z"/><path class="cls-2" d="M332.9,177.28,207.72,253.65V100.9Z"/></svg>