<svg id="Layer_1" data-name="Layer 1" xmlns="http://www.w3.org/2000/svg" viewBox="0 0 62 51.66"><defs><style>.cls-1{fill:#f8571d;}.cls-2{fill:#e23c0a;}.cls-3{fill:#ff7f00;}</style></defs><title>ic_reddit</title><path class="cls-1" d="M54.55,17.89a7.51,7.51,0,0,0-4.7,1.66,35.27,35.27,0,0,0-16.49-4.89l3.23-10.1,8.86,2.06a6.23,6.23,0,0,0,12.44-.45A6.24,6.24,0,0,0,46.13,3.33L35.83.93a1.7,1.7,0,0,0-2,1.13l-4,12.54A36,36,0,0,0,12,19.46,7.45,7.45,0,0,0,0,25.28a7.34,7.34,0,0,0,3.23,6.07,13.17,13.17,0,0,0-.13,1.77c0,5.09,3,9.83,8.41,13.33a36.06,36.06,0,0,0,19.37,5.21,36,36,0,0,0,19.36-5.21c5.42-3.5,8.41-8.24,8.41-13.33a12.6,12.6,0,0,0-.11-1.62A7.35,7.35,0,0,0,62,25.28,7.43,7.43,0,0,0,54.55,17.89ZM51.66,3.35a2.82,2.82,0,1,1-2.84,2.82A2.84,2.84,0,0,1,51.66,3.35ZM17.58,29.85a4.28,4.28,0,0,1,4.26-4.22A4.23,4.23,0,0,1,26,29.85,4.18,4.18,0,0,1,21.84,34,4.23,4.23,0,0,1,17.58,29.85ZM41.21,42.07c-2.16,2.14-5.49,3.18-10.18,3.18H31c-4.69,0-8-1-10.18-3.18a1.67,1.67,0,0,1,0-2.37,1.72,1.72,0,0,1,2.4,0c1.49,1.48,4,2.19,7.78,2.19H31c3.75,0,6.29-.71,7.78-2.19a1.72,1.72,0,0,1,2.4,0A1.67,1.67,0,0,1,41.21,42.07Zm-1-8.07A4.23,4.23,0,0,1,36,29.85a4.29,4.29,0,0,1,4.26-4.22,4.23,4.23,0,0,1,4.2,4.22A4.18,4.18,0,0,1,40.22,34Z"/><path class="cls-2" d="M52.81,3.6a2.8,2.8,0,0,1-.2,5.22,31.36,31.36,0,0,1-.6,3.51,6.2,6.2,0,0,0,5.88-6.16A6.2,6.2,0,0,0,52.49.06,32.11,32.11,0,0,1,52.81,3.6Z"/><path class="cls-2" d="M62,25.28a7.43,7.43,0,0,0-7.45-7.39,7.51,7.51,0,0,0-4.7,1.66l-.28-.16a35.71,35.71,0,0,1-5.65,8.51,4.13,4.13,0,0,1-3.7,6.1,4.29,4.29,0,0,1-2.29-.67A40.68,40.68,0,0,1,23.54,40c1.52,1.27,3.95,1.89,7.43,1.89H31c3.75,0,6.29-.72,7.78-2.19a1.72,1.72,0,0,1,2.4,0,1.67,1.67,0,0,1,0,2.37c-2.16,2.14-5.49,3.18-10.18,3.18H31c-4.69,0-8-1-10.17-3.18a1.66,1.66,0,0,1-.48-1.43,43,43,0,0,1-6.86.56,42.85,42.85,0,0,1-8.16-.78,20.16,20.16,0,0,0,6.21,6,36.06,36.06,0,0,0,19.37,5.21,36,36,0,0,0,19.36-5.21c5.42-3.5,8.41-8.24,8.41-13.33a12.6,12.6,0,0,0-.11-1.62A7.35,7.35,0,0,0,62,25.28Z"/><path class="cls-3" d="M7,31.68a24.07,24.07,0,0,0,10.65-2.47,4.28,4.28,0,0,1,4.19-3.58,4.09,4.09,0,0,1,1,.13,23.34,23.34,0,0,0,7.62-13.14l-.63,2A36,36,0,0,0,12,19.46,7.45,7.45,0,0,0,0,25.28a7.34,7.34,0,0,0,3.23,6.07,0,0,0,0,1,0,0A24.72,24.72,0,0,0,7,31.68Z"/></svg>