<svg id="Layer_1" data-name="Layer 1" xmlns="http://www.w3.org/2000/svg" viewBox="0 0 62 52.96"><defs><style>.cls-1{fill:#1cb1e6;}.cls-2{fill:#1cddf7;}</style></defs><title>ic_vimeo</title><g id="Vimeo"><path class="cls-1" d="M53,0Q40-.41,35.43,14.32a12,12,0,0,1,4.59-1c3.15,0,4.54,1.73,4.17,5.21q-.28,3.18-4.17,9.22c-2.6,4-4.54,6.05-5.84,6.05q-2.51,0-4.58-9.35-.71-2.74-2.5-14Q25.42,0,18.2.7,15.14,1,9,6.2q-4.45,4-9,8l2.92,3.72Q7.09,15,7.78,15q3.19,0,6,9.91,2.51,9.06,5,18.15Q22.51,53,27.93,53q8.74,0,21.4-16.23Q61.55,21.19,62,12.25,62.53.28,53,0Z"/></g><path class="cls-2" d="M35.83,33.05c-1.22,1.09-1.87.83-1.39.83,1.3,0,3.44,0,8.65-6.09a16.5,16.5,0,0,0,4.17-9.22c.37-3.48-1-5.21-4.17-5.21a11.19,11.19,0,0,0-1.71.15c2.17.46,3.12,2.14,2.81,5.06q-.28,3.18-4.17,9.22A23.36,23.36,0,0,1,35.83,33.05Z"/><path class="cls-2" d="M53.81.07c-.29,0-.57,0-.86-.06Q40-.41,35.43,14.32a12.13,12.13,0,0,1,3.37-.89Q43.08.89,53.81.07Z"/><path class="cls-2" d="M3.07,14.17q4.57-4,9-8c3.66-3.14,6.5-4.92,8.52-5.39A7.7,7.7,0,0,0,18.21.7Q15.15,1,9,6.2q-4.45,4-9,8l2.92,3.72"/><path class="cls-2" d="M21.83,43.06q-2.5-9.08-5-18.15C15,18.3,10.16,15,8,15c-.22,0,.3.06,1.37.7q2.3,1.89,4.36,9.25,2.51,9.06,5,18.16Q22.51,53,27.93,53a10.08,10.08,0,0,0,1.71-.16Q25.1,51.69,21.83,43.06Z"/></svg>