<svg id="Layer_1" data-name="Layer 1" xmlns="http://www.w3.org/2000/svg" viewBox="0 0 61.01 62.33"><defs><style>.cls-1{fill:#ff7976;}.cls-2{fill:#e3443a;}.cls-3{fill:#f4d72c;}.cls-4{fill:#f7b92b;}.cls-5{fill:#59c96e;}.cls-6{fill:#40a557;}.cls-7{fill:#0faef4;}.cls-8{fill:#4087ed;}</style></defs><title>ic_google</title><path class="cls-1" d="M31.21,0a31.17,31.17,0,0,0-28,17.36l10.5,8A18.41,18.41,0,0,1,31.21,12.75,18.05,18.05,0,0,1,42.7,16.86l9.08-9.07A31.08,31.08,0,0,0,31.21,0Z"/><path class="cls-2" d="M3.2,17.36l10.5,8A18.41,18.41,0,0,1,31.21,12.75,18.05,18.05,0,0,1,42.7,16.86l9.08-9.07A31.13,31.13,0,0,0,31.21,0"/><path class="cls-3" d="M12.77,31.17c0-.29,0-.57,0-.86a18.69,18.69,0,0,1,.9-4.93l-10.5-8A31,31,0,0,0,0,30.31c0,.29,0,.57,0,.86s0,.57,0,.85A31.14,31.14,0,0,0,3.2,45l10.49-8A18.87,18.87,0,0,1,12.8,32C12.79,31.74,12.77,31.45,12.77,31.17Z"/><path class="cls-4" d="M3.2,45l10.49-8A18.94,18.94,0,0,1,12.8,32c0-.28,0-.57,0-.86s0-.57,0-.85a18.61,18.61,0,0,1,.9-4.93l-10.5-8"/><path class="cls-4" d="M0,31.17"/><path class="cls-5" d="M41.57,46.86a19.3,19.3,0,0,1-10.36,2.72A18.45,18.45,0,0,1,13.7,37L3.2,45a31.16,31.16,0,0,0,28,17.36,31.38,31.38,0,0,0,8.35-1.12,28.77,28.77,0,0,0,12-6.65Z"/><path class="cls-6" d="M3.2,45a31.16,31.16,0,0,0,28,17.36,31.38,31.38,0,0,0,8.35-1.12,28.77,28.77,0,0,0,12-6.65l-10-7.7a19.3,19.3,0,0,1-10.36,2.72A18.54,18.54,0,0,1,20.34,46"/><path class="cls-7" d="M60.29,25.17H31.5v12H48a15.1,15.1,0,0,1-6.38,9.69l10,7.7a28.4,28.4,0,0,0,6.64-9.4A35.1,35.1,0,0,0,61,31,28,28,0,0,0,60.29,25.17Z"/><path class="cls-8" d="M51.54,54.56a28.62,28.62,0,0,0,6.66-9.44A35,35,0,0,0,61,31a28,28,0,0,0-.72-5.8H58.5"/><polyline class="cls-8" points="31.5 30.16 31.5 32.02 31.5 37.16 47.5 37.16"/></svg>