<svg id="Layer_1" data-name="Layer 1" xmlns="http://www.w3.org/2000/svg" viewBox="0 0 61.5 58.29"><defs><style>.cls-1{fill:#ffeb5a;}.cls-2{fill:#fcdf31;}.cls-3{fill:none;}.cls-4{fill:#f4c811;}.cls-5{fill:#efab00;}</style></defs><title>ic_snapchat</title><path id="Snapchat" class="cls-1" d="M60.29,43c-8.22-1.35-11.92-9.77-12.07-10.13a.25.25,0,0,1,0-.07,2.58,2.58,0,0,1-.29-2.09c.45-1.05,2.17-1.6,3.31-2,.33-.1.64-.2.9-.3A6.88,6.88,0,0,0,54.56,27a2.31,2.31,0,0,0,.74-1.68,2.63,2.63,0,0,0-2-2.28A3.52,3.52,0,0,0,52,22.74a2.94,2.94,0,0,0-1.24.25,7,7,0,0,1-2.57.73,2.41,2.41,0,0,1-.85-.18c0-.39.05-.78.08-1.19v-.18c.26-4.16.59-9.34-.79-12.42a16.68,16.68,0,0,0-3.76-5.38,15.52,15.52,0,0,0-4.5-2.88,17.48,17.48,0,0,0-7-1.38h-.15C30.81.11,30,0,30,0A17.14,17.14,0,0,0,23.1,1.47a15.46,15.46,0,0,0-4.48,2.94A17.16,17.16,0,0,0,14.7,9.77c-1.37,3.07-.95,8.24-.95,12.4h0c0,.44.22.91.25,1.36a2,2,0,0,1-.93.19A6.48,6.48,0,0,1,10.38,23a2.43,2.43,0,0,0-1-.21,3.6,3.6,0,0,0-1.83.52A2.49,2.49,0,0,0,6.23,25a2.28,2.28,0,0,0,.87,2.16,7.93,7.93,0,0,0,2.3,1.31c.26.1.57.2.9.3,1.13.36,2.86.91,3.31,2a2.54,2.54,0,0,1-.29,2.09l0,.07a20.34,20.34,0,0,1-3.1,4.79,17.19,17.19,0,0,1-3.74,3.3,13.68,13.68,0,0,1-5.24,2A1.44,1.44,0,0,0,0,44.48a1.81,1.81,0,0,0,.15.63h0a3.86,3.86,0,0,0,2.08,1.78,23.69,23.69,0,0,0,6,1.57,8,8,0,0,1,.37,1.32c.1.46.2.94.35,1.44a1.57,1.57,0,0,0,1.65,1.2A8.35,8.35,0,0,0,12,52.23a15.62,15.62,0,0,1,3.23-.37,15.31,15.31,0,0,1,2.31.19,11,11,0,0,1,4.31,2.23c2.2,1.55,4.69,3.31,8.49,3.31l.31,0,.45,0c3.81,0,6.3-1.76,8.49-3.31h0a11,11,0,0,1,4.3-2.23,14.11,14.11,0,0,1,2.31-.19,17.07,17.07,0,0,1,3.23.21,5.79,5.79,0,0,0,1.41,0H51a1.45,1.45,0,0,0,1.58-1c.15-.49.25-.89.35-1.36a7.63,7.63,0,0,1,.37-1.28,23.81,23.81,0,0,0,6-1.55,3.89,3.89,0,0,0,2.08-1.77,1.71,1.71,0,0,0,.15-.62A1.44,1.44,0,0,0,60.29,43Z"/><path id="Snapchat-2" data-name="Snapchat" class="cls-2" d="M13.75,22.11v.07c0,.44.22.91.25,1.36a2,2,0,0,1-.93.19A6.48,6.48,0,0,1,10.38,23a2.43,2.43,0,0,0-1-.21,3.69,3.69,0,0,0-1.83.51A2.53,2.53,0,0,0,6.23,25a2.28,2.28,0,0,0,.87,2.16,7.93,7.93,0,0,0,2.3,1.31c.26.1.57.2.9.3,1.13.36,2.86.91,3.31,2a2.54,2.54,0,0,1-.29,2.09l0,.07a20.56,20.56,0,0,1-3.1,4.79,17.19,17.19,0,0,1-3.74,3.3,13.68,13.68,0,0,1-5.24,2A1.44,1.44,0,0,0,0,44.48a1.81,1.81,0,0,0,.15.63h0a3.86,3.86,0,0,0,2.08,1.78,24.12,24.12,0,0,0,6,1.57,8,8,0,0,1,.37,1.32c.1.46.2.94.35,1.44a1.57,1.57,0,0,0,1.65,1.2A8.35,8.35,0,0,0,12,52.23a15.62,15.62,0,0,1,3.23-.37,14.11,14.11,0,0,1,2.31.19,11,11,0,0,1,4.31,2.23c2.2,1.55,4.69,3.3,8.49,3.3h.76c3.81,0,6.3-1.75,8.49-3.3h0a11,11,0,0,1,4.3-2.23,14.11,14.11,0,0,1,2.31-.19,17.07,17.07,0,0,1,3.23.21,5.79,5.79,0,0,0,1.41,0H51a1.45,1.45,0,0,0,1.58-1c.15-.49.25-.89.35-1.36a7.63,7.63,0,0,1,.37-1.28,23.81,23.81,0,0,0,6-1.55,3.89,3.89,0,0,0,2.08-1.77,1.71,1.71,0,0,0,.15-.62A1.44,1.44,0,0,0,60.29,43c-8.22-1.35-11.92-9.77-12.07-10.13l0-.07a2.58,2.58,0,0,1-.29-2.09c.45-1.05,2.17-1.6,3.31-2,.33-.1.64-.2.9-.3A6.88,6.88,0,0,0,54.56,27a2.31,2.31,0,0,0,.74-1.68,2.64,2.64,0,0,0-2-2.28A3.52,3.52,0,0,0,52,22.74a3.1,3.1,0,0,0-1.24.25,7,7,0,0,1-2.57.73,2.41,2.41,0,0,1-.85-.18c0-.39.05-.78.08-1.19v-.18c.26-4.16.59-9.34-.79-12.42a16.68,16.68,0,0,0-3.76-5.38,15.52,15.52,0,0,0-4.5-2.88,17.48,17.48,0,0,0-7-1.38h-.15C30.81.11,30,0,30,0"/><line id="Snapchat-3" data-name="Snapchat" class="cls-3" x1="13.75" y1="22.11" x2="13.75" y2="22.11"/><path class="cls-4" d="M60.29,43c-8.22-1.35-11.92-9.77-12.07-10.13a.25.25,0,0,1,0-.07,2.58,2.58,0,0,1-.29-2.09c.45-1.05,2.17-1.6,3.31-2,.33-.1.64-.2.9-.3A6.88,6.88,0,0,0,54.56,27a2.31,2.31,0,0,0,.74-1.68,2.63,2.63,0,0,0-2-2.28A3.52,3.52,0,0,0,52,22.74a2.94,2.94,0,0,0-1.24.25,7,7,0,0,1-2.57.73,2.41,2.41,0,0,1-.85-.18c0-.39.05-.78.08-1.19v-.18c.26-4.16.59-9.34-.79-12.42a16.68,16.68,0,0,0-3.76-5.38,15.52,15.52,0,0,0-4.5-2.88,17.48,17.48,0,0,0-7-1.38h-.15C30.81.11,30,0,29.94,0L29.75.3V57.57l.43,0,.41,0,.49,0c3.81,0,6.32-1.76,8.52-3.31h0a10.94,10.94,0,0,1,4.31-2.23,14.11,14.11,0,0,1,2.31-.19,17.07,17.07,0,0,1,3.23.21,5.79,5.79,0,0,0,1.41,0H51a1.45,1.45,0,0,0,1.58-1c.15-.49.25-.89.35-1.36a7.63,7.63,0,0,1,.37-1.28,23.81,23.81,0,0,0,6-1.55,3.89,3.89,0,0,0,2.08-1.77,1.71,1.71,0,0,0,.15-.62A1.44,1.44,0,0,0,60.29,43Z"/><path class="cls-4" d="M60.29,43c-8.22-1.35-11.92-9.77-12.07-10.13a.25.25,0,0,1,0-.07,2.58,2.58,0,0,1-.29-2.09c.45-1.05,2.17-1.6,3.31-2,.33-.1.64-.2.9-.3A6.88,6.88,0,0,0,54.56,27a2.31,2.31,0,0,0,.74-1.68,2.63,2.63,0,0,0-2-2.28A3.52,3.52,0,0,0,52,22.74a2.94,2.94,0,0,0-1.24.25,7,7,0,0,1-2.57.73,2.41,2.41,0,0,1-.85-.18c0-.39.05-.78.08-1.19v-.18c.26-4.16.59-9.34-.79-12.42a16.68,16.68,0,0,0-3.76-5.38,15.52,15.52,0,0,0-4.5-2.88A18.4,18.4,0,0,0,31.22,0L31.1.11c-.05,0,.65-.09-.35-.09,0,0,1,0,0,0l-1,0V57.57l.43,0,.41,0,.49,0c3.81,0,6.32-1.76,8.52-3.31h0a10.94,10.94,0,0,1,4.31-2.23,14.11,14.11,0,0,1,2.31-.19,17.07,17.07,0,0,1,3.23.21,5.79,5.79,0,0,0,1.41,0H51a1.45,1.45,0,0,0,1.58-1c.15-.49.25-.89.35-1.36a7.63,7.63,0,0,1,.37-1.28,23.81,23.81,0,0,0,6-1.55,3.89,3.89,0,0,0,2.08-1.77,1.71,1.71,0,0,0,.15-.62A1.44,1.44,0,0,0,60.29,43Z"/><circle class="cls-2" cx="15.22" cy="56.71" r="1.58"/><circle class="cls-5" cx="9.64" cy="55.79" r="0.83"/><circle class="cls-2" cx="6.22" cy="49.87" r="0.75"/><circle class="cls-2" cx="5.39" cy="54.87" r="0.75"/><circle class="cls-4" cx="44.06" cy="56.54" r="1.25"/><circle class="cls-4" cx="46.47" cy="53.79" r="0.33"/><circle class="cls-4" cx="49.64" cy="55.79" r="0.5"/><circle class="cls-5" cx="53.89" cy="55.04" r="0.92"/><circle class="cls-4" cx="55.47" cy="50.29" r="0.5"/><path class="cls-4" d="M39.89,56h0Z"/><circle class="cls-4" cx="60.06" cy="51.71" r="0.58"/><circle class="cls-4" cx="18.47" cy="53.96" r="0.5"/><circle class="cls-4" cx="21.97" cy="57.12" r="0.83"/><path class="cls-5" d="M53.73,40a20.36,20.36,0,0,1-5.51-7.13.25.25,0,0,1,0-.07,2.58,2.58,0,0,1-.29-2.09A3.63,3.63,0,0,1,50,29.14C42.94,31.73,47.6,37,52.64,39.46Z"/><path class="cls-5" d="M46.41,13.33c-.58,7.16-1.57,9.59,1.06,10.25l-.14,0c0-.39.05-.78.08-1.19v-.18c.26-4.16.59-9.34-.79-12.42A17.65,17.65,0,0,0,45,6.92C45.15,8.52,46.78,8.71,46.41,13.33Z"/><path class="cls-5" d="M45.35,50.08c-2.39-.93-2.89,1.63-6.12,4.47l.39-.27h0a11,11,0,0,1,4.3-2.22,14.23,14.23,0,0,1,2.31-.2,17,17,0,0,1,3.23.21,5.79,5.79,0,0,0,1.41,0H51c.08,0,.15.11.22.1C49.78,51.38,47.75,51,45.35,50.08Z"/><path class="cls-5" d="M53.25,48.45a24.18,24.18,0,0,0,6-1.56,3.94,3.94,0,0,0,2.08-1.78,1.71,1.71,0,0,0,.15-.63,2,2,0,0,0,0-.24.47.47,0,0,0-.12.09c-1.81,1.75-3.7-.06-5.88-.06s-2.3,2.33-2.31,4.41A1.85,1.85,0,0,1,53.25,48.45Z"/><path class="cls-1" d="M7.8,40a20.36,20.36,0,0,0,5.51-7.13l0-.07a2.58,2.58,0,0,0,.29-2.09,3.63,3.63,0,0,0-2.12-1.55c7.07,2.59,2.41,7.84-2.63,10.32Z"/><path class="cls-4" d="M16.18,50.08c2.39-.93,2.89,1.63,6.12,4.47l-.39-.27h0a10.91,10.91,0,0,0-4.31-2.22,14,14,0,0,0-2.3-.2,17,17,0,0,0-3.23.21,5.79,5.79,0,0,1-1.41,0h-.07c-.08,0-.15.11-.22.1C11.75,51.38,13.78,51,16.18,50.08Z"/><path class="cls-4" d="M8.28,48.45a24.18,24.18,0,0,1-6-1.56A3.94,3.94,0,0,1,.18,45.11,1.71,1.71,0,0,1,0,44.48a1,1,0,0,1,0-.24.47.47,0,0,1,.12.09c1.81,1.75,3.7-.06,5.88-.06s2.3,2.33,2.31,4.41A1.85,1.85,0,0,0,8.28,48.45Z"/></svg>