<svg id="Layer_1" data-name="Layer 1" xmlns="http://www.w3.org/2000/svg" viewBox="0 0 61 61"><defs><style>.cls-1{fill:#7ed1b5;}.cls-2{fill:#9deace;}.cls-3{fill:#5fb2a2;}</style></defs><title>ic_hashtag</title><rect class="cls-1" x="26.2" y="26.36" width="8.6" height="8.27" transform="translate(-8.11 11.27) rotate(-18.52)"/><path class="cls-1" d="M22.11,2.55C1.16,8.84-3.74,17.92,2.55,38.88S17.93,64.73,38.88,58.44,64.74,43.07,58.45,22.11,43.08-3.73,22.11,2.55ZM47.85,35.72l-4,1.32,1.37,4.09a3.16,3.16,0,1,1-6,2L37.9,39.05l-8.15,2.73,1.37,4.09a3.17,3.17,0,0,1-2,4A3.11,3.11,0,0,1,28,50a3.17,3.17,0,0,1-2.92-2.16l-1.37-4.09L19.8,45.12a3.16,3.16,0,0,1-2-6l4-1.33L19.12,30l-4,1.32a3.13,3.13,0,0,1-1.08.17,3.16,3.16,0,0,1-.93-6.16l4-1.33-1.37-4.09a3.16,3.16,0,0,1,6-2L23.1,22l8.16-2.73-1.37-4.09a3.16,3.16,0,1,1,6-2l1.37,4.09,4-1.33a3.16,3.16,0,1,1,2,6l-4,1.32,2.63,7.85,4-1.33a3.16,3.16,0,0,1,2,6Z"/><rect class="cls-2" x="26.2" y="26.36" width="8.6" height="8.27" transform="translate(-8.11 11.27) rotate(-18.52)"/><polygon class="cls-1" points="25.11 27.94 27.74 35.78 35.89 33.06 32.54 27.19 25.11 27.94"/><polygon class="cls-3" points="25.11 27.94 27.74 35.78 35.89 33.06 30.16 32.2 25.11 27.94"/><path class="cls-3" d="M30,15.6A3.17,3.17,0,0,0,29.88,18l.51,1.52.87-.29Z"/><path class="cls-3" d="M15.9,20.34a3.1,3.1,0,0,0-.16,2.38l.51,1.52.86-.29Z"/><path class="cls-3" d="M47.85,35.72l-4,1.32.86,2.58,3.09-1a3.08,3.08,0,0,0,1.81-4.42A3.13,3.13,0,0,1,47.85,35.72Z"/><path class="cls-2" d="M22.11,5.41C43.08-.88,52.16,4,58.45,25A55.27,55.27,0,0,1,61,37.87c.24-4.36-.64-9.53-2.5-15.75C52.16,1.15,43.08-3.73,22.11,2.55,6.07,7.36-.55,13.82.05,26,.59,15.64,7.38,9.83,22.11,5.41Z"/><path class="cls-3" d="M43.21,21.88l-4,1.32.86,2.57,3.09-1a3.15,3.15,0,0,0,2-4,3.12,3.12,0,0,0-.18-.42A3.15,3.15,0,0,1,43.21,21.88Z"/><path class="cls-3" d="M11.16,32.14a3.18,3.18,0,0,0,2.92,2.16,3.13,3.13,0,0,0,1.08-.17l4-1.32,1.76,5.27.86-.29L19.12,30l-4,1.32a3.13,3.13,0,0,1-1.08.17,3.18,3.18,0,0,1-2.74-1.74A3.16,3.16,0,0,0,11.16,32.14Z"/><path class="cls-3" d="M43.27,45.14a3.17,3.17,0,0,1-4-2L37.9,39.05l-8.15,2.73.86,2.57,7.29-2.44L39.27,46a3.15,3.15,0,0,0,2.92,2.16A2.94,2.94,0,0,0,43.27,48a3.15,3.15,0,0,0,2-4l-.15-.47A3.18,3.18,0,0,1,43.27,45.14Z"/><path class="cls-3" d="M29.12,49.88A3.11,3.11,0,0,1,28,50a3.18,3.18,0,0,1-2.92-2.16l-1.37-4.09L19.8,45.12A3.16,3.16,0,0,1,16,43.54a3.17,3.17,0,0,0,2.73,4.6A3.43,3.43,0,0,0,19.8,48l3.95-1.33,1.37,4.09A3.18,3.18,0,0,0,28,52.9a3.11,3.11,0,0,0,1.08-.16,3.17,3.17,0,0,0,2-4L31,48.26A3.18,3.18,0,0,1,29.12,49.88Z"/><path class="cls-3" d="M34.21,52C16.88,52,2.53,39.48,0,23.19c-.22,4.35.65,9.5,2.51,15.69,6.29,21,15.38,25.85,36.33,19.56,13.83-4.14,20.66-9.51,21.9-18.68A34.74,34.74,0,0,1,34.21,52Z"/></svg>