<svg id="Layer_1" data-name="Layer 1" xmlns="http://www.w3.org/2000/svg" viewBox="0 0 63.09 63"><defs><style>.cls-1{fill:#3ad5f9;}.cls-2{fill:#0382f9;}.cls-3{fill:#0656f7;}</style></defs><title>ic_messenger</title><path class="cls-1" d="M31.62,0C14.22,0,0,13.06,0,29.17A28.69,28.69,0,0,0,11.62,51.88V63l10.85-5.89a33.93,33.93,0,0,0,9.09,1.22c17.4,0,31.53-13,31.53-29.16S49,0,31.62,0Zm3.13,39.28-8-8.56L11.08,39.28,28.29,21l8.22,8.56L52,21Z"/><path class="cls-2" d="M31.62,2.41C14.22,2.41,0,13.06,0,29.17A28.69,28.69,0,0,0,11.62,51.88V63l10.85-5.89a33.93,33.93,0,0,0,9.09,1.22c17.4,0,31.53-13,31.53-29.16S49,2.41,31.62,2.41Zm3.13,36.87-8-8.56L11.08,39.28,28.29,21l8.22,8.56L52,21Z"/><polygon class="cls-3" points="50.13 22.02 35.42 28.43 36.51 29.55 50.13 22.02"/><path class="cls-3" d="M51.62,21.37,34.75,39.28l-7-7.5-14.46,6.3-2.18,1.2.38-.41L3.39,42.33a29.94,29.94,0,0,0,8.23,9.55V63l10.85-5.89a33.93,33.93,0,0,0,9.09,1.22c17.4,0,31.53-13,31.53-29.16a27.1,27.1,0,0,0-2.78-11.59Z"/></svg>