<svg id="Layer_1" data-name="Layer 1" xmlns="http://www.w3.org/2000/svg" viewBox="0 0 61.98 62"><defs><style>.cls-1{fill:#626a84;}.cls-2{fill:#4b506d;}.cls-3{fill:#ea7b0c;}.cls-4{fill:#fa9826;}.cls-5{fill:#2a2b35;}</style></defs><title>ic_amazon</title><path class="cls-1" d="M48.39,37.3c0-.07-.17-.14-.21-.21C46.68,35.18,45,33.53,45,29.84V17.52c0-5.2.62-10-3.21-13.55C38.61,1.1,33.88,0,30.05,0H28.41c-7,.4-14.36,3.42-16,12a1.28,1.28,0,0,0,1.09,1.64l7.67,1c.82-.13,1.23-1,1.37-1.67a6.06,6.06,0,0,1,5.88-5H29a5.25,5.25,0,0,1,4.22,2.23c1.09,1.64.79,4,.79,5.92v1.1c-1,.13-3.67.27-5.72.54A29.74,29.74,0,0,0,19.44,20C14.38,22,11,26.42,11,32.85a15.25,15.25,0,0,0,.65,4.45C13.21,42.43,17.56,45,22.79,45a23,23,0,0,0,5.61-.68c2.61-.83,4.79-2.33,7.39-5.07a21.62,21.62,0,0,0,4.52,5.2,1.92,1.92,0,0,0,1.91-.13c1.65-1.37,4.52-3.84,6-5.21C48.86,38.65,48.71,37.93,48.39,37.3ZM28.25,24.08A26.27,26.27,0,0,1,34,23.54v1.64c0,3.15.3,5.61-1.34,8.35a6.49,6.49,0,0,1-4.3,3.56c-.27,0-.65.14-1.06.14-3,0-4.84-2.33-4.84-5.75C22.43,27.1,25,25.05,28.25,24.08Z"/><path class="cls-2" d="M12.4,12a1.28,1.28,0,0,0,1.09,1.64l7.67,1c.82-.13,1.23-1,1.37-1.67a6,6,0,0,1,5.88-5H29a5.25,5.25,0,0,1,4.22,2.23c1.09,1.64.79,4,.79,5.92v1.1c-1,.13-3.67.27-5.72.54A29.74,29.74,0,0,0,19.44,20C14.38,22,11,26.42,11,32.85a15.25,15.25,0,0,0,.65,4.45C13.21,42.43,17.56,45,22.79,45a23,23,0,0,0,5.61-.68c2.61-.83,4.79-2.33,7.39-5.07a21.62,21.62,0,0,0,4.52,5.2,1.92,1.92,0,0,0,1.91-.13c1.65-1.37,4.52-3.84,6-5.21.61-.49.46-1.21.14-1.84,0-.07-.17-.14-.21-.21C46.68,35.18,45,33.53,45,29.84V17.52c0-5.2.62-10-3.21-13.55M28.25,24.08A26.27,26.27,0,0,1,34,23.54v1.64c0,3.15.3,5.61-1.34,8.35a6.49,6.49,0,0,1-4.3,3.56c-.27,0-.65.14-1.06.14-3,0-4.84-2.33-4.84-5.75C22.43,27.1,25,25.05,28.25,24.08Z"/><path class="cls-3" d="M55.33,48a6.57,6.57,0,0,1,1.45.11,2.1,2.1,0,0,1,.4.11l.07,0a1.53,1.53,0,0,1,0,.34,12.33,12.33,0,0,1-.65,3.07c-.38,1.18-.83,2.38-1.13,3.17a1.64,1.64,0,0,0-.12.6,1.62,1.62,0,0,0,.41,1.08,1.55,1.55,0,0,0,.91.47h0a2,2,0,0,0,1.13-.55c3-2.72,4.09-7.12,4.13-9.57v-.45h0a2.71,2.71,0,0,0-.43-1.55l0,0,0,0a2.12,2.12,0,0,0-.82-.54,11.32,11.32,0,0,0-3.68-.5c-.6,0-1,0-2,.11V48Z"/><path class="cls-4" d="M53,49.59a4,4,0,0,0-1.22.25c-.33.14-.65.33-1,.46l-.63.37-.77.33h5.36C54.52,50.53,53.85,49.59,53,49.59Z"/><path class="cls-4" d="M54.81,51H49.45a49.17,49.17,0,0,1-19.56,4.45A36,36,0,0,1,12.14,51,36.09,36.09,0,0,1,5,47.58a20.79,20.79,0,0,1-2.42-1.23,2.25,2.25,0,0,0-1-.24,1.69,1.69,0,0,0-1.09.4A1.49,1.49,0,0,0,0,47.56a1.65,1.65,0,0,0,.64,1.27C8.5,55.66,17.1,62,28.68,62h.68a45.65,45.65,0,0,0,22.17-6.72l0,0a23.67,23.67,0,0,0,2.49-1.73,2.46,2.46,0,0,0,.83-1.78C54.89,51.56,54.85,52,54.81,51Z"/><path class="cls-4" d="M53.54,44.12h0a10,10,0,0,0-3.85,1.8,1.74,1.74,0,0,0-.83,1.35,1.26,1.26,0,0,0,.42,1,1.43,1.43,0,0,0,.91.31h.28c.59-.13,1.33-.21,2.33-.35A18.13,18.13,0,0,1,55,48V43.87c0,.06-.92.14-1.44.25Z"/><path class="cls-5" d="M48.39,37.3C46.89,35.38,45,33.53,45,29.84V18.73c-3,2.19-8.25,3.88-13.3,4.88.75,0,2.3-.07,2.3-.07v1.64c0,3.15.3,5.61-1.34,8.35a6.53,6.53,0,0,1-4.3,3.57c-.27,0-.65.13-1.06.13-3,0-4.76-2.32-4.76-5.75,0-4.12,2.11-6.16,5.11-7.19a52.9,52.9,0,0,1-6.36.37,30.81,30.81,0,0,0-8.7,1.41A14.06,14.06,0,0,0,11,32.85a15.23,15.23,0,0,0,.67,4.45C13.23,42.43,17.58,45,22.8,45a23,23,0,0,0,5.61-.68C31,43.53,33.2,42,35.8,39.28a21.37,21.37,0,0,0,4.51,5.2,2,2,0,0,0,1.92-.13c1.64-1.37,4.52-3.84,6-5.2.62-.5.46-1.22.14-1.85C48.36,37.23,48.43,37.37,48.39,37.3Z"/><path class="cls-3" d="M54.81,51H49.45c-6.49,3-14.7,7.48-21,7.62-.24,0,.23,0,0,0A36.18,36.18,0,0,1,12.14,55.3L5.8,52.09A15.23,15.23,0,0,1,2.37,50.3C9.76,56.53,17.94,62,28.68,62h.68a45.65,45.65,0,0,0,22.17-6.72l0,0a21.76,21.76,0,0,0,2.49-1.73,2.61,2.61,0,0,0,.84-1.86A6.53,6.53,0,0,0,54.81,51Z"/></svg>