<svg id="Layer_1" data-name="Layer 1" xmlns="http://www.w3.org/2000/svg" viewBox="0 0 59.91 59.52"><defs><style>.cls-1{fill:#1d5daa;}.cls-2{fill:#064d93;}.cls-3{fill:#3e78cc;}.cls-4{fill:#5397ea;}</style></defs><title>ic_facebook</title><path class="cls-1" d="M29.88,0A29.71,29.71,0,0,0,.2,29.88,29.54,29.54,0,0,0,25.87,59.42V40.76h-7v-8h7V26.65c0-6.7,4-10.35,10-10.35a57.94,57.94,0,0,1,6,.31v7H37.74c-3.25,0-3.86,1.54-3.86,3.81v5.33h7.43l-1,8H33.88V59.52c14-1.82,26-14.39,26-29.65A30,30,0,0,0,29.88,0Z"/><path class="cls-2" d="M51,8.75a29.87,29.87,0,0,0-42.25,0L25.91,25.91c.29-6.12,4.15-9.61,9.77-9.61,2.87,0,5.19.22,6.19.31v7H37.74c-3.25,0-3.87,1.55-3.87,3.81v5.33h7.44l-1,8h0L50.84,51.09A30,30,0,0,0,51,8.75Z"/><path class="cls-3" d="M1.75,31.63a29.86,29.86,0,0,1,50.1-22,29.87,29.87,0,1,0-42.2,42.2A29.75,29.75,0,0,1,1.75,31.63Z"/><path class="cls-2" d="M33.88,40.45v14.6l3.59,3.75A29.65,29.65,0,0,0,47.38,54Z"/><polygon class="cls-2" points="25.88 40.76 18.9 40.76 19.04 40.58 25.88 46.97 25.88 40.76"/><circle class="cls-4" cx="10.48" cy="14.25" r="1.08"/><circle class="cls-4" cx="10.48" cy="21.43" r="1.08"/><circle class="cls-4" cx="18.17" cy="14.25" r="1.08"/><circle class="cls-1" cx="28.54" cy="7.5" r="1.08"/><circle class="cls-1" cx="49.22" cy="17.58" r="1.08"/><circle class="cls-1" cx="38.37" cy="9.44" r="0.6"/><circle class="cls-4" cx="10.85" cy="43.96" r="0.6"/><circle class="cls-1" cx="19.28" cy="8.77" r="0.26"/><circle class="cls-4" cx="10.48" cy="32.5" r="1.08"/><path class="cls-4" d="M10.88,31.71c0,.19-.32.34-.51.34h0c-.18,0-.49-.15-.49-.34V14.92c0-.19.31-.34.49-.34h0c.19,0,.51.15.51.34Z"/><path class="cls-4" d="M17.83,13.76c.19,0,.34.31.34.5h0c0,.18-.15.5-.34.5H11c-.19,0-.34-.32-.34-.5h0c0-.19.15-.5.34-.5Z"/><circle class="cls-4" cx="15.67" cy="21.43" r="1.08"/><path class="cls-4" d="M15.26,20.76c.12,0,.22.31.22.5h0c0,.19-.1.5-.22.5H10.68c-.12,0-.23-.31-.23-.5h0c0-.19.11-.5.23-.5Z"/><circle class="cls-4" cx="49.27" cy="45.27" r="1.08"/><circle class="cls-4" cx="41.58" cy="45.27" r="1.08"/><circle class="cls-4" cx="49.27" cy="27.02" r="1.08"/><path class="cls-4" d="M48.88,27.81c0-.19.31-.34.5-.34h0c.18,0,.5.15.5.34V44.6c0,.19-.32.34-.5.34h0c-.19,0-.5-.15-.5-.34Z"/><path class="cls-4" d="M41.92,45.76c-.19,0-.34-.31-.34-.5h0c0-.19.15-.5.34-.5h6.79c.19,0,.34.31.34.5h0c0,.19-.15.5-.34.5Z"/></svg>