<svg version="1.1" xmlns="http://www.w3.org/2000/svg" xmlns:xlink="http://www.w3.org/1999/xlink" width="58" height="32" viewBox="0 0 58 32">
<g id="ic_persollo">
<path id="persollo" d="M41.889,30.999 C38.435,30.999 3.222,30.999 3.222,30.999 C1.442,30.999 -0.000,29.612 -0.000,27.900 C-0.000,26.187 1.442,24.800 3.222,24.800 C3.222,24.800 27.042,24.800 29.000,24.800 C27.592,22.999 26.583,20.891 26.100,18.601 C25.235,18.601 20.944,18.600 20.944,18.600 C19.164,18.600 17.722,17.212 17.722,15.500 C17.722,13.786 19.164,12.399 20.944,12.399 C20.944,12.399 24.856,12.393 26.101,12.393 C26.583,10.110 27.588,8.009 28.990,6.210 C26.108,6.199 12.889,6.199 12.889,6.199 C11.108,6.199 9.666,4.812 9.666,3.099 C9.666,1.387 11.108,-0.000 12.889,-0.000 C12.889,-0.000 39.122,-0.000 41.889,-0.000 C50.787,-0.000 58.000,6.939 58.000,15.500 C58.000,24.061 50.787,30.999 41.889,30.999 zM41.889,6.199 C36.549,6.199 32.222,10.362 32.222,15.500 C32.222,20.637 36.549,24.800 41.889,24.800 C47.228,24.800 51.555,20.637 51.555,15.500 C51.555,10.362 47.228,6.199 41.889,6.199 z" fill="#42CF70" />
</g>
</svg>
