<svg id="Layer_1" data-name="Layer 1" xmlns="http://www.w3.org/2000/svg" viewBox="0 0 63 53.21"><defs><style>.cls-1{fill:#24a9e6;}.cls-2{fill:#169fdb;}.cls-3{fill:#3dc8f9;}</style></defs><title>ic_twitter</title><path id="Twitter" class="cls-1" d="M61.26,1.68A25.59,25.59,0,0,1,53.05,4.9,12.72,12.72,0,0,0,43.62.71,13.09,13.09,0,0,0,30.7,14,13.64,13.64,0,0,0,31,17,36.37,36.37,0,0,1,4.39,3.13,13.51,13.51,0,0,0,2.64,9.8a13.32,13.32,0,0,0,5.73,11A13.71,13.71,0,0,1,2.5,19.18v.16a13.18,13.18,0,0,0,10.39,13,12,12,0,0,1-3.4.47,13,13,0,0,1-2.43-.23,13,13,0,0,0,12.08,9.2,25.55,25.55,0,0,1-16,5.67A26.3,26.3,0,0,1,0,47.26a36,36,0,0,0,19.82,6C43.59,53.21,56.59,33,56.59,15.5c0-.57,0-1.15,0-1.71A26.47,26.47,0,0,0,63,6.93,25,25,0,0,1,55.58,9,13.18,13.18,0,0,0,61.26,1.68Z"/><path id="Twitter-2" data-name="Twitter" class="cls-1" d="M61.26,1.68A25.59,25.59,0,0,1,53.05,4.9,12.72,12.72,0,0,0,43.62.71,13.09,13.09,0,0,0,30.7,14,13.64,13.64,0,0,0,31,17,36.37,36.37,0,0,1,4.39,3.13,13.51,13.51,0,0,0,2.64,9.8a13.32,13.32,0,0,0,5.73,11A13.71,13.71,0,0,1,2.5,19.18v.16a13.18,13.18,0,0,0,10.39,13,12,12,0,0,1-3.4.47,13,13,0,0,1-2.43-.23,13,13,0,0,0,12.08,9.2,25.55,25.55,0,0,1-16,5.67A26.3,26.3,0,0,1,0,47.26a36,36,0,0,0,19.82,6C43.59,53.21,56.59,33,56.59,15.5c0-.57,0-1.15,0-1.71A26.47,26.47,0,0,0,63,6.93,25,25,0,0,1,55.58,9,13.18,13.18,0,0,0,61.26,1.68Z"/><path class="cls-2" d="M63,6.93A25.4,25.4,0,0,1,55.58,9a13.22,13.22,0,0,0,5.68-7.33,25.34,25.34,0,0,1-8.21,3.21A12.75,12.75,0,0,0,43.62.71,13.08,13.08,0,0,0,30.7,14,13.64,13.64,0,0,0,31,17h0L50.44,36.42A39.78,39.78,0,0,0,56.59,15.5c0-.57,0-1.15,0-1.71A26.8,26.8,0,0,0,63,6.93Z"/><path class="cls-2" d="M19.13,41.78a25.54,25.54,0,0,1-16,5.66A26.3,26.3,0,0,1,0,47.26a36,36,0,0,0,19.81,6A38.27,38.27,0,0,0,29.37,52Z"/><path class="cls-3" d="M61.26,1.68A25.59,25.59,0,0,1,53.05,4.9,12.72,12.72,0,0,0,43.62.71,13.09,13.09,0,0,0,30.7,14,13.64,13.64,0,0,0,31,17a36.15,36.15,0,0,1-23-9.86,36.23,36.23,0,0,0,24.5,11.39,13.61,13.61,0,0,1-.33-3A13.09,13.09,0,0,1,45.15,2.24a12.72,12.72,0,0,1,9.43,4.19"/><path class="cls-3" d="M11.15,32.69a12.82,12.82,0,0,1-1.65.11,13.11,13.11,0,0,1-2.44-.23,13.33,13.33,0,0,0,4.08,6.15A13.12,13.12,0,0,1,8.6,34.1"/><path class="cls-1" d="M60.8,9.81A26.42,26.42,0,0,0,63,6.93,26.18,26.18,0,0,1,60.08,8"/><path class="cls-3" d="M1.3,47.68a3.88,3.88,0,0,1-1-.23c.86.56,1.59,1,2.5,1.49.6.05,1.21.21,1.82.21,6.05,0,11.63-2.54,16.05-5.54h0C14.85,46.61,8.36,48.57,1.3,47.68Z"/><path class="cls-3" d="M7.36,20A13.5,13.5,0,0,1,5.83,4.83c-.49-.55-1-1.12-1.44-1.7A13.51,13.51,0,0,0,2.64,9.8,13.35,13.35,0,0,0,7.36,20Z"/><path class="cls-3" d="M8.37,20.83A15.84,15.84,0,0,1,2.5,19.18v.16A13.32,13.32,0,0,0,7.21,29.56c-2-2.33-2.71-5.36-2.71-8.69v-.26"/><path class="cls-3" d="M26.4,10.4s2-6-8.93-9c0,0,.92,4.92,3.73,7.33C24.26,11.31,26.4,10.4,26.4,10.4Z"/><path class="cls-3" d="M28.62,8s2.26-1.32-.27-5.27A6.18,6.18,0,0,0,27.48,6C27.7,7.67,28.62,8,28.62,8Z"/><path class="cls-3" d="M19.08,11.06s-2.39,1.08-4.16-3.26A6.22,6.22,0,0,1,18.13,9C19.35,10.13,19.08,11.06,19.08,11.06Z"/><path class="cls-1" d="M29.12,15.47s-2.46.93-3.94-3.53a6.18,6.18,0,0,1,3.12,1.4C29.45,14.56,29.12,15.47,29.12,15.47Z"/><circle class="cls-1" cx="22.79" cy="12.6" r="0.98"/><circle class="cls-1" cx="16.55" cy="5.14" r="0.37"/><circle class="cls-1" cx="24.32" cy="0.18" r="0.18"/><circle class="cls-3" cx="25.05" cy="3" r="0.67"/></svg>