<svg id="Layer_1" data-name="Layer 1" xmlns="http://www.w3.org/2000/svg" viewBox="0 0 62 56.18"><defs><style>.cls-1{fill:#187fb8;}.cls-2{fill:#1267a0;}.cls-3{fill:#2499ce;}</style></defs><title>ic_linkedin</title><g id="LinkedIn"><rect class="cls-1" x="2" y="18.18" width="12" height="38"/><rect class="cls-1" x="2" y="18.18" width="12" height="38"/><rect class="cls-2" x="2" y="18.18" width="12" height="38"/><path class="cls-1" d="M2,39.68a56.67,56.67,0,0,0,12,3V18.18H2Z"/><path class="cls-3" d="M2,23.08a56.67,56.67,0,0,0,12,3V18.18H2Z"/><path class="cls-1" d="M46.86,17.71C39.94,17.71,35,21.46,35,24.08v-5.9H21c.17,3,0,38,0,38H35V35.64a9.1,9.1,0,0,1,.1-3.13c.93-2.3,2.68-4.68,6.29-4.68,4.72,0,6.61,3.53,6.61,8.72V56.18H62V35.07C62,23.21,55.45,17.71,46.86,17.71Z"/><path class="cls-2" d="M46.86,17.71C39.94,17.71,35,21.46,35,24.08v-5.9H21c.17,3,0,38,0,38H35V35.64a9.1,9.1,0,0,1,.1-3.13c.93-2.3,2.68-4.68,6.29-4.68,4.72,0,6.61,3.53,6.61,8.72V56.18H62V35.07C62,23.21,55.45,17.71,46.86,17.71Z"/><path class="cls-1" d="M46.86,17.71C39.94,17.71,35,21.46,35,24.08v-5.9H21c.1,2,.08,15.17,0,25.58A128.3,128.3,0,0,0,35,44.48V35.64c0-1.15,0-1.38,0-1.38a6.31,6.31,0,0,1,6.36-6.44c4.71,0,6.61,3.54,6.61,8.73v7.23a107.05,107.05,0,0,0,14-2.36V35.07C62,23.21,55.45,17.71,46.86,17.71Z"/><path class="cls-3" d="M46.86,17.71C39.94,17.71,35,21.46,35,24.08v-5.9H21c0,1,.07,4.42.07,9a127.6,127.6,0,0,0,13.78.72A118.71,118.71,0,0,0,60,25.32C57.38,20.18,52.58,17.71,46.86,17.71Z"/><path class="cls-3" d="M7.38,0C2.92,0,0,2.81,0,6.6s2.84,6.58,7.21,6.58H7.3c4.54,0,7.37-2.88,7.37-6.59S11.84,0,7.38,0Z"/><path class="cls-1" d="M7.38,3.6C2.92,3.6,0,2.81,0,6.6s2.84,6.58,7.21,6.58H7.3c4.54,0,7.37-2.88,7.37-6.59S11.84,3.6,7.38,3.6Z"/><path class="cls-2" d="M7.38,9.09C2.92,9.09,0,5.42,0,6.6c0,3.71,2.84,6.58,7.21,6.58H7.3c4.54,0,7.37-2.88,7.37-6.59C14.64,5.41,11.78,9.09,7.38,9.09Z"/></g></svg>