<svg id="Layer_1" data-name="Layer 1" xmlns="http://www.w3.org/2000/svg" viewBox="0 0 53 62.05"><defs><style>.cls-1{fill:#1b546b;}</style></defs><title>ic_apple</title><path d="M35.13,10.07A13.64,13.64,0,0,0,38.13,0,14.61,14.61,0,0,0,28.7,5.1c-2.05,2.5-3.74,6.22-3.08,9.83A12.29,12.29,0,0,0,35.13,10.07Z"/><path class="cls-1" d="M51.21,20.82c-3.18-4-7.64-6.3-11.86-6.3-5.56,0-7.92,2.67-11.78,2.67s-7-2.66-11.83-2.66S6,17.42,2.78,22.36c-4.48,7-3.72,20,3.56,31.18,2.6,4,6.07,8.47,10.62,8.51,4,0,5.18-2.59,10.66-2.62S34.14,62.08,38.18,62c4.55,0,8.21-5,10.81-9a44.93,44.93,0,0,0,4-7.52C42.48,41.52,40.79,26.56,51.21,20.82Z"/><path d="M44.82,28.51C36.87,35,25.62,39,13.14,39A55.82,55.82,0,0,1,.3,37.5a38.78,38.78,0,0,0,6,16c2.6,4,6.07,8.47,10.62,8.51,4,0,5.18-2.59,10.66-2.62S34.14,62.08,38.18,62c4.55,0,8.22-5,10.82-9a44.6,44.6,0,0,0,4-7.53A13.82,13.82,0,0,1,44.82,28.51Z"/></svg>