<svg version="1.1" xmlns="http://www.w3.org/2000/svg" xmlns:xlink="http://www.w3.org/1999/xlink" width="22" height="22" viewBox="0 0 22 22"><g id="ic_appearance"><path id="Apperance_icon" d="M19.873,17.681 L17.656,19.898 L14.818,19.107 L14.007,19.442 L12.550,22.000 L9.415,22.000 L7.966,19.433 L7.156,19.093 L4.318,19.874 L2.102,17.658 L2.892,14.820 L2.558,14.008 L-0.000,12.550 L-0.000,9.416 L2.567,7.967 L2.907,7.156 L2.127,4.318 L4.342,2.103 L7.180,2.894 L7.991,2.560 L9.445,0.000 L12.581,0.000 L14.030,2.568 L14.840,2.908 L17.677,2.127 L19.896,4.343 L19.105,7.181 L19.440,7.992 L22.000,9.447 L22.000,12.582 L19.433,14.031 L19.092,14.844 L19.873,17.681 zM16.981,14.708 L17.853,12.626 L20.000,11.414 L20.000,10.611 L17.853,9.391 L16.994,7.307 L17.656,4.932 L17.087,4.364 L14.704,5.019 L12.624,4.147 L11.413,2.000 L10.609,2.000 L9.389,4.147 L7.306,5.006 L4.930,4.343 L4.364,4.910 L5.019,7.292 L4.147,9.372 L2.000,10.584 L2.000,11.388 L4.145,12.611 L5.004,14.694 L4.342,17.070 L4.909,17.637 L7.291,16.981 L9.371,17.854 L10.583,20.000 L11.387,20.000 L12.609,17.855 L14.692,16.996 L17.068,17.658 L17.636,17.089 L16.981,14.708 zM11.000,15.001 C8.791,15.001 7.000,13.210 7.000,11.000 C7.000,8.791 8.791,7.000 11.000,7.000 C13.209,7.000 15.000,8.791 15.000,11.000 C15.000,13.210 13.209,15.001 11.000,15.001 zM11.000,13.000 C12.105,13.000 13.000,12.105 13.000,11.000 C13.000,9.896 12.105,9.000 11.000,9.000 C9.895,9.000 9.000,9.896 9.000,11.000 C9.000,12.105 9.895,13.000 11.000,13.000 z" fill="#9297B7" /></g></svg>