<svg width="20" height="20" viewBox="0 0 20 20" fill="none" xmlns="http://www.w3.org/2000/svg">
<path fill-rule="evenodd" clip-rule="evenodd" d="M8.29068 1.15944C8.38684 0.913479 8.53856 0.684833 8.74462 0.492909C9.45023 -0.164303 10.5497 -0.164303 11.2553 0.492909C11.4619 0.685255 11.6138 0.914485 11.7099 1.16106C14.3648 1.92963 16.4166 4.48976 16.4166 8.17835C16.4166 10.5634 16.904 11.9062 17.8057 12.8827C18.0292 13.1247 18.8146 13.8255 18.9027 13.9141L19.1666 14.1794V17.2782H13.5514C13.3221 18.1731 12.7568 18.9569 11.9138 19.4668C10.7387 20.1777 9.26128 20.1777 8.08616 19.4668C7.1309 18.889 6.60266 18.2433 6.41396 17.2782H0.833313V14.1794L1.09728 13.9141C1.19269 13.8188 1.9735 13.1242 2.19544 12.8848C3.09655 11.9129 3.58331 10.5718 3.58331 8.17835C3.58331 4.47919 5.63239 1.92466 8.29068 1.15944ZM8.33038 17.2782C8.45989 17.517 8.68063 17.6974 9.04116 17.9155C9.62989 18.2716 10.3701 18.2716 10.9588 17.9155C11.2314 17.7506 11.4445 17.5323 11.592 17.2782H8.33038ZM17.3333 14.95C17.0598 14.7005 16.6464 14.3187 16.4535 14.1098C15.2305 12.7855 14.5833 11.0024 14.5833 8.17835C14.5833 4.7537 12.438 2.73737 9.99998 2.73737C7.55502 2.73737 5.41665 4.74335 5.41665 8.17835C5.41665 11.0115 4.76968 12.794 3.54526 14.1147C3.35271 14.3224 2.93805 14.7039 2.66665 14.9504V15.4608H17.3333V14.95Z" fill="#878CAC"/>
</svg>
