<svg version="1.1" xmlns="http://www.w3.org/2000/svg" xmlns:xlink="http://www.w3.org/1999/xlink" width="22" height="18" viewBox="0 0 22 18"><g id="ic_billing"><path id="Billing_icon" d="M19.135,18.000 C19.135,18.000 2.867,18.000 2.867,18.000 C1.291,18.000 -0.000,16.671 -0.000,15.050 C-0.000,15.050 -0.000,2.950 -0.000,2.950 C-0.000,1.329 1.291,-0.000 2.867,-0.000 C2.867,-0.000 19.135,-0.000 19.135,-0.000 C20.710,-0.000 22.007,1.322 22.001,2.950 C22.001,2.950 22.001,15.050 22.001,15.050 C22.001,16.671 20.710,18.000 19.135,18.000 zM20.458,2.917 C20.458,2.325 19.987,1.847 19.419,1.847 C19.419,1.847 2.834,1.847 2.834,1.847 C2.259,1.847 1.795,2.332 1.795,2.917 C1.795,2.917 1.795,4.485 1.795,4.485 L20.458,4.485 C20.458,4.485 20.458,2.917 20.458,2.917 zM20.458,7.296 L1.795,7.296 C1.795,7.296 1.795,15.090 1.795,15.090 C1.795,15.681 2.266,16.159 2.834,16.159 C2.834,16.159 19.419,16.159 19.419,16.159 C19.993,16.159 20.458,15.674 20.458,15.090 C20.458,15.090 20.458,7.296 20.458,7.296 zM9.572,14.179 C8.864,14.179 8.229,13.852 7.798,13.333 C7.374,13.852 6.732,14.179 6.023,14.179 C4.730,14.179 3.680,13.099 3.680,11.767 C3.680,10.435 4.730,9.355 6.023,9.355 C6.732,9.355 7.366,9.681 7.798,10.201 C8.221,9.681 8.864,9.355 9.572,9.355 C10.866,9.355 11.915,10.435 11.915,11.767 C11.915,13.099 10.866,14.179 9.572,14.179 z" fill="#9297B7" /></g></svg>