<svg version="1.1" xmlns="http://www.w3.org/2000/svg" xmlns:xlink="http://www.w3.org/1999/xlink" width="14" height="13" viewBox="0 0 14 13">
<g id="ic_check">
<path id="check-copy-5" d="M13.548,3.644 C13.548,3.644 6.752,12.513 6.752,12.513 C6.417,12.871 5.964,12.996 5.527,12.941 C5.031,13.079 4.487,12.968 4.099,12.553 C4.099,12.553 0.424,9.577 0.424,9.577 C-0.161,8.957 -0.161,7.954 0.424,7.335 C1.006,6.715 1.951,6.715 2.533,7.335 C2.533,7.335 5.413,9.466 5.413,9.466 C5.413,9.466 11.446,1.407 11.446,1.407 C12.028,0.790 12.968,0.790 13.548,1.407 C14.130,2.027 14.130,3.030 13.548,3.644 z" fill="#00D2D0" />
</g>
</svg>
