<svg width="24" height="25" viewBox="0 0 24 25" fill="none" xmlns="http://www.w3.org/2000/svg">
<path d="M17.9999 10.6634C17.9992 10.825 17.966 10.9848 17.9021 11.1332C17.8382 11.2816 17.745 11.4156 17.628 11.5271L12.83 16.1571C12.6058 16.3769 12.3044 16.5 11.9904 16.5C11.6764 16.5 11.375 16.3769 11.1507 16.1571L6.35276 11.3591C6.24092 11.2473 6.15221 11.1145 6.09168 10.9684C6.03115 10.8223 6 10.6657 6 10.5075C6 10.3493 6.03115 10.1927 6.09168 10.0466C6.15221 9.90047 6.24092 9.76769 6.35276 9.65586C6.4646 9.54402 6.59737 9.4553 6.7435 9.39477C6.88962 9.33425 7.04624 9.30309 7.2044 9.30309C7.36257 9.30309 7.51918 9.33425 7.66531 9.39477C7.81143 9.4553 7.9442 9.54402 8.05604 9.65586L12.0024 13.6142L15.9607 9.79979C16.1855 9.57639 16.4895 9.45099 16.8064 9.45099C17.1232 9.45099 17.4273 9.57639 17.652 9.79979C17.7646 9.9133 17.8534 10.0482 17.9131 10.1965C17.9729 10.3448 18.0024 10.5036 17.9999 10.6634Z" fill="#878CAC"/>
</svg>
