<svg xmlns="http://www.w3.org/2000/svg" width="48" height="50"><path d="M30.73 11.47L19.072 23.182c-.972.866-1.574 2.074-1.671 3.181v5.151l4.955.005c1.282-.091 2.476-.691 3.435-1.793l11.551-11.61-6.612-6.646zm3.395-3.411l6.611 6.645 2.146-2.156a1.114 1.114 0 000-1.576l-5.05-5.076a1.09 1.09 0 00-1.553 0l-2.154 2.163zm13.883 19.226v16.889c0 2.665-2.15 4.825-4.801 4.825H4.798c-2.651 0-4.801-2.16-4.801-4.825V5.571c0-2.664 2.15-4.825 4.801-4.825h16.804v4.825H4.798v38.603h38.409V27.285h4.801zM37.056.746c1.571 0 3.078.631 4.178 1.745l5.044 5.069a5.953 5.953 0 011.73 4.2 5.958 5.958 0 01-1.73 4.2L29.302 33.013c-1.677 1.943-4.054 3.138-6.777 3.325H12.6v-2.413l.008-7.756c.204-2.545 1.381-4.91 3.176-6.499l17.09-17.176A5.88 5.88 0 0137.056.746z" fill="#9297B7"/></svg>