<svg version="1.1" xmlns="http://www.w3.org/2000/svg" xmlns:xlink="http://www.w3.org/1999/xlink" width="120" height="120" viewBox="0 0 120 120"><g id="ic_dropzone"><g id="photo-border"  opacity="0.502"><path id="photo-border-fill" d="M10.000,-0.000 C10.000,-0.000 110.000,-0.000 110.000,-0.000 C115.523,-0.000 120.000,4.477 120.000,10.000 C120.000,10.000 120.000,110.000 120.000,110.000 C120.000,115.523 115.523,120.000 110.000,120.000 C110.000,120.000 10.000,120.000 10.000,120.000 C4.477,120.000 -0.000,115.523 -0.000,110.000 C-0.000,110.000 -0.000,10.000 -0.000,10.000 C-0.000,4.477 4.477,-0.000 10.000,-0.000 z" fill="#E7ECEF" /><path id="photo-border-stroke" d="M10.396,0.475 C10.396,0.475 109.604,0.475 109.604,0.475 C115.083,0.475 119.525,4.917 119.525,10.396 C119.525,10.396 119.525,109.604 119.525,109.604 C119.525,115.083 115.083,119.525 109.604,119.525 C109.604,119.525 10.396,119.525 10.396,119.525 C4.917,119.525 0.475,115.083 0.475,109.604 C0.475,109.604 0.475,10.396 0.475,10.396 C0.475,4.917 4.917,0.475 10.396,0.475 z" fill="none" stroke="#AAB4BF" stroke-width="1" stroke-dasharray="4,2" /></g><path id="add-photo-icon" d="M45.977,52.500 C45.977,52.500 45.977,49.744 45.977,49.744 C45.977,49.744 43.182,49.744 43.182,49.744 C42.413,49.744 41.784,49.124 41.784,48.367 C41.784,47.609 42.413,46.989 43.182,46.989 C43.182,46.989 45.977,46.989 45.977,46.989 C45.977,46.989 45.977,44.235 45.977,44.235 C45.977,43.477 46.606,42.857 47.374,42.857 C48.143,42.857 48.772,43.477 48.772,44.235 C48.772,44.235 48.772,46.989 48.772,46.989 C48.772,46.989 51.567,46.989 51.567,46.989 C52.336,46.989 52.965,47.609 52.965,48.367 C52.965,49.124 52.336,49.744 51.567,49.744 C51.567,49.744 48.772,49.744 48.772,49.744 C48.772,49.744 48.772,52.500 48.772,52.500 C48.772,53.257 48.143,53.877 47.374,53.877 C46.606,53.877 45.977,53.257 45.977,52.500 zM59.953,64.898 C57.636,64.898 55.759,63.047 55.759,60.765 C55.759,58.482 57.636,56.632 59.953,56.632 C62.268,56.632 64.145,58.482 64.145,60.765 C64.145,63.047 62.268,64.898 59.953,64.898 zM71.132,49.744 C72.670,49.744 73.927,50.984 73.927,52.500 C73.927,52.500 73.927,69.031 73.927,69.031 C73.927,70.545 72.670,71.785 71.132,71.785 C71.132,71.785 48.772,71.785 48.772,71.785 C47.234,71.785 45.977,70.545 45.977,69.031 C45.977,69.031 45.977,54.869 45.977,54.869 C46.396,55.103 46.857,55.255 47.374,55.255 C48.912,55.255 50.169,54.015 50.169,52.500 C50.169,52.500 50.169,51.122 50.169,51.122 C50.169,51.122 51.567,51.122 51.567,51.122 C53.105,51.122 54.362,49.882 54.362,48.367 C54.362,47.857 54.209,47.403 53.970,46.989 C53.970,46.989 62.915,46.989 62.915,46.989 C63.697,46.989 64.452,47.320 64.969,47.885 C64.969,47.885 66.702,49.744 66.702,49.744 C66.702,49.744 71.132,49.744 71.132,49.744 zM59.953,67.653 C63.810,67.653 66.939,64.567 66.939,60.765 C66.939,56.963 63.810,53.877 59.953,53.877 C56.094,53.877 52.965,56.963 52.965,60.765 C52.965,64.567 56.094,67.653 59.953,67.653 z" fill="#AAB4BF" /></g></svg>