<svg width="18" height="11" viewBox="0 0 18 11" fill="none" xmlns="http://www.w3.org/2000/svg">
<path d="M0 4.95V6.05C4.5 12.65 13.5 12.65 18 6.05V4.95C13.5 -1.65 4.5 -1.65 0 4.95ZM9 9.9C6.51445 9.9 4.5 7.93031 4.5 5.5C4.5 3.06969 6.51445 1.1 9 1.1C11.4855 1.1 13.5 3.06969 13.5 5.5C13.5 7.93031 11.4855 9.9 9 9.9ZM9 3.025C9 2.73969 9.05976 2.47156 9.15117 2.21375C9.09844 2.21031 9.05273 2.2 9 2.2C7.13672 2.2 5.625 3.67812 5.625 5.5C5.625 7.32188 7.13672 8.8 9 8.8C10.8633 8.8 12.375 7.32188 12.375 5.5C12.375 5.44844 12.3609 5.40375 12.3609 5.35219C12.1008 5.44156 11.823 5.5 11.5312 5.5C10.132 5.5 9 4.39312 9 3.025Z" fill="#3939A7"/>
</svg>
