<svg version="1.1" xmlns="http://www.w3.org/2000/svg" xmlns:xlink="http://www.w3.org/1999/xlink" width="16" height="16" viewBox="0 0 16 16"><g id="ic_link"><path id="link" d="M7.391,4.947 L6.168,3.724 C6.168,3.724 8.613,1.278 8.613,1.278 C10.302,-0.410 13.039,-0.410 14.727,1.278 C16.416,2.967 16.416,5.704 14.727,7.392 C14.727,7.392 12.282,9.838 12.282,9.838 L11.059,8.615 C11.059,8.615 13.504,6.169 13.504,6.169 C14.517,5.156 14.517,3.514 13.504,2.501 C12.492,1.488 10.849,1.488 9.836,2.501 C9.836,2.501 7.391,4.947 7.391,4.947 zM8.613,11.060 L9.836,12.283 C9.836,12.283 7.391,14.729 7.391,14.729 C5.702,16.417 2.965,16.417 1.277,14.729 C-0.411,13.040 -0.411,10.303 1.277,8.615 C1.277,8.615 3.722,6.169 3.722,6.169 L4.945,7.392 C4.945,7.392 2.500,9.838 2.500,9.838 C1.487,10.851 1.487,12.493 2.500,13.506 C3.512,14.519 5.155,14.519 6.168,13.506 C6.168,13.506 8.613,11.060 8.613,11.060 zM5.557,11.672 L4.334,10.449 L10.448,4.335 L11.670,5.558 L5.557,11.672 z" fill="#9297B7" /></g></svg>