<svg version="1.1" xmlns="http://www.w3.org/2000/svg" xmlns:xlink="http://www.w3.org/1999/xlink" width="22" height="22" viewBox="0 0 22 22"><g id="ic_logout"><path id="LogOut-_icon" d="M21.103,8.350 C20.545,8.562 19.915,8.294 19.696,7.752 C18.319,4.330 15.002,2.119 11.246,2.119 C6.240,2.119 2.167,6.103 2.167,11.000 C2.167,15.896 6.240,19.880 11.246,19.880 C15.002,19.880 18.319,17.670 19.696,14.249 C19.914,13.707 20.544,13.438 21.100,13.650 C21.371,13.754 21.583,13.954 21.698,14.214 C21.814,14.474 21.819,14.762 21.713,15.025 C20.007,19.262 15.898,22.000 11.246,22.000 C5.045,22.000 -0.000,17.065 -0.000,11.000 C-0.000,4.934 5.045,-0.000 11.246,-0.000 C15.898,-0.000 20.007,2.738 21.713,6.976 C21.932,7.518 21.658,8.134 21.103,8.350 zM22.000,11.000 C22.000,11.584 21.551,12.060 21.000,12.060 C21.000,12.060 10.640,12.060 10.640,12.060 C10.640,12.060 12.757,14.130 12.757,14.130 C12.961,14.330 13.074,14.596 13.074,14.879 C13.074,15.163 12.961,15.429 12.756,15.629 C12.551,15.829 12.279,15.939 11.990,15.939 C11.699,15.939 11.427,15.828 11.223,15.627 C11.223,15.627 7.258,11.749 7.258,11.749 C6.835,11.336 6.835,10.663 7.258,10.250 C7.258,10.250 11.224,6.371 11.224,6.371 C11.646,5.957 12.334,5.957 12.756,6.371 C12.961,6.571 13.074,6.837 13.074,7.120 C13.074,7.403 12.961,7.670 12.757,7.870 C12.757,7.870 10.640,9.940 10.640,9.940 C10.640,9.940 21.000,9.940 21.000,9.940 C21.551,9.940 22.000,10.415 22.000,11.000 z" fill="#9297B7" /></g></svg>