<svg width="24" height="25" viewBox="0 0 24 25" fill="none" xmlns="http://www.w3.org/2000/svg">
<path d="M10.1634 6.50015C10.325 6.50076 10.4848 6.53402 10.6332 6.59792C10.7816 6.66181 10.9156 6.75504 11.0271 6.87199L15.6571 11.67C15.8769 11.8942 16 12.1956 16 12.5096C16 12.8236 15.8769 13.125 15.6571 13.3493L10.8591 18.1472C10.7473 18.2591 10.6145 18.3478 10.4684 18.4083C10.3223 18.4688 10.1657 18.5 10.0075 18.5C9.84933 18.5 9.69272 18.4688 9.54659 18.4083C9.40047 18.3478 9.26769 18.2591 9.15586 18.1472C9.04402 18.0354 8.9553 17.9026 8.89477 17.7565C8.83425 17.6104 8.80309 17.4538 8.80309 17.2956C8.80309 17.1374 8.83425 16.9808 8.89477 16.8347C8.9553 16.6886 9.04402 16.5558 9.15585 16.444L13.1142 12.4976L9.29979 8.53929C9.07639 8.31455 8.95099 8.01053 8.95099 7.69365C8.95099 7.37676 9.07639 7.07274 9.29979 6.848C9.4133 6.73539 9.54817 6.6466 9.69648 6.58686C9.8448 6.52712 10.0036 6.49764 10.1634 6.50015Z" fill="#878CAC"/>
</svg>
