<svg width="24" height="24" viewBox="0 0 24 24" fill="none" xmlns="http://www.w3.org/2000/svg">
<path fill-rule="evenodd" clip-rule="evenodd" d="M12 23C6 20.3271 3 17.6604 3 15V5C3 4 3.5 4 5 3C5.16179 2.89214 8.56321 1 12 1C14.9952 1 17.5 2 19 3C20.5 4 21 4 21 5C21.0264 5.29131 21 13.5 21 15C21 17.6667 18 20.3333 12 23ZM19 15C19 14.7697 19.0006 14.3838 19.0018 13.7547C19.0024 13.451 19.0037 12.8626 19.0059 11.8014C19.0072 11.1695 19.0082 10.6273 19.009 10.1098C19.0127 7.87764 19.0117 5.96182 19.0096 5.36928C18.6788 5.16382 18.1627 4.84551 17.8906 4.6641C16.4143 3.67992 14.2602 3 12 3C9.83809 3 7.02864 4.05128 6.1094 4.6641C5.83989 4.84377 5.33104 5.15772 5 5.36333V15C5 16.5085 7.22911 18.5687 12.0009 20.802C16.7722 18.5737 19 16.5142 19 15ZM11 12.5858L15.2929 8.29289L16.7071 9.70711L11 15.4142L7.29289 11.7071L8.70711 10.2929L11 12.5858Z" fill="#878CAC"/>
</svg>
