<svg version="1.1" xmlns="http://www.w3.org/2000/svg" xmlns:xlink="http://www.w3.org/1999/xlink" width="30" height="28" viewBox="0 0 30 28"><g id="ic_pro_star"><path id="icon" d="M29.929,18.219 C29.745,18.769 29.223,19.138 28.630,19.138 C28.487,19.138 28.345,19.116 28.208,19.073 C28.208,19.073 26.904,18.661 26.904,18.661 C26.557,18.551 26.274,18.316 26.109,17.999 C25.943,17.683 25.914,17.322 26.027,16.984 C26.260,16.287 27.032,15.904 27.748,16.130 C27.748,16.130 29.052,16.542 29.052,16.542 C29.768,16.769 30.162,17.521 29.929,18.219 zM23.107,16.080 C23.107,16.080 24.162,22.070 24.162,22.070 C24.325,22.991 23.943,23.905 23.166,24.455 C22.734,24.761 22.226,24.923 21.696,24.923 C21.695,24.923 21.695,24.923 21.695,24.923 C21.292,24.923 20.889,24.826 20.528,24.641 C20.528,24.641 15.004,21.813 15.004,21.813 C15.004,21.813 9.479,24.641 9.479,24.641 C9.109,24.830 8.709,24.924 8.311,24.924 C7.794,24.924 7.280,24.766 6.841,24.455 C6.065,23.906 5.683,22.992 5.845,22.070 C5.845,22.070 6.900,16.080 6.900,16.080 C6.900,16.080 2.431,11.838 2.431,11.838 C1.743,11.185 1.500,10.227 1.797,9.338 C2.094,8.448 2.868,7.812 3.819,7.678 C3.819,7.678 9.995,6.804 9.995,6.804 C9.995,6.804 12.758,1.354 12.758,1.354 C13.183,0.516 14.043,-0.005 15.004,-0.005 C15.964,-0.005 16.825,0.516 17.250,1.354 C17.250,1.354 20.012,6.804 20.012,6.804 C20.012,6.804 26.189,7.678 26.189,7.678 C27.139,7.812 27.914,8.448 28.210,9.338 C28.507,10.227 28.264,11.185 27.577,11.838 C27.577,11.838 23.107,16.080 23.107,16.080 zM19.501,9.420 C18.685,9.305 17.980,8.806 17.614,8.086 C17.614,8.086 15.004,2.935 15.004,2.935 C15.004,2.935 12.393,8.086 12.393,8.086 C12.028,8.806 11.323,9.305 10.507,9.420 C10.507,9.420 4.669,10.246 4.669,10.246 C4.669,10.246 8.893,14.256 8.893,14.256 C9.484,14.816 9.753,15.624 9.614,16.415 C9.614,16.415 8.616,22.077 8.616,22.077 C8.616,22.077 13.838,19.403 13.838,19.403 C14.197,19.220 14.600,19.123 15.004,19.123 C15.408,19.123 15.811,19.220 16.169,19.403 C16.169,19.403 21.391,22.077 21.391,22.077 C21.391,22.077 20.394,16.415 20.394,16.415 C20.254,15.624 20.524,14.817 21.114,14.256 C21.114,14.256 25.339,10.246 25.339,10.246 C25.339,10.246 19.501,9.420 19.501,9.420 zM23.723,4.075 C23.467,4.418 23.054,4.623 22.617,4.623 C22.328,4.623 22.050,4.536 21.815,4.369 C21.520,4.160 21.326,3.852 21.269,3.501 C21.212,3.150 21.298,2.799 21.513,2.511 C21.513,2.511 22.318,1.432 22.318,1.432 C22.761,0.838 23.617,0.706 24.227,1.137 C24.836,1.568 24.972,2.402 24.529,2.995 C24.529,2.995 23.723,4.075 23.723,4.075 zM7.386,4.619 C6.950,4.619 6.536,4.414 6.280,4.071 C6.280,4.071 5.475,2.991 5.475,2.991 C5.260,2.704 5.174,2.352 5.231,2.001 C5.288,1.650 5.482,1.342 5.777,1.133 C6.387,0.702 7.243,0.834 7.685,1.427 C7.685,1.427 8.491,2.507 8.491,2.507 C8.706,2.794 8.792,3.146 8.735,3.497 C8.678,3.848 8.484,4.156 8.189,4.365 C7.954,4.531 7.677,4.619 7.386,4.619 zM3.301,16.209 C3.626,16.370 3.867,16.645 3.980,16.983 C4.213,17.681 3.820,18.433 3.103,18.659 C3.103,18.659 1.800,19.072 1.800,19.072 C1.663,19.115 1.520,19.137 1.377,19.137 C0.783,19.137 0.261,18.768 0.078,18.218 C-0.035,17.880 -0.006,17.519 0.160,17.203 C0.326,16.886 0.608,16.651 0.955,16.542 C0.955,16.542 2.259,16.129 2.259,16.129 C2.606,16.019 2.976,16.048 3.301,16.209 zM15.004,24.005 C15.757,24.005 16.370,24.601 16.370,25.335 C16.370,25.335 16.370,26.670 16.370,26.670 C16.370,27.403 15.757,28.000 15.004,28.000 C14.250,28.000 13.637,27.403 13.637,26.670 C13.637,26.670 13.637,25.335 13.637,25.335 C13.637,24.601 14.250,24.005 15.004,24.005 z" fill="#FFFFFF" /></g></svg>