<svg width="82" height="30" viewBox="0 0 82 30" fill="none" xmlns="http://www.w3.org/2000/svg">
<rect x="52.5" y="0.5" width="29" height="29" rx="8.5" fill="url(#paint0_linear_14049_7823)" stroke="white"/>
<path d="M63.4617 8.61753C63.8984 8.73771 64.3351 8.81784 64.7719 8.93803C65.2086 9.05822 65.6454 9.13834 66.0821 9.25853C66.2012 9.29859 66.2409 9.25853 66.2806 9.13834C66.4395 8.45728 66.5983 7.81628 66.7571 7.13521C66.7968 7.01502 66.8365 6.97496 66.9556 7.01502C67.3527 7.13521 67.71 7.21534 68.107 7.29546C68.2261 7.33552 68.2261 7.37559 68.1864 7.45571C68.0276 8.09671 67.8688 8.77778 67.71 9.41878C67.71 9.45884 67.71 9.4989 67.6703 9.57903C67.9879 9.65916 68.3453 9.73928 68.6629 9.8194C68.7026 9.8194 68.7423 9.73928 68.782 9.69922C68.9011 9.1784 69.0202 8.69765 69.179 8.17684L69.2981 7.69609C69.2981 7.61596 69.3379 7.5759 69.4173 7.61596C69.8143 7.73615 70.2113 7.81628 70.6481 7.93646C70.6878 7.93646 70.6878 7.97653 70.7275 7.97653C70.6084 8.49734 70.4893 8.97809 70.3702 9.45884C70.3305 9.65915 70.2908 9.85947 70.2113 10.0598C70.1716 10.18 70.2113 10.22 70.3305 10.2601L71.6407 10.861C72.0377 11.1014 72.3951 11.4219 72.673 11.8225C73.0303 12.4235 73.07 13.0645 72.9112 13.7055C72.7921 14.1462 72.6333 14.5468 72.3157 14.8673C72.0774 15.1077 71.7598 15.2679 71.4422 15.3881C71.4025 15.3881 71.3628 15.4282 71.2834 15.4282C71.4422 15.5484 71.601 15.6285 71.7598 15.7487C72.2362 16.1092 72.5539 16.5499 72.7127 17.1108C72.7921 17.5515 72.7524 18.0322 72.6333 18.4729C72.4745 19.0338 72.276 19.5146 71.9186 19.9552C71.4819 20.4761 70.926 20.7565 70.2908 20.8366C69.457 20.9568 68.6629 20.8767 67.8688 20.7565C67.7497 20.7164 67.6703 20.7565 67.6306 20.8767C67.4718 21.5177 67.3129 22.1987 67.1541 22.8397C67.1144 23 67.1144 23.0401 66.9159 22.9599C66.5586 22.8798 66.1615 22.7596 65.8042 22.6795C65.6851 22.6394 65.6851 22.5994 65.7248 22.5192C65.8836 21.8382 66.0424 21.1571 66.2409 20.5161C66.2409 20.436 66.2806 20.3959 66.2012 20.3559C65.8836 20.2757 65.566 20.1956 65.2086 20.1155C65.1292 20.4761 65.0101 20.8366 64.9307 21.1972C64.8513 21.5577 64.7322 21.9183 64.6528 22.2789C64.6131 22.359 64.6131 22.3991 64.494 22.359C64.0969 22.2388 63.6999 22.1587 63.3028 22.0786C63.1837 22.0385 63.1837 21.9984 63.2234 21.9183C63.3822 21.2372 63.5411 20.5562 63.7396 19.9152C63.7396 19.8751 63.7793 19.8351 63.7793 19.7549C62.8661 19.5146 61.9529 19.2742 61 19.0338C61.0794 18.8736 61.1191 18.7534 61.1985 18.5931C61.3573 18.2326 61.5162 17.872 61.6353 17.5515C61.675 17.4313 61.7147 17.4313 61.8338 17.4313C62.1117 17.5114 62.4293 17.5915 62.7073 17.6316C63.0249 17.7117 63.2631 17.5515 63.3028 17.271C63.819 15.2279 64.3351 13.1847 64.8116 11.1014C64.891 10.7809 64.6925 10.4203 64.3351 10.3002C63.9778 10.18 63.6205 10.0998 63.3028 10.0197C63.2234 10.0197 63.1837 9.97966 63.2234 9.89953C63.3425 9.45884 63.4617 8.97809 63.5808 8.5374C63.4219 8.65759 63.4219 8.65759 63.4617 8.61753ZM65.4866 18.513C65.5263 18.513 65.566 18.5531 65.566 18.5531C66.2012 18.7133 66.8762 18.9136 67.5512 18.9537C68.0276 18.9937 68.4644 18.9937 68.9011 18.8335C69.6555 18.5931 69.9731 17.5915 69.5364 16.9505C69.3379 16.63 69.0202 16.4297 68.7026 16.2294C67.9879 15.8288 67.1541 15.6685 66.36 15.5083C66.2409 15.4682 66.2409 15.5083 66.2012 15.6285C66.1218 16.0291 66.0027 16.3897 65.9233 16.7903C65.7645 17.3512 65.6454 17.912 65.4866 18.513ZM68.8217 14.4266C68.9011 14.4266 69.0996 14.3865 69.2584 14.3465C70.0128 14.1862 70.4099 13.3049 70.0128 12.6238C69.8143 12.2632 69.457 12.0228 69.0996 11.8626C68.5438 11.6222 67.9879 11.502 67.3924 11.3418C67.2732 11.3017 67.2335 11.3418 67.1938 11.462C66.9953 12.3033 66.7968 13.1045 66.5586 13.9459C66.5189 14.026 66.5586 14.066 66.638 14.1061C66.7968 14.1462 66.9159 14.1862 67.0747 14.2263C67.6703 14.3064 68.1864 14.4266 68.8217 14.4266Z" fill="white"/>
<rect x="26.5" y="0.5" width="29" height="29" rx="8.5" fill="url(#paint1_linear_14049_7823)" stroke="white"/>
<path d="M43.4576 11.7495C42.3649 10.6174 41.5736 9.32352 41.5736 9.32352C41.875 8.83832 42.591 6.04844 41.4982 5.23978C40.4054 4.43112 39.8402 5.92714 39.8402 5.92714C39.3504 7.78707 40.5185 9.48525 40.5185 9.48525L39.1996 12.5986C39.0489 12.5986 34.8663 14.3372 36.2982 16.4802C37.7677 18.6231 39.8025 13.4477 39.8025 13.4477C40.5938 13.1647 43.0055 12.8008 43.0055 12.8008C43.9475 14.1755 45.0779 14.6203 45.0779 14.6203C46.8113 15.1055 46.9997 13.569 46.9997 13.569C47.0374 11.5473 43.4576 11.7495 43.4576 11.7495ZM37.0141 15.7524C36.9764 15.7524 36.9764 15.712 36.9764 15.712C36.7503 15.1459 38.4837 14.0542 38.4837 14.0542C38.4837 14.0542 37.5416 15.995 37.0141 15.7524ZM40.933 5.96758C41.4228 6.45277 41.0083 8.11053 41.0083 8.11053C41.0083 8.11053 40.4431 6.45277 40.933 5.96758ZM40.4808 12.2347L41.1591 10.4556L42.2142 11.8304L40.4808 12.2347ZM46.0577 13.5286C45.7562 14.0542 44.5127 12.9221 44.3997 12.8008C44.5881 12.8008 46.2084 12.9221 46.0577 13.5286Z" fill="white"/>
<path d="M39.073 20.6097C39.073 20.8993 39.0019 21.1652 38.8598 21.4074C38.7177 21.6448 38.4995 21.8371 38.2051 21.9843C37.9107 22.1315 37.5453 22.2051 37.1088 22.2051H36.3018V24H35V19H37.1088C37.5352 19 37.8955 19.0689 38.1899 19.2066C38.4843 19.3443 38.705 19.5342 38.8522 19.7764C38.9994 20.0185 39.073 20.2963 39.073 20.6097ZM37.0099 21.2365C37.2585 21.2365 37.4438 21.1819 37.5656 21.0726C37.6874 20.9634 37.7483 20.8091 37.7483 20.6097C37.7483 20.4103 37.6874 20.2559 37.5656 20.1467C37.4438 20.0375 37.2585 19.9829 37.0099 19.9829H36.3018V21.2365H37.0099Z" fill="white"/>
<path d="M41.3723 19C41.9357 19 42.428 19.1045 42.8493 19.3134C43.2705 19.5223 43.5954 19.8167 43.8237 20.1966C44.0572 20.5717 44.1739 21.0062 44.1739 21.5C44.1739 21.9891 44.0572 22.4236 43.8237 22.8034C43.5954 23.1833 43.268 23.4777 42.8417 23.6866C42.4204 23.8955 41.9306 24 41.3723 24H39.3701V19H41.3723ZM41.2886 22.9459C41.7809 22.9459 42.1641 22.82 42.4382 22.5684C42.7122 22.3167 42.8493 21.9606 42.8493 21.5C42.8493 21.0394 42.7122 20.6809 42.4382 20.4245C42.1641 20.1681 41.7809 20.0399 41.2886 20.0399H40.6719V22.9459H41.2886Z" fill="white"/>
<path d="M48 19V19.9758H45.8227V21.0299H47.4519V21.9772H45.8227V24H44.5208V19H48Z" fill="white"/>
<rect x="0.5" y="0.5" width="29" height="29" rx="8.5" fill="url(#paint2_linear_14049_7823)" stroke="white"/>
<path d="M15.6667 12.3333C16.1971 12.3333 16.7058 12.544 17.0809 12.9191C17.456 13.2942 17.6667 13.8029 17.6667 14.3333C17.6667 14.5101 17.7369 14.6797 17.8619 14.8047C17.987 14.9298 18.1565 15 18.3333 15C18.5101 15 18.6797 14.9298 18.8047 14.8047C18.9298 14.6797 19 14.5101 19 14.3333C19 13.4493 18.6488 12.6014 18.0237 11.9763C17.3986 11.3512 16.5507 11 15.6667 11C15.4899 11 15.3203 11.0702 15.1953 11.1953C15.0702 11.3203 15 11.4899 15 11.6667C15 11.8435 15.0702 12.013 15.1953 12.1381C15.3203 12.2631 15.4899 12.3333 15.6667 12.3333Z" fill="white"/>
<path d="M15.6667 9.66683C16.9044 9.66683 18.0913 10.1585 18.9665 11.0337C19.8417 11.9088 20.3333 13.0958 20.3333 14.3335C20.3333 14.5103 20.4036 14.6799 20.5286 14.8049C20.6536 14.9299 20.8232 15.0002 21 15.0002C21.1768 15.0002 21.3464 14.9299 21.4714 14.8049C21.5964 14.6799 21.6667 14.5103 21.6667 14.3335C21.6667 12.7422 21.0345 11.2161 19.9093 10.0909C18.7841 8.96564 17.258 8.3335 15.6667 8.3335C15.4899 8.3335 15.3203 8.40373 15.1953 8.52876C15.0702 8.65378 15 8.82335 15 9.00016C15 9.17697 15.0702 9.34654 15.1953 9.47157C15.3203 9.59659 15.4899 9.66683 15.6667 9.66683ZM21.5 17.6068C21.4633 17.4998 21.4 17.4039 21.3161 17.3281C21.2321 17.2523 21.1302 17.1991 21.02 17.1735L17.02 16.2602C16.9114 16.2355 16.7984 16.2385 16.6913 16.2688C16.5842 16.2991 16.4863 16.3557 16.4067 16.4335C16.3133 16.5202 16.3067 16.5268 15.8733 17.3535C14.4355 16.6909 13.2833 15.5341 12.6267 14.0935C13.4733 13.6668 13.48 13.6668 13.5667 13.5668C13.6445 13.4872 13.7011 13.3894 13.7314 13.2822C13.7617 13.1751 13.7646 13.0621 13.74 12.9535L12.8267 9.00016C12.8011 8.88996 12.7479 8.78808 12.6721 8.7041C12.5963 8.62013 12.5004 8.55683 12.3933 8.52016C12.2377 8.46456 12.0769 8.42436 11.9133 8.40016C11.7448 8.36109 11.5729 8.33876 11.4 8.3335C10.5867 8.3335 9.80666 8.65659 9.23155 9.2317C8.65644 9.80681 8.33334 10.5868 8.33334 11.4002C8.33687 14.122 9.41967 16.7313 11.3443 18.6559C13.2689 20.5805 15.8782 21.6633 18.6 21.6668C19.0027 21.6668 19.4015 21.5875 19.7736 21.4334C20.1456 21.2793 20.4837 21.0534 20.7685 20.7686C21.0532 20.4839 21.2791 20.1458 21.4332 19.7737C21.5874 19.4017 21.6667 19.0029 21.6667 18.6002C21.6669 18.4305 21.6535 18.261 21.6267 18.0935C21.5987 17.9279 21.5563 17.7651 21.5 17.6068ZM18.6 20.3335C16.2313 20.3317 13.9601 19.39 12.2851 17.715C10.6102 16.0401 9.66844 13.7689 9.66668 11.4002C9.66843 10.941 9.85162 10.5011 10.1763 10.1765C10.501 9.85177 10.9408 9.66859 11.4 9.66683H11.62L12.3333 12.7602L11.9733 12.9468C11.4 13.2468 10.9467 13.4868 11.1867 14.0068C11.5775 15.1132 12.2099 16.1186 13.0378 16.9501C13.8658 17.7815 14.8686 18.4181 15.9733 18.8135C16.5333 19.0402 16.7533 18.6202 17.0533 18.0402L17.2467 17.6735L20.3333 18.3802V18.6002C20.3316 19.0593 20.1484 19.4992 19.8237 19.8239C19.499 20.1486 19.0592 20.3317 18.6 20.3335Z" fill="white"/>
<defs>
<linearGradient id="paint0_linear_14049_7823" x1="67" y1="1" x2="67" y2="29" gradientUnits="userSpaceOnUse">
<stop stop-color="#FFA51F"/>
<stop offset="1" stop-color="#F45800"/>
</linearGradient>
<linearGradient id="paint1_linear_14049_7823" x1="41" y1="1" x2="41" y2="29" gradientUnits="userSpaceOnUse">
<stop stop-color="#FF334B"/>
<stop offset="1" stop-color="#BF0000"/>
</linearGradient>
<linearGradient id="paint2_linear_14049_7823" x1="15" y1="1" x2="15" y2="29" gradientUnits="userSpaceOnUse">
<stop stop-color="#17B7F1"/>
<stop offset="1" stop-color="#1769E5"/>
</linearGradient>
</defs>
</svg>
