<?xml version="1.0" encoding="iso-8859-1"?>
<!-- Generator: Adobe Illustrator 22.1.0, SVG Export Plug-In . SVG Version: 6.00 Build 0)  -->
<svg version="1.1" id="&#x421;&#x43B;&#x43E;&#x439;_1"
	 xmlns="http://www.w3.org/2000/svg" xmlns:xlink="http://www.w3.org/1999/xlink" x="0px" y="0px" viewBox="0 0 65 32"
	 style="enable-background:new 0 0 65 32;" xml:space="preserve">
<g>
	<path style="fill:#989DBB;" d="M37.537,0c8.887,0.008,16.11,7.192,16.102,16.015C53.632,24.837,46.395,32.008,37.508,32
		c-8.887-0.008-16.11-7.192-16.102-16.014C21.414,7.163,28.651-0.008,37.537,0z M37.511,28.72
		c7.065,0.006,12.818-5.694,12.824-12.708C50.342,8.998,44.599,3.287,37.534,3.28S24.717,8.975,24.71,15.988
		C24.704,23.002,30.446,28.713,37.511,28.72z"/>
	<path style="fill:#E2E5ED;" d="M16.117,32c1.875,0,3.676-0.321,5.351-0.908c-1.618-0.567-3.119-1.384-4.455-2.404
		c-0.296,0.02-0.595,0.032-0.897,0.032C9.052,28.72,3.304,23.014,3.304,16S9.052,3.28,16.117,3.28c0.301,0,0.6,0.011,0.896,0.032
		c1.336-1.02,2.836-1.837,4.455-2.404C19.793,0.321,17.992,0,16.117,0C7.23,0,0,7.178,0,16C0,24.822,7.23,32,16.117,32z"/>
	<path style="fill:#C3C9DD;" d="M26.82,32c1.875,0,3.676-0.321,5.351-0.908c-1.618-0.567-3.119-1.384-4.455-2.404
		c-0.296,0.02-0.595,0.032-0.897,0.032c-7.065,0-12.813-5.706-12.813-12.72S19.755,3.28,26.82,3.28c0.301,0,0.6,0.011,0.896,0.032
		c1.336-1.02,2.836-1.837,4.455-2.404C30.496,0.321,28.695,0,26.82,0c-8.887,0-16.117,7.178-16.117,16
		C10.703,24.822,17.933,32,26.82,32z"/>
	<path style="fill:#989DBB;" d="M58.929,28.954l-1.093-2.81c-0.169-0.432-0.66-0.649-1.096-0.482
		c-0.436,0.167-0.654,0.655-0.486,1.088l1.833,4.711c0.166,0.433,0.657,0.649,1.096,0.482l4.745-1.819
		c0.437-0.167,0.654-0.655,0.486-1.088c-0.054-0.143-0.145-0.261-0.257-0.351c-0.228-0.183-0.545-0.244-0.839-0.131l-2.826,1.083
		c4.732-10.034,2.911-20.294,0.438-27.31l2.918,1.119c0.294,0.113,0.61,0.052,0.839-0.131c0.112-0.09,0.203-0.208,0.257-0.351
		c0.169-0.433-0.049-0.921-0.486-1.088l-4.745-1.819c-0.439-0.168-0.93,0.048-1.096,0.482l-1.833,4.711
		c-0.168,0.433,0.049,0.921,0.486,1.088c0.436,0.167,0.927-0.05,1.096-0.482l1.054-2.709C61.738,9.85,63.379,19.521,58.929,28.954z"
		/>
</g>
<g>
</g>
<g>
</g>
<g>
</g>
<g>
</g>
<g>
</g>
<g>
</g>
<g>
</g>
<g>
</g>
<g>
</g>
<g>
</g>
<g>
</g>
<g>
</g>
<g>
</g>
<g>
</g>
<g>
</g>
</svg>
