<svg version="1.1" xmlns="http://www.w3.org/2000/svg" xmlns:xlink="http://www.w3.org/1999/xlink" width="60" height="64" viewBox="0 0 60 64"><g id="ic_delete_action"><path id="delete" d="M29.993,36.611 L36.874,29.943 L41.120,34.056 L34.236,40.722 L41.120,47.390 L36.874,51.502 L29.993,44.835 L23.109,51.502 L18.868,47.390 L25.749,40.722 L18.868,34.056 L23.109,29.943 L29.993,36.611 zM14.988,8.738 C14.988,8.738 14.988,5.830 14.988,5.830 C14.988,2.619 17.673,0.015 20.991,0.015 C20.991,0.015 38.997,0.015 38.997,0.015 C42.310,0.015 44.998,2.619 44.998,5.830 C44.998,5.830 44.998,8.738 44.998,8.738 C44.998,8.738 54.002,8.738 54.002,8.738 C57.319,8.738 60.005,11.341 60.005,14.553 C60.005,14.553 60.005,20.369 60.005,20.369 C60.005,23.581 57.319,26.184 54.002,26.184 C54.002,26.184 53.764,26.184 53.764,26.184 C53.764,26.184 51.000,58.169 51.000,58.169 C51.000,61.381 48.315,63.984 44.998,63.984 C44.998,63.984 14.988,63.984 14.988,63.984 C11.671,63.984 8.987,61.381 8.996,58.411 C8.996,58.411 6.224,26.184 6.224,26.184 C6.224,26.184 5.984,26.184 5.984,26.184 C2.666,26.184 -0.017,23.581 -0.017,20.369 C-0.017,20.369 -0.017,14.553 -0.017,14.553 C-0.017,11.341 2.666,8.738 5.984,8.738 C5.984,8.738 14.988,8.738 14.988,8.738 zM14.988,14.553 L5.984,14.553 L5.984,20.369 L54.002,20.369 L54.002,14.553 L44.998,14.553 L14.988,14.553 zM12.246,26.184 L14.988,58.169 L44.998,58.169 L45.008,57.928 L47.739,26.184 L12.246,26.184 zM38.997,8.738 L38.997,5.830 L20.991,5.830 L20.991,8.738 L38.997,8.738 z" fill="#9297B7" /></g></svg>