<svg version="1.1" xmlns="http://www.w3.org/2000/svg" xmlns:xlink="http://www.w3.org/1999/xlink" width="34" height="20" viewBox="0 0 34 20"><g id="ic_arrow_down"><path id="Arrow" d="M32.965,5.774 C32.965,5.774 19.483,19.004 19.483,19.004 C18.778,19.699 17.843,20.019 16.918,19.983 C15.994,20.019 15.059,19.699 14.354,19.004 C14.354,19.004 1.016,5.911 1.016,5.911 C-0.328,4.586 -0.328,2.442 1.016,1.119 C2.360,-0.204 4.536,-0.204 5.880,1.119 C5.880,1.119 16.918,11.958 16.918,11.958 C16.918,11.958 28.104,0.981 28.104,0.981 C29.445,-0.342 31.621,-0.342 32.965,0.981 C34.309,2.304 34.309,4.449 32.965,5.774 z" fill="#9297B7" /></g></svg>