<?xml version="1.0" encoding="iso-8859-1"?>
<!-- Generator: Adobe Illustrator 22.1.0, SVG Export Plug-In . SVG Version: 6.00 Build 0)  -->
<svg version="1.1" id="&#x421;&#x43B;&#x43E;&#x439;_1"
	 xmlns="http://www.w3.org/2000/svg" xmlns:xlink="http://www.w3.org/1999/xlink" x="0px" y="0px" viewBox="0 0 32 32"
	 style="enable-background:new 0 0 32 32;" xml:space="preserve">
<path id="Effects_icon" style="fill:#9297B7;" d="M9.475,25.413H7.712c-0.081,0-0.161,0.008-0.24,0.023
	c-0.001-0.023-0.003-0.047-0.008-0.07c0.009-0.062,0.015-0.124,0.016-0.187v-1.751c0-0.695-0.563-1.258-1.258-1.258
	s-1.258,0.563-1.258,1.258v1.751c0.001,0.063,0.007,0.125,0.016,0.187c-0.005,0.023-0.007,0.046-0.008,0.07
	c-0.079-0.015-0.159-0.023-0.24-0.023H2.968c-0.69-0.001-1.25,0.557-1.251,1.246c-0.001,0.689,0.557,1.25,1.246,1.251
	c0.002,0,0.003,0,0.005,0h1.764c0.087,0,0.174-0.01,0.26-0.028c-0.017,0.086-0.027,0.173-0.028,0.26v1.751
	c0,0.695,0.563,1.258,1.258,1.258s1.258-0.563,1.258-1.258l0,0v-1.751c-0.001-0.087-0.011-0.175-0.028-0.26
	c0.085,0.018,0.173,0.027,0.26,0.028h1.764c0.69,0,1.249-0.559,1.249-1.248C10.724,25.972,10.165,25.413,9.475,25.413z
	 M24.241,8.278h1.76c0.081,0,0.161-0.008,0.24-0.023l0.012,0.07c-0.011,0.062-0.017,0.124-0.016,0.187v1.751
	c0,0.693,0.562,1.256,1.256,1.256c0.694,0,1.256-0.562,1.256-1.256v-1.75c-0.001-0.063-0.007-0.125-0.016-0.187
	c0.005-0.023,0.007-0.046,0.008-0.07C28.82,8.27,28.9,8.278,28.98,8.278h1.764c0.69,0.001,1.25-0.557,1.251-1.246
	c0.001-0.689-0.557-1.25-1.246-1.251c-0.002,0-0.003,0-0.005,0H28.98c-0.087,0-0.174,0.01-0.26,0.028
	c0.017-0.086,0.027-0.173,0.028-0.26V3.799c0-0.693-0.562-1.256-1.256-1.256c-0.694,0-1.256,0.562-1.256,1.256V5.55
	c-0.001,0.088,0.009,0.175,0.028,0.26c-0.087-0.018-0.175-0.027-0.264-0.028h-1.76c-0.689-0.024-1.267,0.515-1.291,1.204
	c-0.024,0.689,0.515,1.267,1.205,1.291C24.184,8.279,24.212,8.279,24.241,8.278L24.241,8.278z M18.51,14.452l2.58-0.52
	c1.354-0.267,2.236-1.581,1.969-2.935c-0.196-0.995-0.974-1.772-1.969-1.968l-2.58-0.52c-1.995-0.395-3.558-1.949-3.963-3.942
	l-0.524-2.563c-0.281-1.363-1.614-2.239-2.977-1.958C10.06,0.249,9.29,1.019,9.087,2.004l-0.52,2.563
	C8.158,6.559,6.595,8.113,4.6,8.509l-2.58,0.52c-1.354,0.267-2.236,1.581-1.969,2.935c0.196,0.995,0.974,1.772,1.969,1.968
	l2.58,0.52c1.995,0.396,3.559,1.949,3.967,3.942l0.52,2.563c0.281,1.363,1.614,2.239,2.977,1.958
	c0.985-0.203,1.755-0.973,1.959-1.958l0.524-2.563C14.952,16.401,16.515,14.847,18.51,14.452L18.51,14.452z M11.847,17.851
	l-0.292,1.42l-0.288-1.42c-0.629-3.074-3.041-5.471-6.119-6.081L3.72,11.482l1.428-0.288c3.078-0.61,5.49-3.007,6.119-6.081
	l0.288-1.42l0.292,1.42c0.628,3.073,3.038,5.47,6.115,6.081l1.432,0.288l-1.432,0.288c-3.077,0.611-5.487,3.007-6.115,6.08
	L11.847,17.851z M30.36,21.468l-1.868-0.376c-1.356-0.271-2.418-1.328-2.696-2.682l-0.38-1.855
	c-0.231-1.106-1.315-1.816-2.422-1.585c-0.797,0.166-1.419,0.789-1.585,1.585l-0.376,1.855c-0.278,1.356-1.342,2.413-2.7,2.682
	l-1.868,0.376c-1.1,0.215-1.817,1.28-1.603,2.38c0.158,0.81,0.792,1.444,1.603,1.602l1.868,0.376c1.358,0.269,2.422,1.326,2.7,2.682
	l0.376,1.855c0.231,1.106,1.315,1.816,2.422,1.585c0.797-0.166,1.419-0.789,1.585-1.585l0.38-1.855
	c0.277-1.355,1.339-2.412,2.696-2.682l1.868-0.376c1.1-0.213,1.819-1.277,1.606-2.377c-0.157-0.813-0.793-1.449-1.606-1.606V21.468z
	 M23.413,27.991c-0.482-2.283-2.273-4.063-4.559-4.532c2.286-0.468,4.077-2.248,4.559-4.532c0.482,2.283,2.273,4.063,4.559,4.532
	c-2.286,0.468-4.077,2.248-4.559,4.53L23.413,27.991z"/>
</svg>
