<svg version="1.1" xmlns="http://www.w3.org/2000/svg" xmlns:xlink="http://www.w3.org/1999/xlink" width="26" height="32" viewBox="0 0 26 32"><g id="ic_fastlink"><path id="Fast-Links-icon" d="M11.767,15.821 C12.586,14.636 12.495,13.389 11.926,11.144 C10.802,6.705 11.250,4.272 15.126,1.391 C15.126,1.391 17.018,-0.014 17.018,-0.014 C17.018,-0.014 17.475,2.341 17.475,2.341 C17.962,4.844 18.760,6.393 20.811,9.371 C20.892,9.489 20.892,9.489 20.974,9.608 C23.927,13.899 25.006,16.485 25.006,21.182 C25.006,26.880 19.412,31.996 13.003,31.996 C6.595,31.996 1.001,26.880 1.001,21.182 C1.001,21.075 1.001,21.079 0.983,20.608 C0.847,16.967 1.502,14.118 4.147,11.042 C4.706,10.392 5.342,9.767 6.056,9.169 C6.056,9.169 7.635,7.849 7.635,7.849 C7.635,7.849 8.393,9.791 8.393,9.791 C8.955,11.226 9.612,12.354 10.354,13.182 C10.983,13.883 11.451,14.765 11.767,15.821 zM6.394,13.090 C4.357,15.458 3.873,17.568 3.982,20.490 C4.002,21.033 4.002,21.014 4.002,21.182 C4.002,25.087 8.178,28.906 13.003,28.906 C17.829,28.906 22.006,25.086 22.006,21.182 C22.006,17.255 21.153,15.211 18.526,11.395 C18.445,11.277 18.445,11.277 18.363,11.158 C16.767,8.841 15.816,7.228 15.187,5.426 C14.160,6.693 14.220,7.954 14.830,10.364 C15.954,14.804 15.507,17.237 11.631,20.117 C11.631,20.117 9.421,21.760 9.421,21.760 C9.421,21.760 9.256,18.959 9.256,18.959 C9.149,17.169 8.756,15.954 8.151,15.278 C7.552,14.611 7.012,13.830 6.527,12.937 C6.482,12.988 6.438,13.039 6.394,13.090 z" fill="#9297B7" /></g></svg>