<?xml version="1.0" encoding="iso-8859-1"?>
<!-- Generator: Adobe Illustrator 22.1.0, SVG Export Plug-In . SVG Version: 6.00 Build 0)  -->
<svg version="1.1" id="Capa_1" xmlns="http://www.w3.org/2000/svg" xmlns:xlink="http://www.w3.org/1999/xlink" x="0px" y="0px"
	 viewBox="0 0 512 512" style="enable-background:new 0 0 512 512;" xml:space="preserve">
<g>
	<circle style="fill:#239AE7;" cx="256" cy="256" r="256"/>
	<g>
		<path style="fill:#FFFFFF;" d="M385.542,312.889l34.324-34.321c3.433-3.432,4.814-8.303,3.699-13.029
			c-1.114-4.723-4.528-8.459-9.135-9.996l-211.946-70.65c-5.029-1.677-10.482-0.39-14.232,3.36
			c-3.748,3.752-5.036,9.205-3.36,14.231l70.65,211.948c1.537,4.604,5.274,8.02,9.997,9.137c1.076,0.254,2.16,0.378,3.233,0.378
			c3.636,0,7.145-1.43,9.795-4.081l34.322-34.321l20.107,20.104c2.627,2.628,6.12,4.074,9.835,4.074
			c3.713,0,7.205-1.446,9.832-4.074l52.988-52.983c5.42-5.424,5.418-14.247-0.005-19.668L385.542,312.889z M351.972,312.888
			c0,3.716,1.446,7.209,4.073,9.834l20.106,20.106l-33.323,33.32l-20.105-20.104c-2.626-2.627-6.118-4.074-9.833-4.074
			s-7.207,1.447-9.832,4.074l-28.245,28.244l-54.738-164.214l164.215,54.738l-28.244,28.244
			C353.419,305.681,351.973,309.172,351.972,312.888z"/>
		<path style="fill:#FFFFFF;" d="M195.288,159.538c7.668,0,13.905-6.237,13.905-13.905v-37.018c0-7.668-6.237-13.906-13.905-13.906
			s-13.906,6.238-13.906,13.906v37.017C181.382,153.3,187.62,159.538,195.288,159.538z"/>
		<path style="fill:#FFFFFF;" d="M124.427,104.759c-5.422-5.419-14.245-5.418-19.669,0c-5.418,5.423-5.418,14.246,0.001,19.668
			l40.349,40.349c2.711,2.709,6.271,4.063,9.833,4.063s7.124-1.354,9.836-4.064c5.418-5.423,5.418-14.245-0.001-19.667
			L124.427,104.759z"/>
		<path style="fill:#FFFFFF;" d="M135.107,235.799l-42.988,42.988c-5.418,5.423-5.418,14.245,0.001,19.669
			c2.712,2.709,6.272,4.063,9.834,4.063c3.561,0,7.122-1.354,9.833-4.064l42.989-42.987c5.418-5.423,5.418-14.245-0.001-19.669
			C149.352,230.381,140.529,230.382,135.107,235.799z"/>
		<path style="fill:#FFFFFF;" d="M245.636,158.841c3.562,0,7.122-1.355,9.832-4.066l42.987-42.987
			c2.628-2.627,4.074-6.12,4.074-9.834s-1.446-7.207-4.074-9.834c-5.42-5.422-14.243-5.421-19.667,0l-42.984,42.988
			c-5.422,5.422-5.422,14.244,0,19.667C238.515,157.486,242.075,158.841,245.636,158.841z"/>
		<path style="fill:#FFFFFF;" d="M108.615,209.194h37.017c7.668,0,13.906-6.238,13.906-13.906s-6.238-13.906-13.906-13.906h-37.017
			c-7.668,0-13.906,6.238-13.906,13.906S100.947,209.194,108.615,209.194z"/>
	</g>
</g>
</svg>
