<svg width="16" height="16" viewBox="0 0 16 16" fill="none" xmlns="http://www.w3.org/2000/svg">
<g clip-path="url(#clip0_15086_7104)">
<path d="M4.84503 9.42399C4.69983 9.55113 4.60384 9.74041 4.57817 9.95019C4.5525 10.16 4.59926 10.3731 4.70816 10.5426C4.81706 10.7121 4.97918 10.8242 5.15885 10.8541C5.33853 10.8841 5.52104 10.8295 5.66624 10.7024L7.30866 9.26419L7.30866 15.201C7.30866 15.4129 7.38076 15.6161 7.5091 15.766C7.63744 15.9158 7.81151 16 7.99301 16C8.17451 16 8.34857 15.9158 8.47691 15.766C8.60525 15.6161 8.67735 15.4129 8.67735 15.201L8.67735 9.19228L10.3471 10.5665C10.4207 10.6279 10.5039 10.6716 10.592 10.6951C10.6801 10.7187 10.7713 10.7216 10.8604 10.7038C10.9495 10.6859 11.0347 10.6477 11.111 10.5912C11.1874 10.5348 11.2534 10.4612 11.3052 10.3748C11.3864 10.239 11.4295 10.077 11.4284 9.91137C11.4279 9.78461 11.4016 9.65981 11.3516 9.54728C11.3016 9.43474 11.2294 9.33771 11.141 9.26419L8.40361 7.01102C8.28641 6.91103 8.14501 6.85714 7.99985 6.85714C7.85469 6.85714 7.71329 6.91103 7.59609 7.01102L4.84503 9.42399Z" fill="#878CAC"/>
<path fill-rule="evenodd" clip-rule="evenodd" d="M1.65259 2.62026C1.68441 2.8245 1.8461 2.95198 2.05817 2.9681C3.21053 3.05571 5.11636 3.14919 8 3.14919C10.8836 3.14919 12.7895 3.05571 13.9418 2.96811C14.1539 2.95198 14.3156 2.8245 14.3474 2.62026C14.4021 2.26914 14.4021 2.30226 14.3474 1.95114C14.3156 1.74689 14.1539 1.61941 13.9418 1.60329C12.7895 1.51568 10.8836 1.4222 8 1.4222C5.11636 1.4222 3.21053 1.51568 2.05817 1.60329C1.8461 1.61941 1.68441 1.74689 1.65259 1.95114C1.59788 2.30226 1.59788 2.26914 1.65259 2.62026ZM0.049636 2.81323C0.182573 3.6665 0.942674 4.31083 1.91876 4.38504C3.12442 4.4767 5.07736 4.57141 8 4.57141C10.9226 4.57141 12.8756 4.4767 14.0812 4.38504C15.0573 4.31083 15.8174 3.6665 15.9504 2.81323C16.0165 2.38845 16.0165 2.18295 15.9504 1.75816C15.8174 0.904895 15.0573 0.260561 14.0812 0.186355C12.8756 0.0946955 10.9226 -1.80083e-05 8 -1.81388e-05C5.07736 -1.82694e-05 3.12442 0.094695 1.91876 0.186354C0.942675 0.260561 0.182573 0.904894 0.0496361 1.75816C-0.0165453 2.18295 -0.0165454 2.38845 0.049636 2.81323Z" fill="#878CAC"/>
</g>
<defs>
<clipPath id="clip0_15086_7104">
<rect width="16" height="16" fill="white" transform="translate(0 16) rotate(-90)"/>
</clipPath>
</defs>
</svg>
