<svg width="16" height="16" viewBox="0 0 16 16" fill="none" xmlns="http://www.w3.org/2000/svg">
<g clip-path="url(#clip0_15086_7068)">
<path d="M11.155 6.57601C11.3002 6.44887 11.3962 6.25959 11.4218 6.04981C11.4475 5.84004 11.4007 5.62695 11.2918 5.45742C11.1829 5.2879 11.0208 5.17582 10.8411 5.14586C10.6615 5.11589 10.479 5.17048 10.3338 5.29762L8.69134 6.73581L8.69134 0.798994C8.69134 0.587087 8.61924 0.38386 8.4909 0.23402C8.36256 0.0841792 8.18849 -2.04288e-07 8.00699 -2.15731e-07C7.82549 -2.27174e-07 7.65143 0.0841792 7.52309 0.23402C7.39475 0.38386 7.32265 0.587087 7.32265 0.798993L7.32265 6.80772L5.65285 5.43345C5.5793 5.37214 5.49607 5.32845 5.40798 5.30489C5.31988 5.28134 5.22866 5.27839 5.13958 5.29622C5.05051 5.31405 4.96534 5.3523 4.88899 5.40877C4.81265 5.46524 4.74664 5.5388 4.69477 5.62521C4.61356 5.76104 4.57051 5.92298 4.57159 6.08863C4.57209 6.21539 4.59842 6.34019 4.6484 6.45272C4.69838 6.56526 4.77057 6.66229 4.85901 6.73581L7.59639 8.98897C7.71359 9.08897 7.85499 9.14286 8.00015 9.14286C8.14531 9.14286 8.28671 9.08897 8.40391 8.98898L11.155 6.57601Z" fill="#878CAC"/>
<path fill-rule="evenodd" clip-rule="evenodd" d="M14.3474 13.3797C14.3156 13.1755 14.1539 13.048 13.9418 13.0319C12.7895 12.9443 10.8836 12.8508 8 12.8508C5.11636 12.8508 3.21053 12.9443 2.05817 13.0319C1.8461 13.048 1.68441 13.1755 1.65259 13.3797C1.59789 13.7309 1.59789 13.6977 1.65259 14.0489C1.68441 14.2531 1.8461 14.3806 2.05817 14.3967C3.21053 14.4843 5.11636 14.5778 8 14.5778C10.8836 14.5778 12.7895 14.4843 13.9418 14.3967C14.1539 14.3806 14.3156 14.2531 14.3474 14.0489C14.4021 13.6977 14.4021 13.7309 14.3474 13.3797ZM15.9504 13.1868C15.8174 12.3335 15.0573 11.6892 14.0812 11.615C12.8756 11.5233 10.9226 11.4286 8 11.4286C5.07736 11.4286 3.12442 11.5233 1.91876 11.615C0.942674 11.6892 0.182574 12.3335 0.0496364 13.1868C-0.0165453 13.6116 -0.0165453 13.8171 0.0496364 14.2418C0.182574 15.0951 0.942673 15.7394 1.91876 15.8136C3.12442 15.9053 5.07736 16 8 16C10.9226 16 12.8756 15.9053 14.0812 15.8136C15.0573 15.7394 15.8174 15.0951 15.9504 14.2418C16.0165 13.8171 16.0165 13.6116 15.9504 13.1868Z" fill="#878CAC"/>
</g>
<defs>
<clipPath id="clip0_15086_7068">
<rect width="16" height="16" fill="white" transform="translate(16) rotate(90)"/>
</clipPath>
</defs>
</svg>
