<?xml version="1.0" encoding="iso-8859-1"?>
<!-- Generator: Adobe Illustrator 22.1.0, SVG Export Plug-In . SVG Version: 6.00 Build 0)  -->
<svg version="1.1" id="&#x421;&#x43B;&#x43E;&#x439;_1"
	 xmlns="http://www.w3.org/2000/svg" xmlns:xlink="http://www.w3.org/1999/xlink" x="0px" y="0px" viewBox="0 0 74 32"
	 style="enable-background:new 0 0 74 32;" xml:space="preserve">
<g>
	<path style="fill:#989DBB;" d="M37.014,1.087c-0.004,0-0.009,0-0.014,0c-3.996,0-7.758,1.547-10.594,4.356
		c-2.839,2.812-4.405,6.548-4.409,10.518c-0.004,3.97,1.555,7.709,4.389,10.526c2.834,2.818,6.598,4.371,10.599,4.375
		c0.005,0,0.009,0,0.014,0c8.265,0,14.995-6.67,15.002-14.874C52.01,7.779,45.286,1.095,37.014,1.087z M48.744,15.985
		C48.738,22.408,43.471,27.629,37,27.629c-0.004,0-0.007,0-0.011,0c-3.132-0.003-6.079-1.219-8.297-3.425
		c-2.219-2.206-3.439-5.132-3.436-8.24c0.006-6.426,5.267-11.647,11.755-11.643C43.486,4.327,48.75,9.559,48.744,15.985z"/>
	<path style="fill:#C3C9DD;" d="M48.242,1.215c-1.925-0.002-3.766,0.363-5.456,1.026c1.31,0.546,2.525,1.272,3.616,2.146
		c0.599-0.094,1.212-0.146,1.837-0.145c6.52,0.006,11.82,5.274,11.814,11.745c-0.006,6.47-5.315,11.729-11.835,11.723
		c-0.618-0.001-1.223-0.053-1.816-0.145c-1.091,0.874-2.306,1.6-3.617,2.146c1.683,0.659,3.514,1.024,5.429,1.025
		c8.202,0.007,14.88-6.608,14.887-14.747C63.11,7.849,56.444,1.222,48.242,1.215z"/>
	<path style="fill:#E2E5ED;" d="M57.917,0c-2.396,0-4.71,0.516-6.816,1.494c1.688,0.329,3.274,0.942,4.707,1.788
		c0.684-0.111,1.384-0.171,2.099-0.171c3.465,0.003,6.717,1.346,9.166,3.78c2.449,2.435,3.796,5.665,3.793,9.096
		c-0.006,7.087-5.822,12.853-12.964,12.853c-0.709-0.001-1.408-0.06-2.095-0.171c-1.432,0.845-3.018,1.459-4.706,1.788
		c2.099,0.975,4.403,1.491,6.786,1.493c8.876,0,16.105-7.16,16.113-15.96C74.008,7.181,66.793,0.008,57.917,0z"/>
	<path style="fill:#C3C9DD;" d="M25.758,30.785c1.925,0.002,3.766-0.363,5.456-1.026c-1.31-0.546-2.525-1.272-3.616-2.146
		c-0.599,0.094-1.212,0.146-1.837,0.145c-6.52-0.006-11.82-5.274-11.814-11.745c0.006-6.47,5.315-11.729,11.835-11.723
		c0.618,0.001,1.223,0.053,1.816,0.145c1.091-0.874,2.306-1.6,3.617-2.146c-1.683-0.659-3.514-1.024-5.429-1.025
		c-8.202-0.007-14.88,6.608-14.887,14.747C10.89,24.151,17.556,30.778,25.758,30.785z"/>
	<path style="fill:#E2E5ED;" d="M16.083,32c2.396,0,4.71-0.516,6.816-1.494c-1.688-0.329-3.274-0.942-4.707-1.788
		c-0.684,0.111-1.384,0.171-2.099,0.171c-3.465-0.003-6.717-1.346-9.166-3.78c-2.449-2.435-3.796-5.665-3.793-9.096
		C3.141,8.926,8.956,3.161,16.098,3.161c0.709,0.001,1.408,0.06,2.095,0.171c1.432-0.845,3.018-1.459,4.706-1.788
		C20.8,0.569,18.496,0.053,16.113,0.05C7.237,0.05,0.008,7.21,0,16.011C-0.008,24.819,7.207,31.992,16.083,32z"/>
</g>
<g>
</g>
<g>
</g>
<g>
</g>
<g>
</g>
<g>
</g>
<g>
</g>
<g>
</g>
<g>
</g>
<g>
</g>
<g>
</g>
<g>
</g>
<g>
</g>
<g>
</g>
<g>
</g>
<g>
</g>
</svg>
