<svg width="31" height="11" viewBox="0 0 31 11" fill="none" xmlns="http://www.w3.org/2000/svg">
<path fill-rule="evenodd" clip-rule="evenodd" d="M4.5 0C2.84822 0 1.57409 1.39545 1.57409 3.07358V3.64763H1.28623C0.644258 3.64763 0 4.16628 0 4.94884V9.62789C0 10.4146 0.644221 10.9154 1.25465 10.9979L1.27037 11H7.71377C8.04897 11 8.36865 10.8432 8.60159 10.6124C8.83533 10.3808 9 10.0566 9 9.69879V4.94884C9 4.16628 8.35574 3.64763 7.71377 3.64763H7.42591V3.07358C7.42591 1.3916 6.08254 0 4.5 0ZM3.16275 3.07358C3.16275 2.27917 3.84781 1.6099 4.56559 1.6099C5.27125 1.6099 5.90283 2.26644 5.90283 3.07358V3.64763H3.16275V3.07358ZM4.5 6.48342C4.2854 6.48342 4.09538 6.59648 3.96574 6.73661C3.83504 6.87789 3.73846 7.07523 3.73846 7.28837C3.73846 7.5015 3.83504 7.69885 3.96574 7.84012C4.09538 7.98025 4.2854 8.09332 4.5 8.09332C4.7146 8.09332 4.90462 7.98025 5.03426 7.84012C5.16496 7.69885 5.26154 7.5015 5.26154 7.28837C5.26154 7.07523 5.16496 6.87789 5.03426 6.73661C4.90462 6.59648 4.7146 6.48342 4.5 6.48342ZM17.121 5.724C17.289 5.418 17.373 5.082 17.373 4.716C17.373 4.32 17.286 3.969 17.112 3.663C16.938 3.357 16.677 3.117 16.329 2.943C15.981 2.769 15.555 2.682 15.051 2.682H12.558V9H14.097V6.732H15.051C15.567 6.732 15.999 6.639 16.347 6.453C16.695 6.267 16.953 6.024 17.121 5.724ZM15.591 5.301C15.447 5.439 15.228 5.508 14.934 5.508H14.097V3.924H14.934C15.228 3.924 15.447 3.993 15.591 4.131C15.735 4.269 15.807 4.464 15.807 4.716C15.807 4.968 15.735 5.163 15.591 5.301ZM20.0822 6.615L21.3962 9H23.1332L21.6752 6.498C22.1372 6.36 22.4852 6.126 22.7192 5.796C22.9592 5.466 23.0792 5.091 23.0792 4.671C23.0792 4.299 22.9922 3.963 22.8182 3.663C22.6442 3.357 22.3802 3.117 22.0262 2.943C21.6782 2.769 21.2552 2.682 20.7572 2.682H18.1742V9H19.7132V6.615H20.0822ZM20.6672 5.526H19.7132V3.96H20.6672C20.9492 3.96 21.1592 4.029 21.2972 4.167C21.4412 4.305 21.5132 4.494 21.5132 4.734C21.5132 4.986 21.4412 5.181 21.2972 5.319C21.1592 5.457 20.9492 5.526 20.6672 5.526ZM25.3953 8.649C25.8933 8.925 26.4393 9.063 27.0333 9.063C27.6273 9.063 28.1703 8.925 28.6623 8.649C29.1543 8.373 29.5443 7.989 29.8323 7.497C30.1203 6.999 30.2643 6.441 30.2643 5.823C30.2643 5.205 30.1203 4.65 29.8323 4.158C29.5503 3.666 29.1603 3.282 28.6623 3.006C28.1703 2.73 27.6273 2.592 27.0333 2.592C26.4393 2.592 25.8933 2.73 25.3953 3.006C24.9033 3.282 24.5103 3.666 24.2163 4.158C23.9283 4.65 23.7843 5.205 23.7843 5.823C23.7843 6.441 23.9283 6.999 24.2163 7.497C24.5103 7.989 24.9033 8.373 25.3953 8.649ZM28.2393 7.155C27.9393 7.491 27.5373 7.659 27.0333 7.659C26.5233 7.659 26.1153 7.494 25.8093 7.164C25.5093 6.828 25.3593 6.381 25.3593 5.823C25.3593 5.259 25.5093 4.812 25.8093 4.482C26.1153 4.152 26.5233 3.987 27.0333 3.987C27.5373 3.987 27.9393 4.155 28.2393 4.491C28.5453 4.821 28.6983 5.265 28.6983 5.823C28.6983 6.375 28.5453 6.819 28.2393 7.155Z" fill="white"/>
</svg>
