<svg width="165" height="117" viewBox="0 0 165 117" fill="none" xmlns="http://www.w3.org/2000/svg">
<path d="M87.1019 87.422C90.2014 87.6286 93.2319 88.1796 95.987 89.0061C100.533 90.3148 104.872 91.8301 109.693 92.3811C114.17 92.9321 118.785 91.6234 122.504 89.4194C126.224 87.2153 146.542 71.7181 144.683 61.1112C143.236 52.846 132.767 52.9149 125.948 51.3307C125.879 51.3307 125.879 51.3307 125.811 51.3307C119.749 49.9532 115.066 46.3716 116.306 40.8615C116.994 37.8309 118.992 35.1447 120.851 32.5274C126.155 24.6755 127.946 8.76505 114.997 5.1146C111.346 4.08145 107.42 4.21921 103.632 4.63246C70.1583 8.55842 42.6766 34.1116 31.5875 59.1137C28.6947 65.5881 25.6641 73.2334 27.2483 80.2588C28.6258 86.0444 33.0339 91.4168 39.5083 93.9652C50.6663 98.3733 60.5845 91.0724 70.9848 88.5929C76.0128 87.422 81.6607 87.0087 87.1019 87.422Z" fill="#E7F8FF"/>
<path d="M77.184 116.006C101.643 116.006 121.472 112.768 121.472 108.774C121.472 104.78 101.643 101.542 77.184 101.542C52.7247 101.542 32.8965 104.78 32.8965 108.774C32.8965 112.768 52.7247 116.006 77.184 116.006Z" fill="#B4E4FC"/>
<path d="M32.7573 24.1248C30.8976 22.4029 28.6936 21.7141 26.1452 22.2651C23.3901 23.0916 21.5993 25.0202 19.9463 27.2242C19.1198 28.3951 18.3621 28.7395 17.0535 28.0507C15.8826 27.4308 14.7805 27.7752 13.8852 28.6706C11.8877 30.5992 10.2347 32.8032 8.65054 35.0761C8.37504 35.4205 8.16841 35.8338 8.65054 36.1782C9.13268 36.3159 9.27043 35.8338 9.54594 35.5583C10.7857 33.9052 12.0255 32.2522 13.403 30.7369C15.3316 28.464 15.3316 28.464 18.0866 29.4971C18.8443 29.7726 19.3953 29.7038 19.8774 29.015C20.9106 27.6375 22.0126 26.2599 23.2524 25.089C25.8697 22.6784 28.9002 22.4717 31.5864 24.4692C33.4461 25.8467 33.7216 27.0865 32.6884 29.2216C32.4129 29.8415 31.793 30.3237 31.8619 31.0813C32.1374 31.219 32.4129 31.3568 32.7573 31.0813C34.7547 29.2216 34.7547 25.9156 32.7573 24.1248Z" fill="#2975CE"/>
<path d="M8.1692 40.7931C7.54931 40.1043 7.20493 39.2778 7.68707 38.3135C7.8937 37.9002 8.23808 37.4181 7.61819 37.1426C7.06718 36.936 6.86055 37.5559 6.7228 37.9691C6.24066 39.2089 6.58504 40.3109 7.27381 41.3441C8.51358 43.1349 10.2355 44.4435 11.6819 45.9588C13.6793 47.8185 15.8834 49.3337 18.1563 50.7113C18.7073 51.0556 19.1894 51.4 19.3961 50.4358C18.2252 49.6781 17.0543 48.8516 15.9522 48.094C12.9217 46.0277 10.4421 43.4792 8.1692 40.7931Z" fill="#2975CE"/>
<path d="M31.1746 40.2416C30.6236 39.8973 30.4858 40.4483 30.2103 40.7238C27.7308 44.6497 25.2512 48.5068 21.1875 51.0552C21.8763 51.8818 22.7028 51.8818 23.5982 50.8486C25.4578 48.7134 27.2486 46.5094 29.1083 44.3742C29.8659 43.41 30.6925 42.5146 31.1057 41.2748C31.2435 40.8615 31.5878 40.5172 31.1746 40.2416Z" fill="#2975CE"/>
<path d="M21.5319 49.9535C21.9452 49.8158 22.4273 49.6092 22.7028 49.1959C24.838 46.4408 26.9732 43.6169 29.1083 40.8618C29.2461 40.6552 29.315 40.4486 29.4527 40.242C29.5905 39.9665 29.7282 39.5532 29.3838 39.3466C29.0394 39.1399 28.7639 39.4154 28.6262 39.7598C27.7308 41.5506 26.2844 42.9281 25.0446 44.5123C23.8048 46.1653 22.9094 48.0939 20.9809 49.127C20.7743 49.2648 20.7054 49.5403 20.8432 49.7469C21.0498 49.9535 21.2564 49.9535 21.5319 49.9535Z" fill="#2975CE"/>
<path d="M29.2463 35.3517C29.8662 34.7318 30.8993 34.1808 30.6238 32.941C30.4172 32.941 30.1417 32.8722 30.0728 33.0099C29.2463 33.9053 28.3509 34.8007 27.6621 35.765C27.3178 36.2471 27.2489 36.9359 28.0754 37.418C28.7642 37.7624 29.3152 38.3823 29.8662 38.8644C30.6927 38.8644 30.8305 38.4512 30.2794 37.9002C30.0728 37.6247 29.7284 37.3491 29.384 37.2114C28.4198 36.6604 28.3509 36.1782 29.2463 35.3517Z" fill="#2975CE"/>
<path d="M27.4549 24.1932C26.284 24.3309 25.2508 24.9508 24.3554 25.7773C23.0468 26.9482 21.8759 28.188 20.7738 29.5655C19.9473 30.5987 19.9473 30.8742 21.1182 31.5629C22.7713 32.5961 24.4243 33.6981 26.0085 34.9379C26.3528 35.2134 26.6972 35.42 27.0416 34.9379C28.488 32.8716 30.141 30.9431 30.8987 28.5324C31.7252 26.1906 29.9344 23.9865 27.4549 24.1932ZM29.6589 29.0145C28.9701 30.5987 27.937 31.9762 26.9727 33.4226C26.6283 33.9047 26.3528 33.767 26.0085 33.5604C24.6309 32.665 23.2534 31.7007 21.8759 30.8053C21.4626 30.5298 21.4626 30.3232 21.7381 29.9788C22.9779 28.6013 24.2865 27.1548 25.8018 25.9839C26.4906 25.4329 27.3171 25.1574 28.2125 25.3641C29.2456 25.5707 29.9344 26.1217 30.0722 27.1548C30.141 27.8436 29.9344 28.4635 29.6589 29.0145Z" fill="#2975CE"/>
<path d="M21.5317 39.0022C21.7384 37.9002 21.0496 36.867 19.741 36.1783C18.9144 35.6961 18.019 35.5584 17.2614 36.316C16.5038 37.0048 16.4349 37.9002 16.7104 38.7267C16.9859 39.7598 16.0905 40.1042 15.6772 40.793C15.4017 41.2751 15.0574 41.7573 15.4706 42.2394C15.8839 42.7904 16.5038 42.8593 17.1237 42.6527C17.6747 42.446 18.019 42.1016 18.4323 41.7573C18.7078 41.4818 18.9144 41.2751 19.3277 41.2062C20.7052 41.0685 21.2562 40.1731 21.5317 39.0022ZM20.4297 39.0711C20.292 39.8976 19.741 40.242 18.9144 40.1731C18.3634 40.1042 18.1568 40.5175 17.8124 40.8619C17.468 41.2751 17.1237 41.8261 16.366 41.6195C16.5038 41.0685 16.917 40.793 17.1925 40.3797C17.6747 39.7598 17.8813 39.2088 17.6058 38.4512C17.3992 37.9002 17.3303 37.2803 17.9502 36.867C18.5701 36.4538 19.0522 36.867 19.5343 37.1425C20.292 37.6247 20.5675 38.2446 20.4297 39.0711Z" fill="#2975CE"/>
<path d="M103.657 111.873H60.9539C55.9948 111.873 52 107.879 52 102.92V14.7577C52 9.79855 55.9948 5.80371 60.9539 5.80371H103.657C108.616 5.80371 112.611 9.79855 112.611 14.7577V102.92C112.611 107.879 108.616 111.873 103.657 111.873Z" fill="white"/>
<path d="M112.234 100.99V92.5186C112.234 97.7532 109.341 101.955 105.828 101.955H59.4055C55.8928 101.955 53 97.6843 53 92.5186V100.99C53 106.225 55.8928 110.426 59.4055 110.426H105.828C109.341 110.495 112.234 106.225 112.234 100.99Z" fill="#E7F8FF"/>
<path d="M104.035 113.044H61.3315C55.6147 113.044 51 108.429 51 102.712V14.5502C51 8.83347 55.6147 4.21875 61.3315 4.21875H104.035C109.752 4.21875 114.366 8.83347 114.366 14.5502V102.712C114.366 108.429 109.752 113.044 104.035 113.044ZM61.3315 6.97381C57.13 6.97381 53.7551 10.3488 53.7551 14.5502V102.712C53.7551 106.914 57.13 110.288 61.3315 110.288H104.035C108.236 110.288 111.611 106.914 111.611 102.712V14.5502C111.611 10.3488 108.236 6.97381 104.035 6.97381H61.3315Z" fill="#2975CE"/>
<path d="M98.6423 90.5216H66.8214C64.204 90.5216 62 88.3864 62 85.7003C62 83.083 64.1352 80.8789 66.8214 80.8789H98.6423C101.26 80.8789 103.464 83.0141 103.464 85.7003C103.464 88.3176 101.26 90.5216 98.6423 90.5216Z" fill="#239AE7"/>
<path d="M98.7495 93.9654H65.6888C65.3444 93.9654 65 93.6899 65 93.2767C65 92.8634 65.3444 92.5879 65.6888 92.5879H98.7495C99.0939 92.5879 99.4382 92.8634 99.4382 93.2767C99.4382 93.621 99.1627 93.9654 98.7495 93.9654Z" fill="#E7F8FF"/>
<path d="M94.1782 34.0422C94.1782 27.9122 89.2191 22.9531 83.0891 22.9531C76.9591 22.9531 72 27.9122 72 34.0422C72 39.4146 75.7882 43.8227 80.8162 44.8558V62.7637C80.8162 64.0035 81.7805 64.9678 83.0202 64.9678C84.26 64.9678 85.2243 64.0035 85.2243 62.7637V61.6617H90.7344L87.4283 57.2536L90.7344 52.8455H85.2243V44.9247C90.3211 43.8916 94.1782 39.4146 94.1782 34.0422ZM76.477 34.0422C76.477 30.3918 79.4387 27.4301 83.0891 27.4301C86.7396 27.4301 89.7012 30.3918 89.7012 34.0422C89.7012 37.6927 86.7396 40.6544 83.0891 40.6544C79.4387 40.7233 76.477 37.7616 76.477 34.0422Z" fill="#239AE7"/>
<path d="M128.702 24.0554C128.565 25.2263 128.358 26.3283 128.014 27.4303C127.049 30.8053 125.19 34.1114 123.192 37.0042C122.848 37.4863 122.572 38.1062 122.71 38.6572C122.848 39.2771 123.537 39.7592 124.225 39.8281C125.465 40.0347 126.498 39.4148 127.463 38.8638C128.702 38.2439 129.873 37.5552 131.044 36.7975C133.042 35.4889 134.901 33.9047 136.692 32.3206C138.483 30.7364 140.067 28.8767 141.031 26.7416C142.684 23.0911 142.34 18.8208 139.998 15.377C138.414 13.0352 135.797 10.6934 132.559 10.6934C130.218 10.6934 127.738 11.2444 127.6 13.5862C127.531 14.6193 127.876 15.6525 128.151 16.6856C128.771 19.1652 128.909 21.6447 128.702 24.0554Z" fill="#E7F8FF"/>
<path d="M22.771 76.6085C22.771 75.4376 22.7711 74.2667 22.9777 73.1647C23.4598 69.7208 24.9062 66.2081 26.5593 63.0398C26.8348 62.4888 27.0414 61.8689 26.8348 61.3179C26.5593 60.698 25.8705 60.3536 25.1817 60.3536C23.9419 60.2848 23.0466 61.1113 22.0823 61.7312C20.9114 62.4888 19.8094 63.3153 18.7762 64.2107C16.9166 65.7949 15.3324 67.5857 13.7482 69.3765C12.1641 71.1673 10.8554 73.2335 10.1667 75.4376C8.99576 79.2258 9.96003 83.4273 12.7151 86.5956C14.5748 88.6619 17.5364 90.6593 20.7048 90.3149C22.9777 90.0394 25.4572 89.144 25.2506 86.8022C25.1817 85.7691 24.6996 84.8048 24.2863 83.8405C23.3221 81.4298 22.8399 79.0192 22.771 76.6085Z" fill="#E7F8FF"/>
<path d="M129.598 87.5593C128.427 88.317 127.6 89.419 127.807 90.7965C127.807 91.0031 127.876 91.1409 128.014 91.2787C128.151 91.4164 128.358 91.4853 128.565 91.4164C128.84 91.4164 129.047 91.2786 129.254 91.2098C133.937 89.3501 138.552 87.1461 142.34 84.1155C144.957 82.0492 147.299 79.5697 148.677 76.6768C149.572 74.8172 150.054 72.682 149.848 70.6846C149.779 69.7203 149.503 68.6872 148.883 67.8607C147.85 66.4831 146.61 68.1362 146.335 68.8938C141.72 80.1207 133.317 85.1486 129.598 87.5593Z" fill="#E7F8FF"/>
<path d="M123.399 0.155529C122.297 0.637664 121.539 1.46418 121.263 2.63508C121.057 4.01261 121.539 5.18351 122.159 6.35441C122.503 6.9743 122.503 7.38756 121.952 7.80081C121.47 8.1452 121.332 8.69621 121.539 9.3161C122.021 10.5559 122.641 11.7268 123.261 12.8977C123.33 13.1043 123.536 13.2421 123.743 13.1043C123.95 12.9665 123.743 12.7599 123.674 12.6222C123.192 11.7268 122.779 10.8314 122.297 9.93598C121.677 8.62733 121.677 8.62733 122.71 7.66306C122.985 7.38756 123.054 7.11205 122.848 6.76767C122.434 6.01003 122.09 5.25239 121.814 4.49474C121.263 2.84171 121.814 1.53306 123.192 0.70654C124.156 0.155529 124.776 0.293282 125.465 1.18868C125.671 1.46418 125.74 1.80856 126.085 1.94632C126.222 1.87744 126.291 1.73969 126.291 1.53306C126.016 0.362158 124.569 -0.326607 123.399 0.155529Z" fill="#2975CE"/>
<path d="M125.671 14.3445C125.257 14.4823 124.775 14.4823 124.5 14.069C124.362 13.9312 124.224 13.6557 123.949 13.8624C123.742 14.069 123.949 14.2756 124.086 14.4134C124.5 14.8955 125.051 14.9644 125.671 14.8266C126.704 14.62 127.599 14.1379 128.632 13.8624C129.872 13.3802 130.974 12.6915 132.076 12.0027C132.352 11.8649 132.627 11.7272 132.214 11.3828C131.663 11.7272 131.043 12.0716 130.492 12.416C128.908 13.3114 127.324 13.8624 125.671 14.3445Z" fill="#2975CE"/>
<path d="M130.079 4.15034C129.803 4.2881 130.01 4.49473 130.079 4.63248C131.318 6.49214 132.489 8.35181 132.765 10.6936C133.247 10.5559 133.454 10.2115 133.178 9.59158C132.627 8.35181 132.007 7.11203 131.456 5.87226C131.181 5.32124 130.974 4.77023 130.492 4.35697C130.423 4.2881 130.285 4.01259 130.079 4.15034Z" fill="#2975CE"/>
<path d="M132.421 10.3489C132.421 10.1423 132.421 9.86681 132.352 9.66018C131.594 8.1449 130.768 6.62961 130.01 5.18321C129.941 5.04546 129.872 4.97658 129.803 4.9077C129.734 4.76995 129.597 4.6322 129.39 4.76995C129.252 4.9077 129.321 5.04546 129.39 5.18321C130.01 5.94085 130.285 6.83624 130.768 7.73164C131.25 8.62703 131.87 9.38467 132.007 10.4178C132.007 10.5556 132.145 10.6244 132.283 10.6244C132.283 10.5556 132.352 10.4867 132.421 10.3489Z" fill="#2975CE"/>
<path d="M127.6 4.01218C127.462 3.59892 127.393 3.04791 126.842 2.91016C126.842 2.97903 126.704 3.11679 126.773 3.18566C126.98 3.73667 127.186 4.28769 127.531 4.76982C127.669 5.04533 127.944 5.18308 128.357 4.90757C128.633 4.70094 129.046 4.56319 129.322 4.42544C129.459 4.08106 129.322 3.9433 128.977 4.01218C128.839 4.08106 128.633 4.14993 128.495 4.21881C128.013 4.63207 127.806 4.56319 127.6 4.01218Z" fill="#2975CE"/>
<path d="M122.365 2.49702C122.158 3.04803 122.227 3.59904 122.434 4.15006C122.709 4.97657 122.985 5.73421 123.329 6.49186C123.605 7.04287 123.743 7.11174 124.294 6.76736C125.12 6.21635 125.878 5.73421 126.773 5.32096C126.98 5.25208 127.117 5.11433 126.98 4.83882C126.36 3.80567 125.878 2.70365 124.982 1.80826C124.087 1.05062 122.778 1.395 122.365 2.49702ZM124.913 2.5659C125.464 3.18579 125.878 3.94343 126.291 4.63219C126.429 4.9077 126.36 4.97657 126.153 5.04545C125.464 5.45871 124.776 5.87197 124.156 6.28523C123.949 6.42298 123.88 6.3541 123.743 6.14747C123.398 5.32096 123.054 4.49444 122.847 3.59904C122.778 3.18579 122.778 2.77253 123.054 2.42814C123.329 2.01489 123.743 1.80826 124.225 2.01489C124.5 2.08376 124.707 2.29039 124.913 2.5659Z" fill="#2975CE"/>
<path d="M127.601 8.14538C127.187 7.801 126.567 7.93875 126.016 8.35201C125.672 8.62752 125.397 8.9719 125.534 9.45403C125.672 9.93617 126.085 10.1428 126.499 10.2117C126.981 10.2806 126.981 10.7627 127.187 11.0382C127.325 11.2448 127.463 11.5203 127.807 11.3826C128.152 11.3137 128.289 11.0382 128.358 10.7627C128.358 10.4872 128.289 10.2806 128.22 10.005C128.152 9.86729 128.083 9.72954 128.152 9.52291C128.358 8.90302 128.083 8.48976 127.601 8.14538ZM127.394 8.62752C127.738 8.83415 127.807 9.17853 127.601 9.52291C127.463 9.72954 127.601 9.93617 127.669 10.1428C127.738 10.4183 127.945 10.6249 127.738 10.9004C127.532 10.7627 127.463 10.4872 127.394 10.2806C127.256 9.93617 126.981 9.72954 126.636 9.72954C126.361 9.72954 126.085 9.59179 126.016 9.2474C125.948 8.90302 126.223 8.76527 126.43 8.62752C126.774 8.42089 127.118 8.42089 127.394 8.62752Z" fill="#2975CE"/>
<path d="M136.761 39.0705C135.384 41.0679 134.971 43.2031 135.797 45.5449C136.899 48.0245 138.965 49.5397 141.238 50.7795C142.409 51.4683 142.891 52.0882 142.34 53.4657C141.858 54.6366 142.34 55.6698 143.305 56.4274C145.371 58.0804 147.644 59.3891 149.986 60.6289C150.33 60.8355 150.812 60.9732 151.019 60.4911C151.225 60.009 150.743 59.9401 150.468 59.7335C148.746 58.7003 147.093 57.736 145.44 56.7029C143.029 55.1876 143.029 55.1187 143.718 52.4326C143.925 51.6749 143.787 51.1928 143.029 50.7795C141.583 50.0219 140.136 49.1265 138.897 48.0245C136.279 45.8204 135.728 42.9965 137.312 40.2414C138.346 38.3129 139.585 37.8996 141.652 38.6573C142.272 38.8639 142.823 39.4149 143.511 39.2083C143.58 38.9328 143.718 38.6573 143.374 38.3818C141.376 36.591 138.208 36.9354 136.761 39.0705Z" fill="#2975CE"/>
<path d="M155.495 60.4224C154.875 61.1112 154.186 61.5244 153.153 61.18C152.74 61.0423 152.189 60.7668 152.051 61.3867C151.913 61.9377 152.533 62.0066 152.877 62.1443C154.117 62.4887 155.081 62.0066 155.977 61.2489C157.561 59.8714 158.525 58.0806 159.834 56.4964C161.349 54.4302 162.52 52.0884 163.622 49.7466C163.829 49.1955 164.173 48.6445 163.209 48.6445C162.589 49.8154 161.969 51.0552 161.349 52.2261C159.903 55.2567 157.768 57.9428 155.495 60.4224Z" fill="#2975CE"/>
<path d="M152.19 38.7264C151.915 39.2774 152.466 39.3463 152.741 39.5529C156.736 41.4126 160.731 43.3411 163.624 46.8538C164.313 46.0962 164.175 45.3385 163.142 44.5809C160.938 43.0656 158.596 41.6192 156.323 40.1039C155.359 39.484 154.326 38.7953 153.155 38.5198C152.879 38.5198 152.466 38.2443 152.19 38.7264Z" fill="#2975CE"/>
<path d="M162.59 46.7163C162.384 46.303 162.108 45.9586 161.695 45.6831C158.802 43.9612 155.909 42.2393 153.016 40.5863C152.81 40.4485 152.603 40.3796 152.328 40.3108C151.983 40.173 151.639 40.1041 151.501 40.5174C151.363 40.8618 151.639 41.1373 151.983 41.2061C153.774 41.826 155.289 43.0658 156.942 44.0301C158.595 44.9943 160.593 45.6831 161.833 47.3361C161.97 47.5428 162.246 47.5428 162.452 47.405C162.659 47.1295 162.659 46.9918 162.59 46.7163Z" fill="#2975CE"/>
<path d="M147.85 41.1365C147.161 40.5855 146.541 39.6901 145.439 40.1722C145.508 40.3789 145.439 40.6544 145.577 40.7232C146.541 41.412 147.437 42.1008 148.47 42.6518C148.952 42.9273 149.641 42.8584 149.985 42.0319C150.261 41.3431 150.743 40.7921 151.156 40.1722C151.018 39.3457 150.674 39.3457 150.192 39.8967C149.985 40.1722 149.779 40.4477 149.641 40.7921C149.159 41.6875 148.746 41.8253 147.85 41.1365Z" fill="#2975CE"/>
<path d="M137.45 44.0984C137.725 45.2004 138.414 46.0958 139.309 46.8535C140.549 47.9555 141.927 48.9197 143.304 49.8151C144.337 50.5039 144.613 50.435 145.164 49.2641C145.921 47.5422 146.817 45.8203 147.781 44.2361C148.057 43.8229 148.125 43.4785 147.643 43.2719C145.508 42.1699 143.511 40.7923 141.1 40.3791C138.896 39.8281 136.967 41.7566 137.45 44.0984ZM141.789 41.4122C143.373 41.8255 144.819 42.7209 146.266 43.4785C146.817 43.754 146.679 44.0295 146.472 44.3739C145.784 45.7514 145.026 47.1978 144.406 48.5754C144.2 48.9886 143.993 49.0575 143.58 48.782C142.133 47.7488 140.618 46.7157 139.378 45.407C138.758 44.7872 138.414 44.0295 138.483 43.203C138.552 42.2387 139.034 41.4811 139.998 41.2745C140.618 41.1367 141.238 41.2745 141.789 41.4122Z" fill="#2975CE"/>
<path d="M152.189 48.0248C151.155 47.956 150.26 48.7136 149.709 50.0222C149.365 50.9176 149.296 51.6753 150.122 52.364C150.88 52.9839 151.706 52.9151 152.464 52.5707C153.428 52.2263 153.842 53.0528 154.53 53.2594C155.013 53.4661 155.495 53.6727 155.977 53.2594C156.459 52.7773 156.459 52.2263 156.183 51.6064C155.977 51.1243 155.564 50.7799 155.15 50.5044C154.875 50.2978 154.668 50.0911 154.53 49.6779C154.324 48.507 153.359 48.0937 152.189 48.0248ZM152.395 49.058C153.153 49.1269 153.635 49.5401 153.635 50.3666C153.635 50.8488 154.048 51.0554 154.393 51.3309C154.806 51.6064 155.357 51.8819 155.288 52.5707C154.806 52.5018 154.461 52.1574 154.048 51.9508C153.428 51.6064 152.808 51.4687 152.189 51.7442C151.706 51.9508 151.155 52.1574 150.673 51.6064C150.191 51.0554 150.536 50.5733 150.742 50.0911C151.018 49.3335 151.638 48.9891 152.395 49.058Z" fill="#2975CE"/>
<path d="M14.9873 105.881C14.3674 105.881 13.8853 105.399 13.8853 104.779C13.8853 104.021 13.2654 103.47 12.5766 103.47C11.9567 103.47 11.4746 102.919 11.4746 102.368C11.4746 101.817 11.9567 101.335 12.5766 101.266C13.3343 101.266 13.8853 100.646 13.8853 99.9575C13.8853 99.3376 14.4363 98.8555 14.9873 98.8555C15.5383 98.8555 16.0205 99.3376 16.0893 99.9575C16.0893 100.715 16.7092 101.266 17.398 101.266C18.0179 101.266 18.5 101.748 18.5 102.368C18.5 102.988 18.0179 103.47 17.398 103.47C16.6403 103.47 16.0893 104.09 16.0893 104.779C16.0893 105.399 15.6072 105.881 14.9873 105.881Z" fill="#B4E4FC"/>
<path d="M45.9138 5.04633L43.4342 2.56678C43.0209 2.15352 42.3322 2.15352 41.85 2.56678L39.3705 5.04633C38.9572 5.45959 38.9572 6.14836 39.3705 6.63049L41.85 9.11004C42.0567 9.31667 42.3322 9.45443 42.6077 9.45443C42.8832 9.45443 43.1587 9.31667 43.3653 9.11004L45.8449 6.63049C46.327 6.21723 46.327 5.45959 45.9138 5.04633ZM42.6077 6.76824L41.6434 5.80397L42.6077 4.8397L43.572 5.80397L42.6077 6.76824Z" fill="#B4E4FC"/>
<path d="M148.331 31.4942C147.711 31.4942 147.229 31.012 147.229 30.3921C147.229 29.6345 146.609 29.0835 145.92 29.0835C145.3 29.0835 144.818 28.6013 144.818 27.9814C144.818 27.3616 145.3 26.8794 145.92 26.8794C146.678 26.8794 147.229 26.2595 147.229 25.5708C147.229 24.9509 147.711 24.4688 148.331 24.4688C148.951 24.4688 149.433 24.9509 149.433 25.5708C149.433 26.3284 150.053 26.8794 150.742 26.8794C151.362 26.8794 151.844 27.4304 151.844 27.9814C151.844 28.5325 151.362 29.0146 150.742 29.0835C149.984 29.0835 149.433 29.7034 149.433 30.3921C149.433 30.9431 148.951 31.4942 148.331 31.4942Z" fill="#B4E4FC"/>
<path d="M125.603 30.1172C124.983 30.1172 124.501 29.6351 124.501 29.0152C124.501 28.2575 123.881 27.7065 123.192 27.7065C122.572 27.7065 122.09 27.2244 122.09 26.6045C122.09 25.9846 122.572 25.5025 123.192 25.5025C123.95 25.5025 124.501 24.8826 124.501 24.1938C124.501 23.5739 124.983 23.0918 125.603 23.0918C126.222 23.0918 126.705 23.5739 126.705 24.1938C126.705 24.9515 127.324 25.5025 128.013 25.5025C128.633 25.5025 129.115 26.0535 129.115 26.6045C129.115 27.1555 128.633 27.6376 128.013 27.7065C127.256 27.7065 126.705 28.3264 126.705 29.0152C126.705 29.5662 126.222 30.1172 125.603 30.1172Z" fill="#2975CE"/>
<path d="M163.829 87.9733C163.554 87.9733 163.209 87.8355 163.003 87.6289L161.556 86.1825L160.11 87.6289C159.697 88.0422 158.939 88.111 158.526 87.6289C158.112 87.2156 158.044 86.458 158.526 86.0447L160.799 83.7718C161.212 83.3586 161.97 83.2897 162.383 83.7718L164.656 86.0447C165.069 86.458 165.138 87.2156 164.656 87.6289C164.449 87.8355 164.105 87.9733 163.829 87.9733Z" fill="#B4E4FC"/>
<path d="M10.5104 12.4844C10.7859 12.4844 11.1303 12.6221 11.337 12.8288L12.7834 14.2752L14.2298 12.8288C14.643 12.4155 15.4007 12.3466 15.8139 12.8288C16.2272 13.242 16.2961 13.9997 15.8139 14.4129L13.541 16.6858C13.1277 17.0991 12.3701 17.168 11.9568 16.6858L9.68392 14.4129C9.27067 13.9997 9.20179 13.242 9.68392 12.8288C9.89055 12.5533 10.2349 12.4844 10.5104 12.4844Z" fill="#B4E4FC"/>
<path d="M41.1604 48.3695C40.8849 48.3695 40.6094 48.2317 40.4028 48.0251L37.9232 45.5455C37.51 45.1323 37.51 44.4435 37.9232 43.9614L40.4028 41.4818C40.816 41.0686 41.5048 41.0686 41.9869 41.4818L44.4665 43.9614C44.8797 44.3746 44.8797 45.0634 44.4665 45.5455L41.9869 48.0251C41.7114 48.3006 41.4359 48.3695 41.1604 48.3695ZM40.1961 44.7879L41.1604 45.7522L42.1247 44.7879L41.1604 43.8236L40.1961 44.7879ZM131.251 58.0122C131.526 58.0122 131.871 58.1499 132.077 58.3566L133.524 59.803L134.97 58.3566C135.383 57.9433 136.141 57.8744 136.554 58.3566C136.968 58.7698 137.036 59.5275 136.554 59.9407L134.281 62.2136C133.868 62.6269 133.11 62.6958 132.697 62.2136L130.424 59.9407C130.011 59.5275 129.942 58.7698 130.424 58.3566C130.7 58.081 130.975 58.0122 131.251 58.0122Z" fill="#2975CE"/>
<path d="M124.018 78.8809C123.742 78.8809 123.467 78.7431 123.329 78.6054L121.056 76.3325C120.643 75.9192 120.643 75.2993 121.056 74.9549L123.329 72.682C123.742 72.2688 124.362 72.2688 124.706 72.682L126.979 74.9549C127.393 75.3682 127.393 75.9881 126.979 76.4013L124.706 78.6743C124.5 78.812 124.224 78.8809 124.018 78.8809ZM123.122 75.6437L123.949 76.4702L124.775 75.6437L123.949 74.8172L123.122 75.6437Z" fill="#2975CE"/>
<path d="M139.653 100.99C139.033 100.99 138.551 100.508 138.551 99.8882C138.551 99.1306 137.931 98.5796 137.243 98.5796C136.623 98.5796 136.141 98.0974 136.141 97.4775C136.141 96.8577 136.623 96.3755 137.243 96.3755C138 96.3755 138.551 95.7556 138.551 95.0669C138.551 94.447 139.033 93.9648 139.653 93.9648C140.273 93.9648 140.755 94.447 140.755 95.0669V95.1358C140.755 95.8934 141.375 96.4444 142.064 96.4444C142.684 96.4444 143.166 96.9954 143.166 97.5464C143.166 98.0974 142.684 98.5796 142.064 98.6484C141.306 98.6484 140.755 99.2683 140.755 99.9571C140.755 100.508 140.273 100.99 139.653 100.99Z" fill="#B4E4FC"/>
<path d="M36.6144 80.3278C36.3389 80.3278 35.9945 80.19 35.7878 79.9834L34.3414 78.537L32.895 79.9834C32.4818 80.3966 31.7241 80.4655 31.3109 79.9834C30.8976 79.5701 30.8287 78.8125 31.3109 78.3992L33.5838 76.1263C33.9971 75.713 34.7547 75.6442 35.168 76.1263L37.4409 78.3992C37.8541 78.8125 37.923 79.5701 37.4409 79.9834C37.1654 80.19 36.8899 80.3278 36.6144 80.3278Z" fill="#2975CE"/>
<path d="M3.5127 61.1113C2.89281 61.1113 2.41068 60.6292 2.41068 60.0093C2.41068 59.2517 1.79079 58.7007 1.10202 58.7007C0.482135 58.7007 0 58.2185 0 57.5986C0 56.9787 0.482135 56.4966 1.10202 56.4966C1.85966 56.4966 2.41068 55.8767 2.41068 55.188C2.41068 54.5681 2.89281 54.0859 3.5127 54.0859C4.13259 54.0859 4.61472 54.5681 4.61472 55.188C4.61472 55.9456 5.23461 56.4966 5.92338 56.4966C6.54326 56.4966 7.0254 57.0476 7.0254 57.5986C7.0254 58.1496 6.54326 58.6318 5.92338 58.7007C5.16573 58.7007 4.61472 59.3205 4.61472 60.0093C4.61472 60.6292 4.13259 61.1113 3.5127 61.1113Z" fill="#2975CE"/>
</svg>
