<svg width="16" height="16" viewBox="0 0 16 16" fill="none" xmlns="http://www.w3.org/2000/svg">
<path fill-rule="evenodd" clip-rule="evenodd" d="M14.4 4.80005V2.40002H12.8V3.19995H11.2V2.40002H4.79999V3.19995H3.20001V2.40002H1.59998V4.80005H14.4ZM14.4 6.40002H1.59998V14.4H14.4V6.40002ZM12.8 0.800049H14.4C14.8244 0.800049 15.2313 0.968619 15.5314 1.26868C15.8314 1.56874 16 1.97568 16 2.40002V14.4C16 14.8244 15.8314 15.2313 15.5314 15.5314C15.2313 15.8314 14.8244 16 14.4 16H1.59998C1.17563 16 0.768686 15.8314 0.468628 15.5314C0.16857 15.2313 0 14.8244 0 14.4V2.40002C0 1.97568 0.16857 1.56874 0.468628 1.26868C0.768686 0.968619 1.17563 0.800049 1.59998 0.800049H3.20001V0H4.79999V0.800049H11.2V0H12.8V0.800049ZM5.59998 9.59998H4V8H5.59998V9.59998ZM8.79999 9.59998H7.20001V8H8.79999V9.59998ZM12 9.59998H10.4V8H12V9.59998ZM5.59998 12.8H4V11.2H5.59998V12.8ZM8.79999 12.8H7.20001V11.2H8.79999V12.8Z" fill="#878CAC"/>
</svg>
