<svg version="1.1" xmlns="http://www.w3.org/2000/svg" xmlns:xlink="http://www.w3.org/1999/xlink" width="17" height="30" viewBox="0 0 17 30"><g id="ic_swap_icon"><path id="Ellipse" d="M14.031,17.969 C12.392,17.969 11.063,16.633 11.063,14.984 C11.063,13.336 12.392,12.000 14.031,12.000 C15.671,12.000 17.000,13.336 17.000,14.984 C17.000,16.633 15.671,17.969 14.031,17.969 zM14.031,6.000 C12.392,6.000 11.063,4.657 11.063,3.000 C11.063,1.343 12.392,-0.000 14.031,-0.000 C15.671,-0.000 17.000,1.343 17.000,3.000 C17.000,4.657 15.671,6.000 14.031,6.000 zM2.969,30.000 C1.329,30.000 -0.000,28.664 -0.000,27.016 C-0.000,25.367 1.329,24.031 2.969,24.031 C4.608,24.031 5.937,25.367 5.937,27.016 C5.937,28.664 4.608,30.000 2.969,30.000 zM2.969,17.969 C1.329,17.969 -0.000,16.633 -0.000,14.984 C-0.000,13.336 1.329,12.000 2.969,12.000 C4.608,12.000 5.937,13.336 5.937,14.984 C5.937,16.633 4.608,17.969 2.969,17.969 zM2.969,6.000 C1.329,6.000 -0.000,4.657 -0.000,3.000 C-0.000,1.343 1.329,-0.000 2.969,-0.000 C4.608,-0.000 5.937,1.343 5.937,3.000 C5.937,4.657 4.608,6.000 2.969,6.000 zM14.031,24.031 C15.671,24.031 17.000,25.367 17.000,27.016 C17.000,28.664 15.671,30.000 14.031,30.000 C12.392,30.000 11.063,28.664 11.063,27.016 C11.063,25.367 12.392,24.031 14.031,24.031 z" fill="#E0E4EE" /></g></svg>