<?xml version="1.0" encoding="iso-8859-1"?>
<!-- Generator: Adobe Illustrator 22.1.0, SVG Export Plug-In . SVG Version: 6.00 Build 0)  -->
<svg version="1.1" id="&#x421;&#x43B;&#x43E;&#x439;_1"
	 xmlns="http://www.w3.org/2000/svg" xmlns:xlink="http://www.w3.org/1999/xlink" x="0px" y="0px" viewBox="0 0 48 64"
	 style="enable-background:new 0 0 48 64;" xml:space="preserve">
<g>
	<g>
		<path style="fill:#989DBB;" d="M32.458,37.241c-0.008,8.817-7.295,15.983-16.244,15.975C7.266,53.208-0.008,46.029,0,37.212
			s7.295-15.983,16.244-15.975C25.192,21.245,32.466,28.424,32.458,37.241z M3.327,37.215c-0.006,7.009,5.776,12.717,12.89,12.723
			s12.907-5.691,12.913-12.7s-5.776-12.717-12.89-12.723S3.334,30.206,3.327,37.215z"/>
		<path style="fill:#E2E5ED;" d="M0,15.99c0,1.86,0.325,3.647,0.921,5.309c0.575-1.606,1.404-3.094,2.438-4.42
			c-0.021-0.294-0.032-0.59-0.032-0.889c0-7.009,5.788-12.711,12.902-12.711S29.131,8.98,29.131,15.99
			c0,0.299-0.011,0.595-0.032,0.889c1.035,1.325,1.863,2.814,2.438,4.42c0.596-1.662,0.921-3.449,0.921-5.309
			C32.458,7.173,25.178,0,16.229,0C7.28,0,0,7.173,0,15.99z"/>
		<path style="fill:#E2E5ED;" d="M32.458,48.01c0-1.86-0.325-3.647-0.921-5.309c-0.575,1.606-1.404,3.094-2.438,4.42
			c0.021,0.294,0.032,0.59,0.032,0.889c0,7.009-5.788,12.711-12.902,12.711S3.327,55.02,3.327,48.01
			c0-0.299,0.011-0.595,0.032-0.889c-1.035-1.325-1.863-2.814-2.438-4.42C0.325,44.363,0,46.15,0,48.01C0,56.827,7.28,64,16.229,64
			C25.178,64,32.458,56.827,32.458,48.01z"/>
		<path style="fill:#C3C9DD;" d="M0,26.608c0,1.86,0.325,3.647,0.921,5.309c0.575-1.606,1.404-3.094,2.438-4.42
			c-0.021-0.294-0.032-0.59-0.032-0.889c0-7.009,5.788-12.711,12.902-12.711s12.902,5.702,12.902,12.711
			c0,0.299-0.011,0.595-0.032,0.889c1.035,1.325,1.863,2.814,2.438,4.42c0.596-1.662,0.921-3.449,0.921-5.309
			c0-8.817-7.28-15.99-16.229-15.99C7.28,10.618,0,17.791,0,26.608z"/>
	</g>
	<path style="fill:#989DBB;" d="M47.377,42.75c-0.29-0.085-0.616-0.021-0.853,0.199l-2.17,2.021V18.997l2.136,2.225
		c0.332,0.344,0.886,0.361,1.236,0.034c0.351-0.327,0.366-0.873,0.035-1.218l-3.606-3.757c-0.33-0.347-0.884-0.362-1.236-0.034
		l-3.813,3.552c-0.351,0.327-0.367,0.873-0.035,1.218c0.108,0.114,0.242,0.191,0.384,0.233c0.29,0.085,0.616,0.021,0.853-0.199
		l2.17-2.021v25.974l-2.136-2.225c-0.332-0.344-0.886-0.361-1.236-0.034c-0.351,0.327-0.366,0.873-0.035,1.218l3.606,3.757
		c0.33,0.347,0.884,0.362,1.236,0.034l3.813-3.552c0.351-0.327,0.367-0.873,0.035-1.218C47.653,42.869,47.519,42.792,47.377,42.75z"
		/>
</g>
<g>
</g>
<g>
</g>
<g>
</g>
<g>
</g>
<g>
</g>
<g>
</g>
<g>
</g>
<g>
</g>
<g>
</g>
<g>
</g>
<g>
</g>
<g>
</g>
<g>
</g>
<g>
</g>
<g>
</g>
</svg>
