<svg width="38" height="30" viewBox="0 0 38 30" fill="none" xmlns="http://www.w3.org/2000/svg">
<g filter="url(#filter0_d_16006_7920)">
<mask id="mask0_16006_7920" style="mask-type:alpha" maskUnits="userSpaceOnUse" x="3" y="0" width="32" height="24">
<rect x="3" width="32" height="24" fill="white"/>
</mask>
<g mask="url(#mask0_16006_7920)">
<path fill-rule="evenodd" clip-rule="evenodd" d="M11 0H27V24H11V0Z" fill="#F7FCFF"/>
<path fill-rule="evenodd" clip-rule="evenodd" d="M18.9764 7L19 19H18.4005L18.7683 16.0303C16.0782 16.5144 14.8443 16.6343 15.0667 16.3902C15.2891 16.146 15.4644 15.8 15.5925 15.3521L12 12.9553C12.3778 12.9506 12.7204 12.8568 13.0277 12.674C13.335 12.4912 13.1814 11.8578 12.5667 10.7737L14.3805 11.0376L15.0667 10.2918L16.4352 11.7241H17.0503L16.4352 8.44343L17.5378 9.05932L18.9764 7ZM18.9764 7L20.4622 9.05932L21.5648 8.44343L20.9497 11.7241H21.5648L22.9333 10.2918L23.6195 11.0376L25.4333 10.7737C24.8186 11.8578 24.665 12.4912 24.9723 12.674C25.2796 12.8568 25.6222 12.9506 26 12.9553L22.4075 15.3521C22.5356 15.8 22.7109 16.146 22.9333 16.3902C23.1557 16.6343 21.9218 16.5144 19.2317 16.0303L19.5995 19H19L18.9764 7Z" fill="#E31D1C"/>
<path fill-rule="evenodd" clip-rule="evenodd" d="M27 0H35V24H27V0Z" fill="#E31D1C"/>
<path fill-rule="evenodd" clip-rule="evenodd" d="M3 0H11V24H3V0Z" fill="#E31D1C"/>
</g>
</g>
<defs>
<filter id="filter0_d_16006_7920" x="0" y="0" width="38" height="30" filterUnits="userSpaceOnUse" color-interpolation-filters="sRGB">
<feFlood flood-opacity="0" result="BackgroundImageFix"/>
<feColorMatrix in="SourceAlpha" type="matrix" values="0 0 0 0 0 0 0 0 0 0 0 0 0 0 0 0 0 0 127 0" result="hardAlpha"/>
<feOffset dy="3"/>
<feGaussianBlur stdDeviation="1.5"/>
<feComposite in2="hardAlpha" operator="out"/>
<feColorMatrix type="matrix" values="0 0 0 0 0 0 0 0 0 0 0 0 0 0 0 0 0 0 0.25 0"/>
<feBlend mode="normal" in2="BackgroundImageFix" result="effect1_dropShadow_16006_7920"/>
<feBlend mode="normal" in="SourceGraphic" in2="effect1_dropShadow_16006_7920" result="shape"/>
</filter>
</defs>
</svg>
