<svg width="38" height="30" viewBox="0 0 38 30" fill="none" xmlns="http://www.w3.org/2000/svg">
<g filter="url(#filter0_d_16005_19663)">
<mask id="mask0_16005_19663" style="mask-type:alpha" maskUnits="userSpaceOnUse" x="3" y="0" width="32" height="24">
<rect x="3" width="32" height="24" fill="white"/>
</mask>
<g mask="url(#mask0_16005_19663)">
<path fill-rule="evenodd" clip-rule="evenodd" d="M3 0V24H35V0H3Z" fill="#F7FCFF"/>
<mask id="mask1_16005_19663" style="mask-type:alpha" maskUnits="userSpaceOnUse" x="3" y="0" width="32" height="24">
<path fill-rule="evenodd" clip-rule="evenodd" d="M3 0V24H35V0H3Z" fill="white"/>
</mask>
<g mask="url(#mask1_16005_19663)">
<path fill-rule="evenodd" clip-rule="evenodd" d="M3 0V8H35V0H3Z" fill="#FF8C1A"/>
<path fill-rule="evenodd" clip-rule="evenodd" d="M3 16V24H35V16H3Z" fill="#5EAA22"/>
<path fill-rule="evenodd" clip-rule="evenodd" d="M15 12C15 14.2091 16.7909 16 19 16C21.2091 16 23 14.2091 23 12C23 9.79086 21.2091 8 19 8C16.7909 8 15 9.79086 15 12ZM22 12C22 13.6569 20.6569 15 19 15C17.3431 15 16 13.6569 16 12C16 10.3431 17.3431 9 19 9C20.6569 9 22 10.3431 22 12Z" fill="#3D58DB"/>
<path fill-rule="evenodd" clip-rule="evenodd" d="M18.993 12.8607L18.4221 15.9813L18.7536 12.8263L17.3267 15.6596L18.5336 12.7258L16.3663 15.0424L18.3508 12.5675L15.6187 14.1796L18.2201 12.364L15.1444 13.1411L18.152 12.132L14.9819 12.011L18.152 11.8901L15.1444 10.881L18.2201 11.6581L15.6187 9.84251L18.3508 11.4546L16.3663 8.9797L18.5336 11.2963L17.3267 8.36247L18.7536 11.1958L18.4221 8.04083L18.993 11.1614L19.5638 8.04083L19.2324 11.1958L20.6592 8.36247L19.4523 11.2963L21.6197 8.9797L19.6351 11.4546L22.3673 9.84251L19.7659 11.6581L22.8416 10.881L19.834 11.8901L23.004 12.011L19.834 12.132L22.8416 13.1411L19.7659 12.364L22.3673 14.1796L19.6351 12.5675L21.6197 15.0424L19.4523 12.7258L20.6592 15.6596L19.2324 12.8263L19.5638 15.9813L18.993 12.8607Z" fill="#3D58DB"/>
</g>
</g>
</g>
<defs>
<filter id="filter0_d_16005_19663" x="0" y="0" width="38" height="30" filterUnits="userSpaceOnUse" color-interpolation-filters="sRGB">
<feFlood flood-opacity="0" result="BackgroundImageFix"/>
<feColorMatrix in="SourceAlpha" type="matrix" values="0 0 0 0 0 0 0 0 0 0 0 0 0 0 0 0 0 0 127 0" result="hardAlpha"/>
<feOffset dy="3"/>
<feGaussianBlur stdDeviation="1.5"/>
<feComposite in2="hardAlpha" operator="out"/>
<feColorMatrix type="matrix" values="0 0 0 0 0 0 0 0 0 0 0 0 0 0 0 0 0 0 0.25 0"/>
<feBlend mode="normal" in2="BackgroundImageFix" result="effect1_dropShadow_16005_19663"/>
<feBlend mode="normal" in="SourceGraphic" in2="effect1_dropShadow_16005_19663" result="shape"/>
</filter>
</defs>
</svg>
