<svg width="38" height="30" viewBox="0 0 38 30" fill="none" xmlns="http://www.w3.org/2000/svg">
<g filter="url(#filter0_d_16005_19535)">
<mask id="mask0_16005_19535" style="mask-type:alpha" maskUnits="userSpaceOnUse" x="3" y="0" width="32" height="24">
<rect x="3" width="32" height="24" fill="white"/>
</mask>
<g mask="url(#mask0_16005_19535)">
<path fill-rule="evenodd" clip-rule="evenodd" d="M3 0H35V24H3V0Z" fill="#F7FCFF"/>
<rect x="3.02734" y="5" width="32" height="2.9" fill="#E31D1C"/>
<rect x="3.02734" y="10.2" width="32" height="2.9" fill="#E31D1C"/>
<rect x="3.11328" y="15.2" width="32" height="2.5" fill="#E31D1C"/>
<rect x="3.11328" y="20.2" width="32" height="2.7" fill="#E31D1C"/>
<path fill-rule="evenodd" clip-rule="evenodd" d="M3 0H35V2.5H3V0Z" fill="#E31D1C"/>
<path fill-rule="evenodd" clip-rule="evenodd" d="M3 0H19V12H3V0Z" fill="#3D58DB"/>
<path fill-rule="evenodd" clip-rule="evenodd" d="M6.5918 6.20228C6.5918 7.5785 7.24002 8.87992 8.55877 8.87992C10.5373 8.87992 10.9223 8.45809 11.8455 7.87612C12.0638 8.36639 11.3276 10.4645 8.53177 10.4645C6.29551 10.4195 4.48828 8.62294 4.48828 6.20228C4.48828 3.42377 6.53186 1.92322 8.47565 1.94021C10.1917 1.94021 12.0117 2.91396 11.9559 4.15619C11.1474 3.36634 10.2694 3.36634 8.80795 3.36634C7.34647 3.36634 6.5918 4.82588 6.5918 6.20228Z" fill="#FECA00"/>
<path fill-rule="evenodd" clip-rule="evenodd" d="M14 7.30005L13.0729 8.65322L13.1183 7.01357L11.5729 7.5634L12.5734 6.26357L11 5.80005L12.5734 5.33652L11.5729 4.03669L13.1183 4.58652L13.0729 2.94688L14 4.30005L14.9271 2.94688L14.8817 4.58652L16.4271 4.03669L15.4266 5.33652L17 5.80005L15.4266 6.26357L16.4271 7.5634L14.8817 7.01357L14.9271 8.65322L14 7.30005Z" fill="#FECA00"/>
</g>
</g>
<defs>
<filter id="filter0_d_16005_19535" x="0" y="0" width="38" height="30" filterUnits="userSpaceOnUse" color-interpolation-filters="sRGB">
<feFlood flood-opacity="0" result="BackgroundImageFix"/>
<feColorMatrix in="SourceAlpha" type="matrix" values="0 0 0 0 0 0 0 0 0 0 0 0 0 0 0 0 0 0 127 0" result="hardAlpha"/>
<feOffset dy="3"/>
<feGaussianBlur stdDeviation="1.5"/>
<feComposite in2="hardAlpha" operator="out"/>
<feColorMatrix type="matrix" values="0 0 0 0 0 0 0 0 0 0 0 0 0 0 0 0 0 0 0.25 0"/>
<feBlend mode="normal" in2="BackgroundImageFix" result="effect1_dropShadow_16005_19535"/>
<feBlend mode="normal" in="SourceGraphic" in2="effect1_dropShadow_16005_19535" result="shape"/>
</filter>
</defs>
</svg>
