<svg width="38" height="30" viewBox="0 0 38 30" fill="none" xmlns="http://www.w3.org/2000/svg">
<g filter="url(#filter0_d_16005_20349)">
<mask id="mask0_16005_20349" style="mask-type:alpha" maskUnits="userSpaceOnUse" x="3" y="0" width="32" height="24">
<rect x="3" width="32" height="24" fill="white"/>
</mask>
<g mask="url(#mask0_16005_20349)">
<path fill-rule="evenodd" clip-rule="evenodd" d="M25 0H35V24H25V0Z" fill="#D9071E"/>
<path fill-rule="evenodd" clip-rule="evenodd" d="M3 0H15V24H3V0Z" fill="#006923"/>
<path fill-rule="evenodd" clip-rule="evenodd" d="M13 0H25V24H13V0Z" fill="white"/>
<path fill-rule="evenodd" clip-rule="evenodd" d="M16.054 8.34173C15.9478 8.79689 16.017 8.90433 16.5308 8.90433C16.5575 8.90433 16.5999 8.97976 16.646 9.06182C16.6965 9.15184 16.7515 9.24983 16.7952 9.26497C16.7765 9.2898 16.5811 9.64294 16.5802 10.265C16.58 10.3931 16.6396 10.6041 16.6968 10.8069C16.7591 11.0274 16.8185 11.238 16.7952 11.3213C16.7573 11.4568 16.5875 11.3091 16.4558 11.1947C16.3806 11.1293 16.3178 11.0747 16.2994 11.0902C16.2054 11.1693 16.1568 10.5431 16.1275 10.1648C16.1145 9.99635 16.1052 9.87703 16.0975 9.89096C16.0647 9.81861 16.0513 9.72972 16.038 9.6419C16.0092 9.45092 15.9812 9.26497 15.7559 9.26497H15.1758V9.69207C15.1758 9.69207 15.5114 9.69207 15.5114 10.4866C15.517 10.6054 15.6736 11.6502 16.054 11.6556C15.8311 11.6606 15.8328 11.7051 15.8337 11.7312L15.8339 11.7358C15.8339 12.375 16.368 12.4441 16.8673 12.2637C17.1674 12.1552 17.4859 11.9435 17.7245 11.6826C18.0611 11.3143 18.1026 10.8375 17.6606 10.5761C17.5033 10.483 17.3326 10.4471 17.0937 10.4338C17.141 10.2936 17.0963 10.1685 17.0614 10.0708C17.0322 9.98915 17.0099 9.92675 17.054 9.89096C17.5546 9.48494 17.5993 9.11072 17.235 8.77504C17.1878 8.7315 17.142 8.67246 17.0949 8.61169L17.0949 8.61169C17.0062 8.49713 16.9127 8.37642 16.7952 8.34173C16.8495 8.23221 16.9227 8.09951 17.0145 7.94665L16.1571 7.43188C16.0017 7.69075 16.0277 7.89322 16.0503 8.06967C16.0628 8.16652 16.0742 8.25553 16.054 8.34173ZM16.9864 11.0079L16.9708 11.0245L16.9814 11.015C16.983 11.0121 16.9847 11.0097 16.9864 11.0079ZM16.5327 11.3213C16.5325 11.3214 16.533 11.3212 16.5342 11.321L16.5344 11.321L16.5439 11.3191C16.54 11.3197 16.5364 11.3205 16.5344 11.321L16.5327 11.3213ZM16.0975 11.6551C16.0858 11.6551 16.0745 11.6552 16.0638 11.6554L16.0823 11.655L16.0975 11.6551Z" fill="#A8AC71"/>
<path fill-rule="evenodd" clip-rule="evenodd" d="M17.3833 7.91345C17.3833 7.91345 16.6965 8.44611 16.8249 9.01399C16.9534 9.58187 18.3069 9.01399 18.1432 8.46372C17.9796 7.91345 17.3833 7.91345 17.3833 7.91345Z" fill="#FCCA3D"/>
<path fill-rule="evenodd" clip-rule="evenodd" d="M22.2675 12.4029C22.2675 12.4029 23.1925 9.66155 21.7222 8.24251C20.2518 6.82347 18.5527 6.91843 18.5527 6.91843C18.5527 6.91843 18.0634 7.28197 18.5527 7.55923C19.042 7.83649 18.837 8.10233 18.837 8.10233C18.837 8.10233 18.0175 7.27029 17.4736 7.7564C16.9296 8.24251 17.9814 8.16853 17.87 8.53455C17.7587 8.90057 17.287 10.5256 17.9762 11.3461C18.6655 12.1665 17.3246 11.9885 17.5973 11.9885C17.87 11.9885 18.837 12.1794 18.837 11.9885C18.837 11.7975 19.1731 12.7309 19.4608 12.7309C19.7485 12.7309 19.9706 12.4029 19.9706 12.4029C19.9706 12.4029 20.3738 12.7309 20.6196 12.7309C20.8653 12.7309 21.7222 12.5163 21.7222 12.5163L20.1027 11.1517C20.1027 11.1517 20.2003 10.5499 19.9706 10.4196C19.7408 10.2893 21.8123 11.574 21.9746 11.9885C22.1368 12.4029 22.2675 12.4029 22.2675 12.4029Z" fill="#8F4620"/>
<path d="M14.0664 11.7266C14.0664 11.7266 14.2166 11.248 14.3773 11.2148C14.5166 11.186 14.8094 11.4441 14.8094 11.4441C15.3297 14.334 16.5876 15.4627 18.6749 15.4627C20.7867 15.4627 22.0666 14.605 22.8135 11.9398C22.8135 11.9398 23.2106 11.5343 23.3507 11.5794C23.5032 11.6284 23.6943 12.1649 23.6943 12.1649C22.8375 15.2225 21.2185 16.5839 18.6749 16.5839C16.1067 16.5839 14.6638 15.0448 14.0664 11.7266Z" fill="#9FAB2F"/>
<path fill-rule="evenodd" clip-rule="evenodd" d="M16.3327 13.6565C16.3327 13.6565 19.337 14.2938 20.5229 14.2938C21.7087 14.2938 19.4824 15.2616 18.6137 15.2616C18.2338 15.2616 17.7757 15.0313 17.2397 14.5706C17.1436 14.488 17.2367 14.3032 16.944 14.3007C16.5359 14.2972 16.0289 14.2015 16.0775 14.1431C16.1236 14.0876 16.7173 14.0709 16.6601 14.0102C16.5657 13.9102 16.3327 13.6565 16.3327 13.6565Z" fill="#2FC2DC"/>
<rect x="17.668" y="14.1" width="2" height="1.07143" rx="0.166667" fill="#F9AA51"/>
<path d="M15.1758 12.1359C15.1758 12.1359 15.1758 11.7609 15.4298 11.5616C15.7209 11.3332 15.9944 11.5616 15.9944 11.5616C17.0598 13.0802 18.6532 13.5798 20.8816 13.0584C20.8816 13.0584 21.5479 13.2761 21.5813 13.4192C21.6238 13.6007 21.1094 14.0321 21.1094 14.0321C18.5044 14.6416 16.4908 14.0102 15.1758 12.1359Z" fill="#259485"/>
<path fill-rule="evenodd" clip-rule="evenodd" d="M19.5899 12.3502C19.5899 12.3502 18.3763 12.9891 18.7808 12.9891C19.1854 12.9891 20.7687 13.3085 20.4606 12.9891C20.1525 12.6697 19.5899 12.3502 19.5899 12.3502Z" fill="#FCCA3D"/>
<path fill-rule="evenodd" clip-rule="evenodd" d="M18.1551 11.5882C18.1551 11.5882 17.9245 10.9221 17.4446 10.9221C16.9647 10.9221 17.1001 11.4685 16.8694 11.4685C16.6386 11.4685 17.0844 11.853 17.2831 11.853C17.4818 11.853 18.1551 11.5882 18.1551 11.5882Z" fill="#FCCA3D"/>
</g>
</g>
<defs>
<filter id="filter0_d_16005_20349" x="0" y="0" width="38" height="30" filterUnits="userSpaceOnUse" color-interpolation-filters="sRGB">
<feFlood flood-opacity="0" result="BackgroundImageFix"/>
<feColorMatrix in="SourceAlpha" type="matrix" values="0 0 0 0 0 0 0 0 0 0 0 0 0 0 0 0 0 0 127 0" result="hardAlpha"/>
<feOffset dy="3"/>
<feGaussianBlur stdDeviation="1.5"/>
<feComposite in2="hardAlpha" operator="out"/>
<feColorMatrix type="matrix" values="0 0 0 0 0 0 0 0 0 0 0 0 0 0 0 0 0 0 0.25 0"/>
<feBlend mode="normal" in2="BackgroundImageFix" result="effect1_dropShadow_16005_20349"/>
<feBlend mode="normal" in="SourceGraphic" in2="effect1_dropShadow_16005_20349" result="shape"/>
</filter>
</defs>
</svg>
