<svg width="38" height="30" viewBox="0 0 38 30" fill="none" xmlns="http://www.w3.org/2000/svg">
<g filter="url(#filter0_d_16006_7608)">
<mask id="mask0_16006_7608" style="mask-type:alpha" maskUnits="userSpaceOnUse" x="3" y="0" width="32" height="24">
<rect x="3" width="32" height="24" fill="white"/>
</mask>
<g mask="url(#mask0_16006_7608)">
<path fill-rule="evenodd" clip-rule="evenodd" d="M3 0H35V22C35 23.1046 34.1046 24 33 24H5C3.89543 24 3 23.1046 3 22V0Z" fill="#C51918"/>
<path fill-rule="evenodd" clip-rule="evenodd" d="M3 0H35V24H3V0Z" fill="#E31D1C"/>
<path fill-rule="evenodd" clip-rule="evenodd" d="M25.4836 19.6261L19.1675 2.70056H18.8935L12.7969 19.6261L19.1283 15.821L25.4836 19.6261ZM18.4683 8.22198L19.1454 5.58363L19.8481 8.29755L21.8668 13.954L23.052 16.6926L20.4932 14.8899L19.1268 14.0718L17.7824 14.8798L15.2831 16.6926L16.4385 13.8979L18.4683 8.22198Z" fill="#579D20"/>
<path fill-rule="evenodd" clip-rule="evenodd" d="M15.664 13.4731L19.1599 15.7971L22.4221 13.4731L28.6179 8.23645H9.38672L15.664 13.4731ZM15.7365 11.4741L13.3589 10.0191H16.2596H22.0234H24.5822L22.5412 11.3119L19.1447 13.8889L15.7365 11.4741Z" fill="#579D20"/>
</g>
</g>
<defs>
<filter id="filter0_d_16006_7608" x="0" y="0" width="38" height="30" filterUnits="userSpaceOnUse" color-interpolation-filters="sRGB">
<feFlood flood-opacity="0" result="BackgroundImageFix"/>
<feColorMatrix in="SourceAlpha" type="matrix" values="0 0 0 0 0 0 0 0 0 0 0 0 0 0 0 0 0 0 127 0" result="hardAlpha"/>
<feOffset dy="3"/>
<feGaussianBlur stdDeviation="1.5"/>
<feComposite in2="hardAlpha" operator="out"/>
<feColorMatrix type="matrix" values="0 0 0 0 0 0 0 0 0 0 0 0 0 0 0 0 0 0 0.25 0"/>
<feBlend mode="normal" in2="BackgroundImageFix" result="effect1_dropShadow_16006_7608"/>
<feBlend mode="normal" in="SourceGraphic" in2="effect1_dropShadow_16006_7608" result="shape"/>
</filter>
</defs>
</svg>
