<svg width="38" height="30" viewBox="0 0 38 30" fill="none" xmlns="http://www.w3.org/2000/svg">
<g filter="url(#filter0_d_16005_19495)">
<mask id="mask0_16005_19495" style="mask-type:alpha" maskUnits="userSpaceOnUse" x="3" y="0" width="32" height="24">
<rect x="3" width="32" height="24" fill="white"/>
</mask>
<g mask="url(#mask0_16005_19495)">
<path fill-rule="evenodd" clip-rule="evenodd" d="M3 0V24H35V0H3Z" fill="#BF2714"/>
<mask id="mask1_16005_19495" style="mask-type:alpha" maskUnits="userSpaceOnUse" x="3" y="0" width="32" height="24">
<path fill-rule="evenodd" clip-rule="evenodd" d="M3 0V24H35V0H3Z" fill="white"/>
</mask>
<g mask="url(#mask1_16005_19495)">
<path fill-rule="evenodd" clip-rule="evenodd" d="M3 -2V12H35V-2H3Z" fill="#3D58DB"/>
</g>
<path fill-rule="evenodd" clip-rule="evenodd" d="M3 0V24L21 12L3 0Z" fill="#F7FCFF"/>
<mask id="mask2_16005_19495" style="mask-type:alpha" maskUnits="userSpaceOnUse" x="3" y="0" width="18" height="24">
<path fill-rule="evenodd" clip-rule="evenodd" d="M3 0V24L21 12L3 0Z" fill="white"/>
</mask>
<g mask="url(#mask2_16005_19495)">
<path fill-rule="evenodd" clip-rule="evenodd" d="M16.6056 10.9201L17.8815 11.4122L18.6406 10.5188L18.6608 11.7136L19.835 12.0955L18.599 12.5151L18.6805 13.613L17.8664 12.772L16.5868 13.0154L17.3423 12.0467L16.6056 10.9201Z" fill="#FECA00"/>
<path fill-rule="evenodd" clip-rule="evenodd" d="M4.60563 16.9201L5.7784 17.4386L6.64062 16.5188L6.55764 17.7401L7.83502 18.0955L6.4959 18.5416L6.68047 19.613L5.74811 18.8474L4.58677 19.0154L5.23915 18.0732L4.60563 16.9201Z" fill="#FECA00"/>
<path fill-rule="evenodd" clip-rule="evenodd" d="M4.60563 4.92014L5.90339 5.39836L6.64062 4.51883L6.68263 5.69979L7.83502 6.09554L6.62089 6.50128L6.68047 7.61298L5.8731 6.80711L4.58677 7.01536L5.36413 6.0329L4.60563 4.92014Z" fill="#FECA00"/>
<path fill-rule="evenodd" clip-rule="evenodd" d="M11.1211 14.5328C12.5018 14.5328 13.6211 13.4135 13.6211 12.0328C13.6211 10.6521 12.5018 9.53284 11.1211 9.53284C9.74038 9.53284 8.62109 10.6521 8.62109 12.0328C8.62109 13.4135 9.74038 14.5328 11.1211 14.5328Z" fill="#FECA00"/>
<path fill-rule="evenodd" clip-rule="evenodd" d="M10.8264 8.23965L10.9608 9.84565C10.9736 9.94317 11.0487 10.0209 11.1457 10.0371C11.2676 10.0575 11.3829 9.97525 11.4033 9.85338L11.5806 8.25282C11.5837 8.2342 11.5854 8.21539 11.5858 8.19652C11.5894 7.98595 11.4217 7.81227 11.2112 7.8086C11.1923 7.80827 11.1734 7.80934 11.1547 7.8118C10.9459 7.8393 10.799 8.03086 10.8264 8.23965ZM10.4083 9.01582L10.616 9.71445C10.6352 9.7793 10.7 9.81946 10.7732 9.80654C10.8333 9.79235 10.8705 9.73218 10.8563 9.67213L10.6906 8.97098C10.6715 8.89035 10.5934 8.83814 10.5116 8.85137C10.5061 8.85226 10.5007 8.85349 10.4954 8.85507C10.427 8.87541 10.388 8.94738 10.4083 9.01582ZM11.5312 9.74356C11.5149 9.80307 11.5499 9.86451 11.616 9.88236C11.6822 9.89625 11.7483 9.85838 11.7699 9.79424L12.0017 9.10328C12.0244 9.03559 11.988 8.9623 11.9203 8.93959C11.915 8.93783 11.9097 8.9364 11.9043 8.93533C11.823 8.91924 11.7431 8.9687 11.7212 9.04862L11.5312 9.74356ZM13.6083 9.0414L12.4906 10.2756C12.4307 10.3536 12.4288 10.4616 12.4859 10.5417C12.5577 10.6423 12.6974 10.6657 12.798 10.594L14.1322 9.58397C14.1476 9.57301 14.1621 9.56093 14.1757 9.54782C14.3272 9.40152 14.3314 9.16012 14.1851 9.00863C14.172 8.99505 14.1579 8.98247 14.1429 8.97098C13.9758 8.84279 13.7365 8.87431 13.6083 9.0414ZM13.2683 11.6613L14.9372 11.5322C15.146 11.5047 15.3376 11.6516 15.3651 11.8604C15.3675 11.8792 15.3686 11.898 15.3683 11.9169C15.3646 12.1275 15.1909 12.2952 14.9804 12.2915C14.9615 12.2912 14.9427 12.2894 14.9241 12.2863L13.2605 12.1038C13.1387 12.0834 13.0564 11.9681 13.0768 11.8462C13.093 11.7492 13.1707 11.6742 13.2683 11.6613ZM14.1344 14.3195L12.8383 13.1911C12.7603 13.1312 12.6523 13.1294 12.5722 13.1865C12.4716 13.2582 12.4482 13.398 12.52 13.4986L13.5919 14.8435C13.6028 14.8588 13.6149 14.8734 13.628 14.887C13.7743 15.0384 14.0157 15.0427 14.1672 14.8964C14.1808 14.8833 14.1934 14.8692 14.2049 14.8542C14.333 14.6871 14.3015 14.4477 14.1344 14.3195ZM11.4526 13.9688L11.5515 15.6538C11.579 15.8626 11.4321 16.0542 11.2233 16.0817C11.2046 16.0842 11.1857 16.0852 11.1668 16.0849C10.9562 16.0812 10.7885 15.9075 10.7922 15.697C10.7925 15.6781 10.7943 15.6593 10.7974 15.6407L11.0101 13.9611C11.0305 13.8392 11.1458 13.757 11.2677 13.7774C11.3647 13.7936 11.4397 13.8713 11.4526 13.9688ZM8.8215 14.8791L9.9228 13.5389C9.98267 13.4608 9.98456 13.3528 9.92744 13.2727C9.85569 13.1721 9.71597 13.1488 9.61536 13.2205L8.29754 14.3366C8.28218 14.3475 8.26765 14.3596 8.25408 14.3727C8.10258 14.519 8.09837 14.7604 8.24466 14.9119C8.25777 14.9255 8.27187 14.9381 8.28685 14.9496C8.45393 15.0778 8.6933 15.0462 8.8215 14.8791ZM9.1451 12.1531L7.46589 12.2915C7.2571 12.319 7.06554 12.172 7.03804 11.9632C7.03558 11.9445 7.03451 11.9257 7.03484 11.9068C7.03851 11.6962 7.21219 11.5285 7.42276 11.5322C7.44163 11.5325 7.46044 11.5342 7.47906 11.5373L9.15283 11.7106C9.2747 11.731 9.35696 11.8464 9.33656 11.9682C9.32032 12.0653 9.24262 12.1403 9.1451 12.1531ZM8.15082 9.52205L9.57505 10.6233C9.65309 10.6832 9.76109 10.6851 9.84117 10.628C9.94178 10.5562 9.96516 10.4165 9.89341 10.3159L8.6934 8.9981C8.68244 8.98273 8.67035 8.9682 8.65724 8.95463C8.51095 8.80313 8.26955 8.79892 8.11805 8.94521C8.10448 8.95832 8.09189 8.97242 8.08041 8.9874C7.95221 9.15448 7.98374 9.39386 8.15082 9.52205ZM12.3395 9.939L12.6867 9.29818C12.7207 9.23541 12.7992 9.21209 12.862 9.2461C12.8668 9.24874 12.8715 9.25168 12.876 9.25492C12.9432 9.3034 12.9615 9.39556 12.918 9.46605L12.5394 10.079C12.5069 10.1315 12.4381 10.1478 12.3856 10.1153C12.3247 10.0727 12.3073 9.99848 12.3395 9.939ZM14.0981 11.1089L13.3995 11.3165C13.3346 11.3358 13.2945 11.4005 13.3074 11.4738C13.3216 11.5338 13.3817 11.571 13.4418 11.5568L14.1429 11.3911C14.2236 11.3721 14.2758 11.294 14.2625 11.2122C14.2617 11.2067 14.2604 11.2013 14.2588 11.196C14.2385 11.1275 14.1665 11.0886 14.0981 11.1089ZM13.1749 13.0401L13.8157 13.3873C13.8785 13.4213 13.9018 13.4997 13.8678 13.5625C13.8652 13.5674 13.8622 13.5721 13.859 13.5766C13.8105 13.6438 13.7184 13.6621 13.6479 13.6185L13.0349 13.2399C12.9824 13.2075 12.9662 13.1386 12.9986 13.0862C13.0412 13.0252 13.1154 13.0078 13.1749 13.0401ZM12.005 14.7987L11.7974 14.1C11.7781 14.0352 11.7134 13.995 11.6401 14.0079C11.5801 14.0221 11.5429 14.0823 11.5571 14.1423L11.7228 14.8435C11.7418 14.9241 11.82 14.9763 11.9018 14.9631C11.9072 14.9622 11.9126 14.961 11.9179 14.9594C11.9864 14.9391 12.0254 14.8671 12.005 14.7987ZM10.0739 13.8755L9.72665 14.5163C9.69264 14.5791 9.61418 14.6024 9.5514 14.5684C9.54654 14.5657 9.54184 14.5628 9.53735 14.5595C9.47016 14.5111 9.45184 14.4189 9.49538 14.3484L9.87401 13.7355C9.90643 13.683 9.97527 13.6667 10.0278 13.6991C10.0887 13.7418 10.1061 13.816 10.0739 13.8755ZM8.31527 12.7056L9.0139 12.498C9.07875 12.4787 9.11891 12.4139 9.10599 12.3407C9.0918 12.2806 9.03163 12.2435 8.97158 12.2576L8.27043 12.4233C8.18979 12.4424 8.13758 12.5205 8.15082 12.6023C8.15171 12.6078 8.15294 12.6132 8.15452 12.6185C8.17486 12.6869 8.24683 12.7259 8.31527 12.7056ZM9.23844 10.7744L8.59763 10.4272C8.53485 10.3932 8.51154 10.3147 8.54555 10.252C8.54819 10.2471 8.55113 10.2424 8.55437 10.2379C8.60285 10.1707 8.69501 10.1524 8.7655 10.1959L9.37845 10.5746C9.43094 10.607 9.44721 10.6758 9.41478 10.7283C9.37212 10.7892 9.29793 10.8066 9.23844 10.7744ZM12.9661 10.6067C12.9125 10.6373 12.8938 10.7055 12.9279 10.7649C12.9649 10.8215 13.0384 10.8415 13.099 10.8113L13.7516 10.4867C13.8155 10.4549 13.8415 10.3773 13.8097 10.3134C13.8073 10.3084 13.8045 10.3036 13.8014 10.299C13.7553 10.2302 13.6638 10.2087 13.5919 10.2497L12.9661 10.6067ZM13.2316 12.3165C13.2494 12.2505 13.3108 12.2154 13.3704 12.2317L14.0653 12.4218C14.1452 12.4436 14.1947 12.5235 14.1786 12.6048C14.1775 12.6102 14.1761 12.6156 14.1743 12.6208C14.1516 12.6885 14.0783 12.725 14.0106 12.7023L13.3197 12.4704C13.2555 12.4489 13.2177 12.3828 13.2316 12.3165ZM12.5072 13.6666C12.4766 13.613 12.4084 13.5944 12.3491 13.6285C12.2924 13.6655 12.2724 13.739 12.3026 13.7996L12.6272 14.4521C12.659 14.516 12.7366 14.5421 12.8005 14.5103C12.8055 14.5078 12.8103 14.505 12.8149 14.5019C12.8837 14.4558 12.9053 14.3644 12.8642 14.2924L12.5072 13.6666ZM10.7974 13.9321C10.8634 13.95 10.8985 14.0114 10.8822 14.0709L10.6921 14.7658C10.6703 14.8458 10.5904 14.8952 10.5091 14.8791C10.5037 14.8781 10.4983 14.8766 10.4931 14.8749C10.4254 14.8522 10.3889 14.7789 10.4116 14.7112L10.6435 14.0202C10.665 13.9561 10.7312 13.9182 10.7974 13.9321ZM9.44729 13.2077C9.50088 13.1772 9.51954 13.1089 9.48546 13.0496C9.44846 12.993 9.37492 12.973 9.31435 13.0031L8.66181 13.3278C8.59788 13.3596 8.57184 13.4372 8.60364 13.5011C8.60611 13.506 8.60889 13.5108 8.61197 13.5154C8.65807 13.5843 8.74953 13.6058 8.8215 13.5647L9.44729 13.2077ZM9.18181 11.4979C9.16396 11.564 9.10252 11.599 9.04301 11.5828L8.34807 11.3927C8.26814 11.3708 8.21869 11.2909 8.23478 11.2097C8.23585 11.2042 8.23727 11.1989 8.23904 11.1936C8.26175 11.1259 8.33504 11.0895 8.40272 11.1122L9.09369 11.3441C9.15783 11.3656 9.1957 11.4317 9.18181 11.4979ZM9.90618 10.1478C9.93675 10.2014 10.005 10.2201 10.0643 10.186C10.1209 10.149 10.1409 10.0755 10.1108 10.0149L9.78616 9.36236C9.75436 9.29843 9.67676 9.27239 9.61284 9.30419C9.60788 9.30666 9.60309 9.30944 9.59849 9.31252C9.52964 9.35862 9.50811 9.45008 9.54917 9.52205L9.90618 10.1478Z" fill="#FECA00"/>
</g>
</g>
</g>
<defs>
<filter id="filter0_d_16005_19495" x="0" y="0" width="38" height="30" filterUnits="userSpaceOnUse" color-interpolation-filters="sRGB">
<feFlood flood-opacity="0" result="BackgroundImageFix"/>
<feColorMatrix in="SourceAlpha" type="matrix" values="0 0 0 0 0 0 0 0 0 0 0 0 0 0 0 0 0 0 127 0" result="hardAlpha"/>
<feOffset dy="3"/>
<feGaussianBlur stdDeviation="1.5"/>
<feComposite in2="hardAlpha" operator="out"/>
<feColorMatrix type="matrix" values="0 0 0 0 0 0 0 0 0 0 0 0 0 0 0 0 0 0 0.25 0"/>
<feBlend mode="normal" in2="BackgroundImageFix" result="effect1_dropShadow_16005_19495"/>
<feBlend mode="normal" in="SourceGraphic" in2="effect1_dropShadow_16005_19495" result="shape"/>
</filter>
</defs>
</svg>
