<svg width="38" height="30" viewBox="0 0 38 30" fill="none" xmlns="http://www.w3.org/2000/svg">
<g filter="url(#filter0_d_16006_8025)">
<mask id="mask0_16006_8025" style="mask-type:alpha" maskUnits="userSpaceOnUse" x="3" y="0" width="32" height="24">
<rect x="3" width="32" height="24" fill="white"/>
</mask>
<g mask="url(#mask0_16006_8025)">
<path fill-rule="evenodd" clip-rule="evenodd" d="M3 0V24H35V0H3Z" fill="#F7FCFF"/>
<mask id="mask1_16006_8025" style="mask-type:alpha" maskUnits="userSpaceOnUse" x="3" y="0" width="32" height="24">
<path fill-rule="evenodd" clip-rule="evenodd" d="M3 0V24H35V0H3Z" fill="white"/>
</mask>
<g mask="url(#mask1_16006_8025)">
<path fill-rule="evenodd" clip-rule="evenodd" d="M3 0V12H35V0H3Z" fill="#E31D1C"/>
<path fill-rule="evenodd" clip-rule="evenodd" d="M11.869 10.5896C11.869 10.5896 9.04332 9.45307 9.04332 6.37399C9.04332 3.29492 11.869 2.19514 11.869 2.19514C10.4957 1.84747 6.85156 2.15843 6.85156 6.37399C6.85156 10.5896 10.4406 11.3846 11.869 10.5896ZM12.593 10.0806L13.4036 9.59123L14.2321 10.0806L14.0293 9.12565L14.7028 8.37231H13.7903L13.4036 7.48061L13.0169 8.37231L12.1028 8.41095L12.7779 9.12565L12.593 10.0806ZM16.3499 9.53659L15.5393 10.026L15.7242 9.071L15.0491 8.3563L15.9632 8.31766L16.3499 7.42596L16.7366 8.31766H17.6491L16.9756 9.071L17.1784 10.026L16.3499 9.53659ZM14.2878 5.76985L15.0984 5.28048L15.9269 5.76985L15.7241 4.81489L16.3976 4.06155H15.4851L15.0984 3.16985L14.7117 4.06155L13.7976 4.10019L14.4727 4.81489L14.2878 5.76985ZM12.3704 7.22264L11.5598 7.71201L11.7447 6.75705L11.0696 6.04236L11.9837 6.00371L12.3704 5.11201L12.7571 6.00371H13.6696L12.9961 6.75705L13.1989 7.71201L12.3704 7.22264ZM16.9182 7.66816L17.7288 7.17879L18.5573 7.66816L18.3545 6.7132L19.028 5.95986H18.1155L17.7288 5.06816L17.3421 5.95986L16.428 5.9985L17.1031 6.7132L16.9182 7.66816Z" fill="#F1F9FF"/>
</g>
</g>
</g>
<defs>
<filter id="filter0_d_16006_8025" x="0" y="0" width="38" height="30" filterUnits="userSpaceOnUse" color-interpolation-filters="sRGB">
<feFlood flood-opacity="0" result="BackgroundImageFix"/>
<feColorMatrix in="SourceAlpha" type="matrix" values="0 0 0 0 0 0 0 0 0 0 0 0 0 0 0 0 0 0 127 0" result="hardAlpha"/>
<feOffset dy="3"/>
<feGaussianBlur stdDeviation="1.5"/>
<feComposite in2="hardAlpha" operator="out"/>
<feColorMatrix type="matrix" values="0 0 0 0 0 0 0 0 0 0 0 0 0 0 0 0 0 0 0.25 0"/>
<feBlend mode="normal" in2="BackgroundImageFix" result="effect1_dropShadow_16006_8025"/>
<feBlend mode="normal" in="SourceGraphic" in2="effect1_dropShadow_16006_8025" result="shape"/>
</filter>
</defs>
</svg>
