<svg width="38" height="30" viewBox="0 0 38 30" fill="none" xmlns="http://www.w3.org/2000/svg">
<g filter="url(#filter0_d_16006_7977)">
<mask id="mask0_16006_7977" style="mask-type:alpha" maskUnits="userSpaceOnUse" x="3" y="0" width="32" height="24">
<rect x="3" width="32" height="24" fill="white"/>
</mask>
<g mask="url(#mask0_16006_7977)">
<path fill-rule="evenodd" clip-rule="evenodd" d="M3 0H35V24H3V0Z" fill="#F7FCFF"/>
<path fill-rule="evenodd" clip-rule="evenodd" d="M3 0V8H35V0H3Z" fill="#E31D1C"/>
<path fill-rule="evenodd" clip-rule="evenodd" d="M3 16V24H35V16H3Z" fill="#3D58DB"/>
<mask id="path-5-outside-1_16006_7977" maskUnits="userSpaceOnUse" x="1" y="-7" width="36" height="38" fill="black">
<rect fill="white" x="1" y="-7" width="36" height="38"/>
<path fill-rule="evenodd" clip-rule="evenodd" d="M18.4286 10L3 -2V26L18.4286 14H35V10H18.4286Z"/>
</mask>
<path fill-rule="evenodd" clip-rule="evenodd" d="M18.4286 10L3 -2V26L18.4286 14H35V10H18.4286Z" fill="#5EAA22"/>
<path d="M3 -2L4.22788 -3.5787L1 -6.08928V-2H3ZM18.4286 10L17.2007 11.5787L17.7424 12H18.4286V10ZM3 26H1V30.0893L4.22788 27.5787L3 26ZM18.4286 14V12H17.7424L17.2007 12.4213L18.4286 14ZM35 14V16H37V14H35ZM35 10H37V8H35V10ZM1.77212 -0.421296L17.2007 11.5787L19.6565 8.4213L4.22788 -3.5787L1.77212 -0.421296ZM5 26V-2H1V26H5ZM17.2007 12.4213L1.77212 24.4213L4.22788 27.5787L19.6565 15.5787L17.2007 12.4213ZM35 12H18.4286V16H35V12ZM33 10V14H37V10H33ZM18.4286 12H35V8H18.4286V12Z" fill="#F7FCFF" mask="url(#path-5-outside-1_16006_7977)"/>
<path d="M3.6 5.2L2 4V6V18V20L3.6 18.8L11.6 12.8L12.6667 12L11.6 11.2L3.6 5.2Z" fill="#272727" stroke="#FECA00" stroke-width="2"/>
</g>
</g>
<defs>
<filter id="filter0_d_16006_7977" x="0" y="0" width="38" height="30" filterUnits="userSpaceOnUse" color-interpolation-filters="sRGB">
<feFlood flood-opacity="0" result="BackgroundImageFix"/>
<feColorMatrix in="SourceAlpha" type="matrix" values="0 0 0 0 0 0 0 0 0 0 0 0 0 0 0 0 0 0 127 0" result="hardAlpha"/>
<feOffset dy="3"/>
<feGaussianBlur stdDeviation="1.5"/>
<feComposite in2="hardAlpha" operator="out"/>
<feColorMatrix type="matrix" values="0 0 0 0 0 0 0 0 0 0 0 0 0 0 0 0 0 0 0.25 0"/>
<feBlend mode="normal" in2="BackgroundImageFix" result="effect1_dropShadow_16006_7977"/>
<feBlend mode="normal" in="SourceGraphic" in2="effect1_dropShadow_16006_7977" result="shape"/>
</filter>
</defs>
</svg>
