<svg width="38" height="30" viewBox="0 0 38 30" fill="none" xmlns="http://www.w3.org/2000/svg">
<g filter="url(#filter0_d_16005_19911)">
<mask id="mask0_16005_19911" style="mask-type:alpha" maskUnits="userSpaceOnUse" x="3" y="0" width="32" height="24">
<rect x="3" width="32" height="24" fill="white"/>
</mask>
<g mask="url(#mask0_16005_19911)">
<path fill-rule="evenodd" clip-rule="evenodd" d="M3 0V24H35V0H3Z" fill="#FFB400"/>
<mask id="mask1_16005_19911" style="mask-type:alpha" maskUnits="userSpaceOnUse" x="3" y="0" width="32" height="24">
<path fill-rule="evenodd" clip-rule="evenodd" d="M3 0V24H35V0H3Z" fill="white"/>
</mask>
<g mask="url(#mask1_16005_19911)">
<path fill-rule="evenodd" clip-rule="evenodd" d="M3 0V6H35V0H3Z" fill="#C51918"/>
<path fill-rule="evenodd" clip-rule="evenodd" d="M3 18V24H35V18H3Z" fill="#C51918"/>
<rect x="8.00781" y="10.272" width="1.12" height="5.824" fill="#F1F9FF"/>
<path fill-rule="evenodd" clip-rule="evenodd" d="M9.57459 9.26392H7.55859V9.82392H7.89459V10.2719H9.23859V9.82392H9.57459V9.26392Z" fill="#C88A02"/>
<path fill-rule="evenodd" clip-rule="evenodd" d="M9.23859 16.4319H9.57459V16.9919H7.55859V16.4319H7.89459V15.9839H9.23859V16.4319Z" fill="#C88A02"/>
<path fill-rule="evenodd" clip-rule="evenodd" d="M8.56525 9.37592C8.80898 9.37592 8.83376 9.28414 8.97755 9.14707C9.08921 9.04063 9.34925 8.90862 9.34925 8.75992C9.34925 8.41971 8.99824 8.14392 8.56525 8.14392C8.13226 8.14392 7.78125 8.41971 7.78125 8.75992C7.78125 8.92559 7.96033 9.03636 8.09573 9.14707C8.23839 9.26371 8.34311 9.37592 8.56525 9.37592Z" fill="#AD1619"/>
<path fill-rule="evenodd" clip-rule="evenodd" d="M7.55859 16.9919H9.57459V17.8879C9.57459 17.8879 9.32259 17.7759 9.07059 17.7759C8.81859 17.7759 8.56659 17.8879 8.56659 17.8879C8.56659 17.8879 8.31459 17.7759 8.06259 17.7759C7.81059 17.7759 7.55859 17.8879 7.55859 17.8879V16.9919Z" fill="#005BBF"/>
<mask id="mask2_16005_19911" style="mask-type:alpha" maskUnits="userSpaceOnUse" x="7" y="16" width="3" height="2">
<path fill-rule="evenodd" clip-rule="evenodd" d="M7.55859 16.9919H9.57459V17.8879C9.57459 17.8879 9.32259 17.7759 9.07059 17.7759C8.81859 17.7759 8.56659 17.8879 8.56659 17.8879C8.56659 17.8879 8.31459 17.7759 8.06259 17.7759C7.81059 17.7759 7.55859 17.8879 7.55859 17.8879V16.9919Z" fill="white"/>
</mask>
<g mask="url(#mask2_16005_19911)">
<path d="M7.5401 17.7119L7.49609 17.6046C7.67767 17.5238 7.8599 17.4833 8.0424 17.4833C8.16031 17.4833 8.22188 17.4997 8.32655 17.5463C8.41849 17.5872 8.46615 17.5999 8.5667 17.5999C8.66725 17.5999 8.71491 17.5872 8.80685 17.5463C8.91152 17.4997 8.9731 17.4833 9.091 17.4833C9.2735 17.4833 9.45573 17.5238 9.63731 17.6046L9.59331 17.7119C9.42535 17.6372 9.25804 17.5999 9.091 17.5999C8.99045 17.5999 8.94279 17.6127 8.85085 17.6536C8.74618 17.7002 8.68461 17.7166 8.5667 17.7166C8.44879 17.7166 8.38722 17.7002 8.28255 17.6536C8.19061 17.6127 8.14295 17.5999 8.0424 17.5999C7.87536 17.5999 7.70805 17.6372 7.5401 17.7119Z" fill="white"/>
<path d="M7.5401 17.3759L7.49609 17.2686C7.67767 17.1878 7.8599 17.1472 8.0424 17.1472C8.16031 17.1472 8.22188 17.1637 8.32655 17.2102C8.41849 17.2512 8.46615 17.2639 8.5667 17.2639C8.66725 17.2639 8.71491 17.2512 8.80685 17.2102C8.91152 17.1637 8.9731 17.1472 9.091 17.1472C9.2735 17.1472 9.45573 17.1878 9.63731 17.2686L9.59331 17.3759C9.42535 17.3011 9.25804 17.2639 9.091 17.2639C8.99045 17.2639 8.94279 17.2766 8.85085 17.3175C8.74618 17.3641 8.68461 17.3806 8.5667 17.3806C8.44879 17.3806 8.38722 17.3641 8.28255 17.3175C8.19061 17.2766 8.14295 17.2639 8.0424 17.2639C7.87536 17.2639 7.70805 17.3011 7.5401 17.3759Z" fill="white"/>
</g>
<rect x="18.9844" y="10.272" width="1.12" height="5.824" fill="#F1F9FF"/>
<path fill-rule="evenodd" clip-rule="evenodd" d="M20.5512 9.26392H18.5352V9.82392H18.8712V10.2719H20.2152V9.82392H20.5512V9.26392Z" fill="#C88A02"/>
<path fill-rule="evenodd" clip-rule="evenodd" d="M20.2152 16.4319H20.5512V16.9919H18.5352V16.4319H18.8712V15.9839H20.2152V16.4319Z" fill="#C88A02"/>
<path fill-rule="evenodd" clip-rule="evenodd" d="M19.5418 9.37592C19.7855 9.37592 19.8103 9.28414 19.9541 9.14707C20.0658 9.04063 20.3258 8.90862 20.3258 8.75992C20.3258 8.41971 19.9748 8.14392 19.5418 8.14392C19.1088 8.14392 18.7578 8.41971 18.7578 8.75992C18.7578 8.92559 18.9369 9.03636 19.0723 9.14707C19.215 9.26371 19.3197 9.37592 19.5418 9.37592Z" fill="#AD1619"/>
<path fill-rule="evenodd" clip-rule="evenodd" d="M18.5352 16.9919H20.5512V17.8879C20.5512 17.8879 20.2992 17.7759 20.0472 17.7759C19.7952 17.7759 19.5432 17.8879 19.5432 17.8879C19.5432 17.8879 19.2912 17.7759 19.0392 17.7759C18.7872 17.7759 18.5352 17.8879 18.5352 17.8879V16.9919Z" fill="#005BBF"/>
<mask id="mask3_16005_19911" style="mask-type:alpha" maskUnits="userSpaceOnUse" x="18" y="16" width="3" height="2">
<path fill-rule="evenodd" clip-rule="evenodd" d="M18.5352 16.9919H20.5512V17.8879C20.5512 17.8879 20.2992 17.7759 20.0472 17.7759C19.7952 17.7759 19.5432 17.8879 19.5432 17.8879C19.5432 17.8879 19.2912 17.7759 19.0392 17.7759C18.7872 17.7759 18.5352 17.8879 18.5352 17.8879V16.9919Z" fill="white"/>
</mask>
<g mask="url(#mask3_16005_19911)">
<path d="M18.5167 17.7119L18.4727 17.6046C18.6542 17.5238 18.8365 17.4833 19.019 17.4833C19.1369 17.4833 19.1984 17.4997 19.3031 17.5463C19.3951 17.5872 19.4427 17.5999 19.5433 17.5999C19.6438 17.5999 19.6915 17.5872 19.7834 17.5463C19.8881 17.4997 19.9497 17.4833 20.0676 17.4833C20.2501 17.4833 20.4323 17.5238 20.6139 17.6046L20.5699 17.7119C20.4019 17.6372 20.2346 17.5999 20.0676 17.5999C19.967 17.5999 19.9194 17.6127 19.8274 17.6536C19.7227 17.7002 19.6612 17.7166 19.5433 17.7166C19.4254 17.7166 19.3638 17.7002 19.2591 17.6536C19.1672 17.6127 19.1195 17.5999 19.019 17.5999C18.8519 17.5999 18.6846 17.6372 18.5167 17.7119Z" fill="white"/>
<path d="M18.5167 17.3759L18.4727 17.2686C18.6542 17.1878 18.8365 17.1472 19.019 17.1472C19.1369 17.1472 19.1984 17.1637 19.3031 17.2102C19.3951 17.2512 19.4427 17.2639 19.5433 17.2639C19.6438 17.2639 19.6915 17.2512 19.7834 17.2102C19.8881 17.1637 19.9497 17.1472 20.0676 17.1472C20.2501 17.1472 20.4323 17.1878 20.6139 17.2686L20.5699 17.3759C20.4019 17.3011 20.2346 17.2639 20.0676 17.2639C19.967 17.2639 19.9194 17.2766 19.8274 17.3175C19.7227 17.3641 19.6612 17.3806 19.5433 17.3806C19.4254 17.3806 19.3638 17.3641 19.2591 17.3175C19.1672 17.2766 19.1195 17.2639 19.019 17.2639C18.8519 17.2639 18.6846 17.3011 18.5167 17.3759Z" fill="white"/>
</g>
<path fill-rule="evenodd" clip-rule="evenodd" d="M7.98678 15.6799C8.18871 15.4351 8.30162 15.2124 8.30162 14.9758C8.30162 14.8267 8.25724 14.6979 8.17948 14.5926L8.19262 14.5867C8.19141 14.5873 8.41414 14.4902 8.49168 14.453C8.63584 14.3839 8.76283 14.3107 8.88666 14.2206C8.96571 14.1631 9.07163 14.1005 9.23309 14.0138C9.26099 13.9988 9.33661 13.9587 9.38484 13.9331L9.42578 13.9114C9.50426 13.8695 9.56269 13.8374 9.61698 13.8059C9.78615 13.7078 9.89794 13.6267 9.98345 13.5182C10.186 13.2614 10.1439 12.9133 9.86013 12.7201C9.72109 12.6254 9.53346 12.5711 9.25843 12.5284L9.20156 12.5196C9.10761 12.505 8.92708 12.4771 8.86508 12.4674C8.73346 12.4467 8.61603 12.4274 8.51132 12.4091C9.19989 12.2946 10.1831 12.3367 10.6156 12.56L11.0267 11.7638C10.1453 11.3088 8.13721 11.3553 7.38707 11.8718C6.83688 12.2508 6.91071 12.8235 7.48316 13.0702C7.72236 13.1732 8.03419 13.2416 8.61124 13.3343C8.51454 13.3904 8.43437 13.4417 8.35967 13.496C8.28391 13.5511 8.20275 13.5979 8.1043 13.6451C8.05722 13.6676 7.91782 13.7288 7.85391 13.7569L7.85386 13.7569L7.85386 13.7569L7.82174 13.7711C7.35546 13.9831 7.12916 14.2764 7.19678 14.8059L7.23339 15.0925L7.29905 15.1126L7.98678 15.6799ZM7.4104 14.9392L7.40898 14.9433L7.41006 14.9404L7.4104 14.9392ZM19.7048 14.9758C19.7048 15.2124 19.8177 15.4351 20.0196 15.6799L20.7073 15.1126L20.773 15.0925L20.8096 14.8059C20.8772 14.2764 20.6509 13.9831 20.1847 13.7711L20.1525 13.7569C20.0886 13.7289 19.9492 13.6676 19.9021 13.6451C19.8037 13.5979 19.7225 13.5511 19.6467 13.496C19.572 13.4417 19.4919 13.3904 19.3952 13.3343C19.9722 13.2416 20.284 13.1732 20.5232 13.0702C21.0957 12.8235 21.1695 12.2508 20.6193 11.8718C19.8692 11.3553 17.8611 11.3088 16.9797 11.7638L17.3908 12.56C17.8233 12.3367 18.8065 12.2946 19.4951 12.4091C19.3904 12.4274 19.2729 12.4467 19.1413 12.4674C19.0793 12.4771 18.8989 12.505 18.8049 12.5195L18.8046 12.5196L18.748 12.5284C18.4729 12.5711 18.2853 12.6254 18.1463 12.7201C17.8625 12.9133 17.8204 13.2614 18.023 13.5182C18.1085 13.6267 18.2203 13.7078 18.3894 13.8059C18.4437 13.8374 18.5021 13.8695 18.5806 13.9114L18.6214 13.933C18.6696 13.9586 18.7454 13.9988 18.7733 14.0138C18.9348 14.1005 19.0407 14.1631 19.1197 14.2206C19.2436 14.3107 19.3706 14.3839 19.5147 14.453C19.5923 14.4902 19.815 14.5873 19.8138 14.5867L19.8269 14.5926C19.7492 14.6979 19.7048 14.8267 19.7048 14.9758Z" fill="#AD1619"/>
<path d="M8.92317 12.3999L9.25375 12.4683V12.961C8.90166 13.242 8.00781 13.7155 8.00781 13.7155V12.3999H8.92317Z" fill="#F1F9FF"/>
<path d="M19.3151 12.3999L18.9845 12.4683V12.961C19.3366 13.242 20.2305 13.7155 20.2305 13.7155V12.3999H19.3151Z" fill="#F1F9FF"/>
<path fill-rule="evenodd" clip-rule="evenodd" d="M17.7732 7.2059V7.04192C17.1971 6.62847 16.5939 6.42175 15.9634 6.42175C15.359 6.15428 14.7472 6.05045 14.128 6.11027C14.1282 6.10836 14.1283 6.10739 14.1283 6.10739C13.1973 6.0163 12.259 6.42175 12.259 6.42175C11.3133 6.42175 10.4492 7.04192 10.4492 7.04192V7.2059L11.5788 8.34043C11.5788 8.34043 11.8968 9.43243 14.1237 9.17578V9.17855C14.1237 9.17855 15.598 9.13831 15.7016 9.10385C15.7427 9.09018 15.7853 9.07774 15.8289 9.06502C16.1177 8.98071 16.4473 8.88446 16.6436 8.34043L17.7732 7.2059ZM14.1237 6.16044C14.0915 6.53816 13.9079 8.81509 14.1237 9.1681V6.16044Z" fill="#AD1619"/>
<path fill-rule="evenodd" clip-rule="evenodd" d="M11.3096 8.14951L11.3103 8.14606L10.5156 7.39837L10.5924 7.3168L11.3381 8.01839L11.3572 7.93062C11.4792 7.95715 11.5683 7.9669 11.6203 7.96138V7.80918L11.7856 7.89864C11.8669 7.94264 11.9834 7.95448 12.1367 7.92952C12.2494 7.91119 12.3254 7.78037 12.3503 7.5016L12.4004 6.93884L12.5687 7.47819C12.6449 7.72225 12.7611 7.82984 12.9265 7.82984C13.088 7.82984 13.1529 7.77061 13.1601 7.62133L13.1804 7.19795L13.3719 7.57611C13.4409 7.71235 13.536 7.77416 13.6713 7.77416C13.8647 7.77416 13.9939 7.61288 13.9939 7.35984H13.9976H14.2179H14.2216C14.2216 7.61288 14.3508 7.77416 14.5443 7.77416C14.6795 7.77416 14.7746 7.71235 14.8436 7.57611L15.0351 7.19795L15.0554 7.62133C15.0626 7.77061 15.1275 7.82984 15.2891 7.82984C15.4545 7.82984 15.5706 7.72225 15.6468 7.47819L15.8151 6.93884L15.8653 7.5016C15.8901 7.78037 15.9661 7.91119 16.0788 7.92952C16.2321 7.95448 16.3486 7.94264 16.4299 7.89864L16.5952 7.80918V7.96138C16.6472 7.9669 16.7363 7.95715 16.8583 7.93062L16.8938 8.09349L17.7193 7.3168L17.796 7.39837L16.7687 8.36488C16.6189 8.64091 16.5434 8.8231 16.5434 8.89878C16.5434 9.01424 16.243 9.08277 15.6567 9.15316C15.1974 9.20831 14.6554 9.24532 14.212 9.25085V9.25157L14.1558 9.25139L14.0996 9.25157V9.25085C13.6563 9.24532 13.1142 9.20831 12.6549 9.15316C12.0687 9.08277 11.7683 9.01424 11.7683 8.89878C11.7683 8.88446 11.7656 8.86634 11.7602 8.84448C11.7011 8.7692 11.6595 8.64603 11.6319 8.53494C11.6059 8.48299 11.5763 8.42625 11.5429 8.36488L11.3153 8.15075L11.3096 8.14951ZM16.815 8.16754C16.6316 8.20001 16.4992 8.19673 16.4289 8.13951C16.319 8.1715 16.19 8.17457 16.0428 8.15061C15.8856 8.12503 15.7761 8.02044 15.7102 7.84694C15.6242 7.95652 15.5154 8.02417 15.3851 8.04605C16.1018 8.14769 16.6039 8.29057 16.6039 8.29057C16.6039 8.29057 16.5915 8.39671 16.5614 8.52151C16.5933 8.45618 16.631 8.38358 16.6746 8.30346L16.6855 8.28946L16.815 8.16754ZM15.0469 8.00347C14.9846 7.9725 14.9348 7.92759 14.8988 7.86971C14.8454 7.9169 14.7846 7.95142 14.7171 7.97271C14.8298 7.98133 14.94 7.99174 15.0469 8.00347ZM14.3217 7.95092C14.2345 7.9106 14.1619 7.84604 14.1078 7.76331C14.054 7.84546 13.9821 7.90969 13.8957 7.95006C13.9468 7.94854 13.9983 7.94746 14.0501 7.94688V7.94637L14.095 7.9465L14.1399 7.94637V7.94688C14.2009 7.94757 14.2615 7.94893 14.3217 7.95092ZM11.6181 8.28179L11.5136 8.18355C11.639 8.19598 11.7318 8.18419 11.7866 8.13951C11.8966 8.1715 12.0255 8.17457 12.1727 8.15061C12.33 8.12503 12.4395 8.02044 12.5053 7.84694C12.5889 7.95335 12.6938 8.02022 12.8191 8.04403C12.2012 8.13085 11.7401 8.24897 11.6181 8.28179ZM13.4936 7.97115C13.385 7.97921 13.2788 7.98896 13.1755 7.99997C13.2346 7.96915 13.2821 7.92545 13.3167 7.86971C13.3689 7.91577 13.428 7.94975 13.4936 7.97115ZM16.2489 8.90097C16.3274 8.9377 16.3903 8.90107 16.44 8.83075C16.4357 8.85017 16.433 8.86773 16.4319 8.88345C16.4254 8.88775 16.4153 8.89293 16.4021 8.89849C16.3652 8.914 16.3088 8.93052 16.2355 8.94724C16.0915 8.98011 15.8864 9.01278 15.6434 9.04196C15.1688 9.09894 14.6045 9.13644 14.1558 9.13938C13.7072 9.13644 13.1429 9.09894 12.6683 9.04196C12.4253 9.01278 12.2202 8.98011 12.0761 8.94724C12.0147 8.93323 11.9652 8.91935 11.929 8.90609C11.933 8.90458 11.937 8.90288 11.9411 8.90097C12.1857 8.78649 13.8036 8.67905 14.095 8.66051C14.3863 8.67905 16.0042 8.78649 16.2489 8.90097ZM16.5568 8.88107L16.556 8.88212L16.5568 8.881L16.5574 8.88046L16.5568 8.88107Z" fill="#C88A02"/>
<path fill-rule="evenodd" clip-rule="evenodd" d="M14.1094 5.34705C14.295 5.34705 14.4454 5.19662 14.4454 5.01105C14.4454 4.82548 14.295 4.67505 14.1094 4.67505C13.9239 4.67505 13.7734 4.82548 13.7734 5.01105C13.7734 5.19662 13.9239 5.34705 14.1094 5.34705Z" fill="#005BBF"/>
<path fill-rule="evenodd" clip-rule="evenodd" d="M13.8906 6.99679C13.8977 7.03367 13.9089 7.068 13.9231 7.09859C13.8797 7.08202 13.8282 7.07241 13.7729 7.07241C13.6183 7.07241 13.4929 7.14763 13.4929 7.24041C13.4929 7.3332 13.6183 7.40841 13.7729 7.40841C13.9276 7.40841 14.0529 7.3332 14.0529 7.24041C14.0529 7.3332 14.1783 7.40841 14.3329 7.40841C14.4876 7.40841 14.6129 7.3332 14.6129 7.24041C14.6129 7.14763 14.4876 7.07241 14.3329 7.07241C14.294 7.07241 14.2569 7.07718 14.2232 7.08579C14.2314 7.03986 14.231 6.9872 14.2204 6.93268C14.1909 6.78088 14.0931 6.67217 14.0021 6.68988C13.911 6.70758 13.8611 6.84499 13.8906 6.99679ZM14.0529 7.24041L14.0528 7.23529L14.053 7.23537L14.0529 7.24041ZM12.2431 7.21059C12.2289 7.18 12.2177 7.14567 12.2106 7.10879C12.1811 6.95699 12.231 6.81958 12.3221 6.80188C12.4131 6.78417 12.5109 6.89288 12.5404 7.04468C12.551 7.0992 12.5514 7.15186 12.5432 7.19779C12.5769 7.18918 12.614 7.18441 12.6529 7.18441C12.8076 7.18441 12.9329 7.25963 12.9329 7.35241C12.9329 7.4452 12.8076 7.52041 12.6529 7.52041C12.4983 7.52041 12.3729 7.4452 12.3729 7.35241L12.373 7.34737L12.3728 7.34729L12.3729 7.35241C12.3729 7.4452 12.2476 7.52041 12.0929 7.52041C11.9383 7.52041 11.8129 7.4452 11.8129 7.35241C11.8129 7.25963 11.9383 7.18441 12.0929 7.18441C12.1482 7.18441 12.1997 7.19402 12.2431 7.21059ZM15.7509 7.31297C15.7379 7.40485 15.6033 7.46189 15.4502 7.44037C15.2971 7.41885 15.1834 7.32692 15.1963 7.23504C15.2092 7.14316 15.3438 7.08612 15.497 7.10764C15.5517 7.11533 15.6014 7.13201 15.642 7.15447C15.6323 7.1222 15.626 7.08664 15.624 7.04913C15.6159 6.8947 15.6845 6.76557 15.7771 6.76072C15.8698 6.75586 15.9514 6.87711 15.9595 7.03154C15.9624 7.08701 15.9555 7.13921 15.941 7.18356C15.9756 7.17972 16.013 7.18016 16.0515 7.18558C16.2046 7.2071 16.3183 7.29903 16.3054 7.39091C16.2925 7.48279 16.1579 7.53983 16.0047 7.51831C15.8516 7.49678 15.7379 7.40485 15.7509 7.31297ZM15.7509 7.31297L15.7514 7.30788L15.7517 7.308L15.7509 7.31297ZM16.8173 7.75723C16.9538 7.82983 17.0998 7.82227 17.1434 7.74034L17.1457 7.73576C17.1591 7.74999 17.175 7.76036 17.1932 7.76591C17.2819 7.79304 17.3905 7.69514 17.4357 7.54726C17.4809 7.39938 17.4457 7.2575 17.3569 7.23038C17.2682 7.20325 17.1596 7.30114 17.1144 7.44902C17.1034 7.48495 17.0972 7.52052 17.0953 7.55418C17.0648 7.51917 17.0238 7.4865 16.975 7.46056C16.8385 7.38796 16.6925 7.39552 16.6489 7.47744C16.6054 7.55936 16.6807 7.68463 16.8173 7.75723ZM11.3217 7.79154C11.1852 7.86414 11.0392 7.85658 10.9956 7.77465C10.9948 7.77314 10.9941 7.77161 10.9933 7.77007C10.9799 7.7843 10.964 7.79466 10.9458 7.80022C10.8571 7.82734 10.7485 7.72945 10.7033 7.58157C10.6581 7.43369 10.6934 7.29181 10.7821 7.26469C10.8708 7.23756 10.9794 7.33545 11.0246 7.48333C11.0356 7.51926 11.0418 7.55483 11.0437 7.58849C11.0742 7.55347 11.1152 7.52081 11.164 7.49487C11.3005 7.42227 11.4465 7.42983 11.4901 7.51175C11.5337 7.59367 11.4583 7.71894 11.3217 7.79154Z" fill="#C88A02"/>
<path fill-rule="evenodd" clip-rule="evenodd" d="M13.983 4.07654H14.2163V4.22394H14.3687V4.45727H14.2163V4.92394H14.3687V5.15727H13.8281V4.92394H13.983V4.45727H13.8281V4.22394H13.983V4.07654Z" fill="#C88A02"/>
<rect x="13.9414" y="5.34399" width="0.448" height="1.456" fill="#C88A02"/>
<path d="M12.1382 5.58785L12.1363 5.69984C11.1432 5.6825 10.5735 5.82742 10.4289 6.11627C10.2794 6.4149 10.3072 6.77792 10.5167 7.20915L10.416 7.25809C10.1925 6.79799 10.1619 6.3994 10.3288 6.06614C10.5005 5.7231 11.1031 5.56978 12.1382 5.58785Z" fill="white"/>
<path d="M12.3311 6.58095L12.2737 6.67711C12.0575 6.54798 11.9492 6.3276 11.9492 6.0239C11.9492 5.58742 12.1741 5.33147 12.6714 5.15631C12.9888 5.04452 13.4224 5.09035 13.9735 5.29013L13.9353 5.39542C13.4063 5.20364 12.997 5.16038 12.7086 5.26195C12.2524 5.42261 12.0612 5.64028 12.0612 6.0239C12.0612 6.29041 12.1511 6.47346 12.3311 6.58095Z" fill="white"/>
<path d="M10.6579 7.03733L10.4465 7.11156C10.2272 6.48721 10.2899 6.0632 10.6646 5.88029C10.9947 5.71912 11.4759 5.65353 12.1105 5.67925L12.1014 5.90306C11.5006 5.87872 11.0536 5.93965 10.7628 6.08159C10.5166 6.20179 10.4715 6.50678 10.6579 7.03733Z" fill="#C88A02"/>
<path d="M13.127 5.4386C12.6148 5.4386 12.4045 5.56333 12.2844 5.93162C12.2078 6.16632 12.2821 6.36664 12.5228 6.55362L12.3855 6.73054C12.0737 6.48846 11.9638 6.19198 12.0714 5.86215C12.2245 5.3928 12.525 5.2146 13.127 5.2146C13.5215 5.2146 13.8289 5.31826 14.0429 5.52922L14.0763 5.56212V6.64208H13.8523V5.65786C13.6851 5.51268 13.445 5.4386 13.127 5.4386Z" fill="#C88A02"/>
<path d="M16.0454 5.69979L16.0473 5.81177C17.0404 5.79444 17.6101 5.93936 17.7547 6.22821C17.9042 6.52684 17.8764 6.88986 17.6669 7.32109L17.7676 7.37003C17.9911 6.90993 18.0217 6.51134 17.8548 6.17807C17.6831 5.83503 17.0805 5.68172 16.0454 5.69979Z" fill="white"/>
<path d="M15.6962 6.60426L15.7536 6.70043C15.9699 6.57129 16.0781 6.35092 16.0781 6.04722C16.0781 5.61074 15.8533 5.35478 15.3559 5.17962C15.0385 5.06783 14.6049 5.11367 14.0539 5.31345L14.0921 5.41874C14.621 5.22696 15.0303 5.18369 15.3187 5.28526C15.7749 5.44592 15.9661 5.6636 15.9661 6.04722C15.9661 6.31373 15.8762 6.49677 15.6962 6.60426Z" fill="white"/>
<path d="M17.596 7.14939L17.8074 7.22362C18.0267 6.59927 17.964 6.17526 17.5894 5.99235C17.2592 5.83118 16.778 5.76559 16.1434 5.79131L16.1525 6.01513C16.7533 5.99078 17.2003 6.05171 17.4911 6.19365C17.7373 6.31385 17.7824 6.61884 17.596 7.14939Z" fill="#C88A02"/>
<path d="M15.1152 5.45593C15.6274 5.45593 15.8377 5.58067 15.9578 5.94895C16.0344 6.18366 15.9601 6.38397 15.7193 6.57096L15.8567 6.74788C16.1685 6.5058 16.2784 6.20931 16.1708 5.87948C16.0177 5.41013 15.7172 5.23193 15.1152 5.23193C14.7207 5.23193 14.4133 5.33559 14.1993 5.54655L14.1659 5.57945V6.65942H14.3899V5.67519C14.5571 5.53002 14.7971 5.45593 15.1152 5.45593Z" fill="#C88A02"/>
<path opacity="0.3" fill-rule="evenodd" clip-rule="evenodd" d="M10.4727 9.26392H17.7527V15.8047C17.7527 15.8047 17.2119 17.9999 14.1127 17.9999C11.0134 17.9999 10.4727 15.7469 10.4727 15.7469V9.26392Z" fill="#E1E5E8"/>
<mask id="mask4_16005_19911" style="mask-type:alpha" maskUnits="userSpaceOnUse" x="10" y="9" width="8" height="9">
<path fill-rule="evenodd" clip-rule="evenodd" d="M10.4727 9.26392H17.7527V15.8047C17.7527 15.8047 17.2119 17.9999 14.1127 17.9999C11.0134 17.9999 10.4727 15.7469 10.4727 15.7469V9.26392Z" fill="white"/>
</mask>
<g mask="url(#mask4_16005_19911)">
<rect x="10.4727" y="13.2959" width="3.696" height="4.368" fill="#FFC034"/>
<rect x="10.9219" y="13.5199" width="0.448" height="4.144" fill="#AD1619"/>
<rect x="12.4883" y="13.5199" width="0.448" height="4.144" fill="#AD1619"/>
<rect x="11.7031" y="13.5199" width="0.448" height="4.144" fill="#AD1619"/>
<rect x="13.2734" y="13.5199" width="0.448" height="4.144" fill="#AD1619"/>
<rect x="10.4727" y="9.15186" width="3.696" height="4.256" fill="#AD1619"/>
<rect x="14.0586" y="13.184" width="3.696" height="4.256" fill="#AD1619"/>
<rect x="14.0586" y="9.26392" width="3.92" height="4.144" fill="#F1F9FF"/>
<path fill-rule="evenodd" clip-rule="evenodd" d="M12.0418 9.59998H12.3778V10.5292H12.6018V10.0646H12.9378V10.5292H13.2738V11.1099H12.9378V12.1552H13.2738V12.736H11.2578V12.1552H11.5938V11.1099H11.2578V10.5292H11.4818V10.0646H11.8178V10.5292H12.0418V9.59998Z" fill="#C88A02"/>
<path d="M15.9805 9.79497L16.2098 9.54944L16.6914 9.99926L16.462 10.2448L15.9805 9.79497Z" fill="#C88A02"/>
<path fill-rule="evenodd" clip-rule="evenodd" d="M17.3625 16.1399V13.6879H14.5625V16.1194L14.5669 16.1383C14.7087 16.7423 15.1914 17.0479 15.9625 17.0479C16.7329 17.0479 17.2155 16.7502 17.3578 16.1593L17.3625 16.1399ZM15.9625 16.7119C15.3438 16.7119 15.0059 16.5035 14.8985 16.0798V14.0239H17.0265V16.0993C16.9194 16.5091 16.5814 16.7119 15.9625 16.7119Z" fill="#FFC034"/>
<path fill-rule="evenodd" clip-rule="evenodd" d="M16.0759 13.8928H15.8425V15.0045L14.9227 14.0041L14.7578 14.1557L15.5897 15.0604H14.836V15.3964H15.4149H15.608L14.7578 16.3211L14.9227 16.4727L15.8425 15.4723V16.7717H16.0759V15.5892L16.8882 16.4727L17.0531 16.3211L16.2029 15.3964H17.1519V15.0604H16.2212L17.0531 14.1557L16.8882 14.0041L16.0759 14.8876V13.8928Z" fill="#FFC034"/>
<path fill-rule="evenodd" clip-rule="evenodd" d="M16.4851 17.4426C16.4851 17.4426 14.1129 17.6291 14.1129 16.0991C14.1129 16.0991 14.0903 17.4426 11.6133 17.4426V18.6504H16.4851V17.4426Z" fill="#F1F9FF"/>
<path fill-rule="evenodd" clip-rule="evenodd" d="M14.1134 14.1919C14.5774 14.1919 14.9534 13.7907 14.9534 13.2959C14.9534 12.8011 14.5774 12.3999 14.1134 12.3999C13.6495 12.3999 13.2734 12.8011 13.2734 13.2959C13.2734 13.7907 13.6495 14.1919 14.1134 14.1919Z" fill="#005BBF" stroke="#AD1619" stroke-width="1.16667"/>
</g>
</g>
</g>
</g>
<defs>
<filter id="filter0_d_16005_19911" x="0" y="0" width="38" height="30" filterUnits="userSpaceOnUse" color-interpolation-filters="sRGB">
<feFlood flood-opacity="0" result="BackgroundImageFix"/>
<feColorMatrix in="SourceAlpha" type="matrix" values="0 0 0 0 0 0 0 0 0 0 0 0 0 0 0 0 0 0 127 0" result="hardAlpha"/>
<feOffset dy="3"/>
<feGaussianBlur stdDeviation="1.5"/>
<feComposite in2="hardAlpha" operator="out"/>
<feColorMatrix type="matrix" values="0 0 0 0 0 0 0 0 0 0 0 0 0 0 0 0 0 0 0.25 0"/>
<feBlend mode="normal" in2="BackgroundImageFix" result="effect1_dropShadow_16005_19911"/>
<feBlend mode="normal" in="SourceGraphic" in2="effect1_dropShadow_16005_19911" result="shape"/>
</filter>
</defs>
</svg>
