<svg width="38" height="30" viewBox="0 0 38 30" fill="none" xmlns="http://www.w3.org/2000/svg">
<g filter="url(#filter0_d_16006_7929)">
<mask id="mask0_16006_7929" style="mask-type:alpha" maskUnits="userSpaceOnUse" x="3" y="0" width="32" height="24">
<rect x="3" width="32" height="24" fill="white"/>
</mask>
<g mask="url(#mask0_16006_7929)">
<path fill-rule="evenodd" clip-rule="evenodd" d="M3 0H35V24H3V0Z" fill="#FECA00"/>
<rect x="5" y="2" width="6" height="20" fill="#1F8A6E"/>
<rect x="11" y="2" width="6" height="20" fill="#F56800"/>
<rect x="17" y="2" width="16" height="20" fill="#B01D00"/>
<rect x="15" y="2" width="2" height="20" fill="#E8AA00"/>
<path fill-rule="evenodd" clip-rule="evenodd" d="M20.0988 6.17346C20.0988 6.17346 18.8251 6.16976 18.8251 8.38757V11.6397C18.8251 11.6397 18.2188 11.7478 18.2188 12.1245C18.2188 12.5011 18.3472 12.8307 18.5862 12.8307C18.8251 12.8307 19.064 13.9356 18.8251 13.9356C18.5862 13.9356 18.3472 14.4097 18.5862 14.4097C18.6433 14.4097 18.6868 14.402 18.7199 14.3961C18.7547 14.3899 18.778 14.3857 18.7936 14.3948C18.8251 14.4132 18.8251 14.4857 18.8251 14.7049C18.8251 15.1354 18.5862 15.3095 18.5862 15.3095C18.5862 15.3095 18.3612 15.2468 18.3612 15.5001C18.3612 15.7535 18.5862 15.8177 18.5862 15.8177C18.5862 15.8177 18.715 15.8733 18.4669 15.9933C18.2188 16.1133 18.2188 16.1713 18.2188 16.1713H18.8251L19.1287 16.7269L19.4185 16.1713H20.017C20.017 16.1713 19.7156 15.9785 19.6803 15.9381C19.645 15.8977 19.6022 15.8387 19.6803 15.7712C19.7031 15.7515 19.7364 15.7364 19.7722 15.7202C19.8592 15.681 19.9607 15.6351 19.9607 15.5001C19.9607 15.3095 19.5786 15.3095 19.5786 15.3095C19.5786 15.3095 19.3455 14.8887 19.4185 14.7049C19.4389 14.6535 19.4505 14.6078 19.4605 14.5685C19.4862 14.4675 19.5009 14.4097 19.6263 14.4097C19.8003 14.4097 19.9001 14.1901 19.6803 13.9356C19.6803 13.9356 19.9323 14.2065 19.8582 14.5581C19.7842 14.9096 19.9352 15.0688 20.017 15.0688C20.0988 15.0688 20.2289 14.9479 20.2289 14.9479C20.2289 14.9479 20.9084 15.5554 21.207 15.5554C21.5056 15.5554 21.9337 15.0688 21.9337 15.0688L22.5484 15.414C22.5484 15.414 22.9983 16.0443 22.932 16.4776C22.8657 16.9109 22.6092 17.1523 22.3074 17.0853C22.0056 17.0183 21.5147 17.1558 21.4773 17.3427C21.4717 17.371 21.4633 17.4055 21.4541 17.4433C21.4024 17.6554 21.325 17.973 21.5616 17.8946C21.8404 17.8023 21.895 17.7315 21.895 17.7315C21.895 17.7315 21.8583 17.8946 22.0829 17.8946C22.3074 17.8946 22.3723 17.7315 22.3723 17.7315C22.3723 17.7315 22.6051 17.8946 22.7686 17.8946C22.932 17.8946 23.1151 17.7689 23.1151 17.7689C23.1151 17.7689 23.2356 17.9557 23.5021 17.8946C23.7686 17.8336 23.97 17.138 23.7762 16.9822C23.7762 16.9822 24.4192 16.8889 24.5842 16.33C24.5842 16.33 23.9622 16.3208 24.0263 15.9381C24.0904 15.5554 24.4189 15.3095 24.4189 15.3095C24.4189 15.3095 25.3646 14.8517 25.7715 14.7049C26.1785 14.5581 26.8548 14.4097 27.0224 14.4097C27.0906 14.4097 27.1393 14.5689 27.2053 14.7847C27.3015 15.0992 27.4345 15.5339 27.7181 15.7712C28.1965 16.1713 27.8703 17.0853 27.8703 17.0853C27.8703 17.0853 26.8059 17.1926 26.8059 17.4808C26.8059 17.7689 26.823 17.8946 27.0224 17.8946C27.2217 17.8946 27.2177 17.7315 27.2177 17.7315C27.2177 17.7315 27.336 17.8946 27.5271 17.8946C27.7181 17.8946 27.8703 17.7315 27.8703 17.7315C27.8703 17.7315 27.9211 17.8946 28.1714 17.8946C28.4217 17.8946 28.4199 17.7315 28.4199 17.7315C28.4199 17.7315 28.465 17.8946 28.6856 17.8946C28.9062 17.8946 29.359 17.7315 29.359 17.7315C29.359 17.7315 29.43 17.8946 29.6591 17.8946C29.8882 17.8946 29.8936 17.7315 29.8936 17.7315C29.8936 17.7315 30.0159 17.8946 30.2143 17.8946C30.4128 17.8946 30.5291 17.7315 30.5291 17.7315C30.5291 17.7315 30.8144 17.8946 31.0112 17.8946C31.208 17.8946 31.1373 17.6001 31.0112 17.3427C30.9793 17.2776 30.9424 17.222 30.9086 17.1712C30.8089 17.0211 30.7371 16.9131 30.906 16.7269C30.9538 16.6741 31.0086 16.6208 31.0635 16.5674L31.0635 16.5674C31.268 16.3685 31.4736 16.1685 31.3231 15.9933C31.2784 15.9413 31.226 15.905 31.1733 15.8684C31.0009 15.7486 30.8254 15.6267 30.906 14.9479C30.9543 14.5414 31.046 14.211 31.1312 13.9042L31.1312 13.9041C31.2317 13.5421 31.3231 13.213 31.3231 12.8307C31.3231 12.1245 30.906 11.3169 30.906 11.3169C30.906 11.3169 31.4676 10.925 31.4676 10.1277C31.4676 9.33042 30.2143 9.24347 30.2143 9.24347C30.2143 9.24347 28.9695 9.56389 28.4199 9.40368C28.2959 9.36753 28.1921 9.34153 28.1057 9.31989L28.1057 9.31989C27.8094 9.24566 27.7181 9.2228 27.7181 9.01739C27.7181 8.75211 27.3181 9.24347 27.3181 9.24347C27.3181 9.24347 27.0045 9.11761 27.2177 8.85718C27.4309 8.59676 27.5271 8.49466 27.5271 8.49466C27.5271 8.49466 27.3393 8.28048 27.0224 8.38757C26.7055 8.49466 26.649 8.67212 26.649 8.67212C26.649 8.67212 26.2876 8.30227 26.5128 8.03373C26.7379 7.76519 27.0224 8.03373 27.0224 8.03373C27.0224 8.03373 27.346 8.20271 27.3721 7.98091C27.3981 7.75911 27.3721 7.58223 27.3721 7.58223C27.3721 7.58223 28.1841 7.81512 27.9546 8.17735C27.7252 8.53958 27.8703 8.67212 27.8703 8.67212C27.8703 8.67212 28.4284 8.70646 28.5292 8.32148C28.5674 8.17587 28.561 8.03467 28.5332 7.9237C28.694 7.99944 28.876 8.08918 28.8252 8.23807C28.7319 8.51161 28.5292 8.85718 28.5292 8.85718C28.5292 8.85718 29.0869 8.82459 29.2531 8.38757C29.4193 7.95055 29.359 8.49466 29.359 8.49466C29.359 8.49466 29.5728 8.48705 29.8936 8.67212C30.2143 8.85718 29.8936 8.38757 29.8936 8.38757C29.8936 8.38757 30.5594 9.21318 31.1892 9.11529C31.819 9.01739 31.7841 8.49466 31.7841 8.49466C31.7841 8.49466 31.6349 8.23807 31.3231 8.23807C31.0112 8.23807 31.1892 8.49466 31.1892 8.49466C31.1892 8.49466 31.4933 8.66784 31.0112 8.49466C30.8716 8.4445 30.6632 8.28258 30.4047 8.08167C29.7706 7.58891 28.8346 6.86159 27.8703 6.97298C26.5128 7.12978 26.0391 7.73643 26.0391 7.73643V7.2313C26.0391 7.2313 25.811 7.58223 25.5983 7.58223C25.3857 7.58223 24.7951 7.2313 24.7951 7.2313L24.4189 7.58223C24.4189 7.58223 24.2764 7.2313 24.0263 7.2313C23.7762 7.2313 23.7762 7.58223 23.7762 7.58223C23.7762 7.58223 23.4616 7.42753 23.1151 7.42753C22.9731 7.42753 22.8524 7.37568 22.7593 7.33571C22.6251 7.27812 22.5484 7.24517 22.5484 7.42753C22.5484 7.46453 22.5493 7.49986 22.5501 7.53346V7.53348C22.5562 7.78036 22.5599 7.93442 22.2007 7.98091C21.7926 8.03373 21.4773 8.03373 21.4773 8.03373C21.4773 8.03373 21.233 7.73643 21.043 7.73643C20.8529 7.73643 20.6327 7.96713 20.6327 8.17735C20.6327 8.38757 20.8789 8.9871 21.043 9.11529C21.0862 9.14905 21.0782 9.14536 21.0429 9.12912C20.9443 9.08371 20.6327 8.94018 20.6327 9.24347C20.6327 9.45257 20.6849 9.50484 20.723 9.54302C20.7599 9.58002 20.7837 9.60378 20.7339 9.74418C20.7132 9.8026 20.6847 9.87018 20.655 9.9407C20.5397 10.2145 20.4057 10.5328 20.6327 10.5328C20.7553 10.5328 20.8712 10.5058 20.9538 10.4866L20.9538 10.4866C21.0635 10.4611 21.1142 10.4493 21.043 10.5328C21.0146 10.5661 20.9764 10.6062 20.9379 10.6467C20.807 10.784 20.6724 10.9254 20.9054 10.8181C21.0279 10.7617 21.1313 10.6799 21.2166 10.6125C21.3414 10.5138 21.4273 10.4459 21.4773 10.5328C21.509 10.5878 21.4836 10.6613 21.4619 10.7243C21.4258 10.8291 21.3996 10.9048 21.6623 10.8181C21.7544 10.7877 21.8083 10.764 21.8383 10.747C21.8395 10.764 21.8536 10.7878 21.895 10.8181C21.9831 10.8828 21.9662 10.9441 21.9533 10.991C21.9387 11.044 21.9292 11.0785 22.0829 11.0785C22.2299 11.0785 22.4375 10.9646 22.5605 10.897C22.6796 10.8316 22.7194 10.8097 22.5484 10.977C22.4406 11.0824 22.2847 11.1526 22.1116 11.2306C21.7264 11.4042 21.2562 11.6161 21.043 12.3387C20.7551 13.3142 20.8841 13.5152 20.9032 13.5382L20.017 12.568C20.017 12.568 20.2289 12.4024 20.2289 12.1245C20.2289 11.8466 19.6803 11.6397 19.6803 11.6397C19.6803 11.6397 19.6995 8.18199 19.8582 7.42753C20.017 6.67306 20.0988 6.17346 20.0988 6.17346ZM20.9032 13.5382L20.9054 13.5406C20.9054 13.5406 20.905 13.5403 20.9044 13.5396C20.9041 13.5392 20.9037 13.5388 20.9032 13.5382ZM21.8659 10.7143C21.8559 10.7143 21.8367 10.7252 21.8383 10.747C21.8767 10.7252 21.8759 10.7143 21.8659 10.7143ZM28.5332 7.9237L28.5214 7.91817C28.3917 7.85714 28.28 7.80464 28.3229 7.73643C28.3832 7.64055 28.4873 7.74125 28.5332 7.9237ZM29.1195 15.4056C29.1195 15.4056 28.6996 15.8175 28.9662 15.908C29.0471 15.9355 29.1455 15.9508 29.2369 15.965C29.447 15.9977 29.6206 16.0247 29.4614 16.1802C29.2329 16.4034 29.0395 16.705 29.0395 16.9796C29.0395 17.2543 29.046 17.4861 29.1195 17.3702C29.1599 17.3066 29.3257 17.24 29.5044 17.1682C29.6512 17.1092 29.8066 17.0467 29.9082 16.9796C30.1001 16.8528 30.0973 16.7156 30.0923 16.4691C30.0915 16.4265 30.0906 16.3806 30.0906 16.3309C30.0906 15.994 29.1195 15.4056 29.1195 15.4056ZM25.8613 9.88958C25.9592 9.81179 25.9655 8.85162 25.9655 8.85162C25.9655 8.85162 26.3088 8.96593 26.3088 9.11592C26.3088 9.20933 26.2829 9.26276 26.2436 9.3434C26.2199 9.39225 26.1913 9.45108 26.1606 9.53482C26.0852 9.74109 26.2905 9.87032 26.4811 9.99035C26.4957 9.99951 26.5101 10.0086 26.5244 10.0177C26.6537 10.1001 26.69 9.92128 26.718 9.78324C26.7336 9.70672 26.7466 9.64273 26.7715 9.64273C26.8412 9.64273 27.3616 9.7607 27.7532 9.95973C28.095 10.1334 28.4303 10.0481 29.1983 9.85287C29.3105 9.82434 29.4319 9.79347 29.564 9.7607C30.5998 9.50372 30.7358 9.88958 30.842 10.1934C30.9482 10.4972 30.144 10.9181 29.564 10.9944C29.3091 11.0279 29.0883 11.0173 28.8852 11.0074C28.6261 10.9949 28.3957 10.9838 28.1599 11.0676C27.7904 11.199 26.6348 11.1859 26.1837 11.1808C26.1214 11.1801 26.0726 11.1796 26.0411 11.1796C25.834 11.1796 25.7948 11.1142 25.7162 10.983C25.6962 10.9497 25.6737 10.9121 25.6452 10.8703C25.5047 10.6638 25.6753 10.5288 25.7858 10.5288C25.8963 10.5288 25.8613 10.2872 25.7858 10.1934C25.7102 10.0995 25.7634 9.96737 25.8613 9.88958Z" fill="#FECA00"/>
<path fill-rule="evenodd" clip-rule="evenodd" d="M17.1696 2.12227V2.4833C17.1696 2.52776 17.1504 2.5884 17.1289 2.65637C17.0608 2.87182 16.9693 3.16095 17.3916 3.24221C17.9471 3.34911 18.3564 3.59204 18.4808 3.82138C18.5605 3.96835 18.5381 3.72345 18.5117 3.43539V3.43539C18.4969 3.27396 18.4808 3.09897 18.4808 2.97182C18.4808 2.61778 18.0842 1.92787 17.8032 2.12227C17.5222 2.31666 17.1696 2.12227 17.1696 2.12227ZM17.1696 21.5073V21.8683C17.1696 21.8683 17.5222 21.6739 17.8032 21.8683C18.0842 22.0627 18.4808 21.3728 18.4808 21.0187C18.4808 20.8916 18.4969 20.7166 18.5117 20.5552C18.5381 20.2671 18.5605 20.0222 18.4808 20.1692C18.3564 20.3985 17.9471 20.6414 17.3916 20.7483C16.9693 20.8296 17.0608 21.1187 17.1289 21.3342C17.1504 21.4022 17.1696 21.4628 17.1696 21.5073ZM32.8341 21.5073V21.8683C32.8341 21.8683 32.4815 21.6739 32.2005 21.8683C31.9195 22.0627 31.5229 21.3728 31.5229 21.0187C31.5229 20.8916 31.5068 20.7166 31.492 20.5552L31.492 20.5552C31.4656 20.2671 31.4431 20.0222 31.5229 20.1692C31.6473 20.3985 32.0565 20.6414 32.6121 20.7483C33.0344 20.8296 32.9429 21.1187 32.8747 21.3342C32.8532 21.4022 32.8341 21.4628 32.8341 21.5073ZM32.8341 2.4833V2.12227C32.8341 2.12227 32.4815 2.31666 32.2005 2.12227C31.9195 1.92787 31.5229 2.61778 31.5229 2.97182C31.5229 3.09898 31.5068 3.27396 31.492 3.43539C31.4656 3.72345 31.4431 3.96835 31.5229 3.82138C31.6473 3.59204 32.0565 3.34911 32.6121 3.24221C33.0344 3.16095 32.9429 2.87182 32.8747 2.65637C32.8532 2.5884 32.8341 2.52776 32.8341 2.4833Z" fill="#FECA00"/>
</g>
</g>
<defs>
<filter id="filter0_d_16006_7929" x="0" y="0" width="38" height="30" filterUnits="userSpaceOnUse" color-interpolation-filters="sRGB">
<feFlood flood-opacity="0" result="BackgroundImageFix"/>
<feColorMatrix in="SourceAlpha" type="matrix" values="0 0 0 0 0 0 0 0 0 0 0 0 0 0 0 0 0 0 127 0" result="hardAlpha"/>
<feOffset dy="3"/>
<feGaussianBlur stdDeviation="1.5"/>
<feComposite in2="hardAlpha" operator="out"/>
<feColorMatrix type="matrix" values="0 0 0 0 0 0 0 0 0 0 0 0 0 0 0 0 0 0 0.25 0"/>
<feBlend mode="normal" in2="BackgroundImageFix" result="effect1_dropShadow_16006_7929"/>
<feBlend mode="normal" in="SourceGraphic" in2="effect1_dropShadow_16006_7929" result="shape"/>
</filter>
</defs>
</svg>
