<svg width="38" height="30" viewBox="0 0 38 30" fill="none" xmlns="http://www.w3.org/2000/svg">
<g filter="url(#filter0_d_16005_13018)">
<mask id="mask0_16005_13018" style="mask-type:alpha" maskUnits="userSpaceOnUse" x="3" y="0" width="32" height="24">
<rect x="3" width="32" height="24" fill="white"/>
</mask>
<g mask="url(#mask0_16005_13018)">
<path fill-rule="evenodd" clip-rule="evenodd" d="M3 0H35V24H3V0Z" fill="#F7FCFF"/>
<path fill-rule="evenodd" clip-rule="evenodd" d="M3 14.6666V16.6666H35V14.6666H3Z" fill="#E31D1C"/>
<path fill-rule="evenodd" clip-rule="evenodd" d="M3 18.3334V20.3334H35V18.3334H3Z" fill="#E31D1C"/>
<path fill-rule="evenodd" clip-rule="evenodd" d="M3 7.33337V9.33337H35V7.33337H3Z" fill="#E31D1C"/>
<path fill-rule="evenodd" clip-rule="evenodd" d="M3 22V24H35V22H3Z" fill="#E31D1C"/>
<path fill-rule="evenodd" clip-rule="evenodd" d="M3 11V13H35V11H3Z" fill="#E31D1C"/>
<path fill-rule="evenodd" clip-rule="evenodd" d="M3 0V2H35V0H3Z" fill="#E31D1C"/>
<path fill-rule="evenodd" clip-rule="evenodd" d="M3 3.66663V5.66663H35V3.66663H3Z" fill="#E31D1C"/>
<rect x="3" width="20" height="13" fill="#2E42A5"/>
<path fill-rule="evenodd" clip-rule="evenodd" d="M4.72319 2.93871L3.99731 3.44759L4.24237 2.54198L3.59766 1.96807H4.43974L4.72217 1.229L5.05334 1.96807H5.7712L5.20716 2.54198L5.42553 3.44759L4.72319 2.93871ZM8.72319 2.93871L7.99731 3.44759L8.24237 2.54198L7.59766 1.96807H8.43974L8.72217 1.229L9.05334 1.96807H9.7712L9.20716 2.54198L9.42553 3.44759L8.72319 2.93871ZM11.9973 3.44759L12.7232 2.93871L13.4255 3.44759L13.2072 2.54198L13.7712 1.96807H13.0533L12.7222 1.229L12.4397 1.96807H11.5977L12.2424 2.54198L11.9973 3.44759ZM16.7232 2.93871L15.9973 3.44759L16.2424 2.54198L15.5977 1.96807H16.4397L16.7222 1.229L17.0533 1.96807H17.7712L17.2072 2.54198L17.4255 3.44759L16.7232 2.93871ZM3.99731 7.44759L4.72319 6.93871L5.42553 7.44759L5.20716 6.54198L5.7712 5.96807H5.05334L4.72217 5.229L4.43974 5.96807H3.59766L4.24237 6.54198L3.99731 7.44759ZM8.72319 6.93871L7.99731 7.44759L8.24237 6.54198L7.59766 5.96807H8.43974L8.72217 5.229L9.05334 5.96807H9.7712L9.20716 6.54198L9.42553 7.44759L8.72319 6.93871ZM11.9973 7.44759L12.7232 6.93871L13.4255 7.44759L13.2072 6.54198L13.7712 5.96807H13.0533L12.7222 5.229L12.4397 5.96807H11.5977L12.2424 6.54198L11.9973 7.44759ZM16.7232 6.93871L15.9973 7.44759L16.2424 6.54198L15.5977 5.96807H16.4397L16.7222 5.229L17.0533 5.96807H17.7712L17.2072 6.54198L17.4255 7.44759L16.7232 6.93871ZM3.99731 11.4476L4.72319 10.9387L5.42553 11.4476L5.20716 10.542L5.7712 9.96807H5.05334L4.72217 9.229L4.43974 9.96807H3.59766L4.24237 10.542L3.99731 11.4476ZM8.72319 10.9387L7.99731 11.4476L8.24237 10.542L7.59766 9.96807H8.43974L8.72217 9.229L9.05334 9.96807H9.7712L9.20716 10.542L9.42553 11.4476L8.72319 10.9387ZM11.9973 11.4476L12.7232 10.9387L13.4255 11.4476L13.2072 10.542L13.7712 9.96807H13.0533L12.7222 9.229L12.4397 9.96807H11.5977L12.2424 10.542L11.9973 11.4476ZM16.7232 10.9387L15.9973 11.4476L16.2424 10.542L15.5977 9.96807H16.4397L16.7222 9.229L17.0533 9.96807H17.7712L17.2072 10.542L17.4255 11.4476L16.7232 10.9387ZM19.9973 3.44759L20.7232 2.93871L21.4255 3.44759L21.2072 2.54198L21.7712 1.96807H21.0533L20.7222 1.229L20.4397 1.96807H19.5977L20.2424 2.54198L19.9973 3.44759ZM20.7232 6.93871L19.9973 7.44759L20.2424 6.54198L19.5977 5.96807H20.4397L20.7222 5.229L21.0533 5.96807H21.7712L21.2072 6.54198L21.4255 7.44759L20.7232 6.93871ZM19.9973 11.4476L20.7232 10.9387L21.4255 11.4476L21.2072 10.542L21.7712 9.96807H21.0533L20.7222 9.229L20.4397 9.96807H19.5977L20.2424 10.542L19.9973 11.4476ZM6.72319 4.93871L5.99731 5.44759L6.24237 4.54198L5.59766 3.96807H6.43974L6.72217 3.229L7.05334 3.96807H7.7712L7.20716 4.54198L7.42553 5.44759L6.72319 4.93871ZM9.99731 5.44759L10.7232 4.93871L11.4255 5.44759L11.2072 4.54198L11.7712 3.96807H11.0533L10.7222 3.229L10.4397 3.96807H9.59766L10.2424 4.54198L9.99731 5.44759ZM14.7232 4.93871L13.9973 5.44759L14.2424 4.54198L13.5977 3.96807H14.4397L14.7222 3.229L15.0533 3.96807H15.7712L15.2072 4.54198L15.4255 5.44759L14.7232 4.93871ZM5.99731 9.44759L6.72319 8.93871L7.42553 9.44759L7.20716 8.54198L7.7712 7.96807H7.05334L6.72217 7.229L6.43974 7.96807H5.59766L6.24237 8.54198L5.99731 9.44759ZM10.7232 8.93871L9.99731 9.44759L10.2424 8.54198L9.59766 7.96807H10.4397L10.7222 7.229L11.0533 7.96807H11.7712L11.2072 8.54198L11.4255 9.44759L10.7232 8.93871ZM13.9973 9.44759L14.7232 8.93871L15.4255 9.44759L15.2072 8.54198L15.7712 7.96807H15.0533L14.7222 7.229L14.4397 7.96807H13.5977L14.2424 8.54198L13.9973 9.44759ZM18.7232 4.93871L17.9973 5.44759L18.2424 4.54198L17.5977 3.96807H18.4397L18.7222 3.229L19.0533 3.96807H19.7712L19.2072 4.54198L19.4255 5.44759L18.7232 4.93871ZM17.9973 9.44759L18.7232 8.93871L19.4255 9.44759L19.2072 8.54198L19.7712 7.96807H19.0533L18.7222 7.229L18.4397 7.96807H17.5977L18.2424 8.54198L17.9973 9.44759Z" fill="#F7FCFF"/>
</g>
</g>
<defs>
<filter id="filter0_d_16005_13018" x="0" y="0" width="38" height="30" filterUnits="userSpaceOnUse" color-interpolation-filters="sRGB">
<feFlood flood-opacity="0" result="BackgroundImageFix"/>
<feColorMatrix in="SourceAlpha" type="matrix" values="0 0 0 0 0 0 0 0 0 0 0 0 0 0 0 0 0 0 127 0" result="hardAlpha"/>
<feOffset dy="3"/>
<feGaussianBlur stdDeviation="1.5"/>
<feComposite in2="hardAlpha" operator="out"/>
<feColorMatrix type="matrix" values="0 0 0 0 0 0 0 0 0 0 0 0 0 0 0 0 0 0 0.25 0"/>
<feBlend mode="normal" in2="BackgroundImageFix" result="effect1_dropShadow_16005_13018"/>
<feBlend mode="normal" in="SourceGraphic" in2="effect1_dropShadow_16005_13018" result="shape"/>
</filter>
</defs>
</svg>
