<svg width="38" height="30" viewBox="0 0 38 30" fill="none" xmlns="http://www.w3.org/2000/svg">
<g filter="url(#filter0_d_16005_20326)">
<mask id="mask0_16005_20326" style="mask-type:alpha" maskUnits="userSpaceOnUse" x="3" y="0" width="32" height="24">
<rect x="3" width="32" height="24" fill="white"/>
</mask>
<g mask="url(#mask0_16005_20326)">
<path fill-rule="evenodd" clip-rule="evenodd" d="M3 0V24H35V0H3Z" fill="#2E42A5"/>
<mask id="mask1_16005_20326" style="mask-type:alpha" maskUnits="userSpaceOnUse" x="3" y="0" width="32" height="24">
<path fill-rule="evenodd" clip-rule="evenodd" d="M3 0V24H35V0H3Z" fill="white"/>
</mask>
<g mask="url(#mask1_16005_20326)">
<mask id="mask2_16005_20326" style="mask-type:alpha" maskUnits="userSpaceOnUse" x="3" y="0" width="32" height="24">
<rect x="3" width="32" height="24" fill="white"/>
</mask>
<g mask="url(#mask2_16005_20326)">
<path d="M-0.5625 22.2854L6.47919 25.2634L35.1604 3.23781L38.8748 -1.18767L31.3447 -2.18303L19.6463 7.30844L10.2303 13.7035L-0.5625 22.2854Z" fill="white"/>
<path d="M0.402344 24.3719L3.98976 26.1001L37.5418 -1.59884H32.5046L0.402344 24.3719Z" fill="#F50100"/>
<path d="M38.5625 22.2854L31.5208 25.2634L2.83957 3.23781L-0.874756 -1.18767L6.65532 -2.18303L18.3537 7.30844L27.7697 13.7035L38.5625 22.2854Z" fill="white"/>
<path d="M38.3203 23.7829L34.7329 25.5111L20.4461 13.6518L16.2104 12.3267L-1.23407 -1.17246H3.80307L21.2377 12.0063L25.8687 13.5952L38.3203 23.7829Z" fill="#F50100"/>
<mask id="path-9-inside-1_16005_20326" fill="white">
<path fill-rule="evenodd" clip-rule="evenodd" d="M22.7776 -2H15.222V8H1.02734V16H15.222V26H22.7776V16H37.0273V8H22.7776V-2Z"/>
</mask>
<path fill-rule="evenodd" clip-rule="evenodd" d="M22.7776 -2H15.222V8H1.02734V16H15.222V26H22.7776V16H37.0273V8H22.7776V-2Z" fill="#F50100"/>
<path d="M15.222 -2V-4H13.222V-2H15.222ZM22.7776 -2H24.7776V-4H22.7776V-2ZM15.222 8V10H17.222V8H15.222ZM1.02734 8V6H-0.972656V8H1.02734ZM1.02734 16H-0.972656V18H1.02734V16ZM15.222 16H17.222V14H15.222V16ZM15.222 26H13.222V28H15.222V26ZM22.7776 26V28H24.7776V26H22.7776ZM22.7776 16V14H20.7776V16H22.7776ZM37.0273 16V18H39.0273V16H37.0273ZM37.0273 8H39.0273V6H37.0273V8ZM22.7776 8H20.7776V10H22.7776V8ZM15.222 0H22.7776V-4H15.222V0ZM17.222 8V-2H13.222V8H17.222ZM1.02734 10H15.222V6H1.02734V10ZM3.02734 16V8H-0.972656V16H3.02734ZM15.222 14H1.02734V18H15.222V14ZM17.222 26V16H13.222V26H17.222ZM22.7776 24H15.222V28H22.7776V24ZM20.7776 16V26H24.7776V16H20.7776ZM37.0273 14H22.7776V18H37.0273V14ZM35.0273 8V16H39.0273V8H35.0273ZM22.7776 10H37.0273V6H22.7776V10ZM20.7776 -2V8H24.7776V-2H20.7776Z" fill="white" mask="url(#path-9-inside-1_16005_20326)"/>
</g>
</g>
</g>
</g>
<defs>
<filter id="filter0_d_16005_20326" x="0" y="0" width="38" height="30" filterUnits="userSpaceOnUse" color-interpolation-filters="sRGB">
<feFlood flood-opacity="0" result="BackgroundImageFix"/>
<feColorMatrix in="SourceAlpha" type="matrix" values="0 0 0 0 0 0 0 0 0 0 0 0 0 0 0 0 0 0 127 0" result="hardAlpha"/>
<feOffset dy="3"/>
<feGaussianBlur stdDeviation="1.5"/>
<feComposite in2="hardAlpha" operator="out"/>
<feColorMatrix type="matrix" values="0 0 0 0 0 0 0 0 0 0 0 0 0 0 0 0 0 0 0.25 0"/>
<feBlend mode="normal" in2="BackgroundImageFix" result="effect1_dropShadow_16005_20326"/>
<feBlend mode="normal" in="SourceGraphic" in2="effect1_dropShadow_16005_20326" result="shape"/>
</filter>
</defs>
</svg>
