<svg width="24" height="24" viewBox="0 0 24 24" fill="none" xmlns="http://www.w3.org/2000/svg">
<path fill-rule="evenodd" clip-rule="evenodd" d="M7.35862 0H3.64138C1.62859 0 0 1.63077 0 3.63889V7.36111C0 9.36841 1.62894 11 3.64138 11H7.35862C9.37106 11 11 9.36841 11 7.36111V3.63889C11 1.63077 9.37141 0 7.35862 0ZM3.50002 2L7.35862 2C8.42508 2 9.00001 2.56365 9.00001 3.63889V7.3611C9.00001 8.43563 8.42462 9 7.35862 9H3.50002C2.43402 9 2.00002 8.43563 2.00002 7.3611L1.99999 3.63889C1.99999 2.56365 2.43356 2 3.50002 2ZM20.3586 0H16.6414C14.6286 0 13 1.63077 13 3.63889V7.36111C13 9.36841 14.6289 11 16.6414 11H20.3586C22.3711 11 24 9.36841 24 7.36111V3.63889C24 1.63077 22.3714 0 20.3586 0ZM16.5 2L20.3586 2C21.4251 2 22 2.56365 22 3.63889V7.3611C22 8.43563 21.4246 9 20.3586 9H16.5C15.434 9 15 8.43563 15 7.3611L15 3.63889C15 2.56365 15.4336 2 16.5 2ZM3.64138 13H7.35862C9.37141 13 11 14.6308 11 16.6389V20.3611C11 22.3684 9.37106 24 7.35862 24H3.64138C1.62894 24 0 22.3684 0 20.3611V16.6389C0 14.6308 1.62859 13 3.64138 13ZM7.35862 15L3.50002 15C2.43356 15 1.99999 15.5636 1.99999 16.6389L2.00002 20.3611C2.00002 21.4356 2.43402 22 3.50002 22H7.35862C8.42462 22 9.00001 21.4356 9.00001 20.3611V16.6389C9.00001 15.5636 8.42508 15 7.35862 15ZM20.3586 13H16.6414C14.6286 13 13 14.6308 13 16.6389V20.3611C13 22.3684 14.6289 24 16.6414 24H20.3586C22.3711 24 24 22.3684 24 20.3611V16.6389C24 14.6308 22.3714 13 20.3586 13ZM16.5 15L20.3586 15C21.4251 15 22 15.5636 22 16.6389V20.3611C22 21.4356 21.4246 22 20.3586 22H16.5C15.434 22 15 21.4356 15 20.3611L15 16.6389C15 15.5636 15.4336 15 16.5 15Z" fill="#878CAC"/>
</svg>
