<svg width="22" height="22" viewBox="0 0 22 22" fill="none" xmlns="http://www.w3.org/2000/svg">
<path d="M10.1058 8.01986C10.9 7.2256 12.264 7.79486 12.264 8.91411C12.264 9.36775 12.6317 9.73545 13.0854 9.73545C13.539 9.73545 13.9067 9.36775 13.9067 8.91411C13.9067 7.59643 13.025 6.48135 11.8213 6.12614V5.5772C11.8213 5.12356 11.4536 4.75586 11 4.75586C10.5464 4.75586 10.1787 5.12356 10.1787 5.5772V6.12458C8.78026 6.53447 7.87767 7.93548 8.19642 9.40889C8.39277 10.3156 9.02088 11.0688 9.87607 11.4229L11.4948 12.0932C12.2437 12.4031 12.4677 13.364 11.926 13.9453C11.149 14.7781 9.73545 14.2328 9.73545 13.0849C9.73545 12.6312 9.36775 12.2635 8.91411 12.2635C8.46047 12.2635 8.09277 12.6312 8.09277 13.0849C8.09277 14.3676 8.94119 15.5114 10.1781 15.8723V16.4218C10.1781 16.8754 10.5459 17.2431 10.9995 17.2431C11.4531 17.2431 11.8208 16.8754 11.8208 16.4218V15.8707C12.2792 15.7374 12.6984 15.4926 13.0442 15.151C14.4718 13.739 13.9604 11.337 12.1234 10.5761L10.5042 9.90576C9.74743 9.59222 9.51983 8.60683 10.1058 8.01986Z" fill="#878CAC" stroke="#878CAC" stroke-width="0.4"/>
<path d="M18.0694 3.93061C14.1622 0.0233902 7.83834 0.0228692 3.93061 3.93061C0.0233916 7.83783 0.0228707 14.1617 3.93061 18.0694C7.83782 21.9766 14.1617 21.9772 18.0694 18.0694C21.9766 14.1622 21.9771 7.83783 18.0694 3.93061ZM11.0003 19.3548C6.39306 19.3548 2.64522 15.607 2.64522 10.9998C2.64522 6.39255 6.39306 2.6447 11.0003 2.6447C15.6075 2.6447 19.3553 6.39255 19.3553 10.9998C19.3553 15.607 15.6075 19.3548 11.0003 19.3548Z" fill="#878CAC" stroke="#878CAC" stroke-width="0.4"/>
</svg>
