<svg width="26" height="26" viewBox="0 0 26 26" fill="none" xmlns="http://www.w3.org/2000/svg">
<path d="M24.0295 6.09728C23.8552 5.81978 23.584 5.62618 23.2613 5.54874C22.9449 5.47775 22.6157 5.52938 22.3316 5.71007C22.054 5.88432 21.8604 6.15536 21.7829 6.47804C21.7119 6.79426 21.7635 7.12338 21.9443 7.40734C24.5653 11.5892 23.952 16.952 20.4595 20.4563C16.9605 23.9541 11.5958 24.5671 7.40604 21.9406C7.12844 21.7663 6.7992 21.7082 6.47641 21.7792C6.16008 21.8502 5.88895 22.0438 5.70819 22.3278C5.52743 22.6117 5.47578 22.9344 5.54679 23.2571C5.61781 23.5733 5.81148 23.8443 6.09553 24.025C8.16135 25.3157 10.5693 25.9998 13.0096 25.9998C13.4809 25.9998 13.9521 25.974 14.4234 25.9224C17.3543 25.5997 20.1109 24.2767 22.1961 22.1987C24.2748 20.1142 25.5982 17.3586 25.921 14.4287C26.2438 11.5117 25.5724 8.55606 24.0295 6.09728Z" fill="#878CAC"/>
<path d="M5.54666 5.54248C9.0521 2.04469 14.4168 1.43807 18.6001 4.05818C18.8777 4.23242 19.2134 4.2905 19.5362 4.21952C19.8525 4.14853 20.1236 3.94847 20.2979 3.67742C20.6595 3.10306 20.4852 2.34801 19.9106 1.98661C17.4445 0.431326 14.4878 -0.239836 11.5827 0.0763843C8.65185 0.399058 5.89526 1.72202 3.81007 3.80649C1.72488 5.88451 0.401457 8.6466 0.0786716 11.57C-0.244114 14.4741 0.433735 17.4298 1.97665 19.8886C2.17678 20.2112 2.50602 20.4177 2.88045 20.4565C2.92564 20.4629 2.97083 20.4629 3.01602 20.4629C3.3388 20.4629 3.64868 20.3338 3.88108 20.1015C4.28134 19.7014 4.35881 19.0625 4.05539 18.585C1.44083 14.4096 2.04766 9.04026 5.54666 5.54248Z" fill="#878CAC"/>
<path d="M12.816 4.49023C12.1381 4.49023 11.5894 5.03878 11.5894 5.7164V6.91674H9.89797C9.22012 6.91674 8.67139 7.46529 8.67139 8.1429V17.8489C8.67139 18.5265 9.22012 19.0751 9.89797 19.0751H11.5894V20.2754C11.5829 20.6046 11.712 20.9079 11.938 21.1402C12.1704 21.3725 12.4803 21.5016 12.8095 21.5016C13.4873 21.5016 14.0361 20.9531 14.0361 20.2754V19.0751H14.6365C16.6506 19.0751 18.2904 17.4359 18.2904 15.4224C18.2904 14.2479 17.7287 13.1573 16.7798 12.4603C17.1284 11.8859 17.3156 11.2341 17.3156 10.5694C17.3156 8.68499 15.8953 7.12971 14.0425 6.9361V5.7164C14.0425 5.03878 13.4938 4.49023 12.816 4.49023ZM15.8437 15.4224C15.8437 16.0871 15.3079 16.6228 14.6429 16.6228H11.1246V14.2221H14.6429C15.3079 14.2221 15.8437 14.7577 15.8437 15.4224ZM11.1246 11.7698V9.36906H13.6616C14.3266 9.36906 14.8624 9.9047 14.8624 10.5694C14.8624 11.2341 14.3266 11.7698 13.6616 11.7698H11.1246Z" fill="#878CAC"/>
</svg>
