<svg width="24" height="24" viewBox="0 0 24 24" fill="none" xmlns="http://www.w3.org/2000/svg">
<path d="M17.872 6.16771L21.1342 9.42178C22.2885 10.5732 22.2885 12.4756 21.1342 13.6771C20.9335 13.8773 20.7829 14.0275 20.6323 14.1777C20.0301 14.7284 19.0765 14.7284 18.5746 14.1277C18.1731 13.7272 18.0225 13.0763 18.2233 12.5257C18.3237 12.2753 18.3237 12.3254 18.4742 11.975C18.675 11.5745 18.5746 10.9737 18.1731 10.6733L15.7139 8.22027L13.2547 5.81727C12.9034 5.46683 12.3513 5.41677 11.9498 5.5169C11.5483 5.71715 11.5985 5.71715 11.3977 5.76721C10.8958 5.96746 10.2434 5.86733 9.79169 5.41677C9.23962 4.86608 9.18943 3.91489 9.7415 3.36421C9.94225 3.16395 10.0928 3.01377 10.2434 2.86358C11.3977 1.71214 13.3049 1.71214 14.5094 2.86358L17.872 6.16771Z" fill="white"/>
<path d="M8.28607 15.8298L5.82685 13.3767C5.47553 13.0263 5.42534 12.5257 5.52572 12.1252C5.57591 11.975 5.72647 11.6746 5.77666 11.5745C6.0276 11.0238 5.87704 10.423 5.42534 9.92242C4.87327 9.37173 3.9197 9.32167 3.36763 9.87236C3.16688 10.0726 3.01631 10.2228 2.86575 10.373C1.71142 11.5244 1.71142 13.4268 2.86575 14.6283L6.12798 17.8824L9.39021 21.1364C10.5445 22.2879 12.4517 22.2879 13.6562 21.1364C13.857 20.9362 14.0075 20.786 14.1581 20.6358C14.7102 20.0351 14.7102 19.0839 14.1079 18.5832C13.7064 18.1827 13.0038 18.0326 12.4517 18.2328C12.3011 18.2829 12.0502 18.4331 11.8996 18.4831C11.4981 18.6333 10.946 18.5332 10.6449 18.1827L8.28607 15.8298Z" fill="white"/>
<path d="M17.32 19.985C18.0226 20.6858 19.1769 20.6858 19.8795 19.985C20.5822 19.2841 20.5822 18.1327 19.8795 17.4318C17.872 15.4293 17.9724 15.5294 15.9649 13.5269C15.2622 12.826 14.1079 12.826 13.4053 13.5269C12.7026 14.2278 12.7026 15.3792 13.4053 16.0801C15.463 18.0325 15.3626 17.9324 17.32 19.985Z" fill="white"/>
<path d="M7.98499 10.5732C8.68762 11.2741 9.84195 11.2741 10.5446 10.5732C11.2472 9.87236 11.2472 8.72092 10.5446 8.02005C8.53706 6.01754 8.63744 6.11767 6.62991 4.11517C5.92727 3.41429 4.77295 3.41429 4.07031 4.11517C3.36768 4.81604 3.36768 5.96748 4.07031 6.66836C6.07784 8.67086 5.92727 8.6208 7.98499 10.5732Z" fill="white"/>
</svg>
