<svg width="30" height="30" viewBox="0 0 30 30" fill="none" xmlns="http://www.w3.org/2000/svg">
<path d="M15 17C17.206 17 19 15.206 19 13C19 10.794 17.206 9 15 9C12.794 9 11 10.794 11 13C11 15.206 12.794 17 15 17ZM15 11C16.103 11 17 11.897 17 13C17 14.103 16.103 15 15 15C13.897 15 13 14.103 13 13C13 11.897 13.897 11 15 11Z" fill="#878CAC"/>
<path d="M14.4201 24.814C14.5893 24.9349 14.7921 24.9998 15.0001 24.9998C15.2081 24.9998 15.4108 24.9349 15.5801 24.814C15.8841 24.599 23.0291 19.44 23.0001 13C23.0001 8.589 19.4111 5 15.0001 5C10.5891 5 7.00009 8.589 7.00009 12.995C6.97109 19.44 14.1161 24.599 14.4201 24.814ZM15.0001 7C18.3091 7 21.0001 9.691 21.0001 13.005C21.0211 17.443 16.6121 21.428 15.0001 22.735C13.3891 21.427 8.97909 17.441 9.00009 13C9.00009 9.691 11.6911 7 15.0001 7Z" fill="#878CAC"/>
</svg>
