<svg width="30" height="30" viewBox="0 0 30 30" fill="none" xmlns="http://www.w3.org/2000/svg">
<path fill-rule="evenodd" clip-rule="evenodd" d="M23.25 13.0719L12 14.9302V22.3477C12 24.5524 9.94454 26.25 7.5 26.25C5.05546 26.25 3 24.5524 3 22.3477C3 20.143 5.05546 18.4454 7.5 18.4454C8.31357 18.4454 9.08405 18.6335 9.75 18.9656V6.35153L25.5 3.75V21.2328C25.5 23.4375 23.4445 25.1351 21 25.1351C18.5555 25.1351 16.5 23.4375 16.5 21.2328C16.5 19.0281 18.5555 17.3305 21 17.3305C21.8136 17.3305 22.584 17.5185 23.25 17.8507V13.0719ZM7.5 24.0201C8.78339 24.0201 9.75 23.2218 9.75 22.3477C9.75 21.4736 8.78339 20.6753 7.5 20.6753C6.21661 20.6753 5.25 21.4736 5.25 22.3477C5.25 23.2218 6.21661 24.0201 7.5 24.0201ZM21 22.9052C22.2834 22.9052 23.25 22.1069 23.25 21.2328C23.25 20.3587 22.2834 19.5604 21 19.5604C19.7166 19.5604 18.75 20.3587 18.75 21.2328C18.75 22.1069 19.7166 22.9052 21 22.9052ZM12 8.24052V12.6695L23.25 10.8113V6.38228L12 8.24052Z" fill="#878CAC"/>
</svg>
