<svg width="26" height="26" viewBox="0 0 26 26" fill="none" xmlns="http://www.w3.org/2000/svg">
<path d="M21 15.8V14H18.5C18.0394 14 17.6667 14.403 17.6667 14.9V17.6H16V19.4H17.6667V23H19.3333V19.4H21V17.6H19.3333V15.8H21Z" fill="#878CAC"/>
<path d="M23.5 11H13.5C12.1215 11 11 12.1215 11 13.5V23.5C11 24.8785 12.1215 26 13.5 26H23.5C24.8786 26 26 24.8785 26 23.5V13.5C26 12.1215 24.8786 11 23.5 11ZM24.3333 23.5C24.3333 23.9594 23.9598 24.3333 23.5 24.3333H13.5C13.0402 24.3333 12.6667 23.9594 12.6667 23.5V13.5C12.6667 13.0406 13.0402 12.6667 13.5 12.6667H23.5C23.9598 12.6667 24.3333 13.0406 24.3333 13.5V23.5Z" fill="#878CAC"/>
<path d="M11.9979 6.7285C11.9812 6.44138 11.8645 6.17675 11.6767 6.00288L10.8249 5.21375C10.6212 3.95312 9.71585 3 8.63316 3C7.41147 3 6.415 4.21388 6.39904 5.71338C5.7454 5.57375 5.1206 5.26713 4.56125 4.80663L4.276 4.57125C4.02594 4.36475 3.70152 4.34225 3.43387 4.517C3.16703 4.69038 3.00001 5.03025 3.00001 5.39987V6.22025C3.00001 7.42537 3.29723 8.57475 3.84859 9.54012L3.23658 10.297C3.0041 10.5836 2.93609 11.0129 3.06322 11.3854C3.19014 11.7574 3.48817 12 3.81822 12H7.78304C9.36432 12 10.6715 10.5269 10.8473 8.63625L11.7638 7.503C11.9292 7.29838 12.0147 7.01613 11.9979 6.7285ZM9.46732 7.49712C9.31554 7.68412 9.23075 7.93712 9.23075 8.20025C9.23075 9.1925 8.5811 10 7.78294 10H5.70152C5.831 9.63575 5.77506 9.19625 5.53297 8.897C5.15108 8.42438 4.87779 7.82963 4.73952 7.1885C5.52019 7.59088 6.35916 7.79988 7.21735 7.79988C7.66962 7.79988 8.03556 7.35213 8.03556 6.79988V5.75C8.03556 5.33637 8.30403 5 8.63326 5C8.96248 5 9.23096 5.33637 9.23096 5.75C9.23096 6.063 9.35082 6.35788 9.55456 6.54688L9.94454 6.90775L9.46732 7.49712Z" fill="#878CAC"/>
<path d="M12.5 0H2.5C1.12146 0 0 1.12146 0 2.5V12.5C0 13.8785 1.12146 15 2.5 15H12.5C13.8785 15 15 13.8785 15 12.5V2.5C15 1.12146 13.8785 0 12.5 0ZM13.3333 12.5C13.3333 12.9594 12.9598 13.3333 12.5 13.3333H2.5C2.04021 13.3333 1.66667 12.9594 1.66667 12.5V2.5C1.66667 2.04062 2.04021 1.66667 2.5 1.66667H12.5C12.9598 1.66667 13.3333 2.04062 13.3333 2.5V12.5Z" fill="#878CAC"/>
<path d="M21.1667 4H17.8333C17.3738 4 17 4.37382 17 4.83333V8.16667C17 8.62618 17.3738 9 17.8333 9H21.1667C21.6262 9 22 8.62618 22 8.16667V4.83333C22 4.37382 21.6262 4 21.1667 4ZM21.4444 8.16667C21.4444 8.31979 21.3199 8.44444 21.1667 8.44444H17.8333C17.6801 8.44444 17.5556 8.31979 17.5556 8.16667V4.83333C17.5556 4.68021 17.6801 4.55556 17.8333 4.55556H21.1667C21.3199 4.55556 21.4444 4.68021 21.4444 4.83333V8.16667Z" fill="#878CAC" stroke="#878CAC"/>
<path d="M8.16667 17H4.83333C4.37382 17 4 17.3738 4 17.8333V21.1667C4 21.6262 4.37382 22 4.83333 22H8.16667C8.62618 22 9 21.6262 9 21.1667V17.8333C9 17.3738 8.62618 17 8.16667 17ZM8.44444 21.1667C8.44444 21.3198 8.31993 21.4444 8.16667 21.4444H4.83333C4.68007 21.4444 4.55556 21.3198 4.55556 21.1667V17.8333C4.55556 17.6802 4.68007 17.5556 4.83333 17.5556H8.16667C8.31993 17.5556 8.44444 17.6802 8.44444 17.8333V21.1667Z" fill="#878CAC" stroke="#878CAC"/>
</svg>
