<svg width="7" height="4" viewBox="0 0 7 4" fill="none" xmlns="http://www.w3.org/2000/svg">
<path d="M6.9999 0.837629C6.9995 0.937121 6.97768 1.03551 6.93574 1.12689C6.89381 1.21827 6.83263 1.30076 6.75588 1.36941L4.04471 3.78887C3.89756 3.9242 3.69973 4 3.49369 4C3.28765 4 3.08982 3.9242 2.94267 3.78887L0.2315 1.26601C0.158105 1.19715 0.0998858 1.11539 0.0601651 1.02541C0.0204443 0.935438 3.92412e-08 0.839002 3.88559e-08 0.741612C3.84706e-08 0.644222 0.0204443 0.547786 0.0601651 0.457809C0.0998858 0.367833 0.158105 0.286078 0.2315 0.217213C0.304894 0.148348 0.392026 0.0937216 0.48792 0.056452C0.583815 0.0191825 0.771205 9.19652e-09 0.875 1.04343e-08C2.63202 3.13865e-08 4.29992 5.12761e-08 6.125 7.30399e-08C6.33296 7.55198e-08 6.62414 0.168281 6.77162 0.305844C6.84553 0.375734 6.90379 0.458782 6.943 0.550106C6.9822 0.64143 7.00155 0.739188 6.9999 0.837629Z" fill="#1A2C36"/>
</svg>
