<svg width="220" height="108" viewBox="0 0 220 108" fill="none" xmlns="http://www.w3.org/2000/svg">
<g clip-path="url(#clip0)">
<path d="M129.944 15.9138C134.173 15.9138 137.617 12.4757 137.617 8.25475C137.617 4.03377 134.173 0.595703 129.944 0.595703C125.714 0.595703 122.27 4.03377 122.27 8.25475C122.27 12.4757 125.714 15.9138 129.944 15.9138ZM129.944 3.52316C132.553 3.52316 134.684 5.65068 134.684 8.25475C134.684 10.8588 132.553 12.9863 129.944 12.9863C127.334 12.9863 125.203 10.8588 125.203 8.25475C125.203 5.65068 127.317 3.52316 129.944 3.52316Z" fill="#DFE3EE" stroke="#DFE3EE" stroke-width="0.7087" stroke-miterlimit="10"/>
<path d="M67.7854 84.7605C65.9607 82.5819 62.9594 81.799 60.2992 82.8202C59.0884 83.2798 58.0823 84.0627 57.3319 85.1009C56.0871 84.8456 54.7911 84.9477 53.5973 85.4073C50.9371 86.4285 49.2318 89.0326 49.3682 91.8749C49.5217 95.5002 52.523 98.4958 57.349 99.8744C60.0093 100.64 62.3114 100.708 62.6184 100.725C63.1129 100.725 63.6074 100.521 63.9655 100.181C64.1531 100.011 65.8072 98.3936 67.2567 96.0449C69.917 91.7728 70.1046 87.5518 67.7854 84.7605ZM64.767 87.2284C65.9778 88.6751 65.6708 91.1941 63.9485 93.9684C63.2152 95.1598 62.3796 96.147 61.8339 96.7597C58.5086 96.4533 54.45 95.1938 53.4439 92.5727C53.171 91.8919 53.1881 91.1431 53.495 90.4793C53.7849 89.8155 54.3306 89.3049 54.9957 89.0326C55.3197 88.9134 55.6437 88.8453 55.9677 88.8453C56.4281 88.8453 56.8886 88.9645 57.2978 89.1857C57.8094 89.4751 58.4063 89.5091 58.952 89.3049C59.4977 89.1006 59.9069 88.6581 60.0945 88.1135C60.3503 87.3476 60.9301 86.7349 61.6975 86.4455C62.8059 86.037 64.0337 86.3434 64.767 87.2284Z" fill="#DFE3EE"/>
<path d="M69.5421 23.0284C60.2141 24.373 53.7511 33.0022 55.0982 42.3122C55.4223 44.5078 56.1385 46.5843 57.2469 48.4565C58.2019 50.0734 60.2823 50.6351 61.9194 49.6819C63.5395 48.7288 64.1022 46.6524 63.1472 45.0184C62.4992 43.8951 62.0558 42.6526 61.8683 41.3421C61.0668 35.7595 64.9378 30.5854 70.5312 29.7684C76.1245 28.9685 81.3086 32.832 82.1272 38.4146C82.9457 43.9972 79.0576 49.1713 73.4643 49.9883C72.1512 50.1755 70.8381 50.1074 69.5762 49.8011C67.7515 49.3586 65.8928 50.4649 65.4494 52.303C65.006 54.1242 66.1144 55.9794 67.9562 56.4219C70.0707 56.9325 72.2535 57.0517 74.4533 56.7283C83.7813 55.3837 90.2444 46.7545 88.8972 37.4445C87.5159 28.1515 78.87 21.6839 69.5421 23.0284Z" fill="#DFE3EE"/>
<path d="M80.6092 4.23798L53.5973 8.11857C42.4106 9.73548 34.6345 20.0837 36.2545 31.2489L40.1426 58.2087C41.7626 69.3739 52.1308 77.1351 63.3175 75.5182L90.3294 71.6376C101.516 70.0207 109.292 59.6725 107.672 48.5073L103.784 21.5474C102.181 10.3822 91.813 2.62107 80.6092 4.23798ZM89.3744 64.8977L62.3626 68.7782C54.9104 69.8505 47.9869 64.6764 46.9126 57.2386L43.0245 30.2787C41.9502 22.841 47.1343 15.9308 54.5864 14.8585L81.5983 10.9779C89.0504 9.90568 95.9739 15.0798 97.0482 22.5176L100.936 49.4774C102.011 56.9152 96.8266 63.8254 89.3744 64.8977Z" fill="#DFE3EE"/>
<path d="M85.9297 17.2244C84.0709 17.4967 82.7749 19.2157 83.0478 21.0879C83.3206 22.9431 85.043 24.2367 86.9188 23.9643C88.7776 23.692 90.0736 21.973 89.8007 20.1008C89.5279 18.2456 87.8055 16.9691 85.9297 17.2244Z" fill="#DFE3EE"/>
<path d="M17.7179 16.6965H20.1736V19.1474C20.1736 20.2878 21.1115 21.2068 22.237 21.2068C23.3625 21.2068 24.3004 20.2707 24.3004 19.1474V16.6965H26.756C27.8985 16.6965 28.8194 15.7604 28.8194 14.6371C28.8194 13.4967 27.8815 12.5776 26.756 12.5776H24.3004V10.1097C24.3004 8.96938 23.3625 8.05029 22.237 8.05029C21.1115 8.05029 20.1736 8.9864 20.1736 10.1097V12.5606H17.7179C16.5754 12.5606 15.6545 13.4967 15.6545 14.6201C15.6375 15.7604 16.5754 16.6965 17.7179 16.6965Z" fill="#DFE3EE"/>
<path d="M14.7508 32.8149H10.8286V28.9003C10.8286 27.6237 9.78839 26.6025 8.52647 26.6025C7.26455 26.6025 6.22432 27.6408 6.22432 28.9003V32.8149H2.30215C1.04023 32.8149 0 33.8361 0 35.1126C0 36.3891 1.04023 37.4103 2.30215 37.4103H6.22432V41.3249C6.22432 42.6014 7.26455 43.6226 8.52647 43.6226C9.78839 43.6226 10.8286 42.5844 10.8286 41.3249V37.4103H14.7508C16.0298 37.4103 17.0529 36.3721 17.0529 35.1126C17.0529 33.8531 16.0298 32.8149 14.7508 32.8149Z" fill="#DFE3EE"/>
<path d="M202.333 88.9809H198.411V85.0663C198.411 83.7898 197.371 82.7686 196.109 82.7686C194.847 82.7686 193.807 83.8068 193.807 85.0663V88.9809H189.884C188.605 88.9809 187.582 90.0191 187.582 91.2786C187.582 92.5381 188.623 93.5763 189.884 93.5763H193.807V97.4909C193.807 98.7675 194.847 99.7887 196.109 99.7887C197.371 99.7887 198.411 98.7504 198.411 97.4909V93.5763H202.333C203.612 93.5763 204.635 92.5381 204.635 91.2786C204.635 90.0191 203.612 88.9809 202.333 88.9809Z" fill="#DFE3EE"/>
<path d="M158.456 23.6071C158.456 22.5859 157.62 21.7349 156.58 21.7349H155.028C154.005 21.7349 153.153 22.5688 153.153 23.6071V24.1007C153.153 25.1219 153.988 25.9729 155.028 25.9729H156.58C157.603 25.9729 158.456 25.1389 158.456 24.1007V23.6071Z" fill="#DFE3EE"/>
<path d="M165.584 21.7515H164.032C163.009 21.7515 162.156 22.5855 162.156 23.6237V24.1173C162.156 25.1385 162.992 25.9895 164.032 25.9895H165.584C166.607 25.9895 167.46 25.1555 167.46 24.1173V23.6237C167.46 22.5855 166.607 21.7515 165.584 21.7515Z" fill="#DFE3EE"/>
<path d="M160.076 21.7517H160.571C161.594 21.7517 162.446 20.9178 162.446 19.8795V18.3307C162.446 17.3095 161.611 16.4585 160.571 16.4585H160.076C159.053 16.4585 158.2 17.2925 158.2 18.3307V19.8795C158.2 20.9007 159.036 21.7517 160.076 21.7517Z" fill="#DFE3EE"/>
<path d="M160.554 25.9727H160.059C159.036 25.9727 158.183 26.8066 158.183 27.8449V29.3937C158.183 30.4149 159.019 31.2659 160.059 31.2659H160.554C161.577 31.2659 162.43 30.4319 162.43 29.3937V27.8449C162.43 26.8066 161.594 25.9727 160.554 25.9727Z" fill="#DFE3EE"/>
<path d="M140.601 75.5182L140.925 75.5693C141.658 75.6714 142.323 75.1608 142.426 74.4289L142.971 70.4632C143.074 69.7314 142.562 69.0676 141.829 68.9655L141.505 68.9144C135.11 68.0293 129.21 72.4716 128.323 78.8541C127.436 85.2367 131.887 91.1256 138.282 92.0107C144.677 92.8957 150.577 88.4535 151.464 82.0709L153.323 68.7612C155.113 70.1569 157.279 71.11 159.683 71.4504L161.661 71.7227C162.395 71.8248 163.06 71.3142 163.162 70.5824L163.708 66.6167C163.81 65.8848 163.299 65.221 162.565 65.1189L160.587 64.8466C156.938 64.336 154.397 60.983 154.891 57.3237L155.164 55.3494C155.267 54.6175 154.755 53.9537 154.022 53.8516L150.048 53.3069C149.315 53.2048 148.65 53.7154 148.548 54.4473L144.83 81.1689C144.455 83.9091 141.914 85.8154 139.186 85.4239C136.44 85.0495 134.53 82.5135 134.922 79.7902C135.332 77.05 137.873 75.1437 140.601 75.5182Z" fill="#DFE3EE"/>
<path d="M163.844 41.7675L137.412 38.0912C126.464 36.5764 116.352 44.2014 114.817 55.1283L112.975 68.3189C112.72 70.14 113.999 71.825 115.823 72.0803C117.648 72.3356 119.336 71.0591 119.592 69.238L121.434 56.0474C122.457 48.7628 129.193 43.6738 136.491 44.695L162.924 48.3713C170.222 49.3925 175.321 56.1155 174.298 63.4001L170.614 89.7812C169.591 97.0659 162.855 102.155 155.557 101.134L142.341 99.2955C140.516 99.0402 138.828 100.317 138.572 102.138C138.316 103.959 139.595 105.644 141.42 105.899L154.636 107.737C165.584 109.252 175.696 101.627 177.231 90.7003L180.914 64.3192C182.432 53.3752 174.792 43.2823 163.844 41.7675Z" fill="#DFE3EE"/>
<path d="M115.363 75.3821C113.538 75.1268 111.85 76.4033 111.594 78.2245L111.134 81.5264C109.616 92.4533 117.256 102.546 128.204 104.078L131.512 104.538C133.337 104.793 135.025 103.516 135.281 101.695C135.537 99.8741 134.258 98.1891 132.433 97.9338L129.125 97.4742C121.826 96.453 116.727 89.7301 117.75 82.4455L118.211 79.1436C118.449 77.3224 117.188 75.6374 115.363 75.3821Z" fill="#DFE3EE"/>
<path d="M90.2441 100.197C90.2441 99.1762 89.4085 98.3252 88.3683 98.3252H86.8165C85.7933 98.3252 84.9407 99.1592 84.9407 100.197V100.691C84.9407 101.712 85.7763 102.563 86.8165 102.563H88.3683C89.3915 102.563 90.2441 101.729 90.2441 100.691V100.197Z" fill="#DFE3EE"/>
<path d="M97.3722 98.3418H95.8204C94.7972 98.3418 93.9446 99.1758 93.9446 100.214V100.708C93.9446 101.729 94.7802 102.58 95.8204 102.58H97.3722C98.3954 102.58 99.2481 101.746 99.2481 100.708V100.214C99.2481 99.1758 98.3954 98.3418 97.3722 98.3418Z" fill="#DFE3EE"/>
<path d="M91.8641 98.3421H92.3586C93.3818 98.3421 94.2345 97.5081 94.2345 96.4699V94.921C94.2345 93.8998 93.3989 93.0488 92.3586 93.0488H91.8641C90.8409 93.0488 89.9883 93.8828 89.9883 94.921V96.4699C89.9883 97.4911 90.8239 98.3421 91.8641 98.3421Z" fill="#DFE3EE"/>
<path d="M92.3418 102.563H91.8473C90.8241 102.563 89.9714 103.397 89.9714 104.435V105.984C89.9714 107.005 90.807 107.856 91.8473 107.856H92.3418C93.365 107.856 94.2176 107.022 94.2176 105.984V104.435C94.2176 103.397 93.382 102.563 92.3418 102.563Z" fill="#DFE3EE"/>
<path d="M211.337 71.2118V73.6627H208.881C207.739 73.6627 206.818 74.5988 206.818 75.7221C206.818 76.8625 207.756 77.7815 208.881 77.7815H211.337V80.2324C211.337 81.3728 212.275 82.2919 213.4 82.2919C214.543 82.2919 215.464 81.3558 215.464 80.2324V77.7815H217.919C219.062 77.7815 219.983 76.8454 219.983 75.7221C219.983 74.5818 219.045 73.6627 217.919 73.6627H215.464V71.2118C215.464 70.0714 214.526 69.1523 213.4 69.1523C212.275 69.1523 211.337 70.0714 211.337 71.2118Z" fill="#DFE3EE"/>
</g>
<defs>
<clipPath id="clip0">
<rect width="220" height="107.925" fill="white"/>
</clipPath>
</defs>
</svg>
