<svg width="220" height="108" viewBox="0 0 220 108" fill="none" xmlns="http://www.w3.org/2000/svg">
<g clip-path="url(#clip0)">
<path d="M129.943 15.9139C134.172 15.9139 137.617 12.4758 137.617 8.25483C137.617 4.03384 134.172 0.595779 129.943 0.595779C125.714 0.595779 122.27 4.03384 122.27 8.25483C122.27 12.4758 125.714 15.9139 129.943 15.9139ZM129.943 3.52324C132.552 3.52324 134.684 5.65075 134.684 8.25483C134.684 10.8589 132.552 12.9864 129.943 12.9864C127.334 12.9864 125.203 10.8589 125.203 8.25483C125.203 5.65075 127.317 3.52324 129.943 3.52324Z" fill="#DFE3EE" stroke="#DFE3EE" stroke-width="0.7087" stroke-miterlimit="10"/>
<path d="M66.6738 101.318C70.9029 101.318 74.3476 97.8801 74.3476 93.6591C74.3476 89.4382 70.9029 86.0001 66.6738 86.0001C62.4447 86.0001 59 89.4382 59 93.6591C59 97.8801 62.4447 101.318 66.6738 101.318ZM66.6738 88.9276C69.2829 88.9276 71.4145 91.0551 71.4145 93.6591C71.4145 96.2632 69.2829 98.3907 66.6738 98.3907C64.0647 98.3907 61.9331 96.2632 61.9331 93.6591C61.9331 91.0551 64.0477 88.9276 66.6738 88.9276Z" fill="#DFE3EE" stroke="#DFE3EE" stroke-width="0.7087" stroke-miterlimit="10"/>
<path d="M17.7179 16.6967H20.1736V19.1476C20.1736 20.288 21.1115 21.2071 22.237 21.2071C23.3625 21.2071 24.3004 20.2709 24.3004 19.1476V16.6967H26.756C27.8985 16.6967 28.8194 15.7606 28.8194 14.6373C28.8194 13.4969 27.8815 12.5779 26.756 12.5779H24.3004V10.1099C24.3004 8.96959 23.3625 8.05051 22.237 8.05051C21.1115 8.05051 20.1736 8.98661 20.1736 10.1099V12.5608H17.7179C16.5754 12.5608 15.6545 13.4969 15.6545 14.6203C15.6375 15.7606 16.5754 16.6967 17.7179 16.6967Z" fill="#DFE3EE"/>
<path d="M14.7508 32.8147H10.8286V28.9001C10.8286 27.6236 9.78839 26.6024 8.52647 26.6024C7.26455 26.6024 6.22432 27.6406 6.22432 28.9001V32.8147H2.30215C1.04023 32.8147 0 33.8359 0 35.1124C0 36.3889 1.04023 37.4101 2.30215 37.4101H6.22432V41.3248C6.22432 42.6013 7.26455 43.6225 8.52647 43.6225C9.78839 43.6225 10.8286 42.5843 10.8286 41.3248V37.4101H14.7508C16.0298 37.4101 17.0529 36.3719 17.0529 35.1124C17.0529 33.8529 16.0298 32.8147 14.7508 32.8147Z" fill="#DFE3EE"/>
<path d="M202.333 88.9811H198.411V85.0665C198.411 83.79 197.37 82.7688 196.108 82.7688C194.847 82.7688 193.806 83.807 193.806 85.0665V88.9811H189.884C188.605 88.9811 187.582 90.0193 187.582 91.2788C187.582 92.5383 188.622 93.5765 189.884 93.5765H193.806V97.4912C193.806 98.7677 194.847 99.7889 196.108 99.7889C197.37 99.7889 198.411 98.7506 198.411 97.4912V93.5765H202.333C203.612 93.5765 204.635 92.5383 204.635 91.2788C204.635 90.0193 203.612 88.9811 202.333 88.9811Z" fill="#DFE3EE"/>
<path d="M158.456 23.6069C158.456 22.5857 157.62 21.7347 156.58 21.7347H155.028C154.005 21.7347 153.152 22.5687 153.152 23.6069V24.1005C153.152 25.1217 153.988 25.9727 155.028 25.9727H156.58C157.603 25.9727 158.456 25.1387 158.456 24.1005V23.6069Z" fill="#DFE3EE"/>
<path d="M165.584 21.7515H164.032C163.009 21.7515 162.156 22.5855 162.156 23.6238V24.1173C162.156 25.1385 162.992 25.9896 164.032 25.9896H165.584C166.607 25.9896 167.46 25.1556 167.46 24.1173V23.6238C167.46 22.5855 166.607 21.7515 165.584 21.7515Z" fill="#DFE3EE"/>
<path d="M160.076 21.7516H160.571C161.594 21.7516 162.446 20.9177 162.446 19.8794V18.3306C162.446 17.3094 161.611 16.4584 160.571 16.4584H160.076C159.053 16.4584 158.2 17.2924 158.2 18.3306V19.8794C158.2 20.9006 159.036 21.7516 160.076 21.7516Z" fill="#DFE3EE"/>
<path d="M160.554 25.9725H160.059C159.036 25.9725 158.184 26.8065 158.184 27.8447V29.3936C158.184 30.4148 159.019 31.2658 160.059 31.2658H160.554C161.577 31.2658 162.43 30.4318 162.43 29.3936V27.8447C162.43 26.8065 161.594 25.9725 160.554 25.9725Z" fill="#DFE3EE"/>
<path d="M90.2439 100.197C90.2439 99.1762 89.4083 98.3252 88.3681 98.3252H86.8163C85.7931 98.3252 84.9404 99.1592 84.9404 100.197V100.691C84.9404 101.712 85.776 102.563 86.8163 102.563H88.3681C89.3913 102.563 90.2439 101.729 90.2439 100.691V100.197Z" fill="#DFE3EE"/>
<path d="M97.372 98.3421H95.8202C94.797 98.3421 93.9443 99.1761 93.9443 100.214V100.708C93.9443 101.729 94.7799 102.58 95.8202 102.58H97.372C98.3952 102.58 99.2478 101.746 99.2478 100.708V100.214C99.2478 99.1761 98.3952 98.3421 97.372 98.3421Z" fill="#DFE3EE"/>
<path d="M91.8641 98.3422H92.3586C93.3818 98.3422 94.2345 97.5082 94.2345 96.47V94.9212C94.2345 93.8999 93.3989 93.0489 92.3586 93.0489H91.8641C90.8409 93.0489 89.9883 93.8829 89.9883 94.9212V96.47C89.9883 97.4912 90.8239 98.3422 91.8641 98.3422Z" fill="#DFE3EE"/>
<path d="M92.3411 102.563H91.8465C90.8234 102.563 89.9707 103.397 89.9707 104.435V105.984C89.9707 107.005 90.8063 107.856 91.8465 107.856H92.3411C93.3643 107.856 94.2169 107.022 94.2169 105.984V104.435C94.2169 103.397 93.3813 102.563 92.3411 102.563Z" fill="#DFE3EE"/>
<path d="M211.337 71.2121V73.663H208.882C207.739 73.663 206.818 74.5991 206.818 75.7224C206.818 76.8628 207.756 77.7819 208.882 77.7819H211.337V80.2328C211.337 81.3731 212.275 82.2922 213.401 82.2922C214.543 82.2922 215.464 81.3561 215.464 80.2328V77.7819H217.92C219.062 77.7819 219.983 76.8458 219.983 75.7224C219.983 74.5821 219.045 73.663 217.92 73.663H215.464V71.2121C215.464 70.0718 214.526 69.1527 213.401 69.1527C212.275 69.1527 211.337 70.0718 211.337 71.2121Z" fill="#DFE3EE"/>
<g clip-path="url(#clip1)">
<path fill-rule="evenodd" clip-rule="evenodd" d="M35.2537 31.2172C34.9875 30.2238 35.1268 29.1653 35.6411 28.2746C36.1553 27.3839 37.0023 26.734 37.9957 26.4678L71.7072 17.4348C72.7006 17.1687 73.7591 17.308 74.6498 17.8222C75.5405 18.3365 76.1904 19.1835 76.4566 20.1769C76.7228 21.1703 76.5834 22.2288 76.0692 23.1195C75.5549 24.0102 74.7079 24.6601 73.7145 24.9263L40.003 33.9592C39.0096 34.2254 37.9511 34.0861 37.0605 33.5718C36.1698 33.0576 35.5199 32.2106 35.2537 31.2172ZM39.3315 46.436C39.0654 45.4426 39.2047 44.3841 39.7189 43.4934C40.2332 42.6028 41.0802 41.9528 42.0736 41.6866L75.7851 32.6537C76.7785 32.3875 77.837 32.5269 78.7277 33.0411C79.6183 33.5553 80.2683 34.4023 80.5344 35.3957C80.8006 36.3892 80.6613 37.4477 80.147 38.3383C79.6328 39.229 78.7858 39.8789 77.7924 40.1451L44.0809 49.1781C43.0875 49.4443 42.029 49.3049 41.1383 48.7907C40.2476 48.2764 39.5977 47.4295 39.3315 46.436ZM43.7973 58.7122C43.2831 59.6028 43.1437 60.6613 43.4099 61.6547C43.6761 62.6482 44.326 63.4952 45.2167 64.0094C46.1074 64.5236 47.1658 64.663 48.1593 64.3968L81.8707 55.3638C82.8642 55.0977 83.7112 54.4477 84.2254 53.557C84.7396 52.6664 84.879 51.6079 84.6128 50.6145C84.3466 49.621 83.6967 48.774 82.806 48.2598C81.9153 47.7456 80.8568 47.6062 79.8634 47.8724L46.1519 56.9054C45.1585 57.1716 44.3115 57.8215 43.7973 58.7122Z" fill="#DFE3EE"/>
<path fill-rule="evenodd" clip-rule="evenodd" d="M83.948 18.1696C83.6818 17.1762 83.8212 16.1177 84.3354 15.227C84.8496 14.3363 85.6966 13.6864 86.6901 13.4202L90.4358 12.4166C91.4292 12.1504 92.4877 12.2897 93.3784 12.804C94.269 13.3182 94.919 14.1652 95.1851 15.1586C95.4513 16.152 95.312 17.2105 94.7978 18.1012C94.2835 18.9919 93.4365 19.6418 92.4431 19.908L88.6974 20.9117C87.704 21.1779 86.6455 21.0385 85.7548 20.5243C84.8641 20.01 84.2142 19.163 83.948 18.1696ZM88.0259 33.3885C87.7597 32.395 87.899 31.3365 88.4133 30.4459C88.9275 29.5552 89.7745 28.9053 90.7679 28.6391L94.5136 27.6354C95.5071 27.3692 96.5655 27.5086 97.4562 28.0228C98.3469 28.537 98.9968 29.384 99.263 30.3775C99.5292 31.3709 99.3899 32.4294 98.8756 33.3201C98.3614 34.2107 97.5144 34.8607 96.521 35.1268L92.7752 36.1305C91.7818 36.3967 90.7233 36.2573 89.8327 35.7431C88.942 35.2289 88.2921 34.3819 88.0259 33.3885ZM92.4916 45.6646C91.9774 46.5553 91.838 47.6137 92.1042 48.6072C92.3704 49.6006 93.0203 50.4476 93.911 50.9618C94.8017 51.4761 95.8602 51.6154 96.8536 51.3492L100.599 50.3456C101.593 50.0794 102.44 49.4295 102.954 48.5388C103.468 47.6481 103.608 46.5896 103.341 45.5962C103.075 44.6028 102.425 43.7558 101.535 43.2415C100.644 42.7273 99.5854 42.5879 98.592 42.8541L94.8463 43.8578C93.8529 44.124 93.0059 44.7739 92.4916 45.6646Z" fill="#DFE3EE"/>
</g>
<g clip-path="url(#clip2)">
<path fill-rule="evenodd" clip-rule="evenodd" d="M120.514 42.2956C120.865 41.3291 121.587 40.542 122.519 40.1073C123.451 39.6727 124.517 39.6261 125.484 39.9779L158.28 51.9146C159.246 52.2664 160.033 52.9876 160.468 53.9197C160.903 54.8519 160.949 55.9185 160.597 56.8849C160.246 57.8513 159.524 58.6385 158.592 59.0731C157.66 59.5078 156.594 59.5543 155.627 59.2026L122.831 47.2659C121.865 46.9141 121.078 46.1928 120.643 45.2607C120.208 44.3286 120.162 43.262 120.514 42.2956ZM115.125 57.1011C115.477 56.1346 116.198 55.3475 117.13 54.9129C118.062 54.4782 119.129 54.4316 120.095 54.7834L152.891 66.7201C153.857 67.0719 154.645 67.7932 155.079 68.7253C155.514 69.6574 155.56 70.724 155.209 71.6904C154.857 72.6569 154.136 73.444 153.204 73.8786C152.271 74.3133 151.205 74.3599 150.238 74.0081L117.442 62.0714C116.476 61.7196 115.689 60.9983 115.254 60.0662C114.82 59.1341 114.773 58.0675 115.125 57.1011ZM111.742 69.7185C110.809 70.1532 110.088 70.9403 109.736 71.9068C109.385 72.8732 109.431 73.9398 109.866 74.8719C110.301 75.804 111.088 76.5253 112.054 76.8771L144.85 88.8138C145.817 89.1655 146.883 89.119 147.815 88.6843C148.747 88.2497 149.469 87.4626 149.82 86.4961C150.172 85.5297 150.126 84.4631 149.691 83.531C149.256 82.5988 148.469 81.8776 147.503 81.5258L114.707 69.5891C113.74 69.2373 112.674 69.2839 111.742 69.7185Z" fill="#DFE3EE"/>
<path fill-rule="evenodd" clip-rule="evenodd" d="M167.885 59.5373C168.236 58.5708 168.958 57.7837 169.89 57.349C170.822 56.9144 171.888 56.8678 172.855 57.2196L176.499 58.5459C177.465 58.8976 178.252 59.6189 178.687 60.551C179.122 61.4831 179.168 62.5497 178.817 63.5162C178.465 64.4826 177.744 65.2697 176.811 65.7044C175.879 66.139 174.813 66.1856 173.846 65.8339L170.202 64.5075C169.236 64.1558 168.449 63.4345 168.014 62.5024C167.579 61.5703 167.533 60.5037 167.885 59.5373ZM162.496 74.3428C162.848 73.3763 163.569 72.5892 164.501 72.1546C165.433 71.7199 166.5 71.6733 167.466 72.0251L171.11 73.3514C172.077 73.7031 172.864 74.4244 173.298 75.3565C173.733 76.2886 173.78 77.3552 173.428 78.3217C173.076 79.2881 172.355 80.0753 171.423 80.5099C170.491 80.9446 169.424 80.9911 168.458 80.6394L164.814 79.3131C163.847 78.9613 163.06 78.24 162.625 77.3079C162.191 76.3758 162.144 75.3092 162.496 74.3428ZM159.113 86.9602C158.181 87.3949 157.459 88.182 157.108 89.1485C156.756 90.1149 156.802 91.1815 157.237 92.1136C157.672 93.0457 158.459 93.767 159.425 94.1188L163.069 95.4451C164.036 95.7968 165.102 95.7503 166.034 95.3156C166.966 94.881 167.688 94.0938 168.04 93.1274C168.391 92.1609 168.345 91.0943 167.91 90.1622C167.475 89.2301 166.688 88.5088 165.722 88.1571L162.078 86.8308C161.111 86.479 160.045 86.5256 159.113 86.9602Z" fill="#DFE3EE"/>
</g>
</g>
<defs>
<clipPath id="clip0">
<rect width="220" height="107.925" fill="white"/>
</clipPath>
<clipPath id="clip1">
<rect width="77.5571" height="77.5571" fill="white" transform="translate(22.4297 11.5027) rotate(-15)"/>
</clipPath>
<clipPath id="clip2">
<rect width="77.5571" height="77.5571" fill="white" transform="translate(121.316 18.7909) rotate(20)"/>
</clipPath>
</defs>
</svg>
