<svg width="220" height="108" viewBox="0 0 220 108" fill="none" xmlns="http://www.w3.org/2000/svg">
<g clip-path="url(#clip0)">
<path d="M129.943 15.9138C134.172 15.9138 137.617 12.4757 137.617 8.25475C137.617 4.03377 134.172 0.595703 129.943 0.595703C125.714 0.595703 122.27 4.03377 122.27 8.25475C122.27 12.4757 125.714 15.9138 129.943 15.9138ZM129.943 3.52316C132.552 3.52316 134.684 5.65068 134.684 8.25475C134.684 10.8588 132.552 12.9863 129.943 12.9863C127.334 12.9863 125.203 10.8588 125.203 8.25475C125.203 5.65068 127.317 3.52316 129.943 3.52316Z" fill="#DFE3EE" stroke="#DFE3EE" stroke-width="0.7087" stroke-miterlimit="10"/>
<path d="M66.6738 101.318C70.9029 101.318 74.3476 97.88 74.3476 93.6591C74.3476 89.4381 70.9029 86 66.6738 86C62.4447 86 59 89.4381 59 93.6591C59 97.88 62.4447 101.318 66.6738 101.318ZM66.6738 88.9275C69.2829 88.9275 71.4145 91.055 71.4145 93.6591C71.4145 96.2631 69.2829 98.3906 66.6738 98.3906C64.0647 98.3906 61.9331 96.2631 61.9331 93.6591C61.9331 91.055 64.0477 88.9275 66.6738 88.9275Z" fill="#DFE3EE" stroke="#DFE3EE" stroke-width="0.7087" stroke-miterlimit="10"/>
<path d="M17.7179 16.6965H20.1736V19.1474C20.1736 20.2878 21.1115 21.2068 22.237 21.2068C23.3625 21.2068 24.3004 20.2707 24.3004 19.1474V16.6965H26.756C27.8985 16.6965 28.8194 15.7604 28.8194 14.6371C28.8194 13.4967 27.8815 12.5776 26.756 12.5776H24.3004V10.1097C24.3004 8.96938 23.3625 8.05029 22.237 8.05029C21.1115 8.05029 20.1736 8.9864 20.1736 10.1097V12.5606H17.7179C16.5754 12.5606 15.6545 13.4967 15.6545 14.6201C15.6375 15.7604 16.5754 16.6965 17.7179 16.6965Z" fill="#DFE3EE"/>
<path d="M14.7508 32.8149H10.8286V28.9003C10.8286 27.6237 9.78839 26.6025 8.52647 26.6025C7.26455 26.6025 6.22432 27.6408 6.22432 28.9003V32.8149H2.30215C1.04023 32.8149 0 33.8361 0 35.1126C0 36.3891 1.04023 37.4103 2.30215 37.4103H6.22432V41.3249C6.22432 42.6014 7.26455 43.6226 8.52647 43.6226C9.78839 43.6226 10.8286 42.5844 10.8286 41.3249V37.4103H14.7508C16.0298 37.4103 17.0529 36.3721 17.0529 35.1126C17.0529 33.8531 16.0298 32.8149 14.7508 32.8149Z" fill="#DFE3EE"/>
<path d="M202.333 88.9809H198.411V85.0663C198.411 83.7898 197.37 82.7686 196.108 82.7686C194.847 82.7686 193.806 83.8068 193.806 85.0663V88.9809H189.884C188.605 88.9809 187.582 90.0191 187.582 91.2786C187.582 92.5381 188.622 93.5763 189.884 93.5763H193.806V97.4909C193.806 98.7675 194.847 99.7887 196.108 99.7887C197.37 99.7887 198.411 98.7504 198.411 97.4909V93.5763H202.333C203.612 93.5763 204.635 92.5381 204.635 91.2786C204.635 90.0191 203.612 88.9809 202.333 88.9809Z" fill="#DFE3EE"/>
<path d="M158.456 23.6071C158.456 22.5859 157.62 21.7349 156.58 21.7349H155.028C154.005 21.7349 153.152 22.5688 153.152 23.6071V24.1007C153.152 25.1219 153.988 25.9729 155.028 25.9729H156.58C157.603 25.9729 158.456 25.1389 158.456 24.1007V23.6071Z" fill="#DFE3EE"/>
<path d="M165.584 21.7515H164.032C163.009 21.7515 162.156 22.5855 162.156 23.6237V24.1173C162.156 25.1385 162.992 25.9895 164.032 25.9895H165.584C166.607 25.9895 167.46 25.1555 167.46 24.1173V23.6237C167.46 22.5855 166.607 21.7515 165.584 21.7515Z" fill="#DFE3EE"/>
<path d="M160.076 21.7517H160.571C161.594 21.7517 162.446 20.9178 162.446 19.8795V18.3307C162.446 17.3095 161.611 16.4585 160.571 16.4585H160.076C159.053 16.4585 158.2 17.2925 158.2 18.3307V19.8795C158.2 20.9007 159.036 21.7517 160.076 21.7517Z" fill="#DFE3EE"/>
<path d="M160.554 25.9727H160.059C159.036 25.9727 158.184 26.8066 158.184 27.8449V29.3937C158.184 30.4149 159.019 31.2659 160.059 31.2659H160.554C161.577 31.2659 162.43 30.4319 162.43 29.3937V27.8449C162.43 26.8066 161.594 25.9727 160.554 25.9727Z" fill="#DFE3EE"/>
<path d="M90.2439 100.197C90.2439 99.1762 89.4083 98.3252 88.3681 98.3252H86.8163C85.7931 98.3252 84.9404 99.1592 84.9404 100.197V100.691C84.9404 101.712 85.776 102.563 86.8163 102.563H88.3681C89.3913 102.563 90.2439 101.729 90.2439 100.691V100.197Z" fill="#DFE3EE"/>
<path d="M97.372 98.3418H95.8202C94.797 98.3418 93.9443 99.1758 93.9443 100.214V100.708C93.9443 101.729 94.7799 102.58 95.8202 102.58H97.372C98.3952 102.58 99.2478 101.746 99.2478 100.708V100.214C99.2478 99.1758 98.3952 98.3418 97.372 98.3418Z" fill="#DFE3EE"/>
<path d="M91.8641 98.3421H92.3586C93.3818 98.3421 94.2345 97.5081 94.2345 96.4699V94.921C94.2345 93.8998 93.3989 93.0488 92.3586 93.0488H91.8641C90.8409 93.0488 89.9883 93.8828 89.9883 94.921V96.4699C89.9883 97.4911 90.8239 98.3421 91.8641 98.3421Z" fill="#DFE3EE"/>
<path d="M92.3411 102.563H91.8465C90.8234 102.563 89.9707 103.397 89.9707 104.435V105.984C89.9707 107.005 90.8063 107.856 91.8465 107.856H92.3411C93.3643 107.856 94.2169 107.022 94.2169 105.984V104.435C94.2169 103.397 93.3813 102.563 92.3411 102.563Z" fill="#DFE3EE"/>
<path d="M211.337 71.2123V73.6632H208.882C207.739 73.6632 206.818 74.5993 206.818 75.7226C206.818 76.8629 207.756 77.782 208.882 77.782H211.337V80.2329C211.337 81.3733 212.275 82.2924 213.401 82.2924C214.543 82.2924 215.464 81.3563 215.464 80.2329V77.782H217.92C219.062 77.782 219.983 76.8459 219.983 75.7226C219.983 74.5823 219.045 73.6632 217.92 73.6632H215.464V71.2123C215.464 70.0719 214.526 69.1528 213.401 69.1528C212.275 69.1528 211.337 70.0719 211.337 71.2123Z" fill="#DFE3EE"/>
<path d="M61.0651 2.53859C71.7251 0.658949 81.8989 7.69803 83.7672 18.2936C86.2999 32.6572 70.7189 57.2878 70.7189 57.2878C70.7189 57.2878 47.6534 39.4717 45.1207 25.108C43.2524 14.5124 50.4051 4.41824 61.0651 2.53859ZM63.3366 15.4208C61.6283 15.722 60.1097 16.6895 59.1147 18.1104C58.1198 19.5313 57.73 21.2893 58.0313 22.9976C58.3325 24.7059 59.3 26.2245 60.7209 27.2195C62.1418 28.2144 63.8998 28.6042 65.6081 28.3029C67.3164 28.0017 68.835 27.0342 69.83 25.6133C70.8249 24.1924 71.2146 22.4344 70.9134 20.7261C70.6122 19.0178 69.6447 17.4992 68.2238 16.5042C66.8029 15.5093 65.0449 15.1196 63.3366 15.4208ZM96.4832 52.7449C97.7382 59.8623 87.2252 67.66 72.9904 70.17C58.7556 72.68 46.2095 68.9482 44.9545 61.8308C44.222 57.6763 47.498 53.2798 53.1703 49.8556L55.7482 52.4228C52.5256 54.4854 50.7199 56.8626 51.1117 59.0848C51.8954 63.5291 61.1946 65.6086 71.8546 63.7289C82.5146 61.8493 90.5419 56.7147 89.7582 52.2703C89.3664 50.0482 86.8565 48.4319 83.1228 47.596L84.6672 44.3018C91.1686 45.5796 95.7507 48.5904 96.4832 52.7449Z" fill="#DFE3EE"/>
<g clip-path="url(#clip1)">
<path d="M155.526 38.4743C165.982 41.2759 172.228 51.9551 169.443 62.3475C165.668 76.4357 141.137 92.1738 141.137 92.1738C141.137 92.1738 127.762 66.279 131.537 52.1907C134.322 41.7983 145.071 35.6727 155.526 38.4743ZM152.141 51.1095C150.465 50.6605 148.68 50.8956 147.178 51.7629C145.675 52.6302 144.579 54.0587 144.13 55.7343C143.681 57.4098 143.916 59.1951 144.784 60.6973C145.651 62.1995 147.08 63.2957 148.755 63.7447C150.431 64.1936 152.216 63.9586 153.718 63.0913C155.22 62.2239 156.316 60.7954 156.765 59.1199C157.214 57.4443 156.979 55.6591 156.112 54.1568C155.245 52.6546 153.816 51.5584 152.141 51.1095ZM166.408 98.945C164.537 105.926 151.714 108.55 137.752 104.809C123.79 101.068 113.997 92.3836 115.867 85.4026C116.959 81.3278 121.786 78.7278 128.374 78.0216L129.625 81.4378C125.833 81.9451 123.192 83.3365 122.608 85.516C121.44 89.8752 128.989 95.6898 139.445 98.4914C149.9 101.293 159.345 100.032 160.513 95.6728C161.097 93.4932 159.506 90.9677 156.475 88.6321L159.267 86.2993C164.619 90.2049 167.5 94.8701 166.408 98.945Z" fill="#DFE3EE"/>
</g>
</g>
<defs>
<clipPath id="clip0">
<rect width="220" height="107.925" fill="white"/>
</clipPath>
<clipPath id="clip1">
<rect width="78.4854" height="78.4854" fill="white" transform="translate(119.313 22) rotate(15)"/>
</clipPath>
</defs>
</svg>
