<svg width="44" height="44" viewBox="0 0 44 44" fill="none" xmlns="http://www.w3.org/2000/svg">
<circle cx="22" cy="22" r="22" fill="#D4DBFF"/>
<g clip-path="url(#clip0_16732_9197)">
<path d="M18.875 9.00003C18.7299 9.02162 18.5913 9.07488 18.469 9.15603C18.469 9.15603 17.204 9.95203 15.844 10.813C14.484 11.673 12.971 12.621 12.625 12.813C12.6037 12.8223 12.5827 12.8323 12.562 12.843C11.306 13.618 11.045 14.884 11 15.594C10.997 15.627 11 15.654 11 15.689C10.989 15.955 11 16.126 11 16.126V29.189C11 31.087 13.213 32 15.313 32C16.013 32 16.713 31.887 17.313 31.687C17.713 31.487 18 31.087 18 30.687V20.187C18 17.887 18.5 16.807 20 15.907C20.4 15.707 24.594 12.812 24.594 12.812C24.794 12.612 25 12.206 25 11.906V11.812C25 11.412 24.8 11.106 24.5 10.906C24.2 10.706 23.8 10.706 23.5 10.906C23.4 11.006 17.3 15.113 16 15.813C14.7 16.613 13.487 16.806 13.187 16.406C13.094 16.313 13.013 16.028 13 15.75V15.687C13.001 15.415 13.071 14.903 13.625 14.562C14.187 14.249 15.582 13.358 16.938 12.5C17.511 12.137 17.582 12.098 18.031 11.812C18.0901 12.0563 18.239 12.2694 18.4482 12.4089C18.6573 12.5483 18.9112 12.6039 19.1595 12.5646C19.4077 12.5252 19.632 12.3938 19.7878 12.1966C19.9436 11.9993 20.0193 11.7506 20 11.5V10C20.0011 9.8575 19.9718 9.71637 19.9139 9.58611C19.856 9.45586 19.7709 9.33948 19.6644 9.24478C19.5579 9.15008 19.4323 9.07925 19.2962 9.03704C19.16 8.99483 19.0164 8.98221 18.875 9.00003ZM26.875 12.5C26.716 12.5265 26.5657 12.591 26.437 12.688C26.437 12.688 21.403 16.075 20.531 16.656C20.5204 16.6665 20.5101 16.6771 20.5 16.688C19.776 17.231 19.347 17.877 19.156 18.468C19.049 18.8014 18.9963 19.1499 19 19.5V19.813C18.9986 19.844 18.9986 19.8751 19 19.906V32C19 33.9 21.188 35 23.188 35C24.088 35 24.9 34.806 25.5 34.406C26.7 33.706 32.5 29.188 32.5 29.188C32.8 28.988 33 28.706 33 28.406V15.406C33 14.906 32.806 14.606 32.406 14.406C32.106 14.206 31.613 14.3 31.313 14.5C29.713 15.7 25.406 19.088 24.406 19.688C23.006 20.488 21.687 20.688 21.187 20.188C20.987 19.988 21 19.8 21 19.5C21.006 19.328 21.025 19.18 21.063 19.062C21.119 18.888 21.233 18.674 21.656 18.344C21.676 18.328 21.666 18.329 21.687 18.313C22.41 17.83 24.621 16.323 26.063 15.343C26.1447 15.5622 26.3006 15.7458 26.5037 15.8619C26.7067 15.978 26.9441 16.0192 27.1744 15.9784C27.4047 15.9377 27.6134 15.8174 27.7643 15.6387C27.9151 15.4599 27.9985 15.2339 28 15V13.5C28.0011 13.3575 27.9718 13.2164 27.9139 13.0861C27.856 12.9559 27.7709 12.8395 27.6644 12.7448C27.5579 12.6501 27.4323 12.5793 27.2962 12.537C27.16 12.4948 27.0164 12.4822 26.875 12.5ZM31 19.813V21.813L26 25.687V23.687L31 19.813Z" fill="#294DFF"/>
</g>
<defs>
<clipPath id="clip0_16732_9197">
<rect width="26" height="26" fill="white" transform="translate(9 9)"/>
</clipPath>
</defs>
</svg>
