<svg width="44" height="44" viewBox="0 0 44 44" fill="none" xmlns="http://www.w3.org/2000/svg">
<circle cx="22" cy="22" r="22" fill="#FFF4D6"/>
<path d="M23.0833 17.6667C23.9453 17.6667 24.7719 18.0091 25.3814 18.6186C25.9909 19.2281 26.3333 20.0547 26.3333 20.9167C26.3333 21.204 26.4475 21.4795 26.6506 21.6827C26.8538 21.8859 27.1293 22 27.4167 22C27.704 22 27.9795 21.8859 28.1827 21.6827C28.3859 21.4795 28.5 21.204 28.5 20.9167C28.5 19.4801 27.9293 18.1023 26.9135 17.0865C25.8977 16.0707 24.5199 15.5 23.0833 15.5C22.796 15.5 22.5205 15.6141 22.3173 15.8173C22.1141 16.0205 22 16.296 22 16.5833C22 16.8707 22.1141 17.1462 22.3173 17.3494C22.5205 17.5525 22.796 17.6667 23.0833 17.6667Z" fill="#FFBC01"/>
<path d="M23.0833 13.3332C25.0945 13.3332 27.0234 14.1321 28.4455 15.5543C29.8677 16.9764 30.6666 18.9053 30.6666 20.9165C30.6666 21.2038 30.7808 21.4794 30.9839 21.6825C31.1871 21.8857 31.4626 21.9998 31.75 21.9998C32.0373 21.9998 32.3128 21.8857 32.516 21.6825C32.7192 21.4794 32.8333 21.2038 32.8333 20.9165C32.8333 18.3306 31.8061 15.8507 29.9776 14.0222C28.1491 12.1937 25.6692 11.1665 23.0833 11.1665C22.796 11.1665 22.5204 11.2806 22.3173 11.4838C22.1141 11.687 22 11.9625 22 12.2498C22 12.5372 22.1141 12.8127 22.3173 13.0159C22.5204 13.219 22.796 13.3332 23.0833 13.3332ZM32.5625 26.2357C32.5029 26.0618 32.4 25.9059 32.2636 25.7827C32.1271 25.6595 31.9615 25.5731 31.7825 25.5315L25.2825 24.0473C25.106 24.0073 24.9224 24.0122 24.7483 24.0614C24.5742 24.1106 24.4152 24.2026 24.2858 24.329C24.1341 24.4698 24.1233 24.4807 23.4191 25.824C21.0826 24.7473 19.2104 22.8674 18.1433 20.5265C19.5191 19.8332 19.53 19.8332 19.6708 19.6707C19.7972 19.5413 19.8892 19.3823 19.9384 19.2082C19.9876 19.0341 19.9925 18.8504 19.9525 18.674L18.4683 12.2498C18.4267 12.0708 18.3403 11.9052 18.2171 11.7687C18.0939 11.6323 17.938 11.5294 17.7641 11.4698C17.5111 11.3795 17.2499 11.3142 16.9841 11.2748C16.7103 11.2113 16.4309 11.1751 16.15 11.1665C14.8283 11.1665 13.5608 11.6915 12.6262 12.6261C11.6917 13.5606 11.1666 14.8282 11.1666 16.1498C11.1724 20.5728 12.9319 24.8129 16.0594 27.9404C19.1869 31.0679 23.427 32.8274 27.85 32.8332C28.5044 32.8332 29.1524 32.7043 29.757 32.4538C30.3616 32.2034 30.911 31.8363 31.3737 31.3736C31.8365 30.9108 32.2035 30.3615 32.454 29.7569C32.7044 29.1523 32.8333 28.5043 32.8333 27.8498C32.8336 27.5741 32.8119 27.2988 32.7683 27.0265C32.7228 26.7574 32.6539 26.4928 32.5625 26.2357ZM27.85 30.6665C24.0008 30.6636 20.3101 29.1333 17.5883 26.4115C14.8665 23.6897 13.3362 19.999 13.3333 16.1498C13.3361 15.4037 13.6338 14.6889 14.1614 14.1613C14.689 13.6337 15.4038 13.336 16.15 13.3332H16.5075L17.6666 18.3598L17.0816 18.6632C16.15 19.1507 15.4133 19.5407 15.8033 20.3857C16.4384 22.1835 17.466 23.8174 18.8114 25.1685C20.1569 26.5195 21.7864 27.5539 23.5816 28.1965C24.4916 28.5648 24.8491 27.8823 25.3366 26.9398L25.6508 26.344L30.6666 27.4923V27.8498C30.6638 28.596 30.3661 29.3108 29.8385 29.8384C29.3109 30.366 28.5961 30.6637 27.85 30.6665Z" fill="#FFBC01"/>
</svg>
