<svg width="44" height="44" viewBox="0 0 44 44" fill="none" xmlns="http://www.w3.org/2000/svg">
<circle cx="22" cy="22" r="22" fill="#DCF8D9"/>
<g clip-path="url(#clip0_16866_9048)">
<path fill-rule="evenodd" clip-rule="evenodd" d="M12.4215 12.4534C12.1897 12.6885 12 13.6585 12 14.6088C12 16.2471 12.0639 16.3639 13.2295 16.8576C14.0455 17.2035 14.459 17.615 14.459 18.0816C14.459 18.5483 14.0455 18.9597 13.2295 19.3056C12.0148 19.82 12 19.8524 12 22C12 24.1476 12.0148 24.18 13.2295 24.6944C14.8812 25.3944 14.8812 26.4424 13.2295 27.1424C12.0639 27.6361 12 27.7529 12 29.3912C12 30.3415 12.1897 31.3115 12.4215 31.5466C13.0177 32.1511 27.1413 32.1511 27.7374 31.5466C28.3374 30.9382 28.3374 13.0618 27.7374 12.4534C27.1413 11.8489 13.0177 11.8489 12.4215 12.4534ZM29.564 16.3005C29.564 18.4702 29.5707 18.4845 30.5237 18.3723C31.7153 18.2323 32.3279 16.7917 31.821 15.3209C31.5818 14.6274 31.2031 14.3086 30.5237 14.2288C29.5707 14.1166 29.564 14.1308 29.564 16.3005ZM19.5466 19.1442C20.5319 20.1869 20.5386 20.2203 19.8961 20.9399C19.2522 21.6616 19.262 21.6937 20.5245 22.9735C21.7912 24.2584 21.8158 24.2663 22.5381 23.6033C23.2592 22.9415 23.2838 22.9479 24.3869 24.0664C25.4414 25.1354 25.4709 25.2348 24.905 25.8087C22.2233 28.5277 15.7763 22.2882 17.6328 18.7705C18.12 17.8479 18.3677 17.896 19.5466 19.1442ZM29.564 22C29.564 24.1697 29.5707 24.184 30.5237 24.0718C31.7153 23.9318 32.3279 22.4912 31.821 21.0204C31.5818 20.3268 31.2031 20.008 30.5237 19.9282C29.5707 19.816 29.564 19.8303 29.564 22ZM29.564 27.6995C29.564 29.8692 29.5707 29.8834 30.5237 29.7712C31.7153 29.6312 32.3279 28.1907 31.821 26.7199C31.5818 26.0263 31.2031 25.7075 30.5237 25.6277C29.5707 25.5155 29.564 25.5298 29.564 27.6995Z" fill="#14A800"/>
</g>
<defs>
<clipPath id="clip0_16866_9048">
<rect width="26" height="26" fill="white" transform="translate(9 9)"/>
</clipPath>
</defs>
</svg>
