<svg width="44" height="44" viewBox="0 0 44 44" fill="none" xmlns="http://www.w3.org/2000/svg">
<circle cx="22" cy="22" r="22" fill="#FFD6F7"/>
<path fill-rule="evenodd" clip-rule="evenodd" d="M14.1198 18C13.5538 18 13.0951 17.5588 13.0951 17.0146L13.0951 15.9854L12.0248 15.9854C11.4588 15.9854 11 15.5442 11 15C11 14.4558 11.4588 14.0146 12.0248 14.0146L13.0951 14.0146L13.0951 12.9854C13.0951 12.4412 13.5538 12 14.1198 12C14.6858 12 15.1446 12.4412 15.1446 12.9854V14.0146L16.2149 14.0146C16.7808 14.0146 17.2396 14.4558 17.2396 15C17.2396 15.5442 16.7808 15.9854 16.2149 15.9854L15.1446 15.9854V17.0146C15.1446 17.5588 14.6858 18 14.1198 18ZM33 15C33 15.5442 32.5412 15.9854 31.9752 15.9854L20.0083 15.9854C19.4423 15.9854 18.9835 15.5442 18.9835 15C18.9835 14.4558 19.4423 14.0146 20.0083 14.0146L31.9752 14.0146C32.5412 14.0146 33 14.4558 33 15ZM14.1198 25C13.5538 25 13.0951 24.5588 13.0951 24.0146L13.0951 22.9854H12.0248C11.4588 22.9854 11 22.5442 11 22C11 21.4558 11.4588 21.0146 12.0248 21.0146H13.0951L13.0951 19.9854C13.0951 19.4412 13.5538 19 14.1198 19C14.6858 19 15.1446 19.4412 15.1446 19.9854V21.0146H16.2149C16.7808 21.0146 17.2396 21.4558 17.2396 22C17.2396 22.5442 16.7808 22.9854 16.2149 22.9854H15.1446V24.0146C15.1446 24.5588 14.6858 25 14.1198 25ZM33 22C33 22.5442 32.5412 22.9854 31.9752 22.9854L20.0083 22.9854C19.4423 22.9854 18.9835 22.5442 18.9835 22C18.9835 21.4558 19.4423 21.0146 20.0083 21.0146L31.9752 21.0146C32.5412 21.0146 33 21.4558 33 22ZM13.0951 31.0146C13.0951 31.5588 13.5538 32 14.1198 32C14.6858 32 15.1446 31.5588 15.1446 31.0146V29.9854H16.2149C16.7808 29.9854 17.2396 29.5442 17.2396 29C17.2396 28.4558 16.7808 28.0146 16.2149 28.0146H15.1446V26.9854C15.1446 26.4412 14.6858 26 14.1198 26C13.5538 26 13.0951 26.4412 13.0951 26.9854L13.0951 28.0146H12.0248C11.4588 28.0146 11 28.4558 11 29C11 29.5442 11.4588 29.9854 12.0248 29.9854H13.0951L13.0951 31.0146ZM31.9752 29.9854C32.5412 29.9854 33 29.5442 33 29C33 28.4558 32.5412 28.0146 31.9752 28.0146H20.0083C19.4423 28.0146 18.9835 28.4558 18.9835 29C18.9835 29.5442 19.4423 29.9854 20.0083 29.9854H31.9752Z" fill="#AF4399"/>
</svg>
