<svg width="44" height="44" viewBox="0 0 44 44" fill="none" xmlns="http://www.w3.org/2000/svg">
<circle cx="22" cy="22" r="22" fill="#E3F0FF"/>
<path d="M20.9567 18.5233C21.8834 17.5967 23.4747 18.2608 23.4747 19.5666C23.4747 20.0959 23.9037 20.5249 24.433 20.5249C24.9622 20.5249 25.3912 20.0959 25.3912 19.5666C25.3912 18.0293 24.3625 16.7284 22.9582 16.314V15.6736C22.9582 15.1443 22.5293 14.7153 22 14.7153C21.4708 14.7153 21.0418 15.1443 21.0418 15.6736V16.3122C19.4103 16.7904 18.3573 18.4249 18.7292 20.1439C18.9582 21.2018 19.691 22.0804 20.6888 22.4936L22.5773 23.2756C23.451 23.6371 23.7123 24.7582 23.0804 25.4363C22.1738 26.4079 20.5247 25.7717 20.5247 24.4325C20.5247 23.9033 20.0957 23.4743 19.5665 23.4743C19.0372 23.4743 18.6082 23.9033 18.6082 24.4325C18.6082 25.9291 19.5981 27.2634 21.0412 27.6845V28.3256C21.0412 28.8548 21.4702 29.2838 21.9994 29.2838C22.5287 29.2838 22.9576 28.8548 22.9576 28.3256V27.6827C23.4924 27.5271 23.9815 27.2416 24.385 26.843C26.0505 25.1957 25.4538 22.3933 23.3107 21.5056L21.4216 20.7235C20.5387 20.3578 20.2731 19.2081 20.9567 18.5233Z" fill="#2975CE" stroke="#2975CE" stroke-width="0.4"/>
<path d="M30.2476 13.7525C25.6892 9.19412 18.3114 9.19351 13.7524 13.7525C9.19397 18.311 9.19336 25.6888 13.7524 30.2478C18.3108 34.8062 25.6886 34.8068 30.2476 30.2478C34.8061 25.6894 34.8067 18.311 30.2476 13.7525ZM22.0003 31.7474C16.6252 31.7474 12.2528 27.375 12.2528 21.9999C12.2528 16.6248 16.6252 12.2523 22.0003 12.2523C27.3754 12.2523 31.7479 16.6248 31.7479 21.9999C31.7479 27.375 27.3754 31.7474 22.0003 31.7474Z" fill="#2975CE" stroke="#2975CE" stroke-width="0.4"/>
</svg>
