<svg width="44" height="44" viewBox="0 0 44 44" fill="none" xmlns="http://www.w3.org/2000/svg">
<circle cx="22" cy="22" r="22" fill="#DEDBFF"/>
<path d="M21.9999 25.0001C24.7574 25.0001 26.9999 22.7576 26.9999 20C26.9999 17.2425 24.7574 15 21.9999 15C19.2425 15 17 17.2425 17 20C17 22.7576 19.2425 25.0001 21.9999 25.0001ZM21.9999 17.5C23.3787 17.5 24.4999 18.6213 24.4999 20C24.4999 21.3788 23.3787 22.5001 21.9999 22.5001C20.6212 22.5001 19.5 21.3788 19.5 20C19.5 18.6213 20.6212 17.5 21.9999 17.5Z" fill="#6A5EEE"/>
<path d="M21.275 34.7677C21.4866 34.9188 21.74 35 22 35C22.26 35 22.5134 34.9188 22.725 34.7677C23.105 34.4989 32.0361 28.0501 31.9999 20.0001C31.9999 14.4863 27.5137 10 22 10C16.4863 10 12.0001 14.4863 12.0001 19.9938C11.9639 28.0501 20.895 34.4989 21.275 34.7677ZM22 12.5C26.1362 12.5 29.4999 15.8638 29.4999 20.0063C29.5262 25.5539 24.015 30.5352 22 32.1689C19.9863 30.5339 14.4738 25.5514 14.5001 20.0001C14.5001 15.8638 17.8638 12.5 22 12.5Z" fill="#6A5EEE"/>
</svg>
