<svg width="44" height="44" viewBox="0 0 44 44" fill="none" xmlns="http://www.w3.org/2000/svg">
<circle cx="22" cy="22" r="22" fill="#E3F0FF"/>
<path fill-rule="evenodd" clip-rule="evenodd" d="M10.8 15.0001C10.8 14.6288 10.9475 14.2727 11.21 14.0101C11.4726 13.7476 11.8287 13.6001 12.2 13.6001H24.8C25.1713 13.6001 25.5274 13.7476 25.7899 14.0101C26.0525 14.2727 26.2 14.6288 26.2 15.0001C26.2 15.3714 26.0525 15.7275 25.7899 15.99C25.5274 16.2526 25.1713 16.4001 24.8 16.4001H12.2C11.8287 16.4001 11.4726 16.2526 11.21 15.99C10.9475 15.7275 10.8 15.3714 10.8 15.0001ZM10.8 22.0001C10.8 21.6288 10.9475 21.2727 11.21 21.0101C11.4726 20.7476 11.8287 20.6001 12.2 20.6001H24.8C25.1713 20.6001 25.5274 20.7476 25.7899 21.0101C26.0525 21.2727 26.2 21.6288 26.2 22.0001C26.2 22.3714 26.0525 22.7275 25.7899 22.99C25.5274 23.2526 25.1713 23.4001 24.8 23.4001H12.2C11.8287 23.4001 11.4726 23.2526 11.21 22.99C10.9475 22.7275 10.8 22.3714 10.8 22.0001ZM11.21 28.0101C10.9475 28.2727 10.8 28.6288 10.8 29.0001C10.8 29.3714 10.9475 29.7275 11.21 29.99C11.4726 30.2526 11.8287 30.4001 12.2 30.4001H24.8C25.1713 30.4001 25.5274 30.2526 25.7899 29.99C26.0525 29.7275 26.2 29.3714 26.2 29.0001C26.2 28.6288 26.0525 28.2727 25.7899 28.0101C25.5274 27.7476 25.1713 27.6001 24.8 27.6001H12.2C11.8287 27.6001 11.4726 27.7476 11.21 28.0101Z" fill="#2975CE"/>
<path fill-rule="evenodd" clip-rule="evenodd" d="M29 15.0001C29 14.6288 29.1475 14.2727 29.4101 14.0101C29.6726 13.7476 30.0287 13.6001 30.4 13.6001H31.8C32.1713 13.6001 32.5274 13.7476 32.7899 14.0101C33.0525 14.2727 33.2 14.6288 33.2 15.0001C33.2 15.3714 33.0525 15.7275 32.7899 15.99C32.5274 16.2526 32.1713 16.4001 31.8 16.4001H30.4C30.0287 16.4001 29.6726 16.2526 29.4101 15.99C29.1475 15.7275 29 15.3714 29 15.0001ZM29 22.0001C29 21.6288 29.1475 21.2727 29.4101 21.0101C29.6726 20.7476 30.0287 20.6001 30.4 20.6001H31.8C32.1713 20.6001 32.5274 20.7476 32.7899 21.0101C33.0525 21.2727 33.2 21.6288 33.2 22.0001C33.2 22.3714 33.0525 22.7275 32.7899 22.99C32.5274 23.2526 32.1713 23.4001 31.8 23.4001H30.4C30.0287 23.4001 29.6726 23.2526 29.4101 22.99C29.1475 22.7275 29 22.3714 29 22.0001ZM29.4101 28.0101C29.1475 28.2727 29 28.6288 29 29.0001C29 29.3714 29.1475 29.7275 29.4101 29.99C29.6726 30.2526 30.0287 30.4001 30.4 30.4001H31.8C32.1713 30.4001 32.5274 30.2526 32.7899 29.99C33.0525 29.7275 33.2 29.3714 33.2 29.0001C33.2 28.6288 33.0525 28.2727 32.7899 28.0101C32.5274 27.7476 32.1713 27.6001 31.8 27.6001H30.4C30.0287 27.6001 29.6726 27.7476 29.4101 28.0101Z" fill="#2975CE"/>
</svg>
