<svg width="44" height="44" viewBox="0 0 44 44" fill="none" xmlns="http://www.w3.org/2000/svg">
<circle cx="22" cy="22" r="22" fill="#DEDBFF"/>
<path d="M34.375 23.8201V14.469C34.3739 14.1148 34.2981 13.765 34.1525 13.4427C34.0069 13.1204 33.7949 12.833 33.5306 12.5996C33.085 12.2106 32.5146 11.9976 31.925 12H11.45C10.8617 11.997 10.2924 12.2102 9.84875 12.5996C9.58298 12.832 9.36972 13.1191 9.22331 13.4416C9.07691 13.764 9.00076 14.1144 9 14.469V27.9599C9.00106 28.3141 9.07691 28.6639 9.22249 28.9862C9.36808 29.3085 9.58007 29.5959 9.84437 29.8293C10.29 30.2183 10.8604 30.4313 11.45 30.4289H26.4169C26.8097 31.4763 27.5092 32.3787 28.4226 33.0165C29.3359 33.6543 30.4201 33.9973 31.5312 34V32.2365C30.7917 32.24 30.0678 32.0211 29.4523 31.6079C28.8367 31.1947 28.3574 30.6059 28.0756 29.9168C27.7938 29.2277 27.7223 28.4696 27.8703 27.7393C28.0183 27.0091 28.3789 26.3399 28.9062 25.8172C29.2596 25.4632 29.6808 25.1852 30.1441 25.0003C30.6074 24.8154 31.1031 24.7273 31.6012 24.7415C32.5939 24.785 33.5305 25.217 34.2119 25.9457C34.8933 26.6744 35.2658 27.6422 35.25 28.6433V30.2525C35.25 30.3694 35.2039 30.4816 35.1219 30.5643C35.0398 30.6469 34.9285 30.6934 34.8125 30.6934C34.6965 30.6934 34.5852 30.6469 34.5031 30.5643C34.4211 30.4816 34.375 30.3694 34.375 30.2525V28.489C34.3769 27.864 34.1765 27.2554 33.8043 26.7554C33.4321 26.2554 32.9083 25.8913 32.3124 25.7183C31.7164 25.5452 31.0807 25.5726 30.5015 25.7963C29.9224 26.02 29.4314 26.4279 29.1029 26.958C28.7744 27.4882 28.6264 28.1118 28.6812 28.7344C28.736 29.357 28.9906 29.9446 29.4066 30.4082C29.8226 30.8718 30.3771 31.1862 30.9863 31.3037C31.5955 31.4212 32.2261 31.3354 32.7825 31.0593C32.9713 31.5334 33.3177 31.9267 33.7624 32.1719C34.2071 32.4171 34.7225 32.4991 35.2205 32.4038C35.7186 32.3086 36.1683 32.042 36.4929 31.6496C36.8174 31.2572 36.9967 30.7633 37 30.2525V28.6433C36.9989 27.682 36.758 26.7364 36.2992 25.8936C35.8405 25.0507 35.1788 24.3377 34.375 23.8201V23.8201ZM30.945 13.7636L23.1137 20.1167C22.7085 20.4422 22.2057 20.6194 21.6875 20.6194C21.1693 20.6194 20.6665 20.4422 20.2612 20.1167L12.43 13.7636H30.945ZM32.625 23.097C32.2984 23.0259 31.9659 22.9861 31.6319 22.978C30.2156 22.9499 28.8446 23.4816 27.8125 24.4593L25.0081 22.4754L24.0019 23.9215L26.7319 25.8481C26.2928 26.6594 26.064 27.5693 26.0669 28.4934C26.0669 28.5551 26.0669 28.6124 26.0669 28.6697H12.6531L19.3775 23.9215L18.3756 22.4754L10.75 27.8541V14.663L19.1631 21.4878C19.8801 22.0644 20.7702 22.3785 21.6875 22.3785C22.6048 22.3785 23.4949 22.0644 24.2119 21.4878L32.625 14.663V23.097ZM31.5312 29.5912C31.3149 29.5912 31.1035 29.5265 30.9236 29.4054C30.7437 29.2843 30.6035 29.1122 30.5208 28.9108C30.438 28.7094 30.4163 28.4878 30.4585 28.274C30.5007 28.0602 30.6049 27.8638 30.7579 27.7096C30.9108 27.5555 31.1057 27.4505 31.3179 27.408C31.53 27.3654 31.75 27.3873 31.9498 27.4707C32.1497 27.5541 32.3205 27.6954 32.4407 27.8766C32.5609 28.0579 32.625 28.271 32.625 28.489C32.625 28.7813 32.5098 29.0617 32.3046 29.2684C32.0995 29.4751 31.8213 29.5912 31.5312 29.5912V29.5912Z" fill="#6A5EEE"/>
</svg>
