<svg width="44" height="44" viewBox="0 0 44 44" fill="none" xmlns="http://www.w3.org/2000/svg">
<circle cx="22" cy="22" r="22" fill="#E1FFE8"/>
<path fill-rule="evenodd" clip-rule="evenodd" d="M29.15 20.329L19.4 21.9395V28.368C19.4 30.2788 17.6186 31.75 15.5 31.75C13.3814 31.75 11.6 30.2788 11.6 28.368C11.6 26.4573 13.3814 24.986 15.5 24.986C16.2051 24.986 16.8728 25.149 17.45 25.4369V14.5047L31.1 12.25V27.4017C31.1 29.3125 29.3186 30.7837 27.2 30.7837C25.0814 30.7837 23.3 29.3125 23.3 27.4017C23.3 25.491 25.0814 24.0197 27.2 24.0197C27.9051 24.0197 28.5728 24.1827 29.15 24.4706V20.329ZM15.5 29.8174C16.6122 29.8174 17.45 29.1256 17.45 28.368C17.45 27.6105 16.6122 26.9186 15.5 26.9186C14.3877 26.9186 13.55 27.6105 13.55 28.368C13.55 29.1256 14.3877 29.8174 15.5 29.8174ZM27.2 28.8512C28.3122 28.8512 29.15 28.1593 29.15 27.4017C29.15 26.6442 28.3122 25.9523 27.2 25.9523C26.0877 25.9523 25.25 26.6442 25.25 27.4017C25.25 28.1593 26.0877 28.8512 27.2 28.8512ZM19.4 16.1418V19.9802L29.15 18.3698V14.5313L19.4 16.1418Z" fill="#1DBF3F"/>
</svg>
