<svg width="30" height="30" viewBox="0 0 30 30" fill="none" xmlns="http://www.w3.org/2000/svg">
<circle cx="15" cy="15" r="15" fill="#FFECE6"/>
<g clip-path="url(#clip0_16447_7506)">
<path d="M21.6945 10.7766L15.3055 7.08018C15.1173 6.97002 14.8827 6.97002 14.6945 7.08018L8.30552 10.7766C8.11732 10.8843 8 11.0875 8 11.3054V18.6934C8 18.9113 8.11732 19.1145 8.30552 19.2246L9.67668 20.0178C9.96997 20.1867 10.3415 20.0863 10.5126 19.7926C10.6812 19.4988 10.581 19.1267 10.2877 18.9553L9.52758 18.5147C9.33939 18.407 9.22207 18.2063 9.22207 17.9884V12.0129C9.22207 11.795 9.33939 11.5918 9.52758 11.4817L14.6945 8.49511C14.8827 8.38495 15.1173 8.38495 15.3055 8.49511L20.4724 11.4817C20.6606 11.5918 20.7779 11.7925 20.7779 12.0129V17.9884C20.7779 18.2063 20.6606 18.4094 20.4724 18.5196L15.3055 21.5061C15.1173 21.6163 14.8827 21.6163 14.6945 21.5061L13.8073 20.9945C13.514 20.8256 13.1425 20.926 12.9714 21.2197C12.8027 21.5135 12.9029 21.8856 13.1962 22.0569L14.6945 22.9235C14.8827 23.0337 15.1173 23.0337 15.3055 22.9235L21.6945 19.2295C21.8827 19.1194 22 18.9186 22 18.6983V11.3054C22 11.0875 21.8827 10.8843 21.6945 10.7766Z" fill="#EF6959"/>
<path d="M11.7522 21.1153C12.1099 21.1153 12.3999 20.8249 12.3999 20.4666C12.3999 20.1083 12.1099 19.8179 11.7522 19.8179C11.3945 19.8179 11.1045 20.1083 11.1045 20.4666C11.1045 20.8249 11.3945 21.1153 11.7522 21.1153Z" fill="#EF6959"/>
<path d="M13.2375 13.1646C13.1128 13.1646 13.0077 13.2086 12.9197 13.2992C12.8317 13.3873 12.7877 13.4926 12.7877 13.6174V15.1425L11.2773 13.3286C11.2162 13.2576 11.1404 13.2086 11.05 13.1841C10.9595 13.1597 10.8666 13.1621 10.7787 13.1964C10.6907 13.2282 10.6173 13.2845 10.5636 13.3604C10.5098 13.4387 10.4805 13.5244 10.4805 13.6199V16.3885C10.4805 16.5134 10.5245 16.6211 10.6125 16.7092C10.7004 16.7973 10.808 16.8414 10.9326 16.8414C11.0548 16.8414 11.1624 16.7973 11.2504 16.7092C11.3384 16.6211 11.3824 16.5134 11.3824 16.3885V14.8634L12.8904 16.6774C12.9784 16.7851 13.0957 16.8414 13.235 16.8414C13.2863 16.8414 13.3377 16.8316 13.389 16.8145C13.4794 16.7827 13.5503 16.7264 13.6041 16.648C13.6578 16.5697 13.6872 16.4816 13.6872 16.3885V13.6174C13.6872 13.495 13.6432 13.3873 13.5552 13.2992C13.4696 13.2111 13.3621 13.1646 13.2375 13.1646Z" fill="#EF6959"/>
<path d="M16.2343 14.0649C16.3565 14.0649 16.4641 14.0209 16.5545 13.9327C16.6425 13.8446 16.6865 13.7393 16.6865 13.6145C16.6865 13.4921 16.6425 13.3844 16.5545 13.2963C16.4665 13.2081 16.359 13.1616 16.2343 13.1616H14.5528C14.4281 13.1616 14.3206 13.2057 14.2326 13.2963C14.1446 13.3844 14.1006 13.4897 14.1006 13.6145V16.3832C14.1006 16.508 14.1446 16.6157 14.2326 16.7038C14.3206 16.792 14.4281 16.836 14.5528 16.836C14.675 16.836 14.7825 16.792 14.8705 16.7038C14.9585 16.6157 15.0025 16.508 15.0025 16.3832V15.4505H16.1585C16.2808 15.4505 16.3883 15.4064 16.4787 15.3183C16.5667 15.2302 16.6107 15.1249 16.6107 15.0001C16.6107 14.8752 16.5667 14.7675 16.4787 14.6794C16.3907 14.5912 16.2832 14.5496 16.161 14.5496H15.0049V14.0649H16.2343Z" fill="#EF6959"/>
<path d="M19.5283 13.2987C19.4403 13.2106 19.3328 13.1641 19.2081 13.1641H17.3799C17.2552 13.1641 17.1477 13.2081 17.0597 13.2987C16.9717 13.3868 16.9277 13.4921 16.9277 13.6169C16.9277 13.7393 16.9717 13.847 17.0597 13.9352C17.1477 14.0233 17.2552 14.0674 17.3799 14.0674H17.8418V16.3856C17.8418 16.5104 17.8858 16.6182 17.9738 16.7063C18.0618 16.7944 18.1694 16.8385 18.2916 16.8385C18.4138 16.8385 18.5213 16.7944 18.6093 16.7063C18.6973 16.6182 18.7413 16.5104 18.7413 16.3856V14.0674H19.2057C19.3279 14.0674 19.4354 14.0233 19.5258 13.9352C19.6138 13.847 19.6578 13.7418 19.6578 13.6169C19.6603 13.4921 19.6163 13.3868 19.5283 13.2987Z" fill="#EF6959"/>
</g>
<defs>
<clipPath id="clip0_16447_7506">
<rect width="14" height="16" fill="white" transform="translate(8 7)"/>
</clipPath>
</defs>
</svg>
