<svg width="44" height="44" viewBox="0 0 44 44" fill="none" xmlns="http://www.w3.org/2000/svg">
<circle cx="22" cy="22" r="22" fill="#FFECEE"/>
<path d="M26.2712 23.499C23.887 21.2348 22.1605 18.647 22.1605 18.647C22.8182 17.6767 24.3803 12.0969 21.9961 10.4796C19.6119 8.86224 18.3787 11.8543 18.3787 11.8543C17.3099 15.5741 19.8585 18.9705 19.8585 18.9705L16.981 25.1972C16.6522 25.1972 7.52638 28.6745 10.6505 32.9604C13.8569 37.2463 18.2964 26.8954 18.2964 26.8954C20.0229 26.3293 25.2846 25.6015 25.2846 25.6015C27.34 28.351 29.8064 29.2405 29.8064 29.2405C33.5883 30.2109 33.9994 27.138 33.9994 27.138C34.0816 23.0947 26.2712 23.499 26.2712 23.499ZM12.2126 31.5048C12.1304 31.5048 12.1304 31.4239 12.1304 31.4239C11.6371 30.2918 15.4189 28.1084 15.4189 28.1084C15.4189 28.1084 13.3636 31.99 12.2126 31.5048ZM20.7629 11.9352C21.8317 12.9055 20.9273 16.2211 20.9273 16.2211C20.9273 16.2211 19.6941 12.9055 20.7629 11.9352ZM19.7763 24.4694L21.2562 20.9113L23.5581 23.6607L19.7763 24.4694ZM31.944 27.0571C31.2863 28.1084 28.5732 25.8441 28.3266 25.6015C28.7376 25.6015 32.2729 25.8441 31.944 27.0571Z" fill="#FF546A"/>
</svg>
