<svg width="44" height="44" viewBox="0 0 44 44" fill="none" xmlns="http://www.w3.org/2000/svg">
<circle cx="22" cy="22" r="22" fill="#FFECEE"/>
<path d="M32.1984 11.5186C31.8878 11.2593 31.513 11.0893 31.1138 11.0268C30.7145 10.9643 30.3059 11.0116 29.9313 11.1636L10.3808 19.0854C9.96265 19.258 9.60675 19.5542 9.36029 19.9346C9.11383 20.315 8.98847 20.7616 9.00083 21.2152C9.0132 21.6687 9.16272 22.1078 9.42954 22.4741C9.69637 22.8404 10.0679 23.1165 10.4948 23.266L14.4494 24.6463L16.6536 31.9618C16.6836 32.0595 16.7271 32.1526 16.7828 32.2382C16.7912 32.2513 16.8032 32.2611 16.8122 32.2738C16.8765 32.364 16.9543 32.4437 17.0428 32.5101C17.068 32.5293 17.0921 32.5474 17.119 32.5645C17.2226 32.6334 17.3372 32.6838 17.458 32.7135L17.4709 32.7146L17.4782 32.7177C17.5508 32.7325 17.6247 32.7401 17.6987 32.7402C17.7059 32.7402 17.7122 32.7368 17.7193 32.7366C17.831 32.7347 17.9418 32.7154 18.0477 32.6794C18.0724 32.6709 18.0935 32.6568 18.1174 32.6467C18.1963 32.6138 18.2711 32.5717 18.3402 32.5213C18.3956 32.4745 18.4509 32.4277 18.5063 32.3809L21.4542 29.1145L25.851 32.5328C26.238 32.8352 26.7145 32.9996 27.205 33C27.7191 32.9993 28.2172 32.8213 28.616 32.4959C29.0149 32.1704 29.29 31.7172 29.3955 31.2123L32.9548 13.6763C33.0355 13.2816 33.0077 12.8723 32.8745 12.4923C32.7413 12.1122 32.5076 11.7757 32.1984 11.5186V11.5186ZM18.1313 24.9949C17.9801 25.1461 17.8767 25.3388 17.8341 25.5487L17.4964 27.1954L16.6411 24.3563L21.076 22.0386L18.1313 24.9949ZM27.188 30.8017L21.9922 26.7622C21.7748 26.5937 21.5021 26.5135 21.2285 26.5376C20.9548 26.5618 20.7003 26.6886 20.5156 26.8927L19.5715 27.9385L19.9052 26.311L27.6323 18.5561C27.8167 18.3712 27.9291 18.1262 27.949 17.8654C27.969 17.6045 27.8952 17.3452 27.741 17.1342C27.5869 16.9233 27.3625 16.7747 27.1086 16.7154C26.8548 16.6562 26.5881 16.6901 26.357 16.8112L15.2673 22.6059L11.2043 21.1137L30.8177 13.2389L27.188 30.8017Z" fill="#FF546A"/>
</svg>
