<svg width="16" height="17" viewBox="0 0 16 17" fill="none" xmlns="http://www.w3.org/2000/svg">
<path d="M0 5.5C0 4.39543 0.895431 3.5 2 3.5V13.5C0.895431 13.5 0 12.6046 0 11.5V5.5Z" fill="#878CAC"/>
<path d="M16 11.5C16 12.6046 15.1046 13.5 14 13.5L14 3.5C15.1046 3.5 16 4.39543 16 5.5L16 11.5Z" fill="#878CAC"/>
<path d="M13 14.5C13 15.6046 12.1046 16.5 11 16.5L5 16.5C3.89543 16.5 3 15.6046 3 14.5L3 2.5C3 1.39543 3.89543 0.499997 5 0.499997L11 0.499998C12.1046 0.499998 13 1.39543 13 2.5L13 14.5Z" fill="#878CAC"/>
</svg>
