<svg width="48" height="49" viewBox="0 0 48 49" fill="none" xmlns="http://www.w3.org/2000/svg">
<g clip-path="url(#clip0)">
<path d="M24 48.8877C37.2548 48.8877 48 38.1425 48 24.8877C48 11.6329 37.2548 0.887695 24 0.887695C10.7452 0.887695 0 11.6329 0 24.8877C0 38.1425 10.7452 48.8877 24 48.8877Z" fill="#F0F0F0"/>
<path d="M4.96162 10.2751C3.0764 12.7279 1.65487 15.555 0.827148 18.6261H13.3126L4.96162 10.2751Z" fill="#0052B4"/>
<path d="M47.1737 18.6263C46.346 15.5552 44.9244 12.7282 43.0393 10.2754L34.6885 18.6263H47.1737Z" fill="#0052B4"/>
<path d="M0.827148 31.1475C1.65496 34.2185 3.07649 37.0456 4.96162 39.4982L13.3123 31.1475H0.827148Z" fill="#0052B4"/>
<path d="M38.6126 5.84819C36.1598 3.96297 33.3329 2.54144 30.2617 1.71362V14.199L38.6126 5.84819Z" fill="#0052B4"/>
<path d="M9.38867 43.9261C11.8415 45.8113 14.6685 47.2329 17.7395 48.0607V35.5754L9.38867 43.9261Z" fill="#0052B4"/>
<path d="M17.7395 1.71362C14.6684 2.54144 11.8414 3.96297 9.38867 5.84809L17.7395 14.1989V1.71362Z" fill="#0052B4"/>
<path d="M30.2617 48.0607C33.3328 47.2329 36.1598 45.8113 38.6125 43.9262L30.2617 35.5754V48.0607Z" fill="#0052B4"/>
<path d="M34.6885 31.1475L43.0393 39.4983C44.9244 37.0456 46.346 34.2185 47.1737 31.1475H34.6885Z" fill="#0052B4"/>
<path d="M47.7968 21.7573H27.1306H27.1305V1.09085C26.1057 0.957445 25.061 0.887695 24 0.887695C22.9388 0.887695 21.8943 0.957445 20.8696 1.09085V21.7571V21.7572H0.203156C0.06975 22.782 0 23.8267 0 24.8877C0 25.9489 0.06975 26.9934 0.203156 28.0181H20.8694H20.8695V48.6845C21.8943 48.8179 22.9388 48.8877 24 48.8877C25.061 48.8877 26.1057 48.818 27.1304 48.6845V28.0183V28.0182H47.7968C47.9303 26.9934 48 25.9489 48 24.8877C48 23.8267 47.9303 22.782 47.7968 21.7573Z" fill="#D80027"/>
<path d="M30.2607 31.1485L40.9704 41.8582C41.4629 41.3658 41.9328 40.851 42.3811 40.3174L33.2122 31.1484H30.2607V31.1485Z" fill="#D80027"/>
<path d="M17.74 31.1488H17.7398L7.03027 41.8583C7.52265 42.3509 8.03743 42.8208 8.57105 43.2691L17.74 34.1V31.1488Z" fill="#D80027"/>
<path d="M17.7395 18.6267V18.6265L7.02989 7.91675C6.53733 8.40912 6.06745 8.9239 5.61914 9.45753L14.7882 18.6266H17.7395V18.6267Z" fill="#D80027"/>
<path d="M30.2607 18.6272L40.9705 7.91737C40.4781 7.42481 39.9633 6.95493 39.4297 6.50671L30.2607 15.6757V18.6272Z" fill="#D80027"/>
</g>
<defs>
<clipPath id="clip0">
<rect width="48" height="48" fill="white" transform="translate(0 0.887695)"/>
</clipPath>
</defs>
</svg>
