<svg width="48" height="49" fill="none" xmlns="http://www.w3.org/2000/svg"><g clip-path="url(#a)"><path d="M0 24.036c0 2.936.528 5.748 1.493 8.348L24 34.471l22.507-2.087A23.948 23.948 0 0 0 48 24.036c0-2.935-.528-5.748-1.493-8.348L24 13.602 1.493 15.688A23.949 23.949 0 0 0 0 24.037Z" fill="#FFDA44"/><path d="M46.509 15.687C43.117 6.548 34.32.035 24 .035 13.682.035 4.885 6.548 1.494 15.687H46.51ZM1.494 32.383c3.391 9.139 12.188 15.652 22.507 15.652 10.32 0 19.116-6.513 22.508-15.652H1.494Z" fill="#D80027"/></g><defs><clipPath id="a"><path fill="#fff" transform="translate(0 .035)" d="M0 0h48v48H0z"/></clipPath></defs></svg>