<svg width="48" height="49" fill="none" xmlns="http://www.w3.org/2000/svg"><g clip-path="url(#a)"><path d="M24 48.014c13.255 0 24-10.745 24-24s-10.745-24-24-24-24 10.745-24 24 10.745 24 24 24Z" fill="#D80027"/><path d="m13.134 14.62 2.072 6.374h6.703l-5.418 3.947 2.072 6.375-5.429-3.937-5.428 3.937 2.081-6.375-5.428-3.947h6.704l2.071-6.374ZM28.454 37.185l-1.585-1.95-2.343.91 1.36-2.11-1.585-1.959 2.428.647 1.369-2.11.13 2.513 2.438.647-2.353.9.14 2.512ZM31.604 31.467l.75-2.4-2.053-1.454 2.512-.037.74-2.4.817 2.381 2.512-.028-2.016 1.5.807 2.381-2.053-1.453-2.016 1.51ZM35.85 17.63l-1.107 2.259 1.8 1.753-2.484-.356-1.107 2.25-.43-2.475-2.495-.357 2.232-1.172-.432-2.484 1.8 1.753 2.222-1.172ZM28.518 10.785l-.187 2.504 2.334.946-2.447.6-.178 2.513-1.322-2.138-2.447.6 1.622-1.921-1.33-2.129 2.334.947 1.621-1.922Z" fill="#FFDA44"/></g><defs><clipPath id="a"><path fill="#fff" transform="translate(0 .014)" d="M0 0h48v48H0z"/></clipPath></defs></svg>
