<svg width="48" height="48" fill="none" xmlns="http://www.w3.org/2000/svg"><path d="M24 48c13.255 0 24-10.745 24-24S37.255 0 24 0 0 10.745 0 24s10.745 24 24 24Z" fill="#006233"/><path fill-rule="evenodd" clip-rule="evenodd" d="m28.825 18.995-.301.413c.195 1.743.48 3.457.511 5.245-.601.64-1.465.406-1.646-.308 0-.33-.037-.646-.105-.947.624-.398 1.157-.939 1.09-1.405-.143-.932-.677-1.488-1.24-.789-.571.714-.03.91 1.03.842-.076.293-.482.669-.985.962a7.13 7.13 0 0 0-.556-1.218l-.248.413c.142.316.285.654.413 1.015a3.05 3.05 0 0 1-.79.24 34.555 34.555 0 0 0-.157-3.193c.511-.556-.045-.549-.24-1.143-.09.346-.301.722-.098.992.113 1.105.188 2.225.21 3.36-.608-.023-.97-.489-.458-1.797-.932 1.068-.511 2.247.473 2.315v.519a7.242 7.242 0 0 1-1.18.721c-.067-.233-.052-.578.083-1.044-.27.435-.376.841-.353 1.164a3.562 3.562 0 0 1-.406.128c.053-.15.09-.316.105-.488.106-1.158-.713-1.218-1.645-1.225l.067-.203c-.037.067-.075.135-.105.203h-.48c-.287-.008-.595-.008-.85-.098a.378.378 0 0 1-.053.06l-.233.323c.075-.12.15-.225.233-.323l.045-.06h.008c.218-.248.45-.42.684-.556.203.15.42.293.684.323.774-.15.984-.541 1.247-.91 0-.525-.015-1.405-.143-2.276.526-.541-.03-.549-.203-1.15-.105.345-.323.714-.127.984.112.782.112 1.593.172 2.458-.443.323-.841.368-1.217.345-.008 0-.008.008-.015.008l.008-.008h.007c.428-.203.774-.338.834-.638-.21-.722-2.307-.511-2.532.398.39-.158.684-.015.962.195a7.62 7.62 0 0 0-.624.857l.082-.135c-.142-.12-.24-.308-.413-.549-.022.105-.173.3-.158.504.106.143.196.315.323.458v-.007.007c-.18.338-.3.646-.36.932-.015.015-.038.03-.053.045-.796.661-2.427.706-1.75-1.12-.88 1.203-.249 1.984.66 2.044.286.023.714-.157 1.09-.443.023.962.797 1.465 1.638 1.473.7.008 1.45-.338 1.872-.954.022 0 .045-.008.075-.008.218-.038.45-.105.691-.195.369.608 1.503.488 2.728-1.263.413 1.871 2 .707 2.097.308.173-1.225.082-3.201-.263-4.757 1.383 2.172 1.428 3.743.691 4.795-.819 1.165-2.592 1.713-4.298 2.172 4.952.09 6.53-4.269 3.472-8.011Zm-1.045 2.532c-.03.06-.323.128-.511.015-.068-.037.03-.248.158-.24.18 0 .413.09.353.225Zm-5.629.857c-.12.075-.24.158-.338.248a2.758 2.758 0 0 1-.406-.24c.128-.113.586-.188.744-.008Zm-.383.458-.33-.022c.097 0 .21.015.33.022Zm1.984 2.12a1.468 1.468 0 0 1-.173.548c-.067.008-.135.008-.203.008-.864-.008-1.217-.511-1.15-1.233.534-.015 1.586-.052 1.526.677Zm-3.224-1 .045-.075c-.015.03-.03.052-.045.075Zm.068.233c.037.226-.053.36-.218.526.06-.203.135-.376.218-.526Zm-.339 1.105c.346-.308.61-.714.617-1.158.27.098.661.15 1.21.143-.331 1.09.27 1.631 1.142 1.661a2.333 2.333 0 0 1-1.353.534c-.819.052-1.608-.511-1.616-1.18Zm4.547.24c.45-.233.88-.54 1.187-.917v-.668c.248-.045.572-.173.91-.346.06.233.105.48.128.729-.857.94-1.774 1.42-2.225 1.202Z" fill="#fff"/><path fill-rule="evenodd" clip-rule="evenodd" d="M24.105 18.987c-.105.338-.323.714-.128.985.09 1.473.173 2.945.188 4.418.12-.067.263-.097.316-.353-.015-1.375-.038-2.938-.18-3.9.533-.541-.023-.549-.196-1.15ZM18.522 21.422c.203-.428.593-.646.826-.646.571.158.391.654 1.007.669.308 0 .564-.21.91-.73.075-.037.157.046.18.076.15.278.368.323.564.315.315-.007.616-.308.69-.63-.007-.241-.06-.407-.18-.647l-.21.406c.12.037.105.195.135.3-.465.459-.819-.045-.871-.225-.015-.045-.038-.173-.113-.158-.353.534-.707.797-1.082.804-.79.008-.541-.646-.932-.661-.428 0-.842.526-1.007.819-.218.383-.376.751-.549.767-.24.014-.466-.504-.51-1.383-.309.916.383 2.886 1.142.924ZM20.04 17.883c.037-.076.082-.053.112.007.3.624.917.842 1.578.872.556.03 1.263-.196 2.022-.579.203.203.36.428.781.474.15.007.308-.023.451-.076v-.015l.053-.022v.015c.3-.12.549-.353.631-.609.06-.21.075-.616-.173-.624-.248-.007-.45.406-.503.895v.015-.03a.764.764 0 0 1-.895-.15c.301-.053.534-.159.61-.369-.136-.278-.46-.398-.918-.406-.608.015-.924.24-.962.541.286.008.534-.06.647.188-.504.226-1.09.3-1.729.3-1.044.053-1.202-.383-1.473-.758-.022-.023-.112-.068-.157-.06-.324 0-.564 1.03-.925 1.022-.36-.045-.285-.662-.39-1.015-.083.556.112 2.615 1.24.384Zm5.425-.264c.038.233.045.361-.285.512.052-.218.082-.399.285-.512Zm-1.307.12c-.136.046-.218.068-.286.12-.098-.067-.225-.104-.323-.195.225-.09.443-.127.609.076ZM25 18.724c.007-.007.044-.165.044-.165l-.052.022c0 .053 0 .098.007.143ZM26.668 18.927l-.06-.015.067.286h.053l-.023-.27c.06.014.12.014.18.014.557-.022 1.18-.518 2.06-.827.052-.03.248-.24.052-.315-.353-.09-.713-.158-.992-.24-.345-.106-.586-.234-.954-.264-.353-.037-.744.203-.699.617.023.202.083.368.15.556-.157-.06-.248-.173-.323-.316a34.68 34.68 0 0 0-.112-2.382c-.06.097-.09.18-.218.3.082.579.112 1.503.135 2.285.21.323.436.51.684.571Zm.293-1.338c.473.113.902.263 1.323.429l-1.218.518c-.466.12-.413-.24-.458-.466-.045-.263-.015-.556.353-.48Z" fill="#fff"/><path fill-rule="evenodd" clip-rule="evenodd" d="m19.386 22.121.256-.21-.279-.21-.24.225.263.195ZM19.994 22.046l.256-.203-.278-.218-.24.226.262.195ZM18.567 19.536l-.278-.218-.24.225.262.196.256-.203ZM18.154 20.197l.263.195.255-.202-.278-.218-.24.225ZM22.715 21.482l.233-.15-.203-.203-.218.165.188.188ZM19.942 17.093l-.18-.142-.15.15.165.128.165-.136ZM20.34 17.048l-.18-.142-.158.142.173.128.166-.128ZM28.209 18.83l.15-.12-.143-.121-.15.105.143.135Z" fill="#fff"/><path d="M24 31.079c4.825 0 8.755-3.57 8.755-7.966 0-2.412-1.187-4.57-3.05-6.027A6.553 6.553 0 0 1 31.5 21.58c0 3.81-3.36 6.906-7.5 6.906-4.148 0-7.5-3.096-7.5-6.906 0-1.713.677-3.292 1.796-4.494-1.863 1.458-3.05 3.615-3.05 6.027 0 4.389 3.93 7.966 8.754 7.966ZM22.813 35.511c-1.928.877-4.343.636-6.383-.558-.085-.04-.128.023-.042.24.222.582.392 1.04-.265 1.893-.281.38.043.443.53.396 2.457-.217 4.872-.721 6.032-1.14l.128-.83Z" fill="#fff"/><path d="M16.422 37.552c-.248 0-.384-.047-.435-.14-.052-.085-.017-.202.094-.357.64-.83.469-1.28.256-1.846-.06-.156-.069-.256-.017-.303.017-.015.06-.039.136-.008 2.074 1.218 4.437 1.42 6.34.559l.094-.039-.154.97-.025.008c-1.067.388-3.413.907-6.05 1.14-.094.008-.17.016-.24.016Zm-.026-2.56c0 .015 0 .062.043.178.222.574.401 1.07-.273 1.947-.077.109-.111.194-.085.24.025.055.153.11.563.078 2.602-.232 4.915-.744 5.99-1.125l.111-.713c-1.92.83-4.275.612-6.34-.605h-.009Z" fill="#000"/><path d="M22.77 36.543c-.767.28-2.081.62-3.549.861-.589.078-.572.42.486.536 1.076.1 2.458-.598 3.294-1.218l-.23-.179Z" fill="#fff"/><path d="M19.913 38.01c-.077 0-.146 0-.222-.008-.58-.07-.922-.21-.922-.388 0-.124.154-.217.435-.256 1.587-.256 2.876-.613 3.542-.854l.025-.007.299.24-.051.039c-.785.582-2.048 1.233-3.106 1.233Zm2.85-1.405c-.862.31-2.21.636-3.533.854-.256.03-.35.108-.35.155 0 .054.154.202.828.28.981.092 2.295-.513 3.2-1.165l-.145-.124Z" fill="#000"/><path d="M24 34.627c.265 0 .743-.101 1.23-.163.896-.14.238 1.117-1.23 1.117v.42c1.494 0 3.047-1.475 2.723-2.134-.46-.955-1.732-.14-2.722-.14s-2.262-.815-2.722.14C20.946 34.526 22.508 36 24 36v-.419c-1.468 0-2.125-1.257-1.229-1.117.486.07.964.163 1.229.163Z" fill="#fff"/><path d="M24.052 36.062h-.103c-1.058-.023-2.159-.768-2.585-1.458-.18-.295-.23-.559-.128-.753.333-.69 1.066-.512 1.775-.334.332.086.682.163.99.163.307 0 .657-.085.99-.163.708-.17 1.442-.349 1.774.334.094.194.052.458-.128.753-.426.69-1.527 1.435-2.585 1.458Zm0-.419v.31c1.015-.023 2.082-.744 2.492-1.411.162-.257.204-.49.128-.652-.29-.613-.956-.45-1.656-.28-.341.086-.691.171-1.015.171-.325 0-.675-.085-1.016-.17-.7-.171-1.357-.334-1.655.279-.077.163-.034.388.128.652.41.667 1.476 1.38 2.491 1.412v-.31c-.879-.016-1.425-.466-1.578-.769-.069-.14-.077-.264-.009-.349.051-.07.162-.147.427-.1.179.023.358.046.537.077.282.046.53.085.683.085.162 0 .401-.039.683-.085.17-.023.35-.054.537-.078.256-.039.376.031.427.101.06.085.06.21-.008.35-.163.302-.717.752-1.596.767Zm-1.408-1.133c-.103 0-.17.024-.205.07-.034.055-.034.14.017.24.145.28.683.715 1.545.715.861 0 1.399-.435 1.544-.714.051-.101.06-.186.017-.24-.043-.063-.162-.086-.324-.063-.18.024-.358.055-.538.078-.29.046-.537.085-.7.085a4.99 4.99 0 0 1-.7-.085c-.17-.023-.349-.054-.537-.078-.042 0-.085-.008-.12-.008Z" fill="#000"/><path d="M25.186 35.511c1.93.877 4.344.636 6.384-.558.085-.04.128.023.042.24-.222.582-.392 1.04.265 1.893.281.38-.043.443-.53.396-2.457-.217-4.872-.721-6.033-1.14l-.128-.83Z" fill="#fff"/><path d="M31.578 37.552c-.068 0-.145 0-.23-.008-2.637-.233-4.984-.752-6.05-1.14l-.026-.008-.154-.97.094.039c1.903.861 4.267.66 6.332-.559.077-.039.12-.008.136.008.052.047.043.14-.017.295-.213.566-.384 1.008.256 1.846.111.148.145.264.094.357-.051.093-.188.14-.435.14Zm-6.212-1.242c1.075.38 3.387.893 5.99 1.125.41.032.538-.023.563-.077.026-.047-.008-.132-.085-.24-.674-.877-.486-1.374-.273-1.948.043-.116.043-.163.043-.178 0 0-.009 0-.018.007-2.056 1.21-4.42 1.428-6.34.598l.12.713Z" fill="#000"/><path d="M25.228 36.543c.768.28 2.066.62 3.55.861.59.078.572.42-.486.535-1.075.101-2.458-.597-3.294-1.218l.23-.178Z" fill="#fff"/><path d="M28.087 38.01c-1.058 0-2.313-.652-3.106-1.242l-.051-.039.298-.24.026.008c.879.318 2.21.644 3.541.853.282.039.435.132.435.256 0 .178-.34.318-.921.388a2.294 2.294 0 0 1-.222.015Zm-2.995-1.288c.896.651 2.219 1.256 3.2 1.163.674-.077.827-.232.827-.279 0-.039-.093-.116-.34-.147-1.332-.218-2.646-.528-3.534-.854l-.153.117Z" fill="#000"/><path d="M24.068 36.35c.043.34.111 1.078.615.76.682-.42.836-.738.836-1.335 0-.38-.504-.939-1.51-.939-1.008 0-1.511.559-1.511.939 0 .597.154.916.836 1.334.504.319.546-.419.615-.76.008-.124.12-.085.12 0Z" fill="#fff"/><path d="M24.46 37.234a.296.296 0 0 1-.119-.024c-.23-.108-.281-.527-.316-.806l-.008-.055c0-.015-.009-.023-.017-.023 0 0-.009.008-.009.031a2.387 2.387 0 0 0-.025.14c-.043.279-.103.628-.316.721-.102.047-.222.023-.358-.062-.658-.403-.862-.73-.862-1.38 0-.42.546-.994 1.57-.994s1.57.574 1.57.993c0 .652-.205.978-.862 1.381a.485.485 0 0 1-.247.078ZM24 34.883c-.956 0-1.46.512-1.46.884 0 .551.12.87.811 1.296.103.07.197.085.256.054.154-.07.214-.403.248-.644.008-.054.017-.1.025-.14.017-.092.077-.123.128-.116a.13.13 0 0 1 .111.124l.009.047c.034.24.077.636.256.721.068.032.162.016.264-.054.692-.426.811-.745.811-1.295 0-.365-.503-.877-1.46-.877Z" fill="#000"/><path d="M23.36 10.78c-.285-1.48-2.674-1.577-3.05-1.818-.436-.263-.376 0-.218.399.436 1.037 1.931 1.457 2.608 1.578.556.075.729.12.66-.158Z" fill="#fff"/><path d="M23.203 11.051c-.098 0-.24-.022-.42-.045l-.084-.015c-.36-.06-2.156-.436-2.652-1.608-.12-.308-.166-.473-.076-.549.068-.052.18-.03.369.083.082.053.308.105.57.165.857.203 2.285.534 2.503 1.684.015.075.03.165-.022.225-.038.038-.098.06-.188.06ZM20.054 8.91h-.015c-.023.015-.023.105.105.428.474 1.12 2.225 1.48 2.57 1.54l.076.015c.278.038.473.068.518.023.015-.015.015-.06 0-.128-.21-1.074-1.593-1.405-2.427-1.6-.293-.068-.504-.12-.601-.18-.136-.083-.196-.098-.226-.098Z" fill="#000"/><path d="M24.09 10.819c.24-1.519-2.127-2.233-2.412-2.578-.331-.36-.376-.143-.218.278.285.902 1.315 1.954 1.931 2.232.496.248.654.346.699.068Z" fill="#fff"/><path d="M23.955 11.036c-.106 0-.248-.067-.474-.18l-.113-.053c-.653-.3-1.675-1.375-1.961-2.27-.105-.285-.113-.458-.03-.518.075-.045.18.008.338.18.068.083.278.196.526.324.782.42 2.09 1.12 1.901 2.292-.007.068-.03.158-.105.195-.03.03-.052.03-.082.03ZM21.43 8.113c-.008.015-.023.113.075.39.285.91 1.337 1.947 1.901 2.203l.113.052c.233.113.405.196.458.166.023-.015.038-.053.053-.12.173-1.098-1.09-1.782-1.849-2.187-.278-.15-.473-.256-.549-.346-.142-.15-.195-.158-.203-.158Z" fill="#000"/><path d="M26.037 11.698c.218-1.819-1.713-2.097-2.217-2.676-.33-.36-.353-.158-.24.263.218.917 1.187 2 1.773 2.338.466.255.67.353.684.075Z" fill="#fff"/><path d="M25.917 11.915c-.12 0-.3-.097-.579-.255-.586-.338-1.578-1.42-1.803-2.367-.083-.308-.083-.459 0-.504.075-.037.172.015.33.196.136.157.391.293.677.45.721.391 1.713.932 1.548 2.263-.008.105-.038.165-.098.195a.127.127 0 0 1-.075.022ZM23.58 8.887s-.03.053.052.376c.218.917 1.188 1.976 1.751 2.3.24.135.489.27.556.232.03-.015.038-.067.038-.113.15-1.262-.759-1.758-1.495-2.156-.301-.166-.557-.3-.707-.474-.143-.158-.188-.165-.195-.165Z" fill="#000"/><path d="M25.45 11.3c-2-1.18-3.397-.52-3.968-.58-.549-.06-.722.264.218.737 1.165.579 2.788.496 3.42.278.653-.24.458-.36.33-.436Z" fill="#fff"/><path d="M23.864 11.953c-.714 0-1.533-.127-2.187-.45-.503-.256-.744-.497-.69-.677.037-.135.225-.195.503-.165.127.015.308-.015.533-.045.722-.106 1.924-.278 3.465.63.067.046.165.106.157.204-.007.113-.165.21-.496.338-.308.098-.766.165-1.285.165Zm-2.51-1.187c-.165 0-.255.045-.27.098-.03.09.12.293.639.548 1.195.594 2.818.474 3.381.278.391-.143.429-.225.429-.248 0-.03-.068-.075-.106-.097-1.503-.887-2.682-.722-3.389-.617-.233.03-.413.06-.556.045-.052-.007-.09-.007-.128-.007Z" fill="#000"/><path d="M28.456 12.096c-.616-1.954-2.037-1.639-2.457-1.879-.414-.24-.459-.18-.376.263.173.782 1.645 1.638 2.367 1.894.263.082.594.203.466-.278Z" fill="#fff"/><path d="M28.32 12.502c-.09 0-.202-.038-.307-.068l-.03-.007c-.73-.263-2.225-1.12-2.405-1.94-.053-.247-.06-.383.022-.443.083-.06.218 0 .429.12.09.053.24.076.413.106.594.098 1.586.27 2.067 1.803.052.18.037.301-.03.369a.21.21 0 0 1-.158.06Zm-2.652-2.368c-.008 0-.015 0-.015.008-.015.015-.03.083.022.33.166.737 1.586 1.586 2.338 1.857l.03.007c.135.046.308.09.36.038.038-.038.038-.128 0-.263-.458-1.473-1.375-1.623-1.984-1.729-.195-.03-.345-.06-.45-.12-.188-.105-.264-.128-.301-.128Z" fill="#000"/><path d="M28.171 12.434c-1.713-1.255-3.05-.316-3.577-.458-.398-.098-.218.142-.068.24 1.098.7 2.458 1.075 3.51.639.42-.158.436-.203.135-.42Z" fill="#fff"/><path d="M27.037 13.095c-.79 0-1.676-.285-2.54-.834-.098-.06-.233-.195-.188-.293.037-.09.188-.067.3-.037.136.037.346-.008.61-.068.69-.15 1.742-.383 2.982.534.166.12.241.188.233.27-.015.09-.127.15-.375.24a2.81 2.81 0 0 1-1.022.188Zm-2.63-1.09c.007.03.067.106.15.159 1.232.789 2.525 1.022 3.457.63.09-.037.3-.112.308-.157 0-.023-.06-.083-.188-.173-1.21-.887-2.225-.661-2.9-.518-.279.06-.497.105-.662.067-.113-.015-.15-.007-.166-.007Z" fill="#000"/><path d="M31.876 13.712c.022-1.24-2.788-1.759-3.382-2.518-.353-.458-.661-.218-.48.519.262.954 2.194 2.014 3.246 2.217.638.12.616-.075.616-.218Z" fill="#fff"/><path d="M31.583 14.02a2.2 2.2 0 0 1-.339-.038c-1.112-.21-3.028-1.307-3.291-2.254-.098-.421-.06-.722.113-.804.127-.06.3.022.458.233.218.278.774.533 1.36.804.962.443 2.044.947 2.03 1.743v.015c0 .068 0 .158-.076.226-.045.052-.128.075-.255.075Zm-3.412-3.006c-.015 0-.03 0-.045.007-.098.045-.15.27-.06.677.248.909 2.119 1.969 3.201 2.18.338.06.466.03.511-.008.038-.03.038-.076.038-.143v-.015c.015-.73-1.037-1.218-1.97-1.646-.593-.278-1.164-.534-1.397-.834-.098-.135-.203-.218-.278-.218Z" fill="#000"/><path d="M31.785 13.93c-1.773-1.458-3.269-.977-3.817-1.12-.549-.12-.767.18.09.781 1.052.722 2.675.857 3.36.722.676-.143.503-.286.367-.383Z" fill="#fff"/><path d="M30.831 14.41c-.826 0-1.999-.225-2.803-.773-.45-.316-.654-.587-.579-.76.06-.127.256-.172.534-.112.128.03.308.03.534.03.729-.008 1.938-.023 3.306 1.097.068.053.158.12.143.218-.023.105-.188.18-.534.256a3.44 3.44 0 0 1-.6.045Zm-3.073-1.57c-.12 0-.188.03-.21.075-.038.09.082.308.54.631 1.007.692 2.6.857 3.314.707.414-.083.451-.158.451-.173.008-.03-.067-.083-.098-.113-1.337-1.097-2.524-1.082-3.238-1.074-.233 0-.421.007-.557-.03a1.185 1.185 0 0 0-.203-.023Z" fill="#000"/><path d="M34.972 16.064c-.503-2.12-2.104-2.555-2.502-2.953-.376-.399-.767-.278-.436.676.398 1.135 1.69 2.134 2.367 2.375.654.263.609.067.571-.098Z" fill="#fff"/><path d="M34.86 16.342c-.106 0-.264-.045-.482-.128-.639-.225-1.991-1.225-2.397-2.404-.173-.496-.165-.827.007-.932.136-.083.331 0 .519.203.083.082.233.172.42.293.64.383 1.7 1.037 2.09 2.69.022.075.053.18-.023.248-.03.023-.075.03-.135.03Zm-2.759-3.39a.142.142 0 0 0-.06.016c-.098.06-.135.3.038.804.398 1.15 1.713 2.127 2.337 2.345.406.157.496.12.51.105.023-.023 0-.098-.007-.143-.383-1.608-1.42-2.247-2.044-2.623-.195-.12-.346-.21-.443-.308-.12-.127-.24-.195-.33-.195Z" fill="#000"/><path d="M34.95 16.35c-1.293-1.894-2.984-1.834-3.51-2.097-.503-.278-.857-.037-.173.782.79 1 2.413 1.555 3.157 1.593.744.037.608-.143.526-.278Z" fill="#fff"/><path d="M34.619 16.688c-.06 0-.128 0-.196-.008-.819-.045-2.427-.646-3.201-1.615-.346-.421-.466-.737-.338-.895.097-.12.323-.105.578.038.113.052.286.098.504.15.751.18 2.014.481 3.029 1.962l.007.014c.045.068.098.158.053.241-.053.075-.188.113-.436.113Zm-3.54-2.495c-.053 0-.098.015-.12.045-.068.082-.023.33.338.759.752.947 2.322 1.533 3.119 1.578.45.023.526-.038.533-.06.015-.023-.022-.083-.052-.128l-.008-.007c-.992-1.45-2.224-1.744-2.96-1.924-.226-.053-.406-.098-.527-.158a.677.677 0 0 0-.323-.105Z" fill="#000"/><path d="M36.61 18.604c.745-2.157-.961-2.953-1.142-3.314-.195-.36-.398-.36-.503.023-.481 1.54 1.074 3.036 1.315 3.336.248.27.293.136.33-.045Z" fill="#fff"/><path d="M36.497 18.852c-.067 0-.142-.053-.248-.18-.03-.03-.067-.076-.12-.136-.45-.503-1.653-1.848-1.21-3.254.06-.203.143-.308.256-.323.12-.015.233.083.346.293.03.068.135.158.262.278.519.466 1.481 1.338.88 3.074-.023.098-.053.21-.143.233-.008.015-.015.015-.023.015Zm-1.307-3.78h-.008c-.06.008-.12.098-.165.248-.42 1.345.744 2.653 1.187 3.149.053.06.09.105.12.135.128.143.166.143.173.135.03-.007.053-.112.06-.158v-.007c.58-1.668-.353-2.51-.849-2.96-.142-.129-.248-.226-.285-.309-.083-.143-.166-.233-.233-.233Z" fill="#000"/><path d="M36.264 19.198c-.594-2.413-2.15-2.277-2.503-2.615-.375-.339-.413-.098-.353.338.173 1.18 1.736 1.976 2.435 2.375.218.127.489.263.421-.098Z" fill="#fff"/><path d="M36.174 19.483c-.105 0-.233-.075-.353-.135-.045-.03-.098-.052-.15-.082-.752-.421-2.142-1.203-2.315-2.33-.053-.33-.03-.496.067-.549.083-.045.203.008.369.158.075.075.225.128.405.188.617.218 1.654.578 2.112 2.45.023.135.008.225-.052.263-.023.03-.053.037-.083.037Zm-2.683-3.006h-.015c-.015.008-.068.068-.015.436.158 1.075 1.526 1.841 2.262 2.255.053.03.105.06.15.082.098.053.278.15.33.113.008-.007.031-.037.008-.158-.443-1.81-1.442-2.164-2.036-2.374-.195-.068-.353-.128-.444-.21-.142-.121-.21-.144-.24-.144Z" fill="#000"/><path d="M37.752 22.038c1.075-2.277-.196-3.81-.594-4.148-.398-.316-.639-.458-.503 0 .172.699-.436 2.495.503 3.81.308.436.353.857.594.338Z" fill="#fff"/><path d="M37.564 22.331c-.097 0-.158-.112-.255-.285a2.59 2.59 0 0 0-.196-.316c-.654-.916-.57-2.059-.51-2.9.03-.384.052-.722 0-.932-.053-.196-.053-.293.014-.338.09-.06.233.015.572.285.638.549 1.585 2.134.608 4.216-.082.188-.15.263-.233.27Zm-.871-4.689h-.008s-.03.03.03.226c.06.233.03.57.007.969-.06.82-.142 1.946.489 2.826.083.12.15.233.195.33.053.106.128.226.158.226.008 0 .053-.015.143-.21 1.195-2.526-.564-4.074-.579-4.089-.3-.24-.406-.278-.435-.278Z" fill="#000"/><path d="M37.18 22.497c.241-1.398-.638-2.676-1.578-3.172-.548-.3-.57-.217-.57.203.044 1.3 1.382 2.375 1.773 2.976.376.549.353.128.376-.007Z" fill="#fff"/><path d="M37.09 22.828c-.082 0-.18-.098-.323-.309a5.275 5.275 0 0 0-.45-.548c-.55-.624-1.3-1.473-1.33-2.45 0-.218.007-.36.097-.413.09-.053.225-.015.549.165.961.51 1.848 1.811 1.608 3.231 0 .015-.008.038-.008.06-.007.106-.022.24-.112.264h-.03Zm-1.923-3.638c-.015 0-.023 0-.03.008-.045.03-.045.188-.045.323.03.94.766 1.773 1.307 2.382.195.218.36.406.459.564.172.263.233.255.233.255.022-.015.03-.128.037-.173 0-.022.008-.045.008-.067.233-1.368-.624-2.623-1.556-3.119-.098-.052-.316-.173-.413-.173Z" fill="#000"/><path d="M36.941 26.127c-.789-2.638.857-4.149 1.36-4.45.481-.315.79-.435.572.06-.331.737.022 2.797-1.225 4.097-.399.436-.55.894-.707.293Z" fill="#fff"/><path d="M37.114 26.465h-.022c-.083-.015-.143-.113-.196-.323-.766-2.57.737-4.126 1.383-4.51.398-.262.586-.33.676-.255.068.06.06.173-.03.383-.105.233-.135.61-.18 1.045-.083.917-.203 2.172-1.06 3.059a6 6 0 0 0-.24.3c-.143.18-.233.3-.33.3Zm1.751-5.013c-.045 0-.173.038-.526.27-.022.016-2.232 1.421-1.337 4.39.052.218.097.24.112.248.045.007.15-.136.248-.256.075-.098.15-.203.248-.308.834-.864.947-2.097 1.03-2.998.045-.444.075-.835.188-1.083.097-.225.06-.255.06-.255-.008-.008-.015-.008-.023-.008Z" fill="#000"/><path d="M37.121 25.548c.662-2.292-.766-3.592-1.21-3.855-.413-.263-.676-.361-.48.06.263.639-.023 2.435 1.074 3.554.353.384.481.76.616.24Z" fill="#fff"/><path d="M36.971 25.856c-.09 0-.173-.105-.293-.256-.06-.075-.128-.165-.21-.255-.767-.782-.872-1.894-.947-2.705-.03-.361-.06-.677-.143-.865-.053-.112-.113-.263-.03-.33.083-.068.24-.015.594.203.556.33 1.87 1.675 1.232 3.907-.045.188-.098.27-.173.293-.015.008-.022.008-.03.008Zm-1.555-4.329s-.023.038.06.203c.082.21.112.526.15.895.075.796.173 1.886.917 2.637.083.09.158.18.218.263.075.098.173.226.21.218.008 0 .045-.015.098-.21.624-2.172-.646-3.472-1.18-3.795-.39-.24-.458-.218-.474-.21Z" fill="#000"/><path d="M36.31 24.473c-1.188 1.158-1.21 2.856-.677 3.855.331.58.376.541.677.12.834-1.217.33-2.975.375-3.75.015-.743-.248-.345-.375-.225Z" fill="#fff"/><path d="M35.987 28.81h-.008c-.12-.008-.218-.143-.398-.459-.549-1.037-.489-2.765.691-3.915l.06-.06c.09-.09.188-.203.286-.158.09.037.128.18.113.48-.008.204.015.467.045.775.082.88.203 2.089-.429 3.006-.142.195-.248.33-.36.33Zm.353-4.3c-1.142 1.12-1.195 2.789-.669 3.788.113.203.233.399.308.406.06 0 .166-.135.278-.293.601-.88.489-2.067.406-2.93a6.642 6.642 0 0 1-.045-.79c.008-.345-.045-.375-.053-.375-.03-.016-.127.09-.165.135l-.06.06Z" fill="#000"/><path d="M38.256 26.307c0 1.593-1.075 2.893-2.217 3.292-.661.217-.661.157-.571-.316.308-1.796 1.818-2.458 2.367-3.036.534-.556.42-.098.42.06Z" fill="#fff"/><path d="M35.558 29.779a.214.214 0 0 1-.128-.038c-.083-.075-.06-.233-.015-.466.233-1.383 1.172-2.096 1.849-2.615.218-.165.398-.308.533-.443.218-.233.353-.316.436-.278.09.037.083.18.075.3 0 .03-.007.053-.007.075 0 1.676-1.135 2.954-2.255 3.345-.225.075-.383.12-.488.12Zm2.638-3.75c-.015 0-.09.015-.316.255-.135.143-.323.286-.541.459-.669.51-1.586 1.21-1.811 2.547-.03.173-.06.331-.023.369.053.045.293-.03.519-.106 1.082-.375 2.179-1.615 2.179-3.246 0-.023 0-.053.008-.083 0-.045.015-.173-.015-.195.007 0 0 0 0 0Z" fill="#000"/><path d="M34.176 31.057c1.931-1.593.902-2.713.984-3.75.046-.556-.195-.421-.413-.218-1.225 1.097-1.292 3.051-1.03 3.81.113.338.286.3.459.158Z" fill="#fff"/><path d="M33.958 31.215c-.023 0-.045 0-.06-.008-.098-.03-.173-.128-.226-.293-.263-.76-.225-2.728 1.045-3.87.12-.113.278-.233.398-.173.098.045.128.188.113.436-.023.27.03.54.09.834.166.827.346 1.758-1.097 2.953-.105.083-.188.12-.263.12Zm1.082-4.254c-.037 0-.105.023-.255.158-1.18 1.052-1.285 2.976-1.015 3.757.045.128.09.203.15.226.053.015.128-.015.226-.083 1.39-1.15 1.217-2.051 1.06-2.848-.06-.3-.113-.579-.09-.864.022-.278-.03-.323-.053-.331 0-.008-.008-.015-.023-.015Z" fill="#000"/><path d="M36.768 30.02c-.64 1.758-2.323 2.832-3.75 2.893-.835.037-.812-.023-.526-.541 1.074-1.88 2.983-2.097 3.84-2.578.789-.436.503.045.436.225Z" fill="#fff"/><path d="M32.687 32.98c-.24 0-.353-.03-.406-.105-.067-.105.023-.263.166-.526.819-1.428 2.119-1.909 3.066-2.262.315-.12.586-.218.796-.338.323-.18.496-.226.579-.15.083.075.015.24-.038.368a.518.518 0 0 0-.03.075c-.669 1.849-2.42 2.87-3.802 2.93-.136 0-.24.008-.331.008Zm4.096-3.306c-.045 0-.158.022-.429.172-.218.12-.488.226-.811.339-.932.345-2.21.819-3.006 2.21-.105.187-.196.36-.166.412.045.068.339.06.647.045 1.345-.06 3.05-1.06 3.705-2.855.007-.023.022-.045.03-.075.022-.053.09-.218.06-.248 0 .007-.008 0-.03 0Z" fill="#000"/><path d="M31.523 33.311c2.503-1.135 1.999-3.036 2.457-3.51.331-.338-.067-.3-.263-.18-1.473.782-2.652 2.014-2.675 3.337 0 .496.045.556.481.353Z" fill="#fff"/><path d="M31.2 33.476a.15.15 0 0 1-.098-.03c-.09-.06-.113-.203-.113-.496.023-1.21 1.06-2.51 2.706-3.382.112-.067.36-.142.443-.045.083.098-.068.256-.12.308-.12.128-.173.369-.24.677-.166.804-.422 2.021-2.24 2.848-.143.075-.256.12-.338.12Zm2.81-3.892a.524.524 0 0 0-.263.082c-1.615.857-2.63 2.12-2.652 3.292 0 .18.007.368.06.398.052.038.203-.03.345-.09 1.766-.804 2.014-1.984 2.18-2.773.067-.323.12-.586.263-.73.12-.127.112-.165.112-.165-.007-.007-.022-.014-.045-.014Z" fill="#000"/><path d="M28.103 35.43c3.156.459 4.63-1.713 5.553-1.916.481-.098.136-.278-.112-.3-2.104-.219-4.78.676-5.591 1.675-.331.398-.331.481.15.541Z" fill="#fff"/><path d="M28.952 35.543c-.27 0-.556-.023-.856-.06-.24-.03-.384-.068-.421-.166-.038-.105.045-.233.233-.458.789-.977 3.427-1.924 5.644-1.698.12.007.39.075.398.218.008.112-.158.165-.286.187-.255.053-.563.278-.954.556-.812.58-1.984 1.42-3.758 1.42Zm3.923-2.307c-1.999 0-4.208.849-4.884 1.69-.083.106-.241.294-.218.354.022.06.248.09.338.097 2.217.324 3.614-.676 4.539-1.345.398-.285.714-.51.992-.57.18-.038.203-.076.203-.076-.008-.03-.15-.105-.3-.113a4.914 4.914 0 0 0-.67-.037Z" fill="#000"/><path d="M31.304 32.019c-.639 1.893-3.006 3.456-4.78 3.57-.834.06-.834-.023-.526-.52 1.428-2.352 3.908-2.757 4.78-3.351.744-.519.594.12.526.3Z" fill="#fff"/><path d="M26.149 35.663c-.21 0-.323-.03-.368-.105-.068-.105.022-.263.172-.511 1.053-1.743 2.653-2.412 3.818-2.9.406-.174.752-.316.985-.474.285-.196.48-.256.586-.173.158.128.037.488.022.533-.661 1.977-3.08 3.487-4.832 3.608a4.2 4.2 0 0 1-.383.022Zm5.065-4.095c-.06 0-.18.037-.406.188-.24.165-.593.308-1 .48-1.15.481-2.727 1.143-3.764 2.856-.09.143-.21.338-.173.398.052.083.443.053.654.038 1.713-.113 4.103-1.653 4.734-3.54.053-.135.09-.353.015-.413-.015.008-.03-.007-.06-.007Z" fill="#000"/><path d="M24.638 10.78c.286-1.48 2.676-1.577 3.051-1.818.436-.263.376 0 .218.399-.435 1.037-1.93 1.457-2.607 1.578-.556.075-.73.12-.662-.158Z" fill="#fff"/><path d="M24.797 11.052c-.09 0-.15-.015-.188-.06-.053-.06-.046-.15-.023-.226.226-1.142 1.653-1.48 2.503-1.683.255-.06.48-.113.563-.166.196-.113.308-.143.376-.082.09.075.045.24-.075.548-.496 1.173-2.292 1.548-2.653 1.608l-.083.015c-.18.023-.315.046-.42.046Zm3.148-2.142c-.03 0-.09.015-.233.097-.097.06-.308.113-.6.18-.828.196-2.218.52-2.428 1.602-.015.067-.015.112 0 .127.045.045.24.015.518-.022l.083-.015c.346-.06 2.097-.421 2.57-1.548.12-.324.128-.406.105-.429 0 .008-.007.008-.015.008Z" fill="#000"/><path d="M23.91 10.818c-.24-1.518 2.127-2.232 2.412-2.577.33-.361.376-.143.218.278-.286.901-1.315 1.954-1.931 2.232-.496.248-.654.345-.7.067Z" fill="#fff"/><path d="M24.045 11.036a.27.27 0 0 1-.083-.015c-.075-.037-.097-.128-.105-.195-.188-1.173 1.12-1.879 1.901-2.292.248-.128.459-.248.519-.323.158-.173.263-.233.338-.188.09.052.075.225-.03.518-.286.887-1.3 1.97-1.961 2.262l-.113.053c-.218.113-.36.18-.466.18Zm2.525-2.923s-.053 0-.203.165c-.075.09-.278.196-.549.346-.759.406-2.021 1.09-1.848 2.187.007.067.03.105.052.12.06.03.226-.053.459-.165l.113-.053c.563-.255 1.615-1.3 1.9-2.202.099-.278.084-.383.076-.398Z" fill="#000"/><path d="M21.963 11.698c-.218-1.819 1.714-2.097 2.217-2.676.331-.36.354-.158.24.263-.217.917-1.187 2-1.773 2.338-.466.255-.669.353-.684.075Z" fill="#fff"/><path d="M22.083 11.916a.152.152 0 0 1-.082-.023c-.06-.03-.09-.098-.098-.195-.158-1.338.827-1.872 1.548-2.262.293-.158.541-.293.677-.451.157-.173.263-.233.33-.196.083.045.083.188 0 .504-.225.947-1.217 2.036-1.803 2.367-.271.158-.451.256-.572.256Zm2.33-3.029s-.053.008-.203.173c-.15.173-.406.308-.706.473-.737.399-1.646.895-1.496 2.157 0 .045.015.098.038.113.075.037.323-.098.556-.233.564-.323 1.533-1.383 1.751-2.3.098-.323.068-.375.06-.383Z" fill="#000"/><path d="M22.55 11.3c1.998-1.18 3.396-.52 3.967-.58.549-.06.722.264-.218.737-1.164.579-2.788.496-3.419.278-.654-.24-.458-.36-.33-.436Z" fill="#fff"/><path d="M24.135 11.953c-.518 0-.977-.067-1.27-.165-.33-.12-.488-.226-.496-.338-.008-.098.09-.158.158-.203 1.54-.91 2.743-.737 3.464-.631.226.03.406.06.534.045.278-.03.458.03.503.165.053.18-.188.42-.691.676-.661.323-1.488.451-2.202.451Zm-1.556-.608c-.045.022-.112.067-.105.097 0 .023.038.105.429.248.563.196 2.187.316 3.381-.278.511-.263.662-.458.64-.548-.016-.06-.151-.113-.392-.09-.142.015-.323-.016-.556-.046-.714-.105-1.893-.278-3.396.617Z" fill="#000"/><path d="M19.544 12.096c.616-1.954 2.037-1.638 2.457-1.879.414-.24.459-.18.376.263-.173.782-1.646 1.639-2.367 1.894-.263.083-.594.203-.466-.278Z" fill="#fff"/><path d="M19.68 12.502a.236.236 0 0 1-.159-.053c-.067-.067-.075-.188-.03-.368.481-1.533 1.473-1.698 2.067-1.804.173-.03.323-.052.413-.105.218-.128.354-.18.429-.12.082.06.067.195.022.436-.18.819-1.683 1.676-2.405 1.939l-.037.007a.908.908 0 0 1-.3.068Zm-.084-.391c-.037.135-.037.225 0 .263.06.053.226 0 .361-.038l.03-.007c.744-.27 2.165-1.12 2.33-1.856.053-.248.038-.316.023-.33-.015-.008-.076-.008-.316.127-.105.06-.256.082-.451.12-.594.098-1.51.248-1.977 1.721Z" fill="#000"/><path d="M19.83 12.434c1.713-1.255 3.05-.316 3.577-.458.398-.098.218.142.067.24-1.097.7-2.457 1.075-3.51.639-.42-.158-.435-.203-.135-.42Z" fill="#fff"/><path d="M20.964 13.095a2.66 2.66 0 0 1-1.022-.187c-.24-.09-.361-.15-.376-.24-.008-.083.068-.151.233-.271 1.247-.917 2.292-.684 2.983-.534.263.06.474.105.61.068.112-.03.255-.053.3.037.045.098-.098.233-.188.293-.864.549-1.751.835-2.54.835Zm.774-1.27c-.541 0-1.173.143-1.872.654-.127.09-.187.15-.187.173.007.038.218.12.308.158.932.39 2.224.15 3.464-.631a.446.446 0 0 0 .15-.158c-.014-.008-.052-.015-.172.015-.158.045-.384-.008-.654-.068a4.487 4.487 0 0 0-1.037-.143Z" fill="#000"/><path d="M16.125 13.712c-.023-1.24 2.788-1.759 3.381-2.518.354-.458.662-.218.481.519-.263.954-2.194 2.014-3.246 2.217-.639.12-.616-.075-.616-.218Z" fill="#fff"/><path d="M16.418 14.02c-.12 0-.21-.023-.263-.068-.075-.067-.075-.158-.075-.225v-.015c-.015-.797 1.074-1.3 2.029-1.744.586-.27 1.135-.526 1.36-.804.158-.21.33-.3.458-.233.173.083.218.384.113.797-.263.954-2.18 2.044-3.291 2.254-.136.03-.24.038-.331.038Zm3.412-3.006c-.075 0-.18.075-.286.21-.233.301-.796.564-1.398.842-.931.428-1.984.917-1.969 1.646v.015c0 .067 0 .113.038.143.045.037.173.075.511.007 1.09-.203 2.953-1.262 3.209-2.18.098-.405.038-.63-.06-.675-.008 0-.023-.008-.045-.008Z" fill="#000"/><path d="M16.214 13.93c1.774-1.458 3.27-.977 3.818-1.12.549-.12.766.18-.09.781-1.052.722-2.676.857-3.36.722-.676-.143-.503-.286-.368-.383Z" fill="#fff"/><path d="M17.168 14.41c-.233 0-.428-.014-.593-.052-.354-.075-.511-.15-.534-.256-.022-.097.068-.165.143-.218 1.368-1.12 2.578-1.104 3.306-1.097.226 0 .406.008.534-.03.278-.06.473-.022.534.113.075.173-.128.443-.579.759-.82.556-1.991.782-2.81.782Zm2.12-1.518c-.722 0-1.819.076-3.044 1.075-.038.03-.105.083-.098.113 0 .015.038.09.451.173.714.15 2.307-.023 3.314-.714.459-.323.579-.541.541-.631-.03-.068-.165-.106-.413-.053-.135.037-.323.03-.556.03-.06.008-.128.008-.195.008Z" fill="#000"/><path d="M13.027 16.064c.504-2.12 2.105-2.555 2.503-2.953.376-.399.766-.278.436.676-.398 1.135-1.691 2.134-2.367 2.375-.654.263-.61.067-.572-.098Z" fill="#fff"/><path d="M13.14 16.342c-.06 0-.105-.015-.135-.045-.075-.068-.045-.173-.023-.248.399-1.653 1.458-2.3 2.09-2.69.188-.113.338-.203.42-.294.188-.202.391-.278.519-.202.173.105.18.435.008.931-.414 1.188-1.759 2.18-2.405 2.405-.21.105-.369.143-.474.143Zm2.758-3.39c-.09 0-.21.076-.323.196-.098.098-.248.188-.443.308-.624.376-1.661 1.015-2.044 2.623-.015.045-.03.12-.008.143.015.015.105.052.511-.106.624-.217 1.939-1.187 2.337-2.344.173-.504.136-.752.038-.804a.22.22 0 0 0-.068-.015Z" fill="#000"/><path d="M13.05 16.35c1.293-1.894 2.984-1.834 3.51-2.097.504-.278.857-.038.173.781-.79 1-2.412 1.556-3.156 1.594-.744.037-.609-.143-.526-.279Z" fill="#fff"/><path d="M13.389 16.688c-.256 0-.391-.038-.436-.12-.045-.083.007-.173.052-.241l.008-.015c1.014-1.488 2.277-1.789 3.028-1.962.218-.052.391-.09.504-.15.255-.143.48-.158.579-.037.127.157.007.473-.339.894-.766.97-2.374 1.57-3.193 1.616-.083.007-.15.015-.203.015Zm-.293-.316-.008.008c-.03.045-.068.105-.053.127.015.023.083.083.534.06.797-.045 2.367-.63 3.119-1.578.36-.428.406-.676.338-.759-.06-.075-.248-.052-.451.06-.128.06-.3.106-.526.158-.729.18-1.961.474-2.953 1.924Z" fill="#000"/><path d="M11.39 18.604c-.744-2.157.962-2.954 1.142-3.314.196-.361.399-.361.504.022.48 1.54-1.075 3.036-1.315 3.337-.248.27-.293.135-.331-.045Z" fill="#fff"/><path d="M11.503 18.852h-.03c-.09-.023-.12-.135-.143-.233-.601-1.736.36-2.608.88-3.074.127-.12.232-.21.262-.278.113-.21.233-.308.346-.293.113.015.195.12.255.323.444 1.406-.759 2.743-1.21 3.247-.052.06-.09.098-.112.135-.098.12-.18.173-.248.173Zm1.307-3.78c-.067 0-.15.083-.233.24-.037.083-.142.173-.285.309-.496.45-1.428 1.292-.85 2.96v.008c.008.045.038.15.06.158.008 0 .046.007.174-.143.022-.03.067-.075.12-.135.443-.496 1.608-1.804 1.187-3.15-.045-.15-.105-.24-.165-.247h-.008Z" fill="#000"/><path d="M11.735 19.198c.594-2.413 2.15-2.277 2.502-2.616.376-.338.414-.097.354.339-.173 1.18-1.736 1.976-2.435 2.374-.226.128-.489.263-.421-.097Z" fill="#fff"/><path d="M11.825 19.483c-.037 0-.067-.007-.09-.03-.06-.045-.075-.128-.053-.263.459-1.871 1.488-2.232 2.112-2.45.188-.067.33-.12.406-.188.173-.157.285-.203.368-.157.098.052.12.217.068.548-.166 1.127-1.563 1.909-2.315 2.33-.053.03-.105.06-.15.082-.113.06-.24.128-.346.128Zm-.037-.27c-.023.127 0 .15.007.157.053.038.233-.06.33-.12.046-.022.098-.052.151-.082.736-.414 2.097-1.18 2.262-2.255.053-.368 0-.428-.015-.436-.008-.007-.068-.022-.248.143-.09.09-.248.143-.443.21-.602.218-1.601.572-2.045 2.383Z" fill="#000"/><path d="M10.247 22.038c-1.075-2.277.196-3.81.594-4.148.398-.316.639-.459.503 0-.172.699.436 2.495-.503 3.81-.308.436-.353.857-.594.338Z" fill="#fff"/><path d="M10.435 22.331c-.082 0-.15-.082-.24-.27-.985-2.082-.03-3.668.608-4.216.339-.278.481-.346.572-.286.067.045.075.15.015.346-.053.21-.03.549 0 .932.06.834.142 1.984-.511 2.9-.075.113-.136.226-.196.316-.09.166-.15.278-.248.278Zm.872-4.689c-.03 0-.135.038-.436.285-.015.016-1.773 1.564-.579 4.089.09.195.136.21.143.21.038 0 .105-.128.158-.225.053-.098.113-.21.195-.331.632-.887.549-2.007.489-2.826-.03-.398-.053-.736.007-.97.06-.194.03-.224.03-.224 0-.008 0-.008-.007-.008Z" fill="#000"/><path d="M10.819 22.497c-.241-1.398.638-2.676 1.578-3.172.548-.3.57-.217.57.203-.044 1.3-1.382 2.375-1.773 2.976-.376.549-.353.128-.376-.007Z" fill="#fff"/><path d="M10.909 22.828h-.023c-.09-.023-.105-.158-.112-.264 0-.022-.008-.045-.008-.06-.248-1.413.646-2.72 1.608-3.231.323-.18.459-.218.549-.165.09.052.098.195.098.413-.03.984-.782 1.834-1.33 2.45-.189.21-.354.398-.452.548-.15.218-.248.309-.33.309Zm1.924-3.638c-.098 0-.316.12-.414.173-.932.489-1.788 1.751-1.555 3.119 0 .015.007.045.007.067.008.046.015.158.038.173 0 0 .06 0 .233-.263.105-.158.27-.345.458-.563.541-.61 1.278-1.443 1.308-2.383 0-.127 0-.293-.045-.315-.008 0-.015-.008-.03-.008Z" fill="#000"/><path d="M11.059 26.127c.789-2.638-.857-4.149-1.36-4.45-.481-.315-.79-.435-.572.06.331.737-.022 2.797 1.225 4.097.399.436.526.894.707.293Z" fill="#fff"/><path d="M10.879 26.465c-.098 0-.188-.12-.316-.286a3.736 3.736 0 0 0-.248-.315c-.857-.887-.977-2.142-1.06-3.059-.037-.436-.075-.812-.18-1.045-.09-.203-.098-.323-.03-.383.09-.075.286-.007.684.256.646.383 2.15 1.939 1.383 4.509-.06.21-.12.308-.21.323h-.023Zm-1.744-5.013c-.015 0-.022 0-.022.008 0 0-.038.037.06.255.112.248.143.632.188 1.082.082.902.195 2.135 1.03 2.999.104.113.187.226.255.323.09.12.188.256.233.248.015 0 .06-.03.12-.248.887-2.968-1.315-4.374-1.338-4.389-.345-.24-.473-.278-.526-.278Z" fill="#000"/><path d="M10.879 25.548c-.662-2.292.766-3.592 1.21-3.855.413-.263.676-.361.48.06-.263.639.023 2.435-1.074 3.554-.353.384-.481.76-.616.24Z" fill="#fff"/><path d="M11.029 25.856h-.023c-.075-.015-.127-.098-.173-.293-.638-2.232.67-3.585 1.233-3.915.353-.218.51-.271.593-.203.076.067.023.21-.037.33-.075.188-.105.504-.143.865-.075.811-.18 1.923-.947 2.705-.082.09-.15.173-.21.255-.12.15-.203.256-.293.256Zm1.54-4.336c-.037 0-.142.03-.45.218-.542.323-1.804 1.623-1.18 3.795.052.195.09.21.097.21.038.008.136-.112.21-.218a3.08 3.08 0 0 1 .219-.263c.744-.759.841-1.849.917-2.637.037-.369.06-.692.15-.895.082-.173.06-.21.06-.21-.015.007-.015 0-.023 0Z" fill="#000"/><path d="M11.69 24.473c1.187 1.158 1.21 2.856.676 3.855-.33.58-.376.541-.676.12-.835-1.217-.331-2.975-.376-3.75-.015-.743.248-.345.376-.225Z" fill="#fff"/><path d="M12.013 28.81c-.12 0-.218-.136-.36-.339-.632-.917-.512-2.127-.429-3.006.03-.308.053-.578.045-.774-.007-.3.023-.443.113-.48.098-.038.195.067.285.157l.06.06c1.18 1.157 1.24 2.878.692 3.915-.18.324-.278.459-.398.466h-.008Zm-.586-4.502c-.008 0-.068.03-.053.383.015.203-.015.474-.045.79-.083.863-.195 2.05.406 2.938.113.157.218.293.278.293.075-.008.195-.203.308-.406.526-1 .474-2.668-.669-3.788-.022-.015-.045-.045-.067-.067-.03-.045-.12-.143-.158-.143Z" fill="#000"/><path d="M9.744 26.307c0 1.593 1.075 2.893 2.217 3.292.661.217.661.157.57-.316-.307-1.796-1.818-2.458-2.366-3.036-.534-.556-.421-.098-.421.06Z" fill="#fff"/><path d="M12.442 29.779c-.105 0-.256-.045-.496-.128-1.12-.39-2.255-1.668-2.255-3.344 0-.022 0-.045-.007-.075-.008-.12-.023-.256.075-.3.09-.038.218.044.436.277.128.136.316.278.533.444.684.518 1.616 1.232 1.85 2.615.044.233.067.39-.016.466a.159.159 0 0 1-.12.045Zm-2.638-3.75s-.007 0 0 0c-.03.015-.015.143-.015.195 0 .03.008.06.008.083 0 1.63 1.097 2.863 2.179 3.247.225.075.466.15.518.105.038-.038.008-.196-.022-.368-.233-1.346-1.142-2.045-1.811-2.556a4.587 4.587 0 0 1-.541-.458c-.226-.233-.3-.248-.316-.248Z" fill="#000"/><path d="M13.824 31.056c-1.931-1.593-.902-2.713-.984-3.75-.045-.556.195-.42.413-.218 1.225 1.098 1.293 3.052 1.03 3.81-.113.339-.286.301-.459.158Z" fill="#fff"/><path d="M14.042 31.214c-.075 0-.158-.037-.255-.112-1.443-1.195-1.255-2.127-1.098-2.954.06-.293.113-.571.09-.834-.022-.256.016-.39.113-.436.12-.06.27.06.399.173 1.27 1.135 1.307 3.111 1.044 3.87-.052.166-.128.263-.225.286-.023.007-.045.007-.068.007Zm-.188-.195c.098.075.166.105.226.083.06-.015.112-.09.15-.218.27-.782.165-2.706-1.015-3.758-.187-.173-.255-.165-.278-.158-.015.008-.075.06-.052.33.022.287-.03.565-.09.865-.158.797-.331 1.699 1.06 2.856Z" fill="#000"/><path d="M11.232 30.02c.64 1.758 2.323 2.832 3.75 2.893.835.037.812-.023.526-.541-1.074-1.88-2.983-2.097-3.84-2.578-.789-.436-.503.045-.436.225Z" fill="#fff"/><path d="M15.313 32.98c-.09 0-.203-.007-.33-.007-1.383-.06-3.134-1.082-3.796-2.931a.509.509 0 0 0-.03-.075c-.052-.128-.12-.286-.037-.368.082-.076.255-.03.578.15.21.12.481.218.797.338.947.353 2.247.834 3.066 2.262.143.263.226.42.165.526-.052.075-.165.105-.413.105Zm-4.096-3.306c-.022 0-.03.007-.03.007-.03.03.038.188.06.248.015.03.023.053.03.075.654 1.804 2.36 2.803 3.706 2.856.3.015.6.023.646-.045.03-.053-.06-.225-.166-.413-.796-1.39-2.074-1.864-3.006-2.21-.323-.12-.593-.218-.811-.346-.263-.15-.384-.172-.429-.172Z" fill="#000"/><path d="M16.478 33.311c-2.503-1.135-2-3.036-2.458-3.51-.33-.338.068-.3.263-.18 1.473.782 2.653 2.014 2.676 3.337 0 .496-.045.556-.481.353Z" fill="#fff"/><path d="M16.8 33.476c-.082 0-.195-.045-.353-.112-1.81-.827-2.066-2.044-2.24-2.849-.067-.308-.112-.556-.24-.676-.052-.053-.195-.203-.12-.308.083-.105.33-.03.451.045 1.646.872 2.683 2.164 2.705 3.382 0 .293-.015.436-.112.496a.223.223 0 0 1-.09.022Zm-.3-.21c.143.068.293.128.346.09.052-.038.06-.218.06-.406-.023-1.172-1.037-2.435-2.646-3.284-.127-.075-.293-.098-.308-.067 0 0-.007.037.113.165.143.15.195.406.263.729.158.789.406 1.969 2.172 2.773Z" fill="#000"/><path d="M19.896 35.43c-3.156.459-4.629-1.713-5.553-1.916-.481-.098-.136-.278.113-.3 2.104-.219 4.78.676 5.59 1.675.331.398.331.481-.15.541Z" fill="#fff"/><path d="M19.047 35.543c-1.774 0-2.946-.842-3.758-1.428-.39-.278-.698-.496-.954-.556-.128-.023-.293-.075-.285-.188.007-.135.278-.21.398-.218 2.21-.233 4.847.722 5.636 1.699.188.233.27.36.233.458-.038.098-.18.135-.42.165a4.784 4.784 0 0 1-.85.068Zm-4.885-2.157s.023.038.196.075c.278.06.593.286.992.571.924.662 2.322 1.669 4.539 1.346.082-.008.308-.038.338-.098.023-.06-.135-.256-.218-.353-.759-.932-3.404-1.88-5.546-1.661-.158.015-.3.083-.3.12Z" fill="#000"/><path d="M16.695 32.019c.639 1.893 3.006 3.456 4.78 3.57.834.06.834-.023.525-.52-1.427-2.352-3.907-2.757-4.78-3.351-.743-.519-.593.12-.525.3Z" fill="#fff"/><path d="M21.85 35.663c-.105 0-.225-.007-.383-.015-1.75-.12-4.163-1.63-4.832-3.607-.015-.045-.143-.406.022-.534.113-.082.301-.03.587.173.225.158.578.3.984.474 1.165.488 2.758 1.157 3.818 2.9.15.248.24.406.173.512-.045.067-.158.097-.369.097Zm-5.065-4.095c-.03 0-.045.007-.06.015-.075.052-.037.27.015.413.631 1.886 3.021 3.42 4.735 3.54.21.014.6.045.653-.038.038-.06-.082-.256-.172-.398-1.037-1.714-2.616-2.375-3.765-2.856-.406-.173-.76-.316-1-.481-.218-.158-.338-.195-.406-.195Z" fill="#000"/><path d="M27.705 12.615c-.413-.279-1.954-.12-2.24-.301.556.42 1.781.12 2.24.3ZM31.417 13.336c-.33-.541-2.284-.902-2.57-1.375.504.909 2.022.789 2.57 1.375ZM31.132 13.952c-.722-.639-2.413-.376-2.916-.759 1.18.977 1.841.218 2.916.76ZM26.893 11.12c.459.217 1.03.435 1.316.954-.331-.399-.925-.557-1.406-.902.03.007.068-.038.09-.053ZM34.093 15.23c-.286-.601-1.293-1.255-1.383-1.48.285.78 1.12.961 1.383 1.48ZM34.356 16.29c-.88-1.255-2.262-1.12-2.81-1.594.42.451 1.998.752 2.81 1.594ZM36.392 18.22c.068-1.337-1.03-1.833-1.074-2.592-.023.902 1.12 2.12 1.074 2.593ZM35.844 18.942c-.218-1.157-1.714-1.24-1.977-1.916.008.639 1.759 1.3 1.977 1.916ZM37.076 18.28c.79.88.24 2.218.571 3.195-.398-.714-.203-2.51-.57-3.194ZM35.783 22.038c1.188 1.158.7 2.458 1.188 3.014-.602-.782-.511-2.3-1.188-3.014ZM38.233 22.196c-1.007 1.015-.398 2.555-.924 3.277.6-.624.51-2.518.924-3.277ZM36.963 22.196c-.135-1.18-1.337-1.796-1.45-2.434-.128.638 1.165 1.638 1.45 2.434ZM36.347 25.007c.195.819-.526 2.577-.308 3.111-.481-.932.42-2.713.308-3.111ZM37.91 26.886c-.48 1.458-1.45 1.36-1.758 2.232.218-.834 1.495-1.593 1.758-2.232ZM34.769 27.562c-.64.977-.113 2.097-.64 2.796.752-.7.354-1.992.64-2.796ZM36.31 30.237c-.767 1.3-2.345 1.18-2.984 2.12.631-1.18 2.585-1.376 2.984-2.12ZM33.522 30.08c-1.36.856-.947 1.758-1.977 2.712 1.293-.954 1.188-2.014 1.977-2.712ZM32.883 33.551c-1.315-.037-3.202 1.518-4.344 1.398 1.142.218 3.247-1.18 4.344-1.398ZM30.756 32.154c-.09 1.217-3.51 1.999-3.885 2.818.42-1.083 3.427-1.88 3.885-2.818ZM23.015 9.699c-.436-.338-.962-.616-1.12-.955.113.436.55.76.985 1.06.045-.023.09-.083.135-.105ZM22.264 10.06c-.676-.301-1.473-.279-1.819-.7.218.421.962.58 1.601.797.068-.037.158-.075.218-.098ZM20.295 12.615c.413-.279 1.954-.12 2.24-.301-.557.42-1.782.12-2.24.3ZM16.583 13.336c.33-.541 2.285-.902 2.57-1.375-.503.909-2.021.789-2.57 1.375ZM16.868 13.952c.722-.639 2.413-.376 2.916-.759-1.18.977-1.841.218-2.916.76ZM19.791 12.073c.414-.796 1.601-.901 1.91-1.375-.467.722-1.474.834-1.91 1.375ZM23.166 11.375c1.21-.519 2.39-.083 2.96-.316-.698.338-2.366.18-2.96.316ZM13.907 15.23c.286-.601 1.293-1.255 1.383-1.48-.286.78-1.12.961-1.383 1.48ZM13.645 16.29c.879-1.255 2.262-1.12 2.81-1.594-.42.451-1.999.752-2.81 1.594ZM11.607 18.22c-.067-1.337 1.03-1.833 1.075-2.592.023.902-1.12 2.12-1.075 2.593ZM12.156 18.942c.218-1.157 1.714-1.24 1.977-1.916-.008.639-1.759 1.3-1.977 1.916ZM10.924 18.28c-.79.88-.24 2.218-.572 3.195.399-.714.203-2.51.572-3.194ZM12.217 22.038c-1.188 1.158-.7 2.458-1.188 3.014.601-.782.511-2.3 1.188-3.014ZM9.767 22.196c1.007 1.015.398 2.555.924 3.277-.601-.624-.511-2.518-.924-3.277ZM11.036 22.196c.135-1.18 1.338-1.796 1.45-2.434.128.638-1.164 1.638-1.45 2.434ZM11.653 25.007c-.195.819.526 2.577.308 3.111.481-.932-.42-2.713-.308-3.111ZM10.09 26.886c.48 1.458 1.45 1.36 1.758 2.232-.218-.834-1.495-1.593-1.758-2.232ZM13.231 27.562c.639.977.113 2.097.639 2.796-.752-.7-.353-1.992-.639-2.796ZM11.69 30.237c.767 1.3 2.345 1.18 2.984 2.12-.631-1.18-2.585-1.376-2.984-2.12ZM14.478 30.08c1.36.856.947 1.758 1.976 2.712-1.292-.954-1.187-2.014-1.976-2.712ZM15.117 33.551c1.315-.037 3.202 1.518 4.344 1.398-1.142.218-3.247-1.18-4.344-1.398ZM17.244 32.154c.09 1.217 3.51 1.999 3.885 2.818-.42-1.083-3.426-1.88-3.885-2.818ZM22.227 11.42c.263-1.075 1.578-1.278 1.758-1.917-.075.677-1.63 1.436-1.758 1.917ZM26.104 8.744c-.195.82-1.623 1.278-1.818 1.894.067-.842 1.533-1.315 1.818-1.894ZM24.984 10.676c.677-1 2.082-.737 2.57-1.315-.353.676-2.081.698-2.57 1.315Z" fill="#006233"/><path d="M23.955 32.507c-5.749 0-10.423-4.261-10.423-9.492 0-5.23 4.682-9.491 10.423-9.491 5.742 0 10.424 4.261 10.424 9.491 0 5.23-4.675 9.492-10.424 9.492Zm0-18.773c-5.629 0-10.205 4.164-10.205 9.281 0 5.118 4.576 9.282 10.205 9.282 5.629 0 10.206-4.164 10.206-9.282.007-5.117-4.577-9.28-10.206-9.28Z" fill="#F7C608"/><path d="m21.931 32.407-.036.112c-.024.074-.108.116-.197.117-.213-.057-.49-.107-.744-.175l.235-.729c.27.072.556.124.749.16.082.021.128.098.104.173l-.031.096-.08.246Zm-1.693-.702.036-.112c.024-.075.109-.116.19-.095.206.08.455.162.725.234l-.235.73a7.973 7.973 0 0 1-.73-.22c-.074-.044-.096-.195-.072-.27" fill="#F7C608"/><path d="m21.791 32.345-.026.082c-.017.052-.08.084-.159.08-.172-.047-.406-.093-.619-.15l.169-.52c.229.06.463.107.623.133.074.02.11.07.092.13l-.022.067-.058.178Zm-1.418-.564.027-.082c.017-.052.08-.083.154-.064.167.061.375.133.604.194l-.168.52c-.213-.056-.417-.11-.61-.178-.068-.035-.086-.144-.069-.196" fill="#006233"/><path d="m19.11 31.492-.069.098c-.046.065-.14.084-.226.061-.186-.108-.437-.227-.66-.357l.452-.64c.237.139.495.262.67.345.071.042.091.128.045.193l-.06.085-.152.215Zm-1.407-1.108.07-.098a.162.162 0 0 1 .212-.042c.172.129.386.272.622.41l-.451.64a7.515 7.515 0 0 1-.632-.397c-.058-.062-.033-.213.013-.278" fill="#F7C608"/><path d="m18.995 31.397-.05.072c-.033.045-.104.06-.177.035-.151-.088-.361-.193-.548-.302l.323-.456c.2.117.411.221.557.288.064.038.084.095.047.148l-.041.058-.11.157Zm-1.19-.898.05-.072c.033-.046.104-.06.168-.022.142.101.319.223.52.34l-.323.457a7.858 7.858 0 0 1-.529-.327c-.055-.05-.038-.16-.006-.206" fill="#006233"/><path d="m16.684 29.899-.096.076c-.065.05-.161.044-.236.001-.145-.152-.35-.33-.522-.512l.631-.498c.185.194.394.377.535.502a.13.13 0 0 1-.015.197l-.084.066-.213.168Zm-1.007-1.424.097-.076a.164.164 0 0 1 .217.014c.126.168.286.36.47.553l-.631.498a6.925 6.925 0 0 1-.484-.543c-.036-.073.035-.212.1-.263" fill="#F7C608"/><path d="m16.603 29.778-.071.056c-.045.035-.117.03-.18-.012-.118-.123-.287-.277-.433-.43l.452-.355c.156.164.325.318.444.42.05.052.052.113 0 .153l-.058.046-.154.122Zm-.864-1.167.07-.056c.046-.035.118-.03.168.022.105.134.237.296.394.46l-.452.356c-.145-.153-.285-.3-.406-.45-.037-.063.013-.164.058-.2" fill="#006233"/><path d="m14.856 27.746-.116.048c-.078.032-.168.002-.227-.059-.092-.183-.232-.407-.342-.625l.76-.316c.117.233.26.463.358.619.035.07.002.152-.076.185l-.1.042-.257.106Zm-.533-1.62.117-.049c.077-.032.168-.001.203.07.069.192.163.418.28.65l-.76.316c-.11-.219-.22-.437-.296-.644-.012-.08.1-.195.177-.227" fill="#F7C608"/><path d="m14.812 27.602-.085.036c-.055.022-.123 0-.17-.058-.074-.148-.19-.339-.281-.522l.543-.226c.099.197.214.389.297.516.032.064.014.122-.048.148l-.07.029-.186.077Zm-.464-1.333.085-.036c.055-.022.123 0 .154.064.06.155.136.345.235.542l-.543.226a6.767 6.767 0 0 1-.25-.536c-.017-.07.063-.154.117-.176" fill="#006233"/><path d="m13.756 25.21-.127.016c-.084.011-.162-.041-.2-.115-.03-.2-.096-.45-.134-.687l.827-.109c.04.253.107.511.152.685.012.077-.046.148-.13.159l-.11.014-.278.037Zm-.001-1.693.126-.016c.085-.011.162.041.174.118.006.203.027.443.067.696l-.827.109a6.169 6.169 0 0 1-.084-.694c.013-.08.155-.162.24-.173" fill="#F7C608"/><path d="m13.768 25.067-.093.012c-.06.008-.117-.032-.145-.099-.026-.16-.077-.373-.108-.573l.59-.078c.035.215.086.428.126.572.01.069-.024.12-.092.13l-.076.01-.202.026Zm-.034-1.406.093-.012a.115.115 0 0 1 .128.1c.009.164.024.366.058.58l-.591.078a6.447 6.447 0 0 1-.075-.578c.006-.071.109-.132.168-.14" fill="#006233"/><path d="m13.495 22.496-.127-.017c-.085-.01-.142-.081-.156-.161.032-.2.046-.456.084-.694l.827.108c-.04.253-.055.517-.066.696-.012.077-.09.13-.174.118l-.11-.014-.278-.036Zm.523-1.624.126.016c.085.011.143.081.13.158a5.712 5.712 0 0 0-.15.686l-.828-.108c.038-.238.075-.476.134-.688.038-.073.2-.115.284-.104" fill="#F7C608"/><path d="m13.542 22.36-.093-.011c-.06-.008-.103-.06-.109-.132.026-.161.043-.378.074-.578l.591.077c-.034.215-.05.432-.057.58-.01.07-.06.11-.128.101l-.076-.01-.202-.026Zm.403-1.357.093.012c.06.008.103.06.092.13-.043.159-.09.356-.125.571l-.59-.077c.03-.2.06-.392.107-.574.028-.067.145-.098.204-.09" fill="#006233"/><path d="m14.087 19.825-.116-.048c-.078-.032-.111-.114-.1-.195.093-.183.186-.426.296-.644l.76.315c-.116.233-.213.482-.28.651-.035.07-.125.101-.203.07l-.1-.043-.257-.106Zm1.006-1.424.116.048c.078.032.111.114.076.185-.115.174-.24.386-.357.619l-.76-.315c.109-.22.219-.438.34-.626.06-.06.228-.06.305-.027" fill="#F7C608"/><path d="m14.174 19.708-.085-.036c-.054-.022-.08-.084-.063-.154.074-.148.158-.352.25-.535l.543.225c-.1.197-.183.401-.235.542-.031.063-.091.09-.154.064l-.07-.03-.186-.076Zm.808-1.2.086.036c.054.022.08.084.047.148-.09.141-.197.318-.296.516l-.543-.225c.092-.184.18-.36.28-.523.048-.057.17-.058.225-.035" fill="#006233"/><path d="m15.475 17.416-.097-.077c-.065-.05-.071-.138-.035-.212.145-.152.31-.36.483-.543l.632.498c-.184.193-.354.408-.47.553a.164.164 0 0 1-.217.014l-.083-.066-.213-.167Zm1.406-1.11.096.076a.13.13 0 0 1 .016.197 6.5 6.5 0 0 0-.535.503l-.632-.498c.173-.181.346-.363.522-.512.075-.043.236 0 .3.052" fill="#F7C608"/><path d="m15.6 17.32-.07-.057c-.046-.035-.051-.1-.014-.164.117-.123.26-.297.406-.45l.451.356c-.156.164-.3.338-.393.46-.05.052-.116.062-.167.022l-.058-.046-.155-.122Zm1.141-.939.071.056c.045.036.05.101 0 .154a6.42 6.42 0 0 0-.444.42l-.452-.356c.145-.152.285-.299.432-.43.063-.042.18-.011.226.024" fill="#006233"/><path d="m17.555 15.455-.069-.098c-.046-.065-.026-.15.032-.212.187-.11.41-.267.632-.397l.452.639c-.236.138-.467.3-.622.41a.162.162 0 0 1-.213-.042l-.06-.085-.152-.215Zm1.693-.704.069.098c.046.065.026.15-.046.193-.2.09-.432.206-.669.345l-.452-.64c.222-.13.445-.26.66-.357.085-.023.225.06.271.126" fill="#F7C608"/><path d="m17.698 15.4-.051-.072c-.032-.046-.017-.11.038-.161.151-.088.343-.219.53-.328l.322.456c-.2.118-.392.248-.52.341-.064.038-.13.03-.167-.022l-.042-.058-.11-.157Zm1.392-.613.051.072c.033.046.017.11-.047.148-.16.075-.356.17-.557.288l-.323-.456c.187-.11.366-.214.547-.302.074-.025.177.035.21.08" fill="#006233"/><path d="M20.161 14.113 20.125 14c-.024-.074.022-.151.097-.195.212-.057.475-.152.729-.22l.236.73c-.27.071-.541.168-.725.233-.081.022-.166-.02-.19-.094l-.031-.097-.08-.245Zm1.84-.25.036.112c.024.074-.022.151-.104.173-.22.034-.479.088-.749.16l-.236-.73c.254-.067.508-.135.744-.174.09 0 .198.117.222.191" fill="#F7C608"/><path d="m20.315 14.096-.026-.082c-.017-.052.018-.11.086-.145.172-.046.397-.122.61-.179l.168.521c-.23.061-.453.137-.604.194-.074.02-.135-.004-.154-.064l-.022-.067-.058-.178Zm1.526-.23.027.081c.017.052-.018.11-.092.13a7.309 7.309 0 0 0-.623.134l-.169-.52c.213-.058.418-.112.619-.15.078-.005.159.079.175.13" fill="#006233"/><path d="M23.069 13.49v-.115c0-.078.068-.14.153-.163.222 0 .503-.024.768-.024v.76c-.281 0-.571.024-.767.04-.085 0-.154-.063-.154-.14v-.357Zm1.842.24v.117c0 .077-.068.14-.153.14a7.484 7.484 0 0 0-.768-.04v-.76c.264 0 .529 0 .768.024.085.023.153.162.153.24" fill="#F7C608"/><path d="M23.23 13.514v-.085c0-.055.052-.101.128-.117.18 0 .418-.015.64-.015v.542c-.238 0-.477.016-.639.032-.077 0-.128-.039-.128-.101v-.256Zm1.528.17v.085c0 .054-.051.1-.128.101-.18-.015-.401-.03-.64-.03v-.543c.222 0 .435 0 .64.015.076.015.128.116.128.17" fill="#006233"/><path d="m25.865 13.62.035-.112c.024-.075.108-.117.197-.118.213.055.49.102.745.168l-.228.73c-.271-.069-.557-.119-.75-.153-.082-.02-.13-.097-.106-.172l.03-.097.077-.246Zm1.7.689-.035.112c-.023.075-.107.117-.19.096a7.287 7.287 0 0 0-.726-.228l.228-.731c.255.066.509.131.732.213.075.044.098.195.075.27" fill="#F7C608"/><path d="m26.006 13.68.026-.082c.016-.052.08-.084.158-.08.172.045.407.09.62.144l-.163.522a6.98 6.98 0 0 0-.625-.129c-.074-.019-.111-.069-.093-.128l.021-.067.056-.18Zm1.424.554-.026.082c-.017.052-.08.084-.154.065a7.204 7.204 0 0 0-.606-.189l.164-.522c.213.055.418.108.61.174.07.034.088.143.072.196" fill="#006233"/><path d="m28.695 14.512.068-.099c.046-.066.14-.085.225-.063.188.107.44.224.664.352l-.446.643c-.238-.136-.497-.257-.672-.34-.072-.04-.094-.126-.048-.192l.059-.085.15-.216Zm1.418 1.096-.069.099a.162.162 0 0 1-.212.043 6.822 6.822 0 0 0-.626-.405l.446-.643c.223.129.447.257.635.392.059.061.035.212-.01.278" fill="#F7C608"/><path d="m28.811 14.606.05-.072c.032-.046.103-.06.177-.037.151.087.362.19.55.297l-.318.46a6.656 6.656 0 0 0-.56-.284c-.065-.038-.085-.095-.049-.148l.041-.059.11-.157Zm1.199.888-.05.073c-.032.046-.102.06-.167.023-.143-.1-.321-.22-.523-.337l.318-.459c.188.108.368.211.532.323.056.05.04.16.008.207" fill="#006233"/><path d="m31.133 16.09.096-.077c.063-.051.16-.046.235-.003.147.151.352.328.527.508l-.627.503c-.186-.192-.397-.374-.54-.498a.13.13 0 0 1 .014-.197l.083-.066.212-.17Zm1.02 1.416-.096.076a.164.164 0 0 1-.217-.012 6.314 6.314 0 0 0-.476-.549l.627-.503c.175.18.35.36.489.54.037.073-.033.212-.097.263" fill="#F7C608"/><path d="m31.215 16.21.07-.056c.045-.036.117-.032.18.01.12.122.29.275.437.426l-.448.36a6.159 6.159 0 0 0-.449-.416c-.05-.053-.053-.113-.001-.154l.057-.046.154-.124Zm.875 1.16-.07.056c-.046.036-.118.032-.169-.02a6.266 6.266 0 0 0-.397-.457l.448-.359c.146.151.287.297.41.447.038.062-.011.164-.056.2" fill="#006233"/><path d="m32.983 18.226.116-.05c.077-.032.168-.002.227.058.094.183.236.405.348.622l-.757.322c-.12-.232-.265-.46-.364-.616-.036-.07-.003-.152.074-.185l.1-.043.256-.108Zm.548 1.616-.116.049c-.077.033-.168.003-.204-.067a5.887 5.887 0 0 0-.286-.649l.757-.322c.112.218.224.436.302.642.013.08-.097.196-.175.229" fill="#F7C608"/><path d="m33.029 18.369.085-.036c.054-.023.122 0 .17.056.076.148.192.338.286.52l-.54.23a5.677 5.677 0 0 0-.303-.514c-.032-.063-.015-.121.047-.148l.07-.03.185-.078Zm.476 1.33-.085.036c-.054.023-.122 0-.154-.063a5.8 5.8 0 0 0-.24-.54l.54-.23c.094.183.185.359.256.534.017.07-.062.154-.116.177" fill="#006233"/><path d="m34.107 20.75.127-.017c.084-.012.162.04.2.113.034.2.101.449.141.686l-.826.115c-.043-.253-.112-.51-.158-.684-.013-.077.044-.147.128-.159l.11-.015.278-.039Zm.017 1.692-.126.018c-.084.012-.162-.04-.175-.117a5.668 5.668 0 0 0-.074-.696l.826-.115c.04.238.08.476.091.694-.012.08-.154.162-.238.174" fill="#F7C608"/><path d="m34.098 20.9.093-.012c.06-.009.117.03.146.097.027.161.08.373.113.573l-.59.082a5.396 5.396 0 0 0-.13-.57c-.012-.07.023-.121.09-.13l.076-.011.202-.028Zm.046 1.399-.093.012a.115.115 0 0 1-.129-.1 5.614 5.614 0 0 0-.063-.579l.59-.082c.034.2.066.39.08.577-.005.072-.107.133-.166.141" fill="#006233"/><path d="m34.392 23.464.127.015c.084.01.142.08.157.16-.03.2-.042.457-.078.695l-.828-.101c.038-.254.05-.518.06-.697.012-.077.088-.13.173-.12l.11.014.279.034Zm-.508 1.628-.127-.016c-.084-.01-.143-.08-.131-.157.054-.197.107-.433.144-.686l.828.101c-.035.238-.07.477-.127.689-.037.073-.198.116-.283.106" fill="#F7C608"/><path d="m34.346 23.599.093.011c.06.008.103.06.11.131-.024.162-.04.379-.069.579l-.591-.073a5.31 5.31 0 0 0 .051-.58c.01-.07.06-.11.127-.102l.076.01.203.024Zm-.39 1.36-.094-.01c-.059-.008-.103-.06-.093-.13.041-.159.088-.357.12-.572l.591.073c-.03.2-.058.392-.102.574-.027.067-.144.1-.203.093" fill="#006233"/><path d="m33.831 26.138.117.048c.078.031.112.113.101.194-.09.184-.181.427-.289.646l-.764-.309c.115-.234.21-.484.274-.653.035-.071.125-.102.203-.07l.101.04.257.104Zm-.991 1.432-.117-.047c-.078-.031-.113-.113-.078-.184.114-.175.237-.388.351-.622l.764.31c-.108.22-.215.439-.336.627-.058.062-.226.062-.304.03" fill="#F7C608"/><path d="m33.745 26.256.086.035c.054.022.08.084.065.154-.073.149-.155.353-.245.537l-.546-.22c.098-.199.18-.404.23-.544.03-.064.09-.091.153-.066l.07.029.187.075Zm-.796 1.206-.086-.035c-.054-.022-.08-.083-.05-.147.09-.142.195-.32.292-.519l.546.221c-.09.184-.177.362-.276.525-.047.058-.17.06-.224.037" fill="#006233"/><path d="m32.462 28.557.098.075c.065.05.073.138.037.212-.144.154-.307.364-.478.547l-.637-.493c.183-.195.351-.41.465-.556a.164.164 0 0 1 .217-.016l.084.065.215.166Zm-1.388 1.125-.098-.075a.13.13 0 0 1-.017-.197c.163-.139.348-.312.53-.507l.637.493c-.172.183-.343.366-.517.516-.075.044-.236.001-.301-.05" fill="#F7C608"/><path d="m32.338 28.654.072.055c.045.035.05.101.014.164-.116.124-.258.3-.401.453l-.455-.352c.154-.165.296-.34.388-.463.05-.053.116-.063.168-.023l.058.045.156.12Zm-1.138.953-.071-.056c-.046-.035-.051-.1-.002-.153.13-.114.286-.258.44-.424l.456.352c-.144.154-.282.302-.428.433-.063.043-.18.014-.226-.022" fill="#006233"/><path d="m30.4 30.534.07.098c.046.064.026.15-.03.212-.186.11-.408.27-.629.402l-.458-.635c.235-.14.464-.304.618-.415a.162.162 0 0 1 .213.04l.06.084.155.214Zm-1.682.724-.07-.097c-.047-.065-.027-.15.044-.193.2-.091.43-.21.666-.35l.458.635c-.221.132-.442.264-.656.363-.085.023-.227-.06-.273-.124" fill="#F7C608"/><path d="m30.257 30.591.051.072c.033.045.018.11-.037.16-.15.09-.34.222-.525.333l-.328-.454c.2-.12.39-.251.517-.345.064-.038.13-.031.168.02l.042.059.112.155Zm-1.387.623-.051-.071c-.033-.046-.018-.11.046-.148.159-.076.354-.174.553-.293l.328.454c-.186.11-.364.217-.544.306-.074.025-.178-.034-.21-.08" fill="#006233"/><path d="m27.808 31.902.037.11c.025.075-.02.152-.095.197-.212.059-.474.156-.727.225l-.243-.727c.27-.074.54-.173.722-.24.082-.022.167.02.192.093l.032.097.082.245Zm-1.84.256-.037-.11c-.025-.075.02-.153.102-.175.22-.036.478-.091.747-.166l.243.727c-.253.07-.506.14-.742.181-.089 0-.199-.115-.224-.19" fill="#F7C608"/><path d="m27.653 31.92.028.082c.017.052-.017.11-.086.145-.171.047-.394.125-.607.184l-.173-.52c.228-.063.452-.14.602-.198.073-.02.135.003.155.062l.022.067.06.178Zm-1.523.242-.027-.081c-.018-.052.016-.11.09-.13.176-.033.393-.077.622-.14l.173.52c-.212.058-.416.115-.617.154-.078.005-.16-.078-.177-.13" fill="#006233"/><path d="m24.902 32.55.002.117c0 .077-.067.14-.152.164-.222.002-.503.027-.767.03l-.008-.76c.281-.003.57-.028.767-.045.085-.001.154.06.155.138v.1l.003.257Zm-1.844-.224-.001-.117c-.001-.077.066-.14.152-.14.222.02.486.034.768.032l.008.76a8.175 8.175 0 0 1-.768-.017c-.086-.023-.155-.162-.156-.24" fill="#F7C608"/><path d="M24.749 32.529v.085c.001.054-.05.101-.126.117-.18.002-.418.02-.64.021l-.005-.543c.239-.002.477-.02.64-.036.076 0 .128.038.128.1v.07l.003.185Zm-1.537-.158-.001-.085c0-.055.05-.102.127-.102.18.014.401.027.64.025l.005.543a8.607 8.607 0 0 1-.64-.01c-.076-.015-.128-.115-.129-.17" fill="#006233"/></svg>
