<svg width="48" height="48" viewBox="0 0 48 48" fill="none" xmlns="http://www.w3.org/2000/svg">
<g clip-path="url(#clip0)">
<path d="M24 48.001C37.2548 48.001 48 37.2558 48 24.001C48 10.7461 37.2548 0.000976562 24 0.000976562C10.7452 0.000976562 0 10.7461 0 24.001C0 37.2558 10.7452 48.001 24 48.001Z" fill="#6DA544"/>
<path d="M23.9999 9.3925L43.826 24.0012L23.9999 38.6099L4.17383 24.0012L23.9999 9.3925Z" fill="#FFDA44"/>
<path d="M24.0001 32.3487C28.6105 32.3487 32.3479 28.6113 32.3479 24.0009C32.3479 19.3906 28.6105 15.6531 24.0001 15.6531C19.3898 15.6531 15.6523 19.3906 15.6523 24.0009C15.6523 28.6113 19.3898 32.3487 24.0001 32.3487Z" fill="#F0F0F0"/>
<path d="M19.8265 23.4794C18.3749 23.4794 16.974 23.7002 15.6553 24.1098C15.7137 28.6698 19.4266 32.349 24.0004 32.349C26.8287 32.349 29.3265 30.9411 30.8366 28.7895C28.2531 25.5554 24.278 23.4794 19.8265 23.4794Z" fill="#0052B4"/>
<path d="M32.1943 25.6003C32.2948 25.0824 32.349 24.5481 32.349 24.0009C32.349 19.3905 28.6116 15.6531 24.0013 15.6531C20.5612 15.6531 17.6081 17.7345 16.3301 20.7062C17.4598 20.4721 18.6294 20.3488 19.8274 20.3488C24.6759 20.3487 29.0621 22.3641 32.1943 25.6003Z" fill="#0052B4"/>
</g>
<defs>
<clipPath id="clip0">
<rect width="48" height="48" fill="white" transform="translate(0 0.000976562)"/>
</clipPath>
</defs>
</svg>
