<svg width="48" height="49" viewBox="0 0 48 49" fill="none" xmlns="http://www.w3.org/2000/svg">
<g clip-path="url(#clip0)">
<path d="M24 48.0137C37.2548 48.0137 48 37.2685 48 24.0137C48 10.7588 37.2548 0.0136719 24 0.0136719C10.7452 0.0136719 0 10.7588 0 24.0137C0 37.2685 10.7452 48.0137 24 48.0137Z" fill="#F0F0F0"/>
<path d="M46.5072 32.3614C47.472 29.7614 48 26.9493 48 24.0136C48 21.0779 47.472 18.2658 46.5072 15.6658H1.49278C0.528094 18.2658 0 21.0779 0 24.0136C0 26.9493 0.528094 29.7614 1.49278 32.3614L24 34.4484L46.5072 32.3614Z" fill="#0052B4"/>
<path d="M23.9994 48.0137C34.3186 48.0137 43.1156 41.5007 46.5066 32.3615H1.49219C4.88322 41.5007 13.6802 48.0137 23.9994 48.0137Z" fill="#D80027"/>
</g>
<defs>
<clipPath id="clip0">
<rect width="48" height="48" fill="white" transform="translate(0 0.0136719)"/>
</clipPath>
</defs>
</svg>
