<svg width="48" height="49" fill="none" xmlns="http://www.w3.org/2000/svg"><g clip-path="url(#a)"><path d="M24 48.888c13.255 0 24-10.745 24-24s-10.745-24-24-24-24 10.745-24 24c0 13.254 10.745 24 24 24Z" fill="#F0F0F0"/><path d="M48 24.888C48 14.57 41.487 5.772 32.348 2.381v45.014C41.487 44.005 48 35.207 48 24.888Z" fill="#D80027"/><path d="M0 24.888c0 10.32 6.513 19.116 15.652 22.507V2.381C6.513 5.77 0 14.569 0 24.888Z" fill="#6DA544"/></g><defs><clipPath id="a"><path fill="#fff" transform="translate(0 .888)" d="M0 0h48v48H0z"/></clipPath></defs></svg>
