<svg width="48" height="49" viewBox="0 0 48 49" fill="none" xmlns="http://www.w3.org/2000/svg">
<g clip-path="url(#clip0_7680_6117)">
<path d="M24 48.4688C37.2548 48.4688 48 37.7236 48 24.4688C48 11.2139 37.2548 0.46875 24 0.46875C10.7452 0.46875 0 11.2139 0 24.4688C0 37.7236 10.7452 48.4688 24 48.4688Z" fill="#D80027"/>
<path d="M23.0155 20.0801L24.9847 22.7937L28.1738 21.7596L26.2015 24.4709L28.1704 27.1844L24.9824 26.1464L23.0102 28.8576L23.0123 25.505L19.8242 24.467L23.0134 23.433L23.0155 20.0801Z" fill="#F0F0F0"/>
<path d="M17.642 31.2516C13.8961 31.2516 10.8594 28.2148 10.8594 24.469C10.8594 20.7231 13.8961 17.6863 17.642 17.6863C18.81 17.6863 19.9089 17.9818 20.8683 18.5016C19.3632 17.0295 17.3047 16.1211 15.0333 16.1211C10.4229 16.1211 6.68555 19.8585 6.68555 24.4689C6.68555 29.0792 10.423 32.8167 15.0333 32.8167C17.3049 32.8167 19.3633 31.9081 20.8683 30.4362C19.9089 30.9562 18.81 31.2516 17.642 31.2516Z" fill="#F0F0F0"/>
</g>
<defs>
<clipPath id="clip0_7680_6117">
<rect width="48" height="48" fill="white" transform="translate(0 0.46875)"/>
</clipPath>
</defs>
</svg>
