<svg width="48" height="49" fill="none" xmlns="http://www.w3.org/2000/svg"><g clip-path="url(#a)"><path d="M24 48.469c13.255 0 24-10.745 24-24s-10.745-24-24-24-24 10.745-24 24 10.745 24 24 24Z" fill="#F0F0F0"/><path d="M46.507 16.122H1.493A23.947 23.947 0 0 0 0 24.469c0 2.936.528 5.748 1.493 8.348h45.014A23.947 23.947 0 0 0 48 24.47c0-2.935-.528-5.747-1.493-8.347Z" fill="#0052B4"/><path d="M24 .469c-7.274 0-13.792 3.236-18.193 8.348h36.386C37.792 3.705 31.274.469 24 .469ZM42.193 40.122H5.807c4.4 5.11 10.919 8.347 18.193 8.347 7.274 0 13.792-3.236 18.193-8.347Z" fill="#D80027"/></g><defs><clipPath id="a"><path fill="#fff" transform="translate(0 .469)" d="M0 0h48v48H0z"/></clipPath></defs></svg>
