<svg width="48" height="49" fill="none" xmlns="http://www.w3.org/2000/svg"><g clip-path="url(#a)"><path d="M1.492 32.385C4.883 41.524 13.68 48.037 24 48.037c10.32 0 19.117-6.513 22.508-15.652l-22.508-2.087-22.507 2.087Z" fill="#FFDA44"/><path d="M24 .037C13.68.037 4.882 6.55 1.491 15.69L24 17.776l22.508-2.087C43.116 6.55 34.319.037 23.999.037Z" fill="#000"/><path d="M1.493 15.69A23.948 23.948 0 0 0 0 24.038c0 2.935.528 5.747 1.493 8.347h45.014A23.948 23.948 0 0 0 48 24.038c0-2.936-.528-5.748-1.493-8.348H1.493Z" fill="#D80027"/></g><defs><clipPath id="a"><path fill="#fff" transform="translate(0 .037)" d="M0 0h48v48H0z"/></clipPath></defs></svg>
