<svg xmlns="http://www.w3.org/2000/svg" viewBox="0 0 24 24"><path d="M22.679 12.089L9.103 6.87a1.742 1.742 0 00-2.249 2.249l5.219 13.577c.257.667.91 1.116 1.627 1.116a1.736 1.736 0 001.624-1.119l2.03-5.317 5.324-2.036c.23-.088.434-.221.608-.395.329-.329.51-.765.51-1.228 0-.717-.448-1.371-1.117-1.628zm-2.567 1.623l-4.354 1.666a.698.698 0 00-.402.402l-1.661 4.348L9.689 9.705l10.423 4.007zm-7.846-6.849c.237.238.552.369.887.37h.002c.334 0 .65-.13.887-.367L16.2 4.715c.489-.489.49-1.285.002-1.775a1.248 1.248 0 00-.888-.369h-.001c-.334 0-.65.13-.886.367L12.27 5.087a1.257 1.257 0 00-.004 1.776zM8.929 5.576c.191.111.408.169.626.169h.004c.334 0 .648-.129.885-.365.238-.237.369-.552.369-.887l.005-3.046c0-.335-.129-.651-.366-.888s-.551-.37-.887-.371h-.002a1.252 1.252 0 00-1.255 1.253l-.006 3.046c0 .447.239.865.627 1.089zM5.072 6.868a1.262 1.262 0 001.213.326 1.26 1.26 0 00.932-1.211c0-.335-.13-.651-.367-.888L4.701 2.938a1.25 1.25 0 00-.888-.37h-.002c-.335 0-.649.13-.886.366a1.25 1.25 0 00-.003 1.776l2.15 2.158zm-.598 3.967c.445 0 .861-.239 1.086-.625l.001-.003c.109-.189.167-.405.168-.626 0-.335-.129-.651-.367-.888a1.245 1.245 0 00-.886-.369L1.43 8.319h-.004c-.334 0-.648.129-.885.365a1.257 1.257 0 00.885 2.145l3.045.005.003.001zm2.38 1.454c-.237-.238-.583-.396-.889-.369-.334 0-.649.13-.886.366l-2.157 2.15a1.248 1.248 0 00-.369.889c0 .334.13.65.366.886.237.238.553.369.888.37h.002c.334 0 .649-.13.886-.366l2.155-2.149a1.259 1.259 0 00.004-1.777z" fill="#393aa7"/></svg>