<svg xmlns="http://www.w3.org/2000/svg" viewBox="497.7 139 680.6 513"><path d="M1000.3 337.4c-12.5-8.7-25.9-15.8-39.8-21.3 20.5-18.6 33.4-45.5 33.4-75.3 0-56.1-45.7-101.8-101.8-101.8-56.1 0-101.8 45.7-101.8 101.8 0 29.7 12.8 56.5 33.1 75.1-2.8 1.1-5.5 2.2-8.3 3.4-12.5 5.5-24.2 12.2-35.2 20.2-15.1-37.4-51.7-63.9-94.5-63.9-56.1 0-101.8 45.7-101.8 101.8 0 29.6 12.7 56.3 33 74.9-54.1 20.3-98.1 63.9-115.9 119.4-5.9 18.4-2.8 38 8.6 53.6 11.4 15.6 29 24.6 48.4 24.6h81.7c11 0 20-8.9 20-20s-8.9-20-20-20h-81.7c-6.5 0-12.3-3-16.1-8.2-3.8-5.2-4.9-11.7-2.9-17.9 19.7-61.3 79.9-104.2 146.3-104.2 30.9 0 60.6 9.3 85.8 26.9 9 6.3 21.5 4.1 27.8-5 6.3-9 4.1-21.5-5-27.8-12.5-8.7-25.9-15.8-39.8-21.3 18.6-16.9 30.9-40.6 33.1-67 28.2-27.4 65.1-42.5 104.7-42.5 30.9 0 60.6 9.3 85.8 26.9 9 6.3 21.5 4.1 27.8-5 6.3-8.7 4.1-21.1-4.9-27.4zM685.4 439.3c-34.1 0-61.9-27.8-61.9-61.9s27.8-61.9 61.9-61.9 61.9 27.8 61.9 61.9-27.8 61.9-61.9 61.9zM892 302.7c-34.1 0-61.9-27.8-61.9-61.9s27.8-61.9 61.9-61.9c34.1 0 61.9 27.8 61.9 61.9s-27.8 61.9-61.9 61.9zm286.3 54c.2-6.2-2.1-12.1-6.5-16.5-4.3-4.3-10.3-6.7-16.5-6.5h-96.1c-12.3 0-22.2 10-22.2 22.2s10 22.2 22.2 22.2h43.1L962.2 518.3l-40-37.4c-4.2-4.1-9.7-6.4-15.6-6.4s-11.5 2.3-15.7 6.5L757.4 614c-8.7 8.7-8.7 22.8 0 31.5 4.2 4.2 9.8 6.5 15.7 6.5 5.9 0 11.5-2.3 15.7-6.5l117.8-117.4 40.1 37.4c8.7 8.6 22.7 8.6 31.4-.1l155.7-155.7v37.6c0 12.3 10 22.2 22.2 22.2 12.3 0 22.2-10 22.2-22.2v-89.7c.1-.4.1-.6.1-.9z" fill="#2975cf"/></svg>